<mxfile host="app.diagrams.net" modified="2023-12-27T10:50:09.425Z" agent="Mozilla/5.0 (Windows NT 10.0; Win64; x64) AppleWebKit/537.36 (KHTML, like Gecko) Chrome/120.0.0.0 Safari/537.36" etag="uBKrCTaFx2p5lu-pRaFL" version="22.1.12" type="github">
  <diagram name="페이지-1" id="V75MZN80yoQ25PsfyMXv">
    <mxGraphModel dx="1628" dy="930" grid="1" gridSize="10" guides="1" tooltips="1" connect="1" arrows="1" fold="1" page="1" pageScale="1" pageWidth="827" pageHeight="1169" math="0" shadow="0">
      <root>
        <mxCell id="0" />
        <mxCell id="1" parent="0" />
        <mxCell id="_4vHy40W_RmtieLl1t3o-8" value="" style="rounded=0;whiteSpace=wrap;html=1;" vertex="1" parent="1">
          <mxGeometry x="170" y="960" width="960" height="720" as="geometry" />
        </mxCell>
        <mxCell id="_4vHy40W_RmtieLl1t3o-1" value="" style="shape=image;verticalLabelPosition=bottom;labelBackgroundColor=default;verticalAlign=top;aspect=fixed;imageAspect=0;image=data:image/png,iVBORw0KGgoAAAANSUhEUgAABLwAAAMnCAYAAAA02Us0AAAAAXNSR0IArs4c6QAAAARnQU1BAACxjwv8YQUAAAAJcEhZcwAADsMAAA7DAcdvqGQAAP+lSURBVHhe7N0FmBRX2j/sX9u4C+6DOwQnuMVDDEIMQgyChkBCgrtbgODu7jrCDAzjMO7u7jPt3ec7Vd0DJLvvf7/ssu/yss+dqzfTp08fr96rntSpkjAOhBBCCCGEEEIIIYS8JKTmfxNCCCGEEEIIIYQQ8lKggBchhBBCCCGEEEIIealQwIsQQgghhBBCCCGEvFQo4EUIIYQQQgghhBBCXioU8CKEEEIIIYQQQgghLxUKeBFCCCGEEEIIIYSQlwoFvAghhBBCCCGEEELIS4UCXoQQQgghhBBCCCHkpUIBL0IIIYQQQgghhBDyUqGAFyGEEEIIIYQQQgh5qVDAixBCCCGEEEIIIYS8VCjgRQghhBBCCCGEEEJeKhTwIoQQQgghhBBCCCEvFQp4EUIIIYQQQgghhJCXCgW8CCGEEEIIIYQQQshLhQJehBBCCCGEEEIIIeSlQgEvQgghhBBCCCGEEPJSoYAXIYQQQgghhBBCCHmpUMCLEEIIIYQQQgghhLxUJIwz/00IIYQQQgghz43RaDT/RQghhPx1EolEfP0zKOBFCCGEEEIIee5qampw/PhxpKSk/NMnK4QQQv57SaVSjBo1CiNHjjSn/DUU8CKEEEIIIYQ8d0LAa9y4cXjvvffQpEkTcyohhBDyjwmhqri4OOh0Ovzyyy/m1L+GAl6EEEIIIYSQ504IeE2YMAFr165Fp06dzKmEEELIPyaEqvz8/BAaGop58+aZU/8aumk9IYQQQggh5N+G/vs6IYSQf8a/+v8fFPAihBBCCCGEEEIIIS8VCngRQgghhBBCCCGEkJcKBbwIIYQQQgghhBBCyEuFblpPCCGEEEIIee7qblq/Zs0adO7c2Zz6FGNG6Iw68ztC/rMUMgtI+D+EkBeDEKry9fVFWFjYP33Tegp4EUIIIYQQQp67fxTwKqkpgG/iVchlFmD8H0L+E4QgV7W6Ah++8g2sFbbmVELIfxoFvAghhBBCCCEvpH8U8CquzsP95Fto5NwacpncnErI/yYJdHoNwjP9MGnAj7C1tDenE0L+0yjgRQghhBBCCHkh/f8NeHnU7w4LuZU5lZD/PcLVXSpdLYJTbuGL/j9QwIuQF8jzCHjRTesJIYQQQgghhBBCyEuFAl6EEEIIIYQQQggh5KVCAS9CCCGEEEIIIYQQ8lKhgBchhBBCCCHkv4NECoVCwU+C/nQbY54ut7SAhfCysIBCKoGU55PJpJDJLSDj758HiVQGOS9TKpNDIX96KiaVK8S6FRZy1NUk5fXKZf+oXsbLNJUllcshf6bMOqbPZeZ3f4EwVs+0599JGJc/tFGYDwvF/0rdhJCXFwW8CCGEEEIIIS8xI7QqFWprldBnPMS8qfPgnyOFir9XKrUwSuTQF4djxZjxmPDW5/jkoyn49W4qbi2Yh/PXAnBrxWc47ZMLw5+CT3qtFjq90fzu72HQaTRQivUoodGoke93EltOhuLu4TX4bncM9BIJJJoq+Oz4CR+NmYCvPt6GxEoGiUGD4N+/wI7j8dBaPhMIYgwGrcpUZq0KeqMcWfd34JuNfvD+bSU27fAyBcmMeqh5nSq1CglXtmLG6sso5fmVNbwdf26z0SDmFcpUKc1lq3XQ5z7G1+N/Q0KlEXXxPr2W96emViznyUul4e342+egMbEN5rxKNf/bVH8t/75Ob8ov4f2XyWQoCz2DJTuOiX/LZHLoCh5h62c/IL5cxvOIWQkh5C+jgBchhBBCCCHkJSWBBSvApWUrMfvbeZi54ChKispwdP40zP12Dhb9fBr5egWgrUZhegEGjfscX331Mb7rXR+l6akIux+IwIfxKCxX/+GaMJm+BjtmTMCiAw+h+HtnVBIprFU5WDXla3w2YTq+HvIm3v7pOIyVhcjKr0RZXjric2rA5FI8Pr0RW8O6YPPpg/hhbA02/3QUOVopKnOikZ1fC/bM1WVGdSlOz38DE8ZOwXfvjcOE79YhMa8IcZnlKMtKR2ZOGaRCEK04EtuXLsKM8Z/g69kH4bljOd559QvMnjEfZyOqzaWZsMJwbFs4H9M++RLv9BuLiROm4pfFO5GYX4X46GzU6pn5SisD4i+dwJKv5mDu1Hmm17ez8NHbH+OAX64QvRJz1VFn+mL7L1Mxc/JMTBw9FmMGjsOMr2ZhxqQZuPyomJ+JSlGVlwx/nwd44MvHmY/1A+/78A1LQll1JbJiE1GrE56jSAgh/xwKeBFCCCGEEEJeUgxaSWN8vOpnfPdmB3Ts2glde3ZG567t0eGtiVi2fSKaKnQQLlBiei2yEhOQGJ+MGp1M3CJYnJWB3EqFGER6VnV2FOIishDhGYw0lex/CMoYUKtsiWl792LlF4PgpNTwfBJTWRIp/zd/SdVIT0+F67tD0dRejmb9+qNhQSwKKvRi/OjP9YIZobGW470Vm7F96bvQabTCpkYx2CQRy+R/Mx3iHufC0a01eg8Yi++mTcfsn6Zh+qQJGNSlPZQPA1GoZk9OBCWN+mDR73ux/9B8NH+lO345eAC7t/+Czu5ia5/2jY+RxtkNzXt1RccufCzFV3s0cNBDb+Af/qmp1q3G4NfdZ3Hk7EYMbyWD2rYJvti8B6dunMCE/vV5exlUJdmIehSJXGl7vNevKyIfRyE8MQs1Gt4+6TN1E0LIP4ECXoQQQgghhJCXlkRhieRbZ7B0nw2GTxiL9z9+Hx98PhrO1/bg4I108T5dQjTH0t4J7379Lb6a8ik8bDUw6HR45bU3MLSDRgyICXmEfxcFHsf7kzagx5qLWPZaHr54/VMEpFbDaDT+TdBH+I5Oq4FWbwATg1e8DL0eBoNRDPgYDTZo17YDCo/dQHq1Hmk+3shq0hNNXRRCfAmMiRX/EU/T87ZpdQZzgkTcPqjnZZpI0bR3P7zx0dt4+/N38NGMiZg05TO89+UwjHr/Lbz5Xi84yoWWmDEjL0+N2rI8VN0uQ0FpLS/bFAQEM0Cn0YkBLYnRgKBrZ5Cgro9PvvwY4yeOx/jJX2Dt3mOYPKQxzIP0hEGvQ0WSH37oNQHVby7H9VOfw/fDz7H1RgKUWj3vO0P9LkPx1TAHXDlzAWeOnseNS2V4460RaOEke9o+Qgj5J1HAixBCCCGEEPKSkkCIZ7V/40PM/TAL17dsxKQPv8LajVeRMehTTHyzDWQynsemHtr264wL6xZjwZw12L4tElUaLXRaPXRqLYwGI5i6HJ57fsTWQCccuXkK341ojn5fr8eVUwsRe2QF1l2JhPXfuWn8H0h1iLpzBlfvZYpbIZlBj84f/oClH+uwb8lKXIrvgMXrxqO+gqFxrw/Qu5s7ZE8CWX+fhAHKsMu4fD8OSgsFjNpa3Dq5E3v3HMXR3Xuw6LOPMWrUt1i3fg8OHTiGfTv3wCel4ukN8ZkEUmMVIg5fR5FLAnz8k8Sr2wQ6bRz2LtiCG/5ZYjDPaDAgNyUJIX4P8cDLH4EPQxBw9wFiEopg5OU8wRiCrx7Fqi3pmBZwCV91liOhpAkWe/2GJtl3sOJnTxQZpGBl0Zj/+S58tfMMHjy8hl9fv4qDe0NQa/m/c7N8QsjLjQJehBBCCCGEkJeShKkRfuoINizai/Aqd9jbWUICAyztHeFYGYPdi9biyOlH0Lp0xrQDm7F593ps2LEcc3/th8GTvsbAvu3R67OfMbi7G+SWrnj7h93YuuB9NLSzhngNkkQBxwYdMH3jTqz4uDdU2j8Fp5hRvFJMuPpKvFjLaIFe703G+Nc9oDVfoCWxtkH7br3QdsDrWLjhc7RykIpXg1lYO8DaSsbLMOV7ygijUKbOYLoKTMJgN+ATfDK6G2y1WkitHPDFwqX4pHsrWNvbwcZKCoPCEnYOVrC17YkZm5djbGdX6IRtiJzUogYBO3fh9xtGzN01D9Z3TmHvrUQYpBIoLLvjx9+X4KORrcS+jp48FR1VD7FwbwhKq3Nwd9l6nA/Mh0bDO/NshIq3f8j4Kdi6bxI8rBTIvngUy/bdB7Nzx3vf/YBNu99BQzkDs2mEvv0YvPZvxYoVG3AhVAGPDo1gxdv2N90mhJC/iAJehBBCCCGEkJcSk1iiy/vjMXvlPMz8aQq+XbIaNwNvYc2iyZg6bybmLf8R48d2hjXTQ1ddiss/fIu+DTqiY8PemPD1Akx87T18PPEAAmPLYJAYoa6uQnWNCjq9HvonLy1qhXSlVrhY6hnCEwfj8cvgIfhky02U2FqKqcKTDrW6p4ExYWtjVcpjnLkYgOLyWuh0vEyNCqn3D+FBSCEMz141JpHCqroaOz5/G69N3AMLC4UYZxLuPyZscRSDRIxBVSVBu4/GYfqcqVh08CR8bv+OOV+8ipzgx8isqoX2mavGSgP2YvflGqyMPYC3Br+LpYdmofDKYpyJrOJtE57gqBLLNjIjOvR7FSMHtIRdz9H4fMZ4DGrRAL3fex+DXmnA6/1jsE+jqkV1Ja9L2M4pk8NKIYGB901VW4PqKhUMRiOYwhnv73mAxe+7IM5oiQ3n72PSmIYwavTmUggh5J8nYX93YzghhBBCCCGE/PNqamowYcIErFmzBp07dzanPlVcnYf7ybfgUb87LORW5tTnT6KwQdL5NZi4KA0fTWwPS372I5HrkHL1Dtxm7sDiD1tBpzedEhkNwv21hAziWxhrcnB09nhoxp7BF/2qcX7nTRTLZX/nqgEjLO3a4/0fPkQTmc6cxmDQC4EioWwJZBIDcm/uwfb0LuiluYB9qom4sbQPrGUGZN86hO+X+OLVd/rCRi7h7dAh/cEp2I7chQW/9IGlqi4AJNz3i5dpNF0BpbCy5/34EV9798NMy5sIkI/Ab2s+gtGiFKfenokrDfpgYDOF+V5get6Wdvhwzig0EIJopi7zz4xieTKZsI3R1HfhdmQs8wFGjr2Nzd4r8IqzChFnduBOolQsS9hGCSlvp7lvwu3J2r49Ee+8Uk8cG2aowq39+xCZa4Sc5xNbK+TlGcWh5XUNef9dVIbfRURKjfiZ8I9wo3q93oiOXRvg4ebLGH/lKnrVF9otfOn5E1qj0tUiOOUWvuj/A2wt7c2fEEL+04TfGl9fX4SFhWHevHnm1L+GAl6EEEIIIYSQ5+6FCXjJrZF0YS2+WRqLoW+2MgW8ZDpk+Qej6aztWPx+qyfb+/5MCHgdn/s51G8cwlcftoGtQvE/bpFhzACNUg2jKaTzNyRMh+xb+7A7sxN6qi/joOozXFrQC1YyA3LuHsPcpZ5oPbAjf2+6CX1exAM0eGsd5v3Y+5mA1x9JFTZIufYrZvv2xGSL2wiWD8fG5e+BWZTi9DuzcNauLXo0kIuxJoFEasTgyT9hYEsL/u7/cRookYFlPcDrn9zBuiuL0dNVDomFNZ8n8+d/h16jhlZfd5WXsCXTSgx2/X0MWo0WUrnF03uJ1eF116bexaLxW/HBuQvoWU//pP3PGwW8CHlxUcCLEEIIIYQQ8kJ6UQJeT/DTnj+c+NRdbfTC4O17toHPoX1//1SPl/tidfw/hgJehLy4nkfA63/6DxSEEEIIIYQQ8vIQAkjPvszJL47n374/lPfkZf6QEEJechTwIoQQQgghhBBCCCEvFQp4EUIIIYQQQgghhJCXCgW8CCGEEEIIIYQQQshLhQJehBBCCCGEkP8YyQt4Ny1CCCH/91HAixBCCCGEEPIfIZFIYWRG/jLQi17/gZe+biWa/00IeZlI2N9/Vi0hhBBCCCGE/NNqamowYcIErFmzBp07dzanPlVck49b0adhIbeCRCIzpxLyv42hpCYPXw6YCxsLe3MaIeQ/TQhV+fr6IiwsDPPmzTOn/jUU8CKEEEIIIYQ8d/8o4MX4P0ajwfyOkP8smVRu/osQ8iJ4HgEv2tJICCGEEEII+V8n3LtLCDLQi14vwosQ8vKhgBchhBBCCCGEEEIIealQwIsQQgghhBBCCCGEvFQo4EUIIYQQQgghhBBCXioU8CKEEEIIIYQQQgghLxXZUs78NyGEEEIIIYQ8F1qtFhcuXMDIkSNRr149c+pfpypPQ4bSEi42CkjMac+PAZWlFdAxGRRSLcoqSiGzsIPcfFmAsiIfqeUSuNpb/IW6jSjPS0GVzBl2in+txfqaHGSUq+BsZ2dO4aVrq5BeXAobCzmKC/LA5AoUJhbAwtWB9+Gfq8+o16AkOxF6a3dYyf+HMpgRZeX5kCjsn4yPpjIfGRXg7bP85+eGl1tengumENpvTvt/0FYVoqC8GvZ29k/qNOpqkV9YBAsbhydt+0eMejXK0qoht9ciNioGpTVSOLnaQcY/KyjNR43RGnYWUuhVxUhJjENqRi5yc02vsioJr9+IhNg4ZGZli2l5hcVwcm8ACykTGoTclEeITzXC1d0eCpkEmuJwlBpdYGdpukF+aWEGomISUVKmgHt9O/FKFCUfz8eRccjOYTyNjzNvjK4kGo9jiiG1dIS9jRxG3p6cCiWsrWwhE/tqQHZEBOKzcyBzrAd7C/4lowHFMVGIyciC3sIeDrZ8fvS1iONp+aVGOLs7iP0sLc9Dic4KjpYyGDQVyEiORnJ6XT9zUFJugIOrLYoT45GUnoEcIT0vHxo7Nzhb8RKYHkUZjxCZoIGLmwMs+ATqymJRpLWDvZVCaBx0/JhKjohCRlEJ7Pj4WPI2a2oK8Sg8Fjk5NbB3c+Jrjicqc3nfU6E0WMPJ0QoSQy2Si8phYWEDSz5+grLMaF5XJmrkTnC2teBjUYKk+DikZ+aI7S0s0cGpgTOEmnW15Uh8HIkSuQPPa8nHV4e8hBJInW34HPH5qMhFdGwSH2vhu6Y+q2V2fKysIJUwVCQnICY1DVnZNbB1dIQ1HyPeOcTGJqBI+E3ga0XKNCgry4OWf0/sA6ctT0J4TCqyahkcHR3E/orptWXISMqEtYvbk3WuK0/mefkcyZzgaKfgw6lEbkkJ5HzOFMIEcYyPQ0FGApQSZ9jyMf/DccZqkJ5eCRtnW7ysj13IyMhAXl4eBg4caE75ayjgRQghhBBCCHnunk/AiyH+3CeYHNURk3o2hkxiOt1jeYE4FVKCzq3qIe7EAWRaNkVjN1vxs79EW4J9py/xk+LmaCbJwLmbXnDv0AvOpnN1PLq8GuOu2uL7kS3+wtYYFc4vfQ9+Lp9hUFNzQf+ksge/YvLVVHw+eJA5BVBneWPirqPo27YRDmxaBmn9ptj0xma0//p1NLD+50571aWpOPzjCFR0n472bn+/DL2mCOfOnIJjx/5wNXcr484qfHZVgS+HefzTW4cM2gpcOL4Xlp2GoL6FOfH/IctrMzZdCMDIYSP4ejCl1eQHYf3W3WjR+024W5vS/pHakjDsXRgEgz4eB+/4ITg0CTUNO6Br/WrsX3MFhq5d0dpejoqI3/Hewh2oLFUhLTkRCQkJKFE7o7FFDLp9uhVyfRkykxIR47Ufnvku6PdKa1TE38WSPceQ5huM6AadMLChAXsWz4OmzSi0dreBsTIWG39ajHupZUgLjENmo9bo7lqGQ/N/xOnoUpQHhSHKvjl687b8vHIJYh4lwjPHgL7dPZAecA7XEnXo0qYlrGQGZHgtxI5DEUhL8MO2i+XoP6Qz9ElnsGHTdaSmB+PQhTi06tMD2oBb2HTRExGPY5Dh3AF9mqhxavlpFHTshi7OFqhJOodP5y9EZr4O2alJSEyMQ16ZNdp3tMbaAZ/hbmUVSnNTERfvg5OXEtHq1QGwLfDHfD7u2Q9DEWzfBsNaWuLk+kUorNcHHRo68VFW4+7+RThxJwPJwWdwM70ZxvSzxPnFW3AyJgU5PqdxL7MhBvVxwc2ft+JSbCjuPSpE6x6dIYsNxsZLcejYsx1cLWWoSTyA+euPISM/H48f3oBzuwGwyziC1xYegK68AimpqQi8egl+BfUwuFczhJ9diD03khB8IRZNeneFs/I+dvwWgzaDO8LJQoaMW8sxevEdWGqLkcTnNCEhHkbXtmjTxB6FYRexcdUZJBRkISH4AW6GGNF3RHPE/nYIR719ER4SC+vOr8CtJBnHlp6F87D+qM+PPVaZhg3bNyA4JhXeJ8+i3K49+rSrL663jAfb8PWCi2j36nA0d7XiQ1OEbbs34n5gLG4nVMCjSztIsh/ghF8a2rbvAHvzMVaVEoHNb3+G6La90L9t0ydrXgx0nl+PT6c9wLCpI+FqTn3Z/KsBr3/2d4kQQgghhBBC/u0k/IxFKjWiqrQQRcWV0DP+d6YvDt0MQmlVFSIO7cTDqCxodFpUKGtRW1GI/PxyqDUG/m0GdVUFigoKUFJaDgPjp4k8X01pDT9dBDRlWbBk8WjRwhVlRSlQOPRHYysDVBUFKCgog0YiXPllOsPUa6pQwE+2i8prealCuTVQqXXiZ0xXxetWgfHyeYshlcn5iZYSpQWFKKnRmtJ5u9W8bQW8LcUlNTDyRL2qCsrqKuQXl0KtZzDwOgr550UVtUJBkPD65TIp/57QnkpoeB6rRq9ix4x5aGzB65BKeR4JPwmWCZnF74iEstXlYl2FvCwjr19os6qqnJdfiIpqjfj+KaHNCrEIg16FkrIKaNQ1qFbWoKS4DEqtBrp8f+htB6GZdV0/SqHivZSbz8ANqhJT26tMbRfaYNBUim0QrsjSGYXglhIlQpuKiqAxGnkLjNCV3ke1xTC0tjVCUymUW4Kq6mqU12r5mPM28DEWxsqgq0WJUotGg77DT9NniFdyaZXVKOb9UfHCZXKJ2H6jToNyoc7CQmgMvA7hu8oiU9vK+bjzdghUifehfa8tSkuN+P6XlXi1py0C4wpQenM57F99HWMaWZky8sGT9X0TsxeswKpVq7B69WrMnDQEbnxNSrp8iJ+XrMBKnrZuxwlIM71wPqIC5SXpkI9aiiXfWONhZgXK4s+hYNAmDGxdTxgEFD3YjaS2n2Pv5mVYtHA4tL53kB92GtcsR2Pfbyuw/MBU2EfcQ1pRIU7ZfYvF89+FypiGsspSJKaF47Whw+AoBgcr4fX9NnSYOBXL161Gv7vLEZdXgZTzV2D3/ndYuXkt3in1RHh0FrL4Ovh81mq8O6oBfMJyUHVvE2p7vY4JLU2BYgkfJ2OXwZgy39TPVavWYu60N1FPpufz1AYTZ/+K5SuF/u/GNy1qcWmvP0oLU1DSfzHWzm6I0JxiVGd6I6vD1xjSoTkvUVhf6Yi4nYlxm1ZixapZsLj8GzLVbhj+3Szs37gS63dPhtrHH2l8bn1KW+PHBbPQzK0KOaWViEoJwui33kIbByHyUwOvH9ajxbAZWLt8NVa92xS7wnJhqeDrduA4LFu1GiuXL8fGLfNgmfIrHhSXoyzXBhO2LMHgjHS+FgrwOCgD/b8eimZ2pkgSU1ih+ZipWLF8pXle12D8q20gLw7H4Utb8Movy7Fm7Sqs3bUO/XX7cfxhNgLyrfHxl3Px0TArJJdokJ7mh7IxU9DF2VIsU5l+HZe0nbF65QZs+dQGN2ICxHSwQoSercXYb/vh4e0gVOh5kjIbd2UjsHzRt5BapCGloBhR3usxaNhbaGhj+pogNskPMe/PRmRgMHJqTL83AkN1Du4+CkWB+l+4uvK/AAW8CCGEEEIIIS8wCcoDr2PHyun4/KOJ2BOQjqOXgvHo9hksP34dN/IzceHkATyO8MJncyZi28qZ+OLdL7H6XCDUtVk4vWoupn/9LWZOnYqH8dWoyUrC7XU3UWEAinIrYEh9Da0dNSiMPQe3rq1Rk/0QP0x+F99NX4oTZ2NhJWwR05TiyMrF+GLa95j048+4mFEAn7ULsfPUA94+htQj32LW/itPYk7CFruwg9uwaMo3+HjuGkRWaVCZF4QfZk/AjFlTMHHcz/BTAtHHp2HOT79g0pINCEnPwrHlC/Dl9O/w6fSfcCmrClK5ApoUTxxbOw1fvDMZm29FQFsSisUH9qBAb+D1/Q+nuuoiHP99Br7+/nte/zzcSSiCLjcEB+bMwLSp3+O7WbsRnKk1ZzbjZVmgAjf2/I4ftxxE0M21+HTKSsz7dRt8ksqQ/eA3OHdtB3VhGOZ+/Q4fn0U4cDySf00GY00+dq//DFOnf4nx3y9AeIEWTFeBy0fm4+tp0/DxDz/gbEg0Is4sxg/fzMS0r8fhyMV0GAwGFPhuhUPPDjCWx+CXb9/Ft9MXYsnXkzBytTeibqzBT8cfokorQbb/RvTZ/hCZwcfw+6FD0BvVuLhpDr6e9D2mbb2AxCoJZFIVoq6twZwJ32LaV+/gyOVkaJRF2LH+E0ybyeduzjx4ZlbzzioRfl6Fgd1booFOgyvnTyImT4p2zUqxaUVPjBrQ2DQmAimf/9Qw3Lp4GqdOncLJEyfgm1HF04XomgGsLoJm4452cEVWVB6s7dygDj6OkzdVeK2xEoGRKnz1ejPYma9gkxr0qFDVQvimRFWEpPQg1FQzVCqroBcy6NVIz/RDVo07+pZcx4lzQfBwaAVJ4gEUOk1BuyeX89ij9y+TUJ50G2fO3UX66DXo1tQJTUeNgqLIE6dPX0V4y8no17kJnPmpv+eV4wiMV6FLJz12rm2F1wa3MJfDSaSQ5cbA8/IZsZ+njh8V141w/PGOioFmEwu06ewKfU4w9BYNYBV5AvvPF2FUExkiH8XhjSE94CJeZSd8ryk6ve2Bx1eO4czNJFi/PQONrWVo0ModNamPcWrtTqjfGoS2fJ23V6fj/JnrKII73PWBiArtg2Fd6iI/DEZmQI3aFMSuVVYjPygVVeL2TT0MelPbrJybomfTLnw8q2HpUgKfPWcR49gFNpoUxOWko0vrxk+CQxL+veIoPkZn+LyePIGTl24io0KL/IQklPl5YEA7d1NGZosJK47im1710JJVwuvmFQQkGdHWORShnk0x5UNzPs668SC84SLDMV7mtYcO+LJXH9MHiadwu01PfDmqBx7ExCC7RM0zu6NTdSiOn7mLRjadUL/kJnz0q9CtsXmRiPHoEiTcjsP0eZ/jtYJw+KdWimsGRg3SAg+iWd+x6NTaUUgh/wMKeBFCCCGEEEJeXPzEz1LRFnM3ncPm2Q3w+6UUfDNxBAZ98BW2fT8e41q0xaQps9HXrQJlSXnoM/MEPG9/ibyr5xGUngQflStm7z+JPWsXwM6ggq1HZ3y4fhxc+blyVVk0DMM7w0pTioQbDmjPTzZjbx1BxuvncOn8JoxuaQODzALlYVtwWzUS106fw5HpLbF7QQC6vFkfMVmJ0DA1P4lthnfbdzU3GFApDShsNBQbL1/Azx6x2Ho8CVqjDB1mXcTp08cxuVMqzgfrhMuiUNR4CK5uX4uOhUewKmswTh2/hL2f1Mf3Mz1RLpNDUijHK4sv4Oa5NxB39ALiVVJU6pTiVU9/H0Ou12bcUb6O82cv4MLM18DU5fA+fhm5LT/CuQvH8JZ1BG6cvGvOz0kkkGqrcXnrUXiX9sBO4UobqzKEVHfA+m1LMLqZHoGHHdChqRVSbh9G1JCTuHJ+C95ubQ+JTIJM/104I/sZB07cwu5hlpiwIwTZQftxPbsdLpw5jys/jYddTSY8797GsCU7cfjIEbSVaKA2lOPhITt0aWaNDM8j8O25HxfP78BH3Ryh0epgNNRCpxeCHLxXRhVKdAaepoVWpwErDsDj4lbYcP0c9nzRAzqVBMbyOFw6U4Vvr17CiTNnUPRwLx5GRWHheRcs+O0kzix+E3oVL0+ZjpvGNmhiY48BE4fDviwdrRp3RN/UXNQ7NB6xV5bh10XHkCZcUcPHhlUWIi4u7skrs1xpiuc8i+drasegqChDvW6v4bN2tUiTvokelgXIN9qi6tYaLF75G24nVsO192Q0Tj6Ib39cjqXXgpBeWg1Ju7cxWHcL30xdiIUnPRGbX4Viy+Y4/GVjFJbwdnZsDm/fQvRsV4UdS37C5kvh0EMHQ2U7oDQVETlVGNlaAolRx+fbBXa1uYjKKkHH5lZQyKToNnYEGhkz4eDQFu/XFMFu2VvIub8OP8/fi+gioT98DVQVi/fEEvsZE4O00pq/7SdPsKnvhFqHcsg9RmB2Hz3i1CPQ37UakXlySCMOYfmKDTj3qJCvxBooqp1QnRuBFJUN+jQwQisuWyOUZflI1rqjWUE4snRu+O63oVAV1WJQ1y4oPhiPhl+74+LWuVix5jZKYYeBy39A1pltmLdoLS49iEdtTDnK5dI/Nk8uh72kPgozNej15nQ0zI1HqyWvAyWhkLb6Bpf2rMWabXuRpxV6wXh9mYiPjTX1NzENVRo9avmrwqIb/80xl8krUNg4w87KCe8uGgMXm2pY1esL7I+CxRuNkXZiHub9dAapFRoY+NpsaKtEYmwqtM0bQ+EiBOx0uH8wAyO6NIOtfRd8qo1BfGYBJNbNsPijDijJU2Jgj/bIiM3Fa++44djan7D2+H3oeL265BtId/kEQxws8ME3zXHlfhz0BobavEhsT5Shd+8WkBlMwT6jga8GnQ56vXBFHqlDAS9CCCGEEELIi0vCYNOrAyz4mYtc0Yj/j7CXzSBuTRSCPjrGT6L5iR60emDwO+jhzs8UXQZguMEGqvpDMbt7Iab0cEfDYV8gXKkVb9ZtwlCcehUeHV2hq05HqPu7aKyoRYZnDt4b0oyf5yrg8dYI6LW1SIyMwcMDH6Gemys8hixFWsw9aLt/idFJhfDOrUFh91fg0a29uVzAxtEer7/eHzZMhnb930HLrEpeRy5+HdQY9navYWdiHqx4M41GhhaNXcWLhZIjIjHizU78RFsKp8YdYXiUj2qtFlYDhqEnP2+WNx+NEWopclU88/+THvG3E9HD1U3cbujS9R280c4RiZoq2PXoAonUAm3qSWFVk2/Oz4eYN6C6RIkH9/dB6SGHRC4TryRR9Gsk3jxbq8rF3Xqfo4lVLdK8M/DhUD4PsITH+2Mg42OW4pOEN7p5QLhPuXMnD2RlZCPuQQJaS+0h421w7DgK7458E5N/WYFLk1qifsve2J1XCUVtPm67fYxm1jqk3UvF+OGtIWVyNO7tIbbpfyLhc65PCEKu4hU05uvBtkU/DOomgT49Ckd8j2B0ExfUa9QNa3xiEWXVA9nbOmBkxwZo0e9bpCvV0OYkwaJffTjZWUHq1BZz5i/Ft0NkiDJUYYr9XSSpR+PLMbV4/dAjMKMBkm5jMGfBUqxYsQIrV63CxB4NIO6PfZbRiKRyKdRO7lAonDDi01VYvWwwqhPOoXmHfhgd1w3jhtogwnMNql36YMeB89iy5AfMfrMnetVaw6p+R6zYeRn718zFr18MxkCtLRq4yOD0yo9Yvmo62lQfhHHAVMQnxaDhB3PRKmchjnjFYPyyHPR4bzHWzvsO3Sx/xbprN3D8RBQajvkZq3+ahzHNzmDmpYeQ2DbBlB+WYNZ7TZBUGo/xDR7jUU5fTPvYHp+feAgd76eu3SB8P3+J2M8Va9dj6sBW/DD5c/iEoTqzCA6ljrC1tkbf91di86ax0MUdRMO+H+HL6IZ4c1RrZN/7EbmB1/FbQDN8/9NmLP7ydcQmLcaNRCUvwwJNe7+JxeuPopH9LSzyLYK00XAsXDofY5un417XQWiRGwNdm+8wpE0gvrqQjnq9pmHv2f1YOHcmxg5oDYf+9eCuE7bFPoMfL+UsFw2aWMOxcSdMWbcOX3XLQWhWN/RziYVlu5EY7CTBkQ3RUFlZocnQiVi6bDlWrFyFlfOno2t9G9hbyVG/xh9qjblMXgMzaMXtsXDoiqlz5mPK2Ia469ENTaVFuJA0HNOGxmLu7WDkXjmK/Nr2WLN8Ab7/tCsOL76FxKoc7Aq4hu8+GAIX10b45swpbDjuLx5fjh0/xZLlP6GnZh9UDbvDLvUGtCPmoq9uJ1Y8rID3spM4uHEs6ru4ovmYzXi0bx4iVDqEn/fE4HfnQmEh/Aby46S2Evu+eAPNHB3Rc9RHSKsytZxQwIsQQgghhBDyf41RD6NcIZ7MGHUMFgoLiI9DC4xGhpb/u+oxHqAGtlXJ0Lf/Ed5xmYi+9AMirt1FlvkWU6gKxfWwqejXQIHc4EA0Hv8qFDJHNBrgjqsnU8StZaVxDyGV2cKjYxsM/OY0klNSkR7lg19mTkIDy3ro+VElFi7fDhf3lmjt/vTUSl+rRXZUAYwShoxHvM4WVoj0PomBe+KRnXMUQ5q7Qm5+qludVh3bw887EVo9Q3VRCmSd3GArk0Kfko1CIUPefdxX6FHf6o9333riSaIcbYa3RFRFOYRzdG2uH07GFaKVzA7V0fE8nw6ZpQaobN3M+XkSz2jboB5WH7uCvn7nsf9xOWTPPGGyMPIxmk55HdZyRzQe0BCXj6dCuJtQafR9PhU2aPFqS3jyMdbwQatJyUKDhg3Qpq8H0lgNDAYGY2EATt2/i9RHDDv8M5ASdh0dH27ByZvhaDR5FKwtHdB4YDNcepgNJjGiMCoLzCiBhaUMuaXCfdsAdV4tbyevlDeLSaSQt+kJy6oQJKn5GqhMRmqMEbJmHTBhwCTcSEtDamISbvw6A8NtCnGUTUZiShoCri7DxjkXcTeyGv2aNIKDtbmPTI+QhylQ6AbBsjIXeRbucPVoiMr0YqiFcZVbQiJsbXwWn1vILCGTm2/yXxaB+4WR6NGnpfiUQEFNzAbEWvyIfvXzUQ5n1G/WENVGKTQV8YgMqoKTrQIlIfeQ0/ktuMlyEHwnH3ZOTtD6HkBy81Ho6mIqx1DiD6+0NnijW31UVJbDoYEDHJzdEFejQRtdHMrUWt4cLVKj1HB1coWrvBR5ZSr+TR3yU4rhZvn0gQ7x4dEoyh0BN0MB0mWucG/ZBJqcMijFfir+Tj/58DAZrPhnJjW4cisKxT2Gw8W8+06buBGhxu8xpmUJSgzWcGlaHwaJBWpsbGFfk8H7Dkj15ajIlsHNugIBFwPFNCADSfHOeKO9eY+mLgtet4vxds92KKuqgNK5CRo2dkVFVhmq4k8huloJR1sZzlwJhEf3RrARFpzCCpbmJ4uWZ/rhjGceOrU0r22jGjf2HUG3Ud0gSc+HpYUt3J1doC/Ig8YghcyCz6vk6ToXNOjSHY1GVeBcQJo5RYmdP4/Hz375wu3ceJk1SAm/j/5te8JOUYlkRUO0aNUAVbk1kLvbIKuizDRmRRmoctBCmxaNVz7dgOi0LKSmpSM7PQBvFN6Dd4WpdGNNKm7GN0DHdv1RWZwNa3c7ONZrhIDoCJxq8wbORPK1nJKC1IwsbJrUFEcuRqBSznBv/c9Y9OtuRMRewY7f7+Pd7ecQk5kJv0uH0cLeVDahgBchhBBCCCHkBSaR2cJGZjptkUrlsON/S5p2Qf1Ib6zeHYuGo+rD6+J+eKZLIXUtx40fZuGLCfth+9rr6GanxIP9W7H45+VYdTgAvUb3gV1pCu5s9ERh/GOUvd2Nl1eLBG87DO3pyMuXoPubX6F5yCR8O2MK7kZrYC3Twb3PbPTVPcCcVSvwy9ytiKrkJ7T8rLZBl9dR3+s8mnfqChSm4dbiCygXzsEtZSgOuYQVM77Dxlg3TPqwM9q07omoPT9h6cG7yJfLEFtSBqnMAnKpqW/1e0/B11YPMHPeVPx4Kg3Lto6Gq0wG6ArgtXU6Ppt8CQ3HvYUuNkbeJuEG8xLIhJvj8zYr7OSwkGgRfewGolUSNBs5DX2knpg2exa+Wn4QabVyDB83Bg1TLmL61Dm4UtERw94bCV1tInwvRUIllGVhAZmDB96a3RePNm5FdJklbMWgnBIZDy3w1gB7yHhbO475Cp1jvsM3fHyuPVZCxv9pNegrDKnahvlzJ2HO7TLs/74/Wvb/HIPqpeB7Ph9fLtqLyCIliiOvYfXsZVixdT8074yGW6ocr/V2gUImQZvhn6FT4AxMmbkRt6NLYWQyNOs5HNZ392HunEU472+AgxCQkfAaha2eDQZhYONsbPziW/y8JBgaV0vIXbvgnQ8kOD3lV/GqqEPhBXxcdEi79i1+XbII23fH4eO5A8WgqH2DhrA0xzoMmkKkxQKdP+0AScu34Ba3Aj/88ADTxvWEjcISiuCzWPnTTMyYMYO/pmPplv3IqLWBY9xxLJgzAzN5+rTpB9H/g1l4o4P5vlO6Epy6VIFXh7WAXf1OmFm7D/NWnodNg4Fw4hV7n1iFibNnYpGvFOOmjYYVMyDmzg5MmjkV47bmYvjUN+BmPluPisyARcO2aORqj37NnHBx8fc4ldwCXw7ujd93dMKtpQt4G6bA33UOJg8chPcm9kLk+sWYPuVLnM4fjPmjupgKQikSfGvQdcYrkDUdjY4FWzFlykW8/3oPOCgsYBt9Bxt/mWXu5wz8unITkqusYG2fjt+X/4RZM4X0b1DQcgzmfPIKH1tepKESpy/ko/errWDr3BJTcRMrlu1HucMQNO74Oj7pU4CF46di5pyf0bDfXAxpaoX8qOuY+PUMzPr4M2g7TcS7HqYgW2FIGvJqXNG6gxs6t22C9JNfYs3vpfh6bHvI5ZW48stCzPh+Mm4Yv8TMAR2gNipg7XuY930mZs6egZ8WBmDYNyvQr6HpgQOq/DBE2n6Ezs2aoUm/TvC/vAubr3ih66cD4QAtCm5sxqxZpnmdPn06NlwKQ41dR3z86QJUH1iN6d9Pw4wvFiPDcRLmv9pYvBJTmZ+DR2dr0Lm3O1o29UCf/F/x5fxEvDu4KxqPnoQWtdfw/fSp+GBHGF6b3Bu5/qdQr2M/tKrnAjc3V7jU74m+vXU4sisWOv4rkpuZDINzO3Rs64o2nfojbNMM7H4ow3f1c9C6YWt0aFEfrm5ucHN1Rdeeb6Pyih/afbMQO3dsx+Ztc9C/13jMm/c2Grg4wtXdHc5Ojs88yZFImPDYCkIIIYQQQgh5jmpqajBhwgSsWbMGnTt3Nqf+dcI9m3RMDku5FMygh9YoFZ/OplNrYJAoYKEwQKs1Qpt6Fq+dz8PlObPEoJiFpYW4pc+g1UCrN4hXBVlaWUFqNEAvPNWPn60LQRUhlmbk7yUWMvPVAMITAVXQ6MBPshX8ezJxm6HQDrVwRQl/b2VlKZ78Qthap9FCamll2manMUBurRCfFGjkpRmErZYKS1gpZOLWODVvM5PxNssY9OD/Fu7BJJGL91gSa+Z1qHgdEp7H2pLXbdTx/jLIhH4beDusLPjJLO+r3giFXCber0cI/ui1Bl6NnNcrRNsU4gmvUa+BmqdDKocVHwuphNep1YpjIeNtsuBtkjA+FvwrMj62Bt5micIKMt4PnVYHCU/jpcOSF2bk9Ul4/r87PlKeh+c16tXQ8HkQrhKythCuBhK2gunE/tS1QcL00Ki1fGwkkFtaQi5cMmMuVxhfPe+nXi9D/v0N+CjzDTz+roc4z8ITHuW8vwZelxXvv3CPcoVCDqbXiff6YnwdCBcgyfm4CZeBaYW1wcuUW1qLwTToVXwseHuEueRzJ25T5GU9DQzwMvnnMmFMeJpOq4KOt8PK2tRmLR83862SRFL+XYWFHDo+93X3UpPwebTk+U1jJODjqGNiu4UyjXzM1HoJ/56l2CY9H2+tzsCHhq8P4ebrwjf0fI0JW3NlFnz+5cKFQiLh5v7CtSrC9lBm5GPI6xWuOhPWlVCPVqWBnrdDYcX7a1qYfNzUfNx4/UJ9QhuEgur6yesT3ut5P7V6qdhPPoPQang5z/RTIhWOI0sYxfS67YMSWPDjSC7WI+B18Ql62k++DsQu8DUmrB1h7fL2Mv6hBW+fMOZCH1R8HQiEtLqyGO+nwcjXBj/ehHnU8HqNTMHbpxDbq1PzeeF9UvDjTThmxLHgc1P33AAJXwd1eQWMlyGUJxOC5LydGj4mwnEpHEcS3i61sHaeiYZI+XFhKawB/rdBo+bHnNBn83FX10Z+fBiEMbTk+YRjnvdXq+frWxhDnkU47jT8uBOOcyu+RoT3Ej5XMmFwzIx83eqE3zE+D0a+Fo3M/LRTXp7YRj7/VnxqDUK6GHQ2Edatjq8ZuYWpLqEtwtgLa/Fp6S8PIVTl6+uLsLAwzJs3z5z611DAixBCCCGEEPLcPa+A1/9f1TEHMOp0AW4smA9Xa1MAgfzfkRu0BdM2F6B7ewPiYkrx8fIteL+zk/lTQsh/m+cR8HoaLiSEEEIIIYSQ/6Osm43E2k8/gr1wd3vyf06D7l9i3tgu8GjVBR8tWoI3O1KwixDyr5Et5cx/E0IIIYQQQshzIWwDu3DhAkaOHIl69eqZU/8ZOhQlJCGt1gg7OztYSBlqc4qhFraQWcoh3Jg6Pz0duWVq2MKIstJiFNZoYW1rA01JMtKyilBcXIyi4grIrR1hbSGFvrYc6SlpqJA7wsmal8G0qEgvgdTRFvJnth7Vlmchp1ABRydhmxSDpqIYGakZKCgpQUlpCcrLeZtcbVGbn4Os3EIwB1fYyIStV7UozVfDytHyyRUGzKBBaUo61HZOsH5mm5LAqKlGSZUS1lbWkOgqkJWRhsIyCzg5W0HKdFCWp0Ijc4Gw802vrEQWLyeP90noV3FxCcp0lnC2E7ZZMuircpCQmovi0nJI7F1gI5eIWyzzExOQo5XB3UG4x5QRNfml0NjYiPf6563jY1KCxJQMlJVLeL02kBr5d9LSkF1QaK7HNK5WfA5Qk4PE1BIo7OxhrZDx4atCWoUejlYK3gbT1qzi3ASk55SiytIJLrwSYWtXcXIKMov4fPDxk9o687HSIy8xCQVKPWyd3dGqaxe0bNgCHvV5u4U9XdpqZGZkIK/ANIfCq0qlg42dFSpTUpFVVMjnlc9tWSWkfFxt+FTqavjcJqdBae0MO2HAeD8Kkipg6SJsp6ubWyOqszNRCCveZuGm8wxVpflITstCiTC3JcV8TAEnW1tUFKbzNVQJWyd7Pv68H6oi5CllcBC/ZyLMbUFqOgy8T1bmG6jX0dZUobxMA2s+P/rqcuQkp6JA5gBXobFGPSozisEc7SA8I0BbW4ZMvr7yzX0VX0YruNgKc2uEuiwFSem8z3wMFQ7OfB0JVzJqkJ2QjGKNEY72djyfAVUFVdArFLDg64yp+XikZyK/UBjDQlTVSmDvZCs+rVRYd3kZyXyNl0Fm78rLE4a8AAkpBZDaOPBjRVxwSOXHlr24nVaYWxWyk5KRXVgNCwc73l+hJF6WVok8fpxm87GrVVnCydFK3Ganri5FelIqVFaO5jHToiS7GnL+ufBNZXkeUtKzn/RX6JvR0h62fC1JYEBhGp/n/EIU1gIOdjam7Y8avlaTc6DSW8De3hISgxq5FZWQy4WtjkKtOhTwtZvJ17ipH1JoK0uRyceh4MnYlqIG1uKDAyp4HWmlVbBzcISwm1JbVYVqDcTfF6E0xtdhYlIKH0MNbO1sYSFkEu4BlsrrKKmGjb2DuH0Tuko+1mkor+LHrtB/pkdNeSZ0MifzsVuBTH6MPTu/VUZrOCqqkZ0prHMhrQgVVVI4u9iIdStLU/nxzNevLR9rYQukmq/PGh0fH9N9ykR8HeVk5sNoYW3e5goY1Hw++LGVU1oGZucKW77AjDolXytJKDUqYGcjHA/89zK7HEY+t8JaEWj470dSchbK+G+Fm/hbIeBrj/cjKT0XJfxYUzi4wEoc53+/DOH4z8vDwIEDzSl/DQW8CCGEEEIIIc/d8wp4FUXtwNrVd3D/0U3o3NugsztwYM1RqBq0hUcjO35GGIK5Y36Eb3UV0qIeISIiEpFFOrRqVR9e67tjvacW5ZmJCPa7hwtxZejWwR1RZ3/E8Wux8IsKQ8fegyDPuYb161LQbUxH2D0JRlXj8tQZWPfwMYaOGQ0HuQGlUf44e/oKAqOjcO/Eahz0VOLNt5vh9Lr1uBn0GJG+QK8RrZF+ayHO+jdH7/71URcWqcnzw9sTFkDu2g/dOrmKJ/sifQ2CTs7B3At5eGtINwTe3o9dp24h9EYoJL36oqEuBTtWrES9fu+ino0ROb67MXfGTiSXFyM2KgIRUdFINjRBv3buKIk6gwWzjiA0Nwlxj3zgdz0N7Qf3RVnAUmzZF4Z74Z5w7TAKjRGOEzvvwKFvH7gpAHVJLA7P+gbHo8uQERyFKNsW6OeUju+7TcJDdRXS4yNN41psRGNXCa7M3IA78SG4nWeHod2aIPPEKWwttcOQ1u6whAEVsZeweNdxxMaEYv+uB+g1ahgsy4KwaOQKhLI8JMUlwrFtH8gTj2LNFh8EPQiG3soDHVra4MK2Lahw7o6WjayhTbiIgV9tQGlxHhKieBsiI5FXI0WrlpbY3bozzqutkJMSiQD/a3gQw9C3dxMEHpiHw7ej4Hs6Fx1GdIE0/RSWrFWi3xstzDfh51Rp+Pmnn3Dd2wlj3m4DC8aQGHYHx87dQmRkFK78/jvOxkjwdm8Fdi7ejeCoQNxTNcXIjg4Inr0Gt93bYUBzZ1NZnDLzDr6fsghl7oPRt93TdCEQdnnZ19hyzYC33+kG/+MLsP9CBK4G3kKX3iNhV+KNjWsj0WF0d3F9Jd/eixnf7kS2qhAxkXxuo2MQadESg1u6oSSSj+m27QiPy0YiPxb8A3LQpn9vlN+ehR1nwxFy7zEcO/WFuy4IZ3adhXXHfqhvr4AqbDtG/XgElaU5iImOg+e5O0hXdELf9k7wOfsLVu+/j4zU+4gIrkKn3o1x9dfNOBfOy4iVoG/XplAGeGJllAqvtm0IG4kSEZvmYvUZPg/pjxEWZIluw1rCCiW4sHYZjl6JRGJGPHwuBSHfqjW6t7GE156fcNQ3DiE3hPnoCUXKWuw9okSXYe1hzcfI88AP+GzzfWhL0hAZEYEovp7lTTqhLV9n148tw74TgUhKicX9u0eRIGmFgR4OuLNwK04E34dPSC5a9ewCRWIoNhwLhUfvTnCzNCLt5Cqs3O2FtLQ4+N1Uo03fxsg7uxzzNt9CdmEGovjYRsbEo9jGA+30V7B92yU8iHyAMuuWaFffgJAL+5CkbwePZvaQogre637EkuvJqAoPhXelA4Z3b4wi//VYsf02wh97I541Qs+Wjnh4cx/2nvNEIO+vRY/eqKdKwO6tO9C49xi4WhuQ4f07Zs8/irSSXHF+I6OiUKBoibblO/HhkgOozC1BVEwCbp8/jcSG/dDfKR+rt27Eo4BI3CizxtAuDRF1fS88syTo3b6laZFx6sJ4LPxuKmLq98PQNsITKrUIOPYLdp6KRWLUNVy+k4E+I/oi13Mt1h8KQ8Ctx3Bq3QnNbDKwd9NVOHfrhnp8rRiL47Hkh20IzEvAnauXkd58IPrVt0F20AEs+OkMHucmIybMEwEPytC+H1+z5qd0/jv9qwEvYV8kIYQQQgghhDxX1dXV7K233mLR0dHmlH+GkUUfGcN2RypZ2rHP2W/nLrHiCE926HAoKzPnYDX+bN6IX1mk+W0dfW0RO7jUg+2OqhTfG9XZ7LXB89hx3/vs1Lq+LLZCyc7N7c+8K6rY7Wm/M69KPTOIOU10cXvZZ4t2sYs7PmCHQwp4S54y1uayRYt/ZPseJrGanBC278RNlhUfzpY3nM7SSyLYhhW7WJ5Wb84t0LPAfV+zWRd92fzFG1lk+dPSyuOD2fxmndlrK35jFdXFbPmB3WxPeAmLPvk5WxlQxJJuzWFrvQ3m+rUs49Y6tmL+XqYS3z9Dn8l2TpzKNvtVMJ3wvraQ3VwwlS06msD8dvdi57PLWdSBiWxjQBV7tPUYO3k4RPyaIMVrPWvzyR5WxSspz4tiGxdtYZmF4Wxy06/ZoyKlOZdJUbo3++zDS6y2+B4bPu8wKyiOYXt2Hmb5NabRM2qr2cPVbmz2zTRmqM5hpydZsVUPC1lW9Ck2ePZtphFzCYws5MBqdjTdyB6v2sZ2Lb/JVOkX2d5T9570TRV9knWeso9lV2jNKSbqiji20tKa+WaLPWXG0gj25azPWWB2Fjux8CcWpS1g25w+ZgGp6ezS/t9ZVI3umfkzsozba9ivh/ezTZPeYxdSn50nTl/LNi+Yxi6FV7LKhJNs8+8RrCT7Ius9/xqrzPBkM1f7sSK+Vp6qZg9WrmXbvS+wZZ//ylLU5mReT0XyRdZn2Aj2w3fHxH6f2/MZ8ykqZ1e+asyupxSx+z/vYjdSS0zZ+RqJvbiLzfl8P//rT5RJ7OcJc9iOgGzxrVGnYufWfsOmnYlkl79+nfmkF7CoLVvZgYdFLPD2Mbb3jD9fKSa1AWvZwF/OmtYEF3pyI5v4/j6m1CWzzeN+YfdKhVQVy41P4eMaxH6efp5VV8azzpN/Y0FJ0ezKvvUsucRUmroohL3aYia7X6hiBq2K3V75BruWZWAVt8ax15f8zirMDU/zP8RmTZ3KcmuL2YkVS1myRsUO9pnJ/PLy2Y4lq1hAUp4pI3d1/8/s7e2Rz8yPSUnkBfbplKksJLvalKDzY8vf/5T55Rax2Z/uZymF6WzrlrXsWnwhe3ByDTsXZM5Xm8nGdZ3CDtxLF77EHq4dyS5EJLK43TPZ6n1+T8ahTurJEWyPnw8rTzjLVh+5wxKDAtnOT46wEnODjJlX2WtfLmIZ4ryWsSN8rgPLK9mWMePZXq94pq+IYKPm7GGxuels7d6t7EpiFbtzbDpbGVrLYq5MZTseaMy/KxqWenMtW7bhpnicPavMeyYbvm6n+R1jEVfXsCaDTrPqtDPsjT2BzKh8xN5Yf5Dl8d+aQ7vns+gCc0aBrpJF3tzMDhxaycZ+coCZVpOeFabHsGKtkX83nW14rzO7mV3L7m36hV3lx9LNj35mJy+Gs7T7B9h539gnY1Lqv5V5fHaGVWoMLO7yr6zZnLtMqUlh6z/6ju0NU5vmqCqb7Z06k627kPKH38t/B6PRyHx8fNj69evNKX9d3X++IIQQQgghhJAXjAS2Ddsg+eoZXElpgQYu7oi45o3Ob3TB0+toJNDUZMDrym1cu3oVV67cQFB0LnQS/ommFuHe13Dzxg2cv3Ad9h+0Re827pBJHeB78SISrN+FU6g3Evu3xxCHuqcQCnTwO3kfQwf1RM9mg5AZGo4a4UF5IiPyYm5AVd0So15pA6mFAlUpwbh9LxiSXqOQcvcgmo4ZhfrmrV4iZQRuBnXBjDFdoC0pRxxvn4kaAff3o/3GH9FOpgeTWaK5rAYpvhcQHOOIPnJ/+Ga8gulDhafMmUhkMuQlPMbVK9fE/l67dh2p5Ubo4u/Au34zfD/Y0XRVmY0bRi7cgB/fbwUHl1aIOHsF3rke6NagAhESHVq83l0sT2DU61GqE55gxxmqkZfjhbxyBqMuB/du38b1a1dx9eo1BEfnQSFzQqPcUFy49hgu7ZqgJOQx7BU9Uc/WNHoSqQU8+v4AeVowLt3yQUHlB3i7nSvUGcEoNCbBi5d1OzwPwgMkHdw1iL1wCf4FRrg3d8aVfevQa/ireLJZSyKBMT8KnndviH29yl9h6RV8LGS8rUb4376OG9ev4PzVK+joNAxtnaxhaZGBe6fuIM9jGPRZfqi0BjrY1D3FjvH+KeEbIEeXFiPRdVg78WqXp1OrQdmduYiTv4fR3W0gV7ihMsoXN28nwqOnG6Ju5uD9cb3hwtfKE8WPcI2/faPHcLCmhfCPKDela1NxeF4ZZr43GnItn1ueJDcq8PD0dQTJx8M5IxRRrRqgd6NnVrJUh4KMx7gkzu0V3t97yKjUoSLBF2nNDRjTvoEpH18n78zahBVveqBxezUe3byCoHyGzk31SM6MR783BkB4TqaJFMr0MFy9zsvkx4FXfBU8vhsBqxQv+Nm0h12hH//sHnSNW0Jm6QS3wgScvu4Pp86doU2JR1ZCXzRzMZdmNEDL16zpqYgMVbVFCElLxc11qXin70A4moeled+PsXLtKtS3toRCmobbZ88jr343WBYGAp27om2LhqaMnFTYZhfhjavXrvE1fRmXvUNQolQjPiQF9Zt8hLaN7cR8TDYIc/f9ht7ORrRW5eDWVb5GDc5oIAnBY/9ueL2PKZ+wnVZrVMHA/w0mrOFSBKUViE8lTXvsLx43wjq6fvMWcqoBx5ZdkfcgCNcDCtCcr+eMsCBYLBgHl7oDjne2RquCXnzUnxRVJfcQk1CNO9pOcHN2hkRuD7uHRSjRytBCpkS4zwWkZLigv+wu7mUPx6QBT5/cKeHrOScmADeuXBfbIPQ5o0IPiUIObXq4eJxdv34Lt+KS8M7S4bC1bYx6uT44eyEUPRp7oCDWF7qG36J9fXOBnLo8HzFXTqPL65PxvsUt7E8SUmWo16ITbKvS4XP5JAKUX6CnqyVsnCsQcvwaIowN4WZXAz/fG+jRs/2Tq1Dtm76CQawEnrcvIyxNiZ/H94ck+hJ8W3fFpFcsTceQfSN8vn4VprzW7JnfyxcXBbwIIYQQQgghL6yWo5ZjlD4FGU37wcM6E/6lr0Hlewyr12ziJ5RCqEICraYIkcH3ERgUhMCAECSkl0InfKJTIy0yDP4PH+BRfA6aFNhDL22K18YugzYxGg4jRiAvtgid3GxxbNEibDzthQIlP09WFiNEPRydm3VEswGDkVmZirxKrdgeo74awddPo9H7H6C5JWDt3hnDOrdEUVEZ+m9sj7jKvuggycTSRQtw1i+Sn3gzFAdGgg1riVbWjpjkUYv89GixrHy/88h0+AZj2hpNQQSpPT57czDas3QUOX0KdVICnDycEX3oV/y67RxSSnX8pFmKsvxMBAcHiv0NCglGfi1DdWkiVI468CaZSaGwsoWjrQIdR25Gt6IYFLfuj46FF2Dl2BGaB0ewaNlKxBRpUK/9EIzX7cOsHxZj80VPxBdqUFGrBjOWIDosAAGBvJ6gYD6uRZA37og529siJl6K6V3dEH2vAvV752Dd8qU4cjEOGn5WrJYxWFan87blo/5Hr/ATaj2yEx5BkxIF/8AH2L/+BxyLKUDb0VPRqyocqlc80LxlOAIbHkZp8HEsWbEaIcJESCRg5ZkICzT1NZC3IbmgivdNuKMaEBceiIcPgxCRXIby5nZQShwxdPxM6GNi0Wn/uyjPyYVzvQFYuWQRdp68jhKdBLqaEpS4W6B9t2Z4pccwNM65jUqNOGDQK3Ox9WdfvPVxT9jwVtu0HI6Rr8kQneqCea0kSKmyRIPifVi3bBMueWWJbUh7mIHmUnfUt3fA6x4dURkVjFqjFjH3w2A1dzja87UlrFK+DDB00HeolxkFxcfTUJORj6b1GsNnx1qsP3AexbwNEqkR5WUpCBHnNpCPeSQKagyoqlChkdwRthbm0AQfFwsrezjb2qLXj8dRvyQbVV09UC/mFxjrvYdin71YsmwF4sv4opJJYCxMQXAAL/OhLwqLbOGkqYSBj0WxJhA+90IRcGc/tm44jAppG3yxuCOSI0uw8p1WKA0pQ+Ov7bFz7QLsOhIGvXNrrPi0Aivm/orVu47AL0GJ+NxsZCg7w9HRwdQ2Tiq3gp2DM6/aHq+OnYzasEdo8esAVMeGoK9HC5z9fQ22HTgpBpGlRjWqUiMRxOc4iPc5ICJBvE9bcZkWSidXWJkDT0KwyNrFBdbW9fH99sGoyC5Ep9bdULkvEu7fNMHdPb9g1fq7KLWuh1++t8PlPeuxbN0WeEZUILK4HAq5HIXpcQjiYxvE11JIaBiKVYBLv7UY46hAVLkF+tiHIbW8PYbofbBqwQLcjCuFpFF/fNwoATNnLMTKfUfxIKMKmcVVMPR0hZOjJSQWVujOjzoZc8C4d0bDvToROrfXoYyNROPOzgg9sAC//nYFaaV6vmolKMlMQHBQgNiGYP4qqOHpUhlYfoZ4nAU88EFhdWu0yyiCut5ALBxhhYBHKrzVyRHBEaXo0SIXe9cswbabvB4jQwmf24s1s9HBtQG6fzEafpvuwbycoa3IRkxqISx6lSKpRIlu7/6IFplBsJ00AA56P+S13ITQSzuxauNvSOLt0DEpOjY3INr7Aaod6sMgU6KqOBY6V8kfAqjCffwcbBR8TQu/W/wlLO4XlflKL0IIIYQQQgh5bp7PlsZnGAvZuU/2Md+8R2znkd3sge8ttqLPMlZUGsB+Hv4zCzVnq2Pa0tiKbX9UbEowVrNTb73Ktp8LM73n8oP82P4599nDq1+w33zT2aVvF7KT5yJYefRx1tfOljm4ujE3F2dmZ2XJNnilMwM/s9Mp49imLlNZRMXTzXkiXn7Kg8Ps4v0IdmXlEnY7OYZt+HArCy0rYZtnv8Ws7R2Zq6src3awY83bzWW5ukr21a4T7EFGJcsP3stmrNzMytT6J1u7tJUZ7MCxjczv/k3WYp0fizz7JVt6/jrL89zAls7dzar+tJ/IGHuEvT9vHXt2A6JRr2UazdMyDZp0tr39JhZwfzU7dHIby0k+z35bcJkVGo28XxWssLCIZaXeZctefZOFpESwyU2+ZEGFNeZv/5mRZXutYqsuR7ITuw6ywLhEtnTbSrYjJJitdbZh1+Mr+SRUs4yz89nXK/1Zla6aVfD+CXLvbWSjPr/AKsR3vCRdCtv/2yGWWp3JDu44xEKDrrDpg46z9NjTrMs3u1hW+ZN9gqK6LY2eaeZ0TRFbOGkh2+uf92Q7oLLwGtu6/w4LOr+f7X6Uy07+vJUdPBzHcu4uZ7Y29syFz62riz2zthnGLqdXid9TZt5jDmP3s+zqP26hZNoq9ujCInbQO4zNnb6HRQbfYj9uXssqtQa2f+5oZm3nYJpbR3vmNmwui8uOYyf3zWCZ1ZUs7Phv7IdJe5lS92QWmFH7iB2acYcF3pvJtt95xO5t3Mz2nU1gkZf3sFmf7mPKuqxmFRF72bu/fs8Syp62y6DTMpV5PAW6miQ27dvdLMjrCju4/SCLDzzCFk+5y4oiNrGBP514sk204PE59vP0CawseAcb/eFBVsjTjNoKtmjBSLYrotaUic+t9sEvbNOFB+zBlcPMOzqT7d27hP3gW8TnVMWKiopYcVUJOzmvN1vjn87ODe7Idl8NN3+XM+r4ulOKx4uJgVVn3GYrN11j/lsWs1M+/sxzy1Z2LqiUXTr8M3tja9gft8cZtSxo/3o2b5kXK6srg/9bp1ExvpyfUKfcZD/t92PBXifZ76ceM7/Ti9g755J5vTpWVlrMCkuLmOfC7mzxVX+WtG8WW/G7L1P9aWyfMFaxMyM3sds+d9ilbW+y8PQAtuWNVSyO5zdqa8U+lxv4OLw9kh1+VMBG917MzobkM0NVMhvdcylfi6at04LabD+268hG9tDvEuu7w5+FH32Xrb56m+XfXceWrLnKyv60r7LMZxYbtmab+R1jRZFX2NwW/Vh83QHCO59y/kO+/mLY6qO72VH/SHZ81SvMJ6+GXV88itnYOTM3vp6dHe1Yg06jWWj+M4Nk1LCIIwvZV2sDnqwBo+oR27T+BEtJC2T7T9xgwdeOsAVf32Y3d3/EvjmazIRlVRJ3mX3g8QNLeLiTvT1/5x/mx6AVfle07M7q1szVyZY1HbuEiTtjnzPa0kgIIYQQQgj5L2BE3vlrKHq3E7pqK6CSOqBFczfYOflDpRWujFHA6m8uMhAShCth6rZjSZBVbQuZVd01UErE3X6AhnN6QZpdAjvh6YAtSlBVk4HU6DuYdO0RkuNjEZuQhOhzU3Dhdji0BgZV4iMcbjMYTYWnCD6jqiAdd2/fQc8e7iiL1KFZ03ZoIq9AdkYaDLadcCMiCXFxcUhKT8DK4bFY97AaXQruYv/yHzF39TH4XD6DZXeToON1QHjqXMgW2LX4GO6yLFTat0TnZk2RWKYUn4IoU0hhWbflykzS7jW8UZuIBQfSIF6LpimG57bvsOH4Y/FqN2EM0897oWbXp6hXWQqtzBL1m7SHXpaJiqIiPLhSApd67tDEPkSMx4do6WiERHgSpvR/OGVUPsLliy3wxWBHJFYY4daiIRys5Sgu0cOhOUNRLW+FUY/y3ERYuDLkenqj1CC0RI+Sxylo9Gpz2IsFMcTfuw15Yzs0QSF0xQ5o1bgdnAqSUKWVQCK3gPTPbRDnWgJLhfmKJ6kONaiEjbXCtIXJUI1L23ehz+ge0MaXol5TNzSxtUCNcKXT2TvY9yAJCXGxiE9Mwt11XXDOLxnVvGm58XfRbnQvONRdSWVWWxIIb6++eKebBA9r7eDYxgP2EoZaXSqUrDe8E9JMc8vXxvJmhbgTlYXiB9VY+sNcrD5wCp4PT+BybDW0Rj4kWiVCfz0Gp6l9YJeRD8v6dmjUlKFMWQS9QQqZTPrM1TQmju1Ho08Rw1HfVPE902twc/EczNweY9qGysc0McAbvb58C/alNdCWOaFZx9awKM1GjZaXKbd8UmZtdS0KqhwAj57oZ1uAQj0fSWMVbGsbo2MD4TbynCYD23Y2x6guDZFdXA2HhvXg7GaHopwcxJ4Pg9zBHQ76xwgMb4RXWzfHayuH4brndSQpTV/PDD2Lz2fNQIYwqJxRX4u758/h1XGDUR5cAifbhmja2B7lpbXQMxnkCvN2uToSBdoP7ITMxL0ITi0ypanCsXTadFwvMB/o+jz4e2bi9Z4dUFFVgQqXlmjZsh7KM3KRej0Eao0VXG1qceehI7rVbwyt3gg5P2j+PLamtcRQlRiL9M/7ok0DvnZLdXBt0AGObtEor9Lg8e1M2Lq7wzHVD0E2/dG/nS3GNsqHRlMNo64M8uG8P47m3xVmQFLkXbi0/gJOLAtau8bo3qo5UiqUkPO5FfoqPuTxGRLGxHVeR6OuRKahMSzqfroqwnE5+0281tkSBeXVsKjfGo1d3ZGbdAf+pR8iLiMJsXw9J8aHYOvnLfAoKhmxAVeQohKuLaxFWmAoWnZraL76Uw//M6fQrH872BfkQKrna6VBc8hy0gELB+QnVcDIx0RTnY18Bwc4dRmLUXlBWHoq33SlojIXJ5Z+i52XEjB4ZiDiElPx6NBcOIllv3joKY2EEEIIIYSQ5+55PaVRwFQ5uHg9BZ37DkHLJjaIvXYa52+GwqrzbIwcLMP1XUdwJzEOQXdv4c6d27gakoPGbTxQ8nAHTtzIQVyQL25cvokU99fx+WeDUc9WDnX6JZx/3AUT3mwFW1kxzm46gcCShuj7SlPcO3ofY76bhlZu9rC1tYFT4/p4tPworD98A9YJh3Gp4TB817Mx5NKnp+npQbsQ6rQY7/Rwh1YdjBU7D0Hl2hXd3GIQVzkUH7/dSdyCZmPtAKksCfN2l+PA9qX4eOw7GNXFAvnWHbHmi9ehkEmgqUjFoSNBGPPJh3CxZEg5vQLXomowesx7aKnPxNF9l+AfFwVvzzu8v554EGCBnq+2R9s2BgTs4+0L9oOv111kOXbGB+PfRGMbOVhNDC7fLce4T/qivr0RYde9cPqOH1r1moxezdW4s2kdjoTcxZVH5Ri74Af0sSvG5Z37cT83GYH3PHk9d3AtNBv1WrZFI0cZ4g/dReHAPujXoQlsC+5h34GLKFC2wocfvoa+r8pxePdxeD4IwKWaRpj5zTtAyC2c2nkN1wMu4mi4FX6aMR5NHS3EJxne8/dHo26fwcPdEUEBJ3D48nXUe+NrjOhQhsOHTiMl7jH8vExtCEgqQVNeZ9yeQ7haWISQ+564ev0Wqtv3xdev94e9QoKKhNM4V/YZPhjQAnbW+Vi95TCyqoCePa1w5EFbTJs1HA0cbGFrYwd351rMWeuNd17rh0rfy7Dv8RkGNFdA/mRqlQhbfx346i30aeIKx4RdOH4yFBqnV9CnehPu6CZj0pi2sBfm1s4VLriPndebYc2Bn/DRO2+imyOgYX0xfXJvMdChzH+InXfa4IvP28PeqhpXf7uEhxl6jHjrPbgqw3Hi0DmEpkXC6+5d3BFeOXbo370TerQxwu/yBly5G8rn/RRqrbti4vR3UM8K0BUGwe9RNEYOfwP1nPXwDzqP85d94PHmd+hTPxE7919BUmwovDy94eUbjpZv/YwRvbvCUuuN0wfP487Vc3DtOhdvD2kEBYzI8QtAYoeueLVPSzjUJOHg/kOIT3HD+ImvwvLWCSy8dAN3D3nBftIvmNSvCayaD4RDjA+O7riEeyFeuP8QGPjuJAzuUl98GmlN3GHcKh+J8UPawM29EDtPnUF0WiXGfDQW+oSL2HfSS7y31V3e39u3biLHqg368T47aFNw7eAN+Ph747JfLBp2n4TPh/DjjpdZ/CgSQaE1GPBRf7ihEA9OrcXt+wq88e1baBV9G8tOXIDXFS9Ujv4OX47pjJqY+zh8xgshEUGmsb3jg5gUF/Ts1RByXQki/W6iSdfR6NzMGpWpYTh84ja0jT/H+681RvTRfVh/8zJOXQ5D6y+/xQcdm6Fl6ySc+P0SrvqHou9rYzGyU1P+e8DnoiKR/1bFYww/DpwVBkSe2YgLEUq8/tr7aKROw4F9FxEcFQoffuwK/X0c54gOrTNx9vgNxIXF4K6XF+7cSkLzqcvxdi9nyJgGCUFevC1d8Eq7FpDkP8btUycQY2yCHjlxSGvdGx+92p3/TvH1bO8EB3UBDgRmo4XuMQ5vuAGvoKu4V9kDc79+HS7WMuiqMnE9Qo3+/UeivosMV68dwy2/QLT94Fu8NaIzog7/githkfCOysWoObMwuHVjNGtWA5+9R3BV+F25542ylv3w3tiRaORgx+vlLyuLPwYsn6N/9SmNEuEyL/PfhBBCCCGEEPJc1NTUYMKECVizZg06d+5sTv0n8VMW4V5YwpU+womVUa+D3sggU1hAJmHQ63T8c+GaHzEz/0cKhXD1j0HIJyaKpHLF0yCV0QADzycT3jMjdDo9mFQmBpwMeqFs2TMncbx+/jn496VML16VIuR7FjPy70vkMBVngJbnl/H8MomR1yP7Q3CMifUZobAw3UxdeG8U+iMzXzXG3+sNvDrhDFqsWwtemngfIgkzQM8//ONJHP/MwtReZtRBZ7rDtnl8xD/FMoUxkolXS/Ey9XoYeJ1ynkdsMx8rnTBYMgUszPXqtTrzFUQmjNcgjKtwlZlRzCsR/xb6q+NtkkjlvI3Cd8HnRGuaE6E8oRF8/p7ME++HhcyUT2Dk3xfuYyQ01WCeW4XQLl67OC+mbCYSKR8XGZhQljlJ+FwujLV5jIX2GCUyU995v4W5EMoX5kAYGsUzdQvt0un4DPF+SfgcGvkcPvuxULqRf0nCE3lXn4yvlPdLBt4GyTNrSsDnx7RU6uaDt8Uo4WvBXKgwt0xi/o55jHmfxPXK8/7N3PJ+KOrKMmjBm8qbzOfNQphbc73C+uEvKR9/ocw/zC0fJaF/T8rk31EoFGJ5Ylv4OBr5u7p1YEo28vx8boUEcfyEe8cp+Pd4H8T3fE4YbzNfv0+6LpTF+2Lg76V8DIU21zEdGzJxrfBOQqcVLisz9dlo4MeTsJbq6haOcz6XpjmqWzO89bxMCz7vT7vM28i/JhXGVaibrxsj4/WKx4GpDqEPcvN6rVujTwhFCutVvNyKzzEvT8LbKJTPeJuEvOLxwzto+q6pD8IxaOpzXdtM4/nsOBiE+TYtvn987IplCsdLXbrwv8LxXPegBeH4EMbn6bEmlMEXFGS8LsbHUbgq8AmeJtzbS1hfBnE++PeE8axrIB9LI39JxN9SoQ98zZvXk1CKka8xvXCQ8PKF8a4j/D5oheOAF/OH35V/I2Et+Pr6IiwsDPPmzTOn/jUU8CKEEEIIIYQ8d8814EUIIeS/yvMIeD0TCiSEEEIIIYQQQggh5P8+uocXIYQQQggh5Ll7fvfwMqAiKxv5agZra2vIpQzq4kpohe2HwrYppkVZfgGKyspRWVnJXxUoV+lhZW0lbuNhmnIUFBSirLwSeqkVrCyFrUJGVBcVoqi8CgobO/HeSnqNGrVKIyzEz3mxmjLk5xeitEYNCxtbyIw6lBVko6hUqKMSVRVK8MywlOpQyNtXAUs4iDfIN6C2sApGW0vIJcK2ohoU5hagrKJC/J7SIOX9sBS3QGnKSpBfWAK1zhK2tqYtT1XlhSgoVsLa3k68j5ROU40CpRQOljIIW8Nqy3L45xWoMPe1soq3z9YW+uoyFBYWo5ynV/C69DJrWAt90dciN68QSg2vl7dJyoyoqK2GDgpYmvcl6WqLkJ1XjEodYGdjxbugRmlRHopLTW2uqKxClcQaDgotigv5WFYZYGtvLW6XU6oqoTJawNK8ZU9XW4ac/CLUaBmfA2tx65OB5ykoKEC5OJbCeDNoa6tQkFcArZUDrIWOGvg85tbCwtHURk1NCfIKSsz9NL1g6QCJuhKFfD6FflbyflYZ5bCzMm3HM2oqkZ1bDL3EAjbCXBg1KKtVworPk9hTXq6Sj19uUTk0EivYCOMjMaCmIB8FpeViXVq5HWwshBvVF6GgpBxyGwdY8GWmV6tRXa2HpbVpO6Ce9ymHj2u1Wg8Laxu+Lnnxuho+PnzcKmoBKztY8X7pVXz+cvOhsuDlCguNr6Py3BrI7S3FsdHy8cotKOZzVtfPChh5XiueV9hyZlSX8/IMsOKNMo2wsP4LkVdWCaOlnTh2epUStZXC2PJ+8nEsL+XHA2+7UFZFhRqWttbmLYJ87nNzUVBeDomVPW+fFEyvQl5ePl8fEtjw9SGswRolX79Svn6FbXG8T4V87srKTWuhqkoCW0crsS16VTlfN0VQ8/G2tnxmWx8hz8m/eg8vCngRQgghhBBCnrvnFfAqitqBVUuvwSvkOjRubdHZHTiw4hBq67VBq0Z2gDIYs0fMxJ3SIiSEBSEkJBSheSq0aNsOjvpc7N48D+fvRSI65CFuXbgDh/a90EAXjh1rduBOYABycuujQ3cXJJ6fiQf5PdC+nROk2iocXjwXB3zCEP34AVIkjmjvLIf3yV24ci8UIQ/v4pct22HddghsYhdj19FweIcHonnPEXCrvIstax+h5fAucJICeaGH8e0XWxFbmo3IEH+cP3ERaNQFHeupsWrhPNzyeYxLNz3RbPAIOBY/xtaFO+EdGoibypYY2d4GodsOYrddG7zR2Ab6imTsWtAXm+/WIDc+QuxreHgeGvXqgsClc7DiwF1k5yTgcdBNXLwahtavDkXWsQPYeuU6fPyToGjdCc2Rh+1bbkDapRNa2smB0jj8tms9vILCce7oBajdu6G9NAAT50xFXHwJIh7z8XwciSi7dnALvI4dh88iyCcY1R490UZaghOLDqC0Z2+0dVBAXxLOy16E6wEJCONjpLFrjHaNHHB4+wwcuRHOx9IXxXp7tGvmiDu/z8PhW2HwPVOMbqM7QRt3AEs3GDDwreaw1lXi/t5v8PWuYJRmxPF+huDRo8ewbPsqMo8sx/yVZ5BVlILHEQ9w6vA15Lfsg/4NNLixcAuOBvjg7qMyvNK/M9QPvLHrYiQGDOwi3u+qKO4Mps3fgpjUJIQE3oNrh35oZJWPtR2n4lplGuIiI1Dm/gqaqnxxZNsO3A26h6zshujYzQkJF3/F3fhO6N7NGawyGUd2zccZn1g8DvZGORzQoUUj+F3ejG2nbuFRwE14hWkw6NW2CDw0F7suhcLrRCY68DWhyLmI5WuK0HOMB+ygRsTJGfhgzT1U5SYiJDgEoWFhYE36oJW7NaRGDWK2T8fcS2loP2gQGloC6qIg7Fy2BbeDAvCoqBoDenRBzPV9uOwnRa9+TSErCMTsuT/gzuN0JERFIPjqKdxKcsWgQS1Q5LcGW7Z5IfzRbWy5UoG+A1si//IZbLhwDX7+iZC16YJmumwcXHUGDv16o56VDKVRR/HK9xtQkp6BqMePcW33LuS27IvejQw4P+8X7PQPwOXDUWjZryeaONc9AZWQ5+NfDXgJ+yIJIYQQQggh5Lmqrq5mb731FouOjjan/DOMLOrwGLYrQsnSj3/Ofjt7iRVHerGDR0JYqTkHq/FnPw1fwKLMb58wqFj0hQ3s08WXWZ5OTGAZZ35k49ecZ7nh59mBq/dYYZAPWzduH0sveMQWzt/GirV68atVWX7si+mr2ON8I2PaLLZy5X6WWKgUPxPKSbh3gE1ccZHlVGexGyuasKhyPfNe+xbbk2ZgPj9sZ1ciCnguzmhgWf4H2Nwpp1iB+bsP177H5u44zZQJJ9mM+b+zXF0xu/vbT+z3kwksM+IUW7ctklWn3mANv77ASlMvsG07rorfFGhL49i6Be3Z3qhKc4qZUcmOTZ3HNu8NMCeo2PFZQ9mSe3ls18L9LCK/gh05uJEtu5HEMq7PZ0dv5ZjzMVbu9zMbumQzU+qMLO3EV+zV1WdYefJFNnbZHFbNu/+EUccOrtnHrnlnsBzPVezni/EsO+A3tupgsjmDgcUfms9+nLbC9Db5Mpt2gPez2If9OGkui6vmaVVJ7Nc9u1lCfio7vHIFi9flsg3WH7LwnHR25vffWIxanCje/DLm+ftkNu9Soun9Ezo+3svY0qXXTePLFdw7yN4ZuJSll8awnyYdZvnFOWzphi0svELJbhzZzi7cLzfn5O+nv8Z+vGzqe5HfOjbuTAIzFgWxzu8dYBllGjFdkHhlLzt4/CxT1QSyrZP2s5yScLZ6+U5WKI6HkWXe3MbmfjyFKYVGZPmwn/fsZQVVFWzWgnHsQIyaGUsfs++nvs8elRax00vns8f6Evab9fvsQUI6u8XbFFJcxUvhdLUs9OhU9vmhv1m94ueqwlA2YOJvbMWCpWzBvjgmrM7isJ1s1bkLrDDTh+1c8Bmr0may4zMOs0jxW1y2L/t23nwWlVsjvlVX3mGf9/qJhasr2LGejux371jGNAVsboMW7HxwFDu7aS+LSqtgh45uYUvuZLFkz41s69mn66Po8V5Wf8kJliUWp2cq//ls6MRL/Bg5xYZ98Rsr4i0NWzuUrbwSIuYn5HkxGo3Mx8eHrV+/3pzy15muiiSEEEIIIYSQF44ENvVbIM3zGjwzWqG+ixuib3mh05gucDHnEPJoVDnw93qIez4+8PbyRWRSIdTqCoQ8Oooh7w5CQ+HhdZCi+fvLsPP712GhMKIkLgx+MYlw79IVyfcOo/PEKXAxP5XMKDxVzqgVn1LHZFLU+iUjrUwlPj/NUJOJs7uP48PxI9FAZgFrl6YIun0NsfpX0ZFlILyTB/p2cH96s2SJASXZkXjgfR8+XrfhF98Gvdt2RUl6IRq4tIed3Bputm6oysuHpcwJNbGBuB2cDo+BrRB4uAxtmncxFySQQKquQlyAr9hXHy9P3IvJ4O2SQC5TIy06VEz3vX0cieWj8W4PJ9TXVPO6vZFRbY3m7rk4vrEdRr5a31we4NBsGHrZyHH3gQ8ePrLCt726wkJofFEafO564563F3wfJUInARoZtIgN8sPDeB1aNiuC1z57jH+nqakg4YlvWj2MwmP6BAoFSiIykcc0MOikfCx5Gh/Pivh85KgMkBpT4X/1Ico8RqI67gpU7g5obyFOlNBNPmwapIc/hM+9e/DhbfAJiYXSKIFEwngdT5+259CpHwbWnkNqmS2aVufgjs99VFq6ooHaC3mJHTB8oJM5px5atRFS84PnjJAhJzgFxWVpKHUvRDjvl29YIox8ku1cgYr0x/D2CYeDRzvE3/kdrce+iXrmrolP5+MDIr5VyFEel4tinQy9Wr2C3HAf3PV5hPbOQ9DSzoavtSwEXnqAXD7OrOABCo1KdHKyN32Xkxh1yIvm/fQz9dM7MAKVWoP4eX7wHXR6bQTe72QDVfxtlGoAC8d6fI3EwOtBBnQNRiL3981QfTQYT1aJhA90TT4eBvjxsfOF5/GHwKfD0MHCBh0nv4nq7DD4+vgj4ZX56NTKHc5qDXz4esqutESbRunwPtYQ77/X2FyYiSw7CoG+fA58fHHC9zH6f9EZ+kRfGHs2hRtvaYu2NniQW2jOTciLgwJehBBCCCGEkBeWx2urMawqEvH1e8HDJgd+eWOg9T+FdRu2wS/HyHOYAl4Pva7jzt27uHvXB+HxhVDra6HM06GZg7WpIIHcFq4ONnDr9DYG1rdGXGEturyegcTqQehv8MGKZUtx+3EK7Nw6omNVOLYs/xlb1m3i+WJQWKUTA14FIYdxzGI2BjW3hcy6HgZMOAj9I3+oevRD46RL6NS0Hh7u3Yw1e08hu4a3TsJQkhsFH89buOt1D0prFaRyLW+1DZwcnWEBOeydXeHIjHBqNxCjX1fjcZwCu4dbIq9RU9i6hWDx4rW4E5IPJpFAptIhPtDH1Nc7t+EdnSoGaaRyFdISAsX0G96PYFHPgIpKOd6dNwSq9CjUc+uENmGpcNr2GiKvrMOqtZdQxPujkVmgnYsS9675oKxJSzjXt+GNlgFF2fD2NNcRmgAdb+eY6cPQwCEbSeqe6P44FdqPuqH04RYsXnICyVVGNBvzJixrwvHjkqXYc/wOCgPyUGbfA/VsMrF+7q/YuOksMgIyUKp1w4g3J6A0+BG6nPwQebkGNHDritUrluLgZR9UMQkkBjUyIh7y+u/wOb0Dz8BoKIWO/onM0gHOfXTIV9XHl5t6Iy0yGX3btkPUT75we88WfgeWYenS+yjT2aLLZ+8gatWP+HX5Fly4GQrNo0Ik5ydBlxgAL17H4d2rMMc7FS79PsbAth4ICitBu1F5iK4ajS7aRCxZsgS3Ysrg1nsY3N2K8PPCRdh54AZyArORrzGgsbsc5YmheBipRL3BrQFmg8EfTIUq6CHanfoEVXk5sG3wBn7ftAq7TlxBqYH3Uwh4xQbi7i2hn3fh+TAcVTq+rjU5uJ/mjC8HNkeHt0bBkp+5ZxfVwKH1u/iiZT3Ep5Wi2YDWOBw0GN2ladi+ZBmOBudBJ5FCWp2HwHtefOxuwicSaAwDynUGWFkPgSI/HNdC0/HuQBcxwDpkynBo0h/D1bEdWnvHQPZVV2RcXMLX3EWkF6v4OuVrLjtaDK4KcxGt6o8WJTqUwoje9d35p4Cre2/I5HzdEPKCkQiXeZn/JoQQQgghhJDnoqamBhMmTMCaNWvQuXNnc+q/gJXg0sRLcFrbC/G3H6JdoyYIWBGPqdeHYsOHVzHOew1eMWcVGJSFOLJ6KLTv+2NKT1cxjTE9VCojP/E33eQcrBJXj5wBWnaH5toJNPhiDB6sysa409+hpbIE+aU1sNAXY/rk6/hsz2y83c4R/lvHIqjPMfzQ31G8qXyd8oRwHPksGP2Xh+Gxfhw6ZEUjzWIARnWMx7ajCszZ+zka8XzqgG349IoB616zxOnQjpjxU28k79+OOxX9MPfHYbAUyjQokXz5ZyQ2/AR5oYno90Z3rL0ShJnvDcWDg2PhOC4I33aru3KJYyqcmLYY+V3fxdwpr4pJESfn44v41/FoxRAIt9I3Fvhjx/UsjBtkjTN+duhVPwZfFA7HkYzV8HR4Hwt/Gg9F5mUMnpSD7fsaY/lJX+z7dRtcLMTi/oBpSrDn+A307NYQ166X4/2+Jfg6rQs8v3oVNspSFFTVwq4kEFOPZ2Ln+nlwUlWisLwaMlUhlu2/gk9mz8eQpvZCSVDlXcNR3p7OxkREeIyE/OhVuL71Npyy1+GW21xs+qCDqVKRHrdWrkKQtgeWLH9HvHpDWRSD7UM/Qq878RhhvthMmXgRMzxbY1yjaKRUuKG38hgudViB1cOaoTonB6XMEoboXZh0vwduLRuOSp0FGtpbQZ1yC659IxGe9gM6OAn3ozLgxqljMDbvBt2dC7B8eyRuTg7HlJvfoL2DFnllVbCujMGC48GY9uMIXJx2DGMPHUBP6yJs+GEbXCfOxMTe9SFcVGasvIMdZ/UY0LAcwTZd4XLPB7UeY9DFYgd+q52ME988u3qBsohz+H7SZPgXO0EqNaC6RosPdj7AvgkdIBHXrhYxhy4jpf87kAd/h6p2c5E9+XcMOfIhjl+4iy9nLsIrje1g0FZg15z3YPH+RuyfcBiLvBfj7Y4OCFrTCbvbnMLhcb3F+ox5D7DxSjZG9nTE9XsajG/pj5WST/Fbxwh0OKNA0LzP0MJBAmOtP5a+fxR9v7HDmpxX4T/7AxSdH4lPi2bC8/t3xLIIeR6EUJWvry/CwsIwb948c+pfQ1d4EUIIIYQQQl5wDAVXriLvrU7oriuDSuGCdh2awMHBB0o1P6mRymDxp/+ML7NyQr++X8PnnCcylUIKQ8m1jZj0/RkozYGqsuwE5Kkq0bWTM/JDJOjQph8aqkuQo1LDL6saNo1awMFYAmMXe7R2t4VEl4Y74V3Qu5XNn55IZ0CKz32wA59Dnl0Eq/qt0KWjJaq0mfykTQKp3EIMeghURRX8JMwKzs09UKnPh9pQi8KaXP6+MRTmMmuLQnHsyGAMbKdHdI0Nunp0hIy3qaTaAIlEAom4P/DPJJDX7dfj1IUVsLWzNZ3wsRqEeieige0rMJbnoMipDdp1bob8iGxIHKSo0KjFq9fUVeWosDbCitchnGw+u3XwCaZCUfw12Mr6oL5NKWItWqFHp1YoTimEpiwByRWFaNGiObLSYqF3s4GjRIukoiy4tGgGK10uSmUGNHcyXQ1k1Fbi4o4t6DWsG1TRZWjesTla2kpQmV/K2yOFXPa0P3XE7Zty89ZHLv/eVWxv8CnauJsTjIXwvVGO7z5ui+KaGtS4dEKfng1QWFANZUEwEq3roWVzOwQFhaHNwFbQJEejQikTg0jqggK4ftARLsJjGXlNuspMFNaWoUcbNxSFG9GqZwc0LU1GQWkG0gpT0LR5C5QVpKBEZkQTKwdo5VootUIjDKjRV4hPERXHX1+DCxvWoPvIV2CIL0SDlk3RysUWtTn5MApXUCmEkOQfhUQUo+XYKwgOC0ZwyGOEeq5H4kUfFJmnRJWbiqiiEgxqY4HaYhUadWmJVs0eoKhaDykfN4UYFeO9YLUoqLCCjb0V3A35UOp0PNWA4pxa2MjMN5nnc/34QRqauvXn670Y6TYt0W6AB8pyysFkfC3IFZCZo7sSZRnKmS2adxgMu4wqVEKPlCgjhjYRwrmEvFjoKY2EEEIIIYSQ5+55PaVRwNS5uHgpCZ36DkGrJtaIvX4eVzwjoPCYihHD5Lix6zjuZaQg1OcuvDw9cfNRLhp7dEDbdi1RFrEHF27cQ4CfN0IiavH2tAno1NBRLDfh3iZUtZiFVz0coVE9wLbT56BtOgjvjmiGWyc34uqFa7hz1xfD3puCoZ0bQFYUg93xKnz6Rm84yJ4GnYxFt3DZzwVfj+8EZ5sK3DpyA3cjK9Fz2EdobJmMY3vOITIzHv7et3DAOxOj3v8Eg7p5IOjaHlw/F4TQAjnenzIOTayFQIsG4XvvQDv3E/Rt4AR97AXsOOMLeYNu+KBfPSR7bcXV+xWID74PLy8v3PO9D8s2g6B5dBWXfR4iJiEU9+5dwJU4G/w65zO0cpBBmZeBBzfT0fnr0WhkK8Xji9tw3bMCg7/5CJ8MbowQvzO47heGcyHJGPbNBIx2LMXVmGy8+epo2Mj/GFxTl+TDc9FdtJk7Ds1tJSjy3IxTNwvRbdzbeL1eEa7/vgsXvQJxI6QWH074Dl0bSuG1bzVOnPLF3Xv+6PXmzxjZxVUMBJXFHMPpyukY/2oTWMgzsG7naRQqLTDso2FgqVdx8FIY0qKDxH56+/igwKkHnLL9cP6aF2LSIuDjcxn3I1V4b+FsjGpqy0tkKH38GI+yJRg5tBMc1CkIvrofl2/JMXLyWDSruIfffj4B/wdncb9yOFby8TCm++PixpO4E3oLJ3ySMOfHKejZyBoSfS1SPX9CcdOf0L+VA5Q1/th++Bq0Hd7Bm6/bI+TYdpy8GYJb/pkYMnY2BnVojaoKH5w+cQ33Ax6ipE0vfDuqP+wUElSlXMGR3E8wfqgHbK2KsW3faaQWVGHAuHfgUHQbe88EIis+lK9d3k9vL2Q5N0SG1200+uobDG3uBHt7O9g7OKPi1EbEdXoD/RookBpyDYnK4RjU1w012UE4tccLGbKxeO+dRgi8dRa+obEIeeAH3wv7kd3oS3z/SX8Mcw7FsRN+CA69gWjlEHz/+duoZ6+AQZuF+xeT0O3L4WhkqUfarS04d7oSPT54Bz0tMnHo0FkUx0TB388H144+gOtHc/Hh0I6wuXsUG27cwoOU7pj4xRtoTE9pJM/Zv/qURtrSSAghhBBCCHnunuuWRuFqI/6SSKTilThGgx4GIyCTyyGVMBj0evE+Vk/wfDKZzLxt0QC93ihewSSVynm66UoVARNuTs/ThOALM+eTynge4Wb1RgMMvBLhvllynma6YMbI03i9zwS7RMzI65eIN7nnb0ztMV+hJOF/6fUGsX6RtC5daJoeet5wiVTG056WycTO8b4Kf/+hXU/7/iyZXMEz8nTD00H4Q5nC+PF6pOJ7/jdvn4FJxSuQxI95p/RGXuiTtvF+8vyyZ64Ye0Ioi9cjkQvtE/4W2sPH23w1U11ZUl6WcKWRqZ/m8oWx5HMmDqWQzvvGaxHnSTgt1fN21bVbeHDAs/0RSGQKnts8L0/SeP5nr3jj9YhzIcwznxcDr9vIeB6Fub06Xi7PJuPjWTdfpvHgf/J1ozA/uEAgtEEiMc094+XqeVky3gahuro+CVfbCWtNLEmoT5xr4ao+Pl9CojldeF6c2ExzP+vGWliD+r/pJx8TYb2by60jPkxBIuPlCutTWJu8THPbhH7yhcDHAqY+P3NAmI4ToSRT+4SPpMJYPhk2YR6FNFNtBoOOf5+3j4+FuH55ebw5Zjydz7WQUzhG9HwuhHbKeH+ebSsh/yra0kgIIYQQQgh5+fGTdSGAIp6zc0LwR6EQTuKFdxIx4KNQPPPiJ+qmz4SPhWCHKf3ZYJdAYg52iX/zfGIe8xfFwItYVl2wSyAEN/7OKZQQeHhaoak9QrBASOKf1dUvvp4JYkjEfij+EOwSSPj7J3n+0C4hkPNMWeaX8JEQzHs27Q9lCuP35L0QjBHyPA3sCAEL8XtP2sb7+feCXQKhLDHYJb4xt8cU7BJTzGXVBYGeTRPH0pwmEPpWN2zCVs1n2/3n/oif8Y+ezMuTtGf6KeDv6wI3wtib1sYz7TV/79n5Mo0Hfz0T7BIIbaibeyGwZfqe+b25T3XBSzHtyVw/DXYJhPQnzeQFCnmE74lv/24/hT48LbeOGLA1N0hoz5Ox43+LZZrXiBDMe7Y8U7BLUDcezwa7BMI8Pq1NCOoJcyp+TehT3fiIr2f6y+dCSBPa+/TbhLw4/vTrQAghhBBCCCGEEELI/20U8CKEEEIIIYQQQgghLxUKeBFCCCGEEEIIIYSQlwoFvAghhBBCCCGEEELIS4UCXoQQQgghhBBCCCHkpUIBL0IIIYQQQgghhBDyUqGAFyGEEEIIIYQQQgh5qVDAixBCCCGEEEIIIYS8VCjgRQghhBBCCCGEEEJeKhTwIoQQQgghhBBCCCEvFQp4EUIIIYQQQgghhJCXCgW8CCGEEEIIIYQQQshLhQJehBBCCCGEEEIIIeSlQgEvQgghhBBCCCGEEPJSkTDO/DchhBBCCCGEPBc1NTX4+OOPsWzZMrRp08acSgghhPz/ExISgvDwcMybN8+c8tdQwIsQQgghhBDy3FVXV2PWrFnQarWwtbU1pxJCCCH//6jVavTq1QszZswwp/w1FPAihBBCCCGEPHcajQYpKSniCQshhBDyz2jQoAEaN25sfvfXUMCLEEIIIYQQQgghhLxUKOBFCCGEEEIIee70ej3Ky8uh0+nMKYQQQv5d5HI56tWrZ35HBBTwIoQQQgghhDx3wj281q9fj6qqKlhaWppTCSGEPG/CvRJ79+6NTz/91JxCBBTwIoQQQgghhDx3wlMaJ0yYgBUrVqB169bmVEIIIc+TRCLBli1b0KhRI0yePNmcSgQU8CKEEEIIIYQ8d3UBr7Vr16JTp07mVEIIIc/bunXr4O7uTgGvP5Ga/00IIYQQQgghzx3993VCCCH/CRTwIoQQQgghhBBCCCEvFQp4EUIIIYQQQgghhJCXCgW8CCGEEEIIIYQQQshLhQJehBBCCCGEEEIIIeSlQgEvQgghhBBCCCGEEPJSoYAXIYQQQgghhBBCXhhaVTXKyytQUVGB6hoVjOb0ZzFmQHVVpZjnz6+q6hqoNHr84RmxBi0qKyt4uTXQ6v5eieRlQwEvQgghhBBCCCGEvBCM2jLs/nYQunTpwl9dMXLcfGRV/22AylAeg0/fHSbm69q165OX8L730Ncw6adNCEwphUGMejGwpPPo1V34/COcDy4QyyAvNwp4EUIIIYQQQggh5AVghDLLG2cuRiM3Lxe5OdkIf3wfgcnFMJhz1BGu8CouLkJOTg5/8by5pldeXh6SwwNw9rdf8OHEX+CfWmX6gkGLstJinqcWOlMUjLzkKOBFCCGEEEIIIYSQ/zhmNCD69kGEqRnc334X49o0ga4wAVfvxaFCa870N5rjy6WeyCjKFwNe2ZmJ2DPnDcglDPkB+7Dp5mNzPvLfhgJehBBCCCGEEEII+Y8zqjNx6mgy9EYnjB45F19MHwQF1Dh38Cri86rNuf5MBltHd9RzrYcGDRqgUZPW+GT2r5g91PRpflAqak1/kv8yFPAihBBCCCGE/AcwGJmRXv+BFyEvqoooL3jn5ELayANDB3TBgDHjMcgOMMSdwp2IdHOuv8UY++MN6iX8pTf9Ce2fN0OS/xYSvjBo8yohhBBCCCHkuaqpqcGECROwZs0adO7c2Zz6VK2mGslFUfy8lP4b/P8mK4U12tTvCqmExp28aMpwe9FUfLbqHFwGTME1z9/hoc/Fb9P6Yu7xXHSbtBsBB7+DtTm3rvQxBg95B0GxFpi2+QI2zO4OSyG6oS7DybXf4ftVFyDc6/6jbT44O3MoWMwRuA2YirLq3jjsewoThzQ2FfQSWLduHdzd3TF58mRzChFQwIsQQgghhBDy3P2jgFdxdT484y/AwdoVMqncnEr+XST8n0plKTo37okODV+hgBd54Whyg/HzpLexzbca76+6i9M/DYKC6RB7fQ3GjFsKVbPh2HHzNiZ4mH4vnga88qGwtIKlwrymGYNOq4ZGJ0GLV6fj2LFleLWFPQW8/gtRwIsQQgghhBDy3P3jgFce7qfcQpsGvWAhszSnkn8XuVSOxIJHaOHSigJe5IWUcGsTPnp3LmKNcnQa8QEGtbCHjgHKkmTcvuWHMkkzjF90Fkd/6QsLnv/ZgJeltS2srWTCTmn+ksGtaRv0HjEW3874HoM87CHjH1DA678P/coRQgghhBBC/jP4yanRqIeRGej1b34ZmF68zxEhL6rHD24gTsd/Fgx6xNw9g11792P/vv04eckPZWqeQZWDcM/DyK/6833ommHi4juIjo1DbGwsYuNiEOh3C/vX/YihYrCL/LeigBchhBBCCCGEEEL+QxhQ/Ri3r0WASS3R8/UvMHPmLMyaVfeaje8/6AMnWylSokPxMK0Ef7wNvRQKSxu4NWyIRo0a8VcDuLk4wcaStkr/t6OAFyGEEEIIIYQQQv4zGEP+vYPwyqiB1LIjpq1YhW3btmLr1rrXFuzcsxj9G7mAlcbglHcsqrV0tSL5xyjgRQghhBBCCHmBSCBXKCCTSMzvn5LK5FBYKEwvhUx8wqNCJoVUKoNCLufvXzwSqRxy2dOWSXhb5XV9kAt9MKeZ//4DxnvI+yXkFT6vI+RXyJ89lRPGTA6Z1FSC8B0ZHxeZnI+jOY2QF5VRX4yz+++iVKmDdY/ueKVJPfMnz3AdibGDGoAxDe7sPYHYohqeyMzbdI0wGP5RAIx/zozQ6/X8bz2MRgqY/TeQLeXMfxNCCCGEEELIc6HVanHhwgWMHDkS9er97QmsUluNzLIUuNg1EJ/SKJFIIJXJINNX4/qZc6h19EATF/PN7Pm5qVQhQfr9azh93gchD0OQkGhA/VZ63AhMh3V1Jq55R6NFuzawlD17IiuBRAj4/MNzW163VCoGnJ5mNafxdtW9hCtRTGXy9D/fD0to/9/kN6IwwhcByQo0a+UIKT/Jrkzyx9UzN3D/fhhCC/Vo3aohdJkRuPIgGy343xbPBKhkVlrEX7qOs9d9kFohQ/NmDWGpAIqifHAtUo02rdzF+xMxnQr3zt5EuUUjNHSWIvHuDaSWG5Afehv5Fs15mhWkvD1lNQVwtnGBu30jU/sIeQEwdTWii4C2XXvjkw8/wuCerfhxYP7wCTlcG7pD6tgSA9s1QsfefdDUSQGNwQKdu/bBiFED0a6Z/f/7ih5+yGotXNCzx1CMGvMKPy5enodlPHz4ELa2tvj/2LsPwCiqNQrAZ2t67xAIhN57B+kgigVBEFGfDcWKiiAiIoiIgGADVFBUVIp0FEEB6b0XgYSaAOm9bba/uXc3kEBAeknO9964m+m7JEvm8N9/GjRo4JxDAiu8iIiIiIjo9lGpoLZkYv6rL6FLjdbKxe59GDF0Ap7veC/uqXsP2jd8A5sSLNDpVYjatABLVXXwYK/uygVudSDuMH5cuRsn9m/AlOmLkGlyhFZyt2o7Mo+uxLMvfYMDqaKq4xLUykXz0X/QpXEXvP3JPKSZlYtg5ZxsR5fhufseQPt67dC2bjt07fgkVpzUQJ2+B+/d+xR+3psKF2eVldbFjn8mvIBmNduhQ6PO6FC/LZpXeRIz/zqNuO1/4fe/Y2HRa2DOjsO4t35Esn8TdO/eBuaFU/Dtgr0wHN+On+ZshMFiE3mag/J49s+p+HzbKTzyaGe4LvsO3/+yHa4uGiTuWoYZS/fDpKyjVmuhUZmwfMYc7Dicp5yTDf8u+Q0bNu3D5rlfY+vxTPl6iO5Uao8wvDB4GMZP+AT9e90Dz0u03qrQtBcmfToO4z59F80jvKB2K4tX3xLbvYMHW4Xh8h27VFCFNsQHo8Zg4mcvoGFFb+d8KskYeBERERER0e1jB2xabzz46URM/m4YXnjzFQwZPQyD33sFLwwfiem/j0KTYC3ECCS11YaUFb/giw8n4qddp5QLYy30u/7AdzNWw8vD9VxWZFeeadRWnN7yN/b/tRqHT6XB/eKSEUnjosLhlYuQYLDi73/24tCZTLkfuykbWcq8V2evxtL1SzHkQTsmv/MBDiYbkRwbj6x867njWYwqtHllEv7e8DP6VPLGI+9+ib+3T0Hv9mVkZZXaWWWm0ujg66NG6qnjiDp0DHEmV3h5uSp7cFSNFaYy52HWb5vgG14XERUr474X78Gu2Qvxw8K/sPVAgnyNaq0LEnb9gsGvjcKBuDQsm/Yxhr29BVkqtRwSKoY+MusiotKKgRcREREREd1GYmigGvqcfzH7qz9wMCEesSdicOb0KexcNBfLN5xAwSg/m06P8KeH4osfp+L9HvVhMFlgbvYQXnrhXuQaTHIdMdJQY0vH2ukzMG1WLv73VAX89f10/LQmFmaRmonDFVApxzWcwKq1iWjy3BtoY9yHXXtPQbbcUqmg0Wrh6eMLH19vNGj5AAwxZ3EqPQ8a5SrqwiBJ5+4FX08PZKpsyIIefv5ecNEVvtyyQeseiJdGPoHy6pPYvTcKAb2exRPdqsJktZ0Lz87RaFDJ1x9p0WeRbTPj9J4Y5GjTcHbfIZw8kyV2B7vZiLAmT+PL6Z+gRdUaePDl9zH+85YQtSs2Bl1EVMox8CIiIiIiotvMDk1YbVQJSsDyab9i7szfMHvGPKw+lIuIGuGOAEqhMphx5K2HULNsbbRu3hOr4zyhspphNJpFjZRc5/iyL9C0am/s8WiBTxZ+gVdHfIIpY56D9/qhaF5pMP45liX7XgkqlQaph9fgQJIWfXvdg671/LBq637oRaIllysXTKKvmFaHvWt+hrZcGKoF+RbJzAqolE2yEg9hf1Q0Nm/6F/na88MrJasJB75/BZ3uHYQvp8yTr3HO26+gR4deWHPG7VyoV8CucsEjk0ajXfIKNA1vih7fJuLVz8fhnRFvoG+3qsrxbKKnPWxWA9KTduHYnkNISd6PGX1aYPTiXcjT35lN/ImIbhUGXkREREREdNuoYENWzAEsnL4EtjoPYeDrj8PfXYW6Dz6BtwZ0Rvau1fh96R6k5QAdh36LnUe3YPvRHfhn/Xz0aBiKB1rUQ2TtRnioe2t4aO2I7PYy/tm3BC/1rAMPD51yBDXc/MPQefD32PDvx2hbyQtWx6GhQS72LNsPQ5WOuKdKMFo+XAPe29Zie75ehkXG7AzMGTUYwwcOw6acjpj07Ueo6OmoJCtCrYPh1A5Mev8ThPV9Gx0zlmDkNxthUinHL0idNHrUeuozrDu0DRvWTEYHgx5v/TANb770GLIOb0N6MWMPbdZQ9PxsND79aDgWLxyNDtV8YbXYUaZFLwzs0wQuYufZiZg15gvkKcvWb9yEuhPWY9iD9eFmshQbzBERlRYMvIiIiIiI6Lay2yzIz8uDId8Ik9Yb/V57DW2qeiHfaIbBkA9TviO80er1sOedxszxH2LE4FEYO24u0reswqy5m+Dn7Q6Vyi6HNOr0WmWfZnmnSLPZ8Wi1q6HTFQ2VzNkp2LJ/I1JObsXYge/hs1/24HT6Yfz0T6KyVAUXLz88+fFXmPD1eIwZPxR1gpT9OzYtQmdLwKLPp2FNwON487VnMGDUC9DtWIj5a2JwfrCiCmqdHjn7f8f3i1cg39cNHq562ePLYrFA52yAX/gAdrsGppQj+HHoGBxNUd4DZT2r1YxTa3/DxJ+3wqzT4OS6Wfj5aB28/+0XGNLaBW8PmYCEbNHI3rkTIqJSSmVXOJ8TERERERHdEDk5Oejbty/Gjh2L2rVrO+eel5wdh/VHl6NSSH3odR7Av7PxzMAfEJejEhcpcjihyWBEjaeH48s3OkIDR9gkwjFDbh7EDQ0llRYn/pyMV7+PxZxFE7BtVF9MXp0H3YVjBBVWswldRkzGqMdqI89sR2b0crzY9Rt0mDIRj7UKgYt7DuY8+RZ+SuuFuZ/bMPCNX/DMT2vRpUymDNLEsayJG/FKxxGo+90veKtVKPKVE1HBCkOeEXYXd7iL8ZIixDLmw2xXI/rnkfjx7IP4+JNWcM0348ScYRi+IRjTvnoNbtBBr1XDbjEhz2iDi6vuXDwmqXTIO/Y3Xmo9ECfDQuGmdSw1ZadB3+EdLPy6N9zy82Cw6+DhqgWU9yY3KwPL33sbZ2p0g277VGie/hkDOkYo758KRxP2omJAJdQIawS1GINJRCXCuHHjEBQUhGeffdY5hwR+yhERERER0e1lt8NmykaeKRL3v9gPfZ9+DH2f7Y3OtYNgy8iD1Xa+skql1sLdyxvePucnd1cNTGazstALPccvwj+7/sJfO1ZcNK3a+w+GPFJLhl2C2ahHndceR4cWEcp+vODmVhHtXnsA93VIg1VfCV0evA/h7qbzVVd2G1RuIWjb50HUDnGT5yVnQwNXd3e4aRyripoCjd4FrnoNbFYzzBbb+V0oU/7xg5j3w1z8Mu0nzJj6A3745mfMXb4bWeaCFO88EfDZta5o27MPnniuH/o93w+dm5eHymZ1HscVHi7iwMqeVVp4enkCVgssFiusJiNsznMkIiptWOFFREREREQ33FVVeGldYc86g227o5GZaRI3IJRUajVCajRAvUpBFzV1P0elQm7CCew9mYNGjevCVXvllzcqjQ6uOhWMRuWYcjM71FoX5XxUMJks0Oq0sJjylWWFDi7u7Oiig81kPF9ldkl2ZMVG4XR+CKpX94dGOUhu/FEcPHgS6XnnQzARpMG/Atq0rA7PgqGNgvLarDkp2L9uL5ItZlidG6iV8/aMqInmdctAc9HlnA3xB/fD4BkMdfopqMo1QESQOzTKebPCi24Uu8WI5KM7sWzpH1ip/NzmmNXwq1If3bs+go7NK8HfXfTPEz83+Tj002R8Mn89spw3g7iYHbba/fDtsB4Ic9Mgaev3GDDhz4vCWrtaC5/Qqmja4V706tYMoR56WE78jecHf4tkQy7uHTgRr3W9+LNm/8pvMXjSUrjryuO1LyahTsLPGP7l70g0FNy+4kJ25UeyI8bOfBE1fV1gStqBUS9+jAPKz1qRV2BXw9UrCHWbt8eDvR5AjVDl56xojeYtwwqv4jHwIiIiIiKiG+5qAy8R7mjUF18Q2+22/65SUqmVbQGr9T8TqFtOpZyb6C127jXIcy3uoth+ifNXQa28uIu2UN6XggqzC4mgUCUu2sXluV1UgkE5poaBF90YtixsmfkhBoyaiRMJGcjJN8vZKq0LvLx90OiBtzBl8juo4Snm5mL90OfRe9wciM54xVO+u1uNQPSyd1HFW4uYRW+gcu8psBQkvIWo1Dq4eXqhfvfB+PH7oYi078PLdVpg2nEDwh+bisOzX4I87DlWfPtsTQz48RjcW76DPctGQbPyTdz3/BREZzpXKVY/rE+YhjYh7jDE/I57Ix/GBluhkLqA8rnl4uaF8rW74tNffsWDVUTQd+sx8CoeAy8iIiIiIrrhrjrwopuKgRfdKMk75+Gxhx7H2mQ16rR/BO1qlYEoTMyJ+xdzlqxGpi0Yvd+djh+H3wc3dS42DHsBvcfOgrFsJfR4pCf89BYZwp5nh63KfXjv6fYIdAFilryFKo9Ohtm7Ovr07IiyXo4QSfTKS4zehMV/70SOS2U8O2Yuvn6lHv74sCN6j1oHr+Au+O3AX+gULCM0h/TVuL9+Xyw/Y0Dvz5bhh1fuwdlFA3H/C18iFmF4qFcflPPWwFbkhETI3hyvj34EFT11MMT8gfsrPYS1Vh/c80gPNK7gK4MvlXIQQ8pJzFv8J5IzdWj25EdYNH0gwpTXcKsx8CoeAy8iIiIiIrrhGHjdWRh40Y1hx85fh+ORJ8YiK+g+zNuzGJ3LauUSm+ksvu7dGsNXJsGn+ePYuHgawr3yzgVePm0exl+rFiFCL1cvnt16PvCq8j9s/ONztIr0di4ETGc3oVWHR7Az2ozOT3+BuTOeQPrGKXik42vY5xKIR6ZtwbzHKjuHQNtwak4PtHl5KeL1LTB75WL0qhOM4/MdgVdySAv8uWY9moc6zv9SzgdelTHp76V4o3M15xLlCJYUfNWpE4at2wfftk9ixfyZqBPoXHgLMfAqHj/liIiIiIiIiOiK+PmHwV9vR3bmBnw0fAzmLluFnYeOIsPoj+d+2IqDUUewZc44hHkUHYgrhtpqL9U2q1jK9qKMqhBLvgEWcYMKqKF20yv/VaFc5eZo3DQQyM3Fsd+WIbVgKKQ5GbO/PY60DDUq1mmMhhGB5yu/FCrlf9qrGoGourhHlzUfWRaz7Duo1bjLodV059CMVDifExERERER3RAmkwkLFixAp06dEBwc7Jx7Xp4pGzFpx+DvGapcJF6+woKun6joSstJgJ+7P4K8ykB1QZBAdGVU8A7yQ27ydmzcF4Pju9Zg/qxf8Oe6rdi37yCOxeUjuFJ1VC4XCK38FjMjdvXvmLfxAHKUr/KycrF781qsX78BGzYUTLuhKlMd4f6uUMOOzKi/8NW87XKYocaaigPbN2P9ho3YsP5vzJn5PdbvOAZ1SG30HTQYnap6Q+vhBkvUVqzachgZ9nx0frgPInx0yDu9C4OnTkNsTgjaPfk+nukSAfFJk3ZoBWb9vg2p+crZ5ebh4M6NRc9HeZ7hVh6RZXyhUV6DJTMas76cg1N2wK624vShHc7112PZ3JmY9s9mZCMQHfsOxlNdq8LlNoRemzZtgoeHBxo0aOCcQwKHNBIRERER0Q3HIY13Fg5ppBvJak7H5lmTMHDwROxJNjjnKlRauIXXx1tfzcaHD1WGGud7eCU4V7mQWlMOo35fh8H3VoQLCg1pvORtUD0x8NvlmNS/tXPoIpC+fjzu6fseDiZXwNg//sJbXcri5LIJuPeR95Ed2QJfLtqEx6s7Vj7mHNIYnS6/vIioRHv6y9WYMqAd3DSFhzQW07TeqdGLX+HPKa8gWCRktwGHNBaPgRcREREREd1w/xV4JWXHYfnB2Qj0CodWfbmmPnQjiIquxMwYNCjXAjXLNGbgRdfNZs5HdmYmUs4cw6Yt67B5617s27wSO09kwKf2I1j5189oEGo/F3jlhZRH585d4K27sGm9Nx56Yzi61wuCtnAPL49IdOvaHCG6POz7Zzn2x1sRWqcnps36BO2qloWbvtAAQ8NBvNj2QUzbcRrN3/kZ84a2xprRvfDMpG2o33MSVs5/E37OVQsCr1O2IHTqeh9CPdRFm9YrT1v0G4ynO9aEXvkxOR94eaKxcv61y7ji7IE1WLfvLHQBVTF06ly8em9N+Hjcvs8xBl7FY+BFREREREQ33H8FXjnGLOw/sxlGi/HcRau4MLk99RGlg1qtQYXA6ijnGwkVAy+6FnYzVs0cjj/2mBHS6X8Y2r3e+Z9ZmwkxayfigT5jcCizPD5ftwoDWvhgizPw8m3XE2tWzUfo5fp4FQ68qj6LTcs+R8vyGkT9+TleePUTrI+zosVT4zFj3LOoHlD0dojLhnfAA2PWwB75ApZ+1w2LnuuBH07q8eqvW/HV4+eH+hUEXimhrbBq81o08L3SpvVV8dXKpXilUyWkR63AkFdewXerzyC8ST989+MkdK3p79zi1mPgVTwGXkREREREdMP9V+Al8FLk1rMr/2N1F10zuxU/v9sRT43bAL+aL2Dlpslo5OtMsJSfZ9vRX9Cq3WvYkVIOX679G/1bemOrM/Dybv0Q/vx7MSq5OVYvVuHAq/KTWP/HF2hTyUdZYME/k19E99dmwKB2xX3DZmPp6IdRODtL3PgVmrd5HacQgT59m2PF7LnI9OiJP3ZPw/1Vz4dRBYFXcnBz/L56PVqVvXzn+sJ3aZywfDEG3VtDzj+58Rv06fwSduSrUav9W1j41wRUvaom+DcOA6/i8ZOOiIiIiIhuCzHMjtOtnRh20XVRaXBPl35oHKBGRvQP+F/vZzHhqymYOnUqvpjwHro88AZ2JWTBr0Y9NKnkK5vEF8hMOIU5338t1y06TcHkyYtxMsPkXLM4WrR6fAjGPlkLels+NvzwCb786yyszqWCb8326NvaV/k+j8W8ufOQqWxT64VeqF9GBGYXM2YkYckv3xRzPlMxZfJkHEjIc65ZvIpNH8PEz16Av4sNh7b/ghGf/Y1si3Mh3RFY4UVERERERDfclVR4EdFdyJKOldPfxcujZuF0Wh6MZkfsJIbJal1c4FOmGd75YioG3l8DOlUu1r/bH30+mX3JpvUOzTD/8Ar0rOaFmMVvovKjU2Cp9ATW/fkl7pEVXg4pexfg/vufwvY4Iyp2fBXL5kxAjUBnWZU1F+umvohuA2fBIGIOlwoY/+c/GNihIgp31zo6/zV07z8Z0RnOGZfw2fp4vNEmFIaY39Et8mGst0Uq+1uKt7s5KrwEa8YRvPXQfZi6/iTUZdrgl9/noVfDkFs+NJsVXsVjvE9EREREREREV0brh07PfYpVK37Dh68+hYb1a6Fy5Rpo3OwhvDr2W/y9ch5evU+EXWJlFdwCQhFRqTKqVq16yalypUrwcXUMUNR5BilfR6JshRC46YpGFgF1u2H82z3QoFYkNCe3Ysm2GJy7maPGDTXaPowOjSJRKbIS6rdric41QoqEXYLeMxjhFSOLPY+CqUrlygj0cARpKq0HylWpjPDwCvC7oDG9xrcq3vv4LbRrUAvlXE5h7rLNMFhZU3SnYIUXERERERHdcKzwIiK6NVjhVTxWeBERERERERERUYnCwIuIiIiIiIiIiEoUBl5ERERERERERFSiMPAiIiIiIiIiIqIShYEXERERERERERGVKAy8iIiIiIiIiIioRGHgRUREREREREREJQoDLyIiIiIiIiIiKlEYeBERERERERERUYnCwIuIiIiIiIiIiEoUBl5ERERERERERFSiMPAiIiIiIiIiIqIShYEXERERERERERGVKAy8iIiIiIiIiIioRGHgRUREREREREREJQoDLyIiIiIiIiIiKlEYeBEREREREd0GNrtdPlptNmRmZSM7O0c+tylTekYWcnLz5HMiIrp6DLyIiIiIiOiukJ2Th/jE5IumjMwsudyZH90WIphKS8+46NwSklJgMOQr51b05JIz87H+YBJy8i3IzTNgyoy5GDnxG5yJS0RWdi4+/mI6Jn79ExKT05xbEBHR1VApH7y38a8FIiIiIiIqiXJyctC3b1+MHTsWtWvXds69Pr/O/wPfz1qkXMWIcMtxGWO32aHX61CnRlU8+Wh31KtVDSqVssItJkK3MZ9Px679h+TXhc/P28sDndq2wOM97kNggB+OxmXjua92Is9kRuf6YXi3R0W89/GXOBOfhE+Gv4FAf1+8MnQM3N3c8MHbAxARXkbui4ioOOPGjUNQUBCeffZZ5xwSWOFFRERERER3BTHcz2gyoXb1yuj90L3K1BU97u+IyhXLYcO2nfhs2s9ISrk9FVHi3DKyspBvNKJr+5boo5zbow92RbdOraF30WHe0r/x3a8LYDabkZlnRkKGAWarDVFxWYBdZnhF3PrIjoioZGHgRUREREREdweVSmRDaNaoLp7v94gy9cRLT/fBiEEvoUu7ljh2IgZ/rdl0W/pe2Wx25OYZZXj1yP2d5bn1f6In3njhSQx7vT9Cgv2xecdeOcSxergXXrm3PGqW9cQ7ParJ7R31YMVh9EVEdC0YeBERERER0V1FDFnUajTQabXQ63QI9PdD3RrVoFW+Fs3fL5STk4eYM/GIS0iGyWyW8zKU9URjeNE4Xgw/zDPkn1tmtljkEEUxr4AYoZiVZ8appFzEJufBYLI6lxTiTK00auX8lHMR5+ei16NOzaqIKFtG2b8F6ZnZ8HDR4sWuVfH1iw3QuLL/ueb1RER04zDwIiIiIiKiu4hKBl4ipBKVXGLKMxhw6vQZWCxWhIUEyXUEMbxw/u8rMfjDiXhn9CQMHvUpPpr0Lfb+ewRffTcbH332rQy1MrNyMGjkBDns8N+oYxgyaiLeGjEBH38+HQlJqTBZbJi7MQYvTduFV79Tpum78fp3e/DP/kRYrMWFVapz5yaGOp4+E6/sJxl6nQaBfr4w5Bvx66JlGD1xKhISU8Qrcm5HdOfLN9uQY7Re05RrssrtGfLSrcDAi4iIiIiI7gpWiwViUOPBQ0exePk/WLJ8rXz8+se5WL56o2xY3751U6jVKnnnw+9/Xagsm4OjJ2JktZWoutq+9yBGjp+KzTv24GTMWditNtlXa+/BKNlwfvzUHxF7NkHZhxourjpo9Hp8tjQaE3+PRtTZbFgsdlndtftEGt6ffRDT/z6O3Pzz1V4ijPtnwzbl3NbIad7Sv5x3W0xHx3taIijIXwZhMafP4oDyOkQoR3Q3ECHV9lMZePT7vWgwej0afLSh+GnMBjQcs/Hi6eONaDJ+M/r9uBdzdyfKHnZENxMDLyIiIiIiuiuICi5xA8b1W3fJBvWfTZspH5esWAOr1YpyZUPhotPLdTdv3yOru3y8vfDSM33w8bCB+Pi9gXjrhSfl3Q+zsnOg0SiXQ8r+HEMk1di59yACfH3w0dDX5LovPtkHO47nYt6W0wjzdcXwnjXxxXMN8eVzDfDyvZXhqtfgp7WnsOtEqjymoFb2NfO3pc5zm4mvvp+N3QeOwM3NBZHlyyrLHZdgGrUaauWYt+OOkkRXy2KzY/m/KegxfQ/+OJCIYxlGHEvPL35Ky8fRNMPFU6oBh+NzsXBPIp7/ZT8+/usEMg0W5xGIbjwGXkREREREdJewQ7nuxqMPdsb0T0di2sQPMG3CBxg15GVUq1wRK1ZvwLSf58FitWLZqvVQqVV44ale6Hl/ZxmGlQ0NRpf2rfDq84/Dw8NN9uU6TyWrup7s1R01qkYiONAfGhd3LNlxVoZsL3atjIealUG1sl6oUc4bz3WKxCPNyyLXZMaWqDTYnMMSrXabcj6vYNokcX4j8fUnw/Gicg6iv9eUH+Ziy859cj2iu4X4MZm1Mw69v9+LuEyjSIgdC66F2FT5ucwz2zDyz6N4Ze4hDm+km4aBFxERERER3SUcF9pBAQGoXqUiqleuKMOpDq2b4/X+/RAaEoitu/Zj38EoZOca4O/rg1rVKsttCqteuQLKhAYrF/LnL7RFT7CGdaojvEyocw5kf65sgwX+nq5oGOl3UTVWh9rBsFhUyMyzQIzOksuVXVYoVwbVKznOr26tquj7yH14vOf9yMvLw6oNW881w7dYLHJ4I9GdymC24qu1p/D2/CMwmCxiXKMo93JM4vl1UWHezjg89M1unE4/f4OI2yUn34xvN8biz3+TnXP+m+jvt+5oGvbEZsrXMGtHHKITcwt9stDtxMCLiIiIiIjuKiKoEgFVATE0MTIiHGXDQmVD+LSMTDlfrFd8oGRXLrWLhldiXV8fb7i5OoZEFqFSyaGKF9JpHUMi1SLnUo5jNDn6cRUO0gRxp8YqkeWh0+tw+mwCsnJylLkqeVdI0dSe6E6UY7Tgq7WxGLIwCsm5Jhno1gn3xvDuVTDigapoFOFz3YGCSZn+2J+El2b9i0Px4ufi1jmRkocPlx/FyGWOaejiaLw99xBem38IHzjnffB7NH7bnSCrQefvTcRI5euC9T//5yQOKuf84pyDGPvXcew+k4Unf9iH5YeTi3w+CaKKbcvxNAxbdASxabc/3CstGHgREREREdFdLycnF+ki6FIBwYF+8Pf1RlpaJvYfOupc4/wF6PFTZ3E2PlFewBcQz1Syv9b5eaLPloerBlm5+YiOz7pgCCSwJSoVOg0Q5ucCjcqGXINBbn3BalJWdq5suu/h7gq9TuecK4/qeEp0h3nv92N4b2kUjKKSS5laV/bHny83wujuVTDq/sr4/aVGuK92kBjH69ziGmlUWHY4GX1m7MXOWEdYfSuk55jwz6FkrD6chDVHknEwLguNI31Q3kuPdVHJ+EeZ9/e/Sfj3bKYMsBbvT8THy4/j162nMUuZFu2KQ2aeWfb/0yqvQeTfWr1GPr+QVXmPtpzKxNgVx3EqLc85l242Bl5ERERERHSXcFxYp6Sm48jRkzgUfUJOO/YexA9zl+Jk7BmUCQlGRLmyeKBLO4g8a8oPs/HL/D9wIuasrK76c9V6jP1iOvKc4VQRcsb5ub4eOjzYJAxmiw1TlQvdLVEpSM7MR6Iy/b7zLOZsjIW3uw5NKwc4txBUiDkdf+7c/o06jrWbd2D2wj9lNVeDOjXg6+2trHedIQHRTZKaa8YLs//F9E2xcuSiGK/br2lZ/Py/ugj3dXWspAjzdsE3j9XC063C4XpxxnPV/o3LxmMz9mHh3gTnnJurXnkfLHyxMZ5rVR4+7nokZJlwKMkgm+4bzEDziv6Y+ngdDL23svxYEC/R102LT3rWxPhHa2HEg9UQGegmf5RPpOZjdXTaJX+qU3NNWCGGSmrUWLwn3jmXbjYGXkREREREdFcQFVYq5ZJy+eqNeH/cZIw4N03B4uWrUa5MGJ54tDt8vDzRpGFt9H6wK+zKxfq3M+fhg/FTMHLCVEz6dib0Wi2CAwOUPTkuT8V/ZfWWmApduItKjQ51QtBbuSA+mZCDd2bux7u/HsC7P+/HR78dRk6+BU/cE4E6ET5ye1EFIkK2r777tdC5TZbHjT4Rg1ZNG6Bru5ZQq8WrUJw7qPNBfu1QsL8Lh0cS3UxpBjOGLo7C9I2nYTDZoFN+Bp5uWQ4Te1VHeb/zYVeBsr6umNqnFga0qwCXYob9Xg27sv3xpFy8NPcQftkeJ+8MeTNplZ/DdVGpGDzvMKJTDHhZeQ2j76+MYV0roUO1AHy++iQ+WnEMRvP5YcepBgtemPUvnvv1IIYviYbJbJWfGbtjMjDtn1NFfoYLiF6AC/cmYrVyLB8PLRbuS8K2E+ls1n8LaEYqnM+JiIiIiIhuCJPJhPnz56NTp04IDg52zr0+cYkpyM3Ll83oPTzc4emcQgID8EDXtniuX0/UrlZJ3m1Rp9Wido0qqFalInJy8pCYkgqr1YYubVvgtef6Qass1+l0aNOsoYyURCWWaHBfp0ZluW0BvVYtG9ZXD/fC2TQjTisXxqKRfZOqAXjzgSro1rAMXHQa5cLXhOjjMQgM8IOXl+e5c/P0dEfVyAg8+egD6NvjPrlc3EUy9qyjL1D7lk3g5uaKU2fi4OHmhuaN68Dd1Q3HTsYiJCgQjevVgpeyH6KbLddoxbO/HMCcXfHyZ0KEXU82K4svH60Bf/diets5ifXuqeynfN9qsPF4+vUFVSoVck1WrDqSggAPHeoqP3ca0STvJhFh1N/RqUgxmJGVZ0JMaj6iEnOx50wWcs02dK8dhE7VA2VIvXh/EpLT87F6YFM83zIcjzYMk/0DZ+2MR6tIXwy9rzKW7E9G15qBaFLeR/b0z8634It/TmDMiuOor8z7vEd12RR/1q4E1Az1QLivmyj6KjK8+lps2rRJ+Uz0QIMGDZxzSFDZL+ymRkREREREdJVOnz6N7OxsxMbGIjk5GYmJiZg6dSoWL16MunXrOte6PqIiQjSHv5hKVlaJoOtC4nJHBF0iZFIr62l0aqhVakf1lDJpNBpZRSXWEY3pRR+v4q49xbHFocUFsqjoEL27HOsXrCz2IS6tir+8EvsVF82SsorNbpPHVytXu6KBvmxer8wX64h9Wm1WOV88v96LYaL/cirNgDfmH8ayA0lyGKP4Vh3SJRLDu1aCh4vyzX4FxB0dv914RoY7KdlGx06ug2iFNbhzJN5VzsPb9XwIfSMoP3rIyrfIcC4+w4CtJzNk/7BZO+JRxt8Nzzcrg/rlvFG3rLcMtTz0ajz760Es2hGHFtX8YVTeJIOyfbMIX2w4lYk6oR54onlZPDJ9Lyb1rIaXWpfHzC1n8enqEziWakDnqgH46IGqqKfs8/d9CXhvcTROZOSjeUUffKzMb1rRz3lm12bcuHEICgrCs88+65xDAgMvIiIiIiIqlrjDodVqlVPB85SUFBw/flwGW2KKiYmRYVeFChXg6+sLV1dXlClTRoY5o0aNwt9//4369es790hEdxIRBpxON+CZnw/gnyOpIpmFh16DDx+sggGtysFdeX61ft4eJ8OztFyzDIevh4iwn2pWBp/1rAEfd9317u6cPJMVg5Rz3BWXLYc2apXXnW+x4eCZLLi76VAr1ANW5TNMhH86ZfmYbpVwMDkPq6JToVe+LuepR2SQOyoFe2DSP6dQPdgdnWsH47Hv9mB8j+p4sXU5/HkwGV+uPYUnmpZBt5rBCPJyVMmJz8aY1Dz8tisB22IyMfbBqqga6imXXSsGXsVj4EVEREREROeIywMRYOXl5eHgwYOyUis+Ph5nz55FUlKSrN5q3bo1QkNDUbZsWdSsWVOGXN7e3tDr9fK5u7s7Tp48ic6dO2PJkiU3rMKLiG6sQ/G5+N/M/dh9OlNWMfq66TC8W2W83i5CDlW8FmarHSuPpODlOf8iJi3/ukMvcU/TB+uF4JOHq6Fy0I0Z3iv6cn23IQa7zmQh39mjS5ymqNoUAUlBfy0RhgV66vFs87KIDPFEZr4Fv+9PdNyZUVSwKf8XlWIaZTvxfmUbrWhfxR/1wr1lxWdmvhl+7jq53wuZLDY5fFO858UsvioMvIrHwIuIiIiIiM4RlVzvvvsuFixYgHbt2qFNmzYy2AoMDET16tVloHUlDhw4gHvvvRd//fUXateu7ZxLRHeKracy8Ppvh7EjNlOWeomeWaMfqIKX2pR3rnHtRMqwJjoVby2Mwr7Tyv5FOHQ9rDZ0qBEkhwvWKyvucnpjfPL3Cczbm1Ds6YnQKzLAAxMfOd+w/1SqAfXHbpTPLyQCLKPFji9618DLrcsjx2Q9F5xdjgjLxLDR4kKxK8XAq3gMvIiIiIiIqIiEhAQMHDgQ3bt3xxNPPHFNPaTWrFkjt9+5cydq1KjhnEtEt5sIALafysRjP+zFqeQ8GUaFeejw9eO18UDd4OsKXi50KCEHz/2yH9tOZMJ+vaGX3Y6Kge74fUBj1AzzuCHDG8UdF3/bFYcxD1ZDm0q+8r0RxKk+OXM/sk02LH+pEaoGe8j5ZqtN9ju7kBgSKZrXj1x+TDb571TJH8/POYgzmSbnGsUTgZjo//Vl75qoEHDt1WsMvIp3cVdHIiIiIiIq1cRwxYkTJ2Ljxo348ccfZe+uqyWGQoqG8MU1kiei28Nqs+P3A0noPX03YlLy5LyqQe747qm66F7nxoZdQo0QT8x5tgHurxPkSNquh3JuosKqyxdbZZP5G0H06crLt2Dlv4n4aWPMuenHDTFISM+X71fh09Zp1KgS5HHRJIK4EE+dvPmECLHcXdSoX8YbTSIuPzWN8EHNME+4aPk5eTOwwouIiIiIiIolGtKPGDEC999/Px5++GHZo+tKGAwGfPPNN/jss8/kkEZWeBHdGWbtjMM7C6NwJtMov65ZxhPT+9aWwUthIqe+XPglUgQRFok1NFdQuZWcY8KAOf9i6d4kFI2QroHNjk8frYE32ldwzrh2M7fFYe2xNBlsOW/AKokzFBlUuI8LXmsXgRAvF8eCy1i8NwFjV57E250qoFf9sOvuy3U1WOFVPAZeRERERER0SaJh/XPPPYdHH30UzzzzjHPu5aWlpWHs2LEy7JozZ45sbE9Et9cXa09h1B/HkJ5vkV+LPEY0VBd3DyyczYhm7M+3DEf/VuXhri++8mje7kRMWHUCDcp74dMe1eHlonUuuTTR3H3/2WwYzLbrGo7o565FjVDPa7qD5IVsdsd0KeLVq5T/XMn5ih5e4rW56dTQ3+KKLQZexWPgRUREREREl3XmzBmMGTMGderUwYABA/5zmKKoDHvxxReRmZmJ7777DrVq1XIuIaLbITXHhBYTt+JoXI7oku6c63QuElDmO6u1dFYbNgxtiWYVfOXXhUUl5qLPjL3YdzoLeq0K0/vVwRNNy1zRcEhxpOtNIK63FVhJxMCreLc2diQiIiIioruOv7+/fBTN7K/k38vFkMakpCT4+vpe0fpEdHO56TXoXCMQdSJ8ULus17mpbjlv1FPm1Y/wRXiAmxzKKHIvs8WGhKziG66fzchHVFKesp4KJosdJ1MNMInxgFdAZFUisLqe6WYQfbf+PpyCL9fGYM/pzOsddEl3CAZeRERERER0SUajEU8++STKlSuH999/Xzai/y/Z2dkIDAyEi8t/970hoptPDP/7tEc1rBnYFGvfaHZu+uf1pvjntaZY/XoTDOpUAW6a8xGBCIGKpVIVGeJXEjLtQ/G56D/rXwz67RAGL45GZp5j2Cfd3Rh4ERERERFRsUSV1quvvooHH3wQgwYNgk6ncy65vEOHDqF+/fqs7iK6g7jpNAjw0F00+YvJXQe3m9B3SnwEiOqv//okEE3jLySa4l8qdJNN5i/XfOsqJWYbEZ+VDxFzxaYZkJ5XfHVbAYvymsxWm/Or4l3q3G/cWdN/YeBFREREREQXyc3NxZAhQ1CvXj1Z4XVhtZYIw2JjY4sNtRITExEZGcnAi6gUEkGPCJA+XX0K/X7Yh97f78ETP+7D1PUxSM8zK8udKypEqLV0fyL6fL8Xc3bGy4AsPtOI0cuP49Hpe+T2v+6Ig8lqk9udSTfg3SXR6P3dXvT5bo9cLyn78uHUfxHN5sU5F3xc2WBHvjIv36w8c84TD3kmK/44kIQXZx9UznePcg7K6/phPyb9cwqx6fnnAjixrwV7EtB3xj5M33S6SDAnznXArIN4e1EUUnPNzrl0szDwIiIiIiKiIpKTk2Xz4xYtWhTbpP7s2bMYOXIkevXqhd27dzvnnicCr8aNGzu/IqK70bX2y1p2MAnNx23B+0uiMHtnHJbsTcSs7XEYvOAImk7Ygs0n0p1rAkcT8/D2wigZEH25+iT+PpKChyfvwEfLj2GRsp0IwV6edRAzt53FjpgMdJ68ExNWnsDCvQlYoCz/6M9jeOr7PUjOubbwSARaw/84ilfmHnYEUyoVzqYb0WfGPjw5cx+OJ+fJsOtMhgG9vt+rHGsvpm08oxw/EYv3JeHXHWfx3uIo3PfFduV1J8t9HlO2eWvREfy2Iw4f/XUCRxJz5Xyx/yHKut9vOoPP/zqOdUfT5Hy6eRh4ERERERHROWlpaRg+fDjatGkjQy+tVutc4iCGK37wwQfo0KEDvvzyS4wfPx5bt251LgVsNhvi4+PlnRlZ4UV0l9Kq8eehZHy7MRZT1xed/jiY5AyHnOsWsvt0FgbM+hen0vOR71xHI4ZKKo95VjuOJeXi2V8O4EBctlw/z2xFgqjQUqsQnWrAK3MPYfvZbFl1JcInMT/LbMNIEWzNPIAj8TnnK6aUZSblM+avqDR5ntfycXMq3YClu+JxVDkvublySFHddUA5h0V7EvG78loNyjkOXhiFFQeSkC7OSzmQWqOWkyBe57/K9u8siZJhl1FZJyffIu+GKYZHigo1sY+DyrmvjkqFVdnGpmxTuPKLbg4GXkREREREJIlhjI8//jhatmwpe3cV7tklwquYmBg5vLFfv36yuqt58+Z4++23MWzYMGzfvl2uJ6rDLqwII6K7jFaNaetjMeCXg3hlVtHps5Un5BDDC+WarHhz/mHEZRllcOTnrsPSAY2wZVAL+Rjq7SLni6quCatOyqF/kvNBDPE7lZiDJ5qXwbJXGuPhesHK6o6FourqaHwOqoR4YPZz9THhkerQF2qwvz0mU9n+6oc2lvd1xQvtIlAj1EOcmgyzXHVqNCznjf6ty+HRhqFIzDLJii4RwHlqVfisdw3lNTXD1rebY0LPGnJ9sSwqPhun0w2oHuKJPo3KQOV8XV+sicHu09n4aWucHJIJmw0NIv3QUpno5uLfREREREREhLi4OLz55psyyOrbt69z7nkHDhzAwIEDMWnSJNxzzz3OuUDDhg3x8ccfY+LEidi2bRv27duH8uXLO5cS0V1LBNciVCpuKsaRhFwcFsP37IBepcKvT9fF/bWD0CTCG91rB+PD+6s4AgiVXQ7nO5FikNudY7fjwYZhmPBwddxXKwjT+9VG7SAPxzIVEBnkjjnP1kfvhqF4pW0EBrZTPmecVWQxqQZkG0Xt1NXRqFV4+Z4IjH2wqnwuzj3MxwXfPl4b4x6uhnBfV9nQv33VAET4ueLTXjXxcpvyaFrBV3ldPujbKBTllHVkeZmj+As6jUo5twjUDPOUx8jLt2DgvEOYvilWBmNerlr0b1UOZX15F9ubrfjvVCIiIiIiKjXS09MxZswY2Wj+6aefhl6vdy5xOHr0qAy1evfujbZt20Kj0TiXKBeMynNR6SUqwiZMmICFCxciJCTEuZSI7lYuWjU8XDQXTbKiqRhRSbmyKb1QOdQD9ct6Qy2GJSrEQ+tKfigf4C5DJVEFlnJBRZYIgh6uG+yoBFMEeujhocyTbHY0rOAjK6/EPt2Uc6gW4gGtc7ikbGp/iSGCYm7BVBzxetz15z/TxP793LXwdh7bx02Lec/Xx4rXG+OZ5mWhVauQa7TiSGKO7NuVbrA4XmAh4tyeUNaVVV4aFXbFZiLHZJUncU81fwxoU86xIt1UDLyIiIiIiEqxnJwcdO3aVQ5jfOeddy7q2XXy5Ek8/PDDePnll+Vwx0sRPb9EI/tNmzbB19fXOZeI7kpGC756tAaiR7TBoeFFp5+fqgtXnaZIgiTiHnFnRosY6mizo3qwB3zdi36WBHjqEOSpl9tZrfaLAioPvUZZp2jYrioIkpR1y/i4Op476bSac4HapYi7QC5PseDLGBNWplpgLnrIKybCr+RsE16aewgtJ25DrTEb0XrSNrw+/zBSckyON+AC/2tWBnXDRZWXclDneeq1Koy6v6p8TjcfAy8iIiIiolLqzJkzsgfXa6+9hp49e56/uHTav38/Bg0ahClTpqBVq1bOuZdWs2ZNObSxU6dOygXt1Q8vIqI7hB0I9tKjjK8ryvsXnQI89MXlO7BYlI1EoKQs1GvV0FzweSK+FtVRglhNTFfjwmMWdw4FjueY8db+dFT5JxX99ubgvWNG9NmXh9qbcjBceR5vvPKjZ4khifMP4+FvduPnrWex7XgaYhJzkJVngb+bVlabFcdDr0XlIA+o7M4zVQ7p666Dr7IN3RoMvIiIiIiISqGsrCyMHTtW9tsSlVuuruerJ0SD+ujoaBleiWXt2rUrMozxUkSz+i5duqBs2bLOOUR0t7rECMFLBlVueg1UzkAr02CB0Vp0TaPFKu9WKJIqsdblAqvrkWIwY+iOBHx+MBUnswzIyTfBohw7Rzl0tMGGMcfzMeRoPjJFQHcF5u1OwJf/nEKqHLoINKvkhyHdKmNSr+pyOtfD6wIbT6Rj6YGk8++Xsm1SphEzt8U5Z9DNxsCLiIiIiKiUyczMRPfu3dG4cWMMHTr0ojBLVHY98cQT6N+/v2xiT0T0X0K99dCKhvYqFXbGZiJB3K2xkLMZRpxWJrFcqzlf7XUjiSGM47eexdroNOjNZrhZzXinogu2tfDE0Ip6eCrHhXLc3xLM+PSU6ZKhXgGxeN6eBLkNrDY8UDcEf73SBJ88VA2vto1Aq0r+jsrYC/ZjVtb9fPUp5dGx4NwQUGU/v247I/t/0c3HwIuIiIiIqBRJSEjA4MGDZZglqrdEVVZh4k6LohfX559/jtatWzvnEhFdmshyqod6IsBDJyuZ0rJNmL0rHvlmm1yeb7Fh5vY4pGbly7UjA9zl3RBvtGOpBvwVlQKVwYgQqwW/Ng7E+zW8Uc9bixGRrvi8miu0yvFNymktTDIj3ug4v8IsVvv5gi3lSY7B0YgfyvyWFX1kE3uRcdmUZdtPZcoG/HKGQmwmtv1qXQw2Hk+X8/yU9Sf2qIYK/o4q2uMpBgxbehQ5Rov8mm4eBl5ERERERKWEaFD/3nvvyV5b/fr1g4vL+QtOm82GAwcOYMSIEXjrrbdkE3sioitVJcgdjct7Q6X8z6oCRi47hhdnH8TwP47i+V8OYPqm04BaLRvNt63ij3BfN+eWV6Yggypw4ddGiw3HUvNwJCEbRoMRtT3UaB3sJhvk5yrLTDY7WvioUV2ZL5w12nHM4Ai8NBoVNKKKSzm3xCwjhiyKwntLoxGfZYKvh7ORvlaNn7bGYdm/ycp8Iyb+cwrvLDrsCMRE3qXsX1R2nVDO4dsNp2EwWeVdGp9uURb/a1YWgzpVlIVi4hjL/03ClpMZcrdCvtWMLLMBOZZ8WO0Xh3B0bRh4ERERERGVAikpKXjyySfRvHlzvPrqqxdVdu3evRtvvvkmhg8fLu+4SESli7teA62zUkmUKenF8MRiiKGIOq1zPYWL8lys6aJV4+vHaqNqiLvcXvQCnLntLMauOI5ft8fBKKq9bHY0qeCDMQ9UKSiKOv+oTDIQKqzQKchAqpBzXyk7OJGShwe+2YX+vxyAyWBBntGKg2cz8ci8w+i0IAotfj+Jhn+fxkObk3FSVGTZbchXziXTWWQV6u0i7yIpYjRRjbZobwI+XXkCyw4k4dmWZeEihkIqxzkQl40nv9+LFmM2YsSSaGV9FcKcPbzsyvINx9KRlG3CifgceYJlfF3wdPNweLho0KtBKOqW9ZLr5hus2Hc2G1blHCx2Kwbs+RoN/3oJDVe+ht0Zx+U50fVj4EVEREREVMLFxsZi3Lhx6NGjB/73v/9Bqy16l7Dt27fLBvYMu4hKr/ZV/BEZ5AZYbKgc5ikrtopTM8wDXaoHQm2zyZCoeUVfeVdGIdzXBbOeqY8H6gbLuzyKMiyb1VGxVFZZ1rtxKGY+VQ+Bno6qqSDlsXGEt+yPFeLtgiqBRY/ZpWagXCbCo4YiLCqkarAHAjyUzzKrHSaTFSeSchGfahDjJ2ExmBGXacSBuEwcTchCTGI2jiXl4FhqLnLz8gGTGXq7DR4iyFJUD/HAy63LK+fsIl+/CKVEkFUx0A331wzG4M6RskcZlNecruw7w2ZH9zrBmPVsPbzTuSI8RcN+ZVfidXm7ahGobKtXqfFY4zDl/fKUxwhR9v18i3C5rqteLc9frVZhRcJurIjfgePGDBzNiccXx36X69P1U9lF7EpERERERCWO+FVf9Ox67bXXZNglhjEWJpZHRUXh+eefx6effiqrv24UMXyyb9++MkirXbu2c27JYXM2oy4gLnYL7lBXmHiPLxyhJNYT69uVi+aLrsaU+eIiuDjF7atgfbEfsb/LUtYVey7uPAvYxD4K70bsX74459dOxR3vwvfgis7pAhfu48L3Wb435xefc8nzKebcqXjiPTwYn40jCbmyEqlysDs04v0rxumMfOw4lYFQb1c0q+BzUfWVSflzE9VQZ9INyDPb4aFXo4K/mwx/LmxWfzLVgB2xmagU6IZG5Xyccx1En6vVUWmyyX3byv7wdDl/gw3RQ2vziQwcT8lVzlMNs82G+XvisfxAMuxaFZpXDcBrbcpDq1W20ahh1SrraDSwq0U4pYavsq/2ATp4OavVxLfPntNZckiieC9E4Fc/3Ft+H4nm8weU9+Z4cp78fgr3cUWdMp7K+WjlUMr1x9KQa7ShfVV/5bVqZNP+1FwT2lYJuOicV0elyuetI/3knS1XJe3F09sm4awpE7Ca8WKVB/BNg5fkOldK/INGUFAQnn32WeccEhh4ERERERGVUEePHsUnn3yCDh064NFHH4Ve7+xF47RlyxZ8/PHHsrKrSZMmFw1zvB4lOfDKTM3H0m8OK9emVpmqiFCmSoNANOlSFq6iabeTVbkQPrIjGdtXnD4X4ljNNtzToyIqNwjAzr/P4NB25eJcXGmLxcpDSHkPtHywAnwCHQ2uC4ggaufKszi4OeFcICYqZ8pV9UPz+8shK82ITUtikJdtksuKUPYrtvHw0SOonAci6wYgqKw7XNyKVvplpuTLcz17TLnwFlf5ynbiPFo9FIHgco4qlQKxRzKwdVmscjxn/yJFZG1/NOxUFp7KccS2p6MzsWrW0csGbOeIt0BZrVbLENRtEwq9qxY56SYs//EIcjJNyjJHSNj+sUooV8VXPi8g3r+TB9OwdfkZmGQ/JWWhsr9aLULQpGu4cy0qqZQ/avktKMKkbzfG4tXZ/0Lkwh1qBuL3FxrCTa98nxes5GSw2JVvEzvcLjFs81YS/bsmHV2C2bFrEeERgnF1nkZN73KFT/c/MfAqHgMvIiIiIqIS6MyZMxgzZgzq168vL4J0uvNBjLBnzx65/LnnnkO3bt2cc2+ckhx4xUZl4PmG85GfZ5VfW2DFA0/VxEufNodv0PmgypxvxaIp/+KrdzdDZXZcvpqUdd+f3gH3PVcdq349imnvbkfimRxn3mVH2QreGPBpC9zzSMXzoY5yxRYfk41xT6/F7vVnla8da2v1GvR5sy6eGNYQh7Ym4pPn1yL5dK5jmwuIy3o3Dx38gt1QrroPWnSPQOuHKsA/zP1cgCZCrMkDN2PrqljA5phXoZovhsxoi9otQ+XXBTYuOonPX9mEpHjH8VQaoGOvynhxXFOERHjJEEoEYoN7Lofa+dovzy6rdPoOrod+wxrIcC7uZDYGtl2KhNPZyvuj/E95EQ88VwP9htZHaEVH5Y0ggsV/Zh/DF69vRmZGvlxXdAt/7M36eHnijatapDvfuqOpuO/rXcjLt8ghkr+/1BhNIopWjZ3JMWHioXR4umnxTg0/eIoKLxGLiG+wW82ufIZYjYDGDVkWAzy0rvLn4Gox8Cre7Y8ziYiIiIjohkpMTJS9ukRl1wsvvHBR2HX48GF5YTRs2LCbEnZdC6NygWrIM8ugxGhQnueef56XYxZ5CEz5VuRlOiqY8pXlsrpIYVCWi0bV4l/yxTyz0Sqrn849tzmeW0w2WY2VnWGUlVbiea6yP4vyXN7JLcukPF44ZvBiImcRF6Vq5ZlGmcSzgtCoCJG7qBzLxXoFk1hXhDUi1GrUqaxsDu7Ylxrxp3Kwbt4JZKcrF8FOFrMdq389JqvFNHbHvsQW1eoHoUOfSvDwVv58lf2JYWWFj1N4Ev/Lz7XIEGn78jOY9s52zPxwN1Lj85xHEeeqTBpl38oTuZ14VM5NDgu8iGO9gvdArOuo5Dq/rnidhc/h8pPjPdRozx9P/FfcPe/c+2xT4a+Z0Zj/xQHkKX+GRSnLxcg1Ze3C+6PSpUaopzI5muaL5vHPzNwvhxcKRosdK46l4bFF0fhhbwJ+O5qOFKMd9qyTsG58VfkgSZTr3Ur2xE3Kh1mq8u2rgrdODCFlRHMj8d0kIiIiIipBRE+uESNGoH///njwwQcvCiu2bt2Kd999F9OmTZPVX3eKPf/EYdUvx+SwOvF848JTyBLP18RhzW/HkZNpxI6/z+DvX47Kip51808oz6PlUL9Vs45h24rTyM0wYvXsY9i3IR5Jp3Ox8udoHNmZjKTYXCyfEYWTh9KRmpCHueP34fTRTKQlGrDwq4M4E5WBxFPZWPFDNOKOZTnP6OZzcdei85NVEBxxfrigqPL6d3MCNi4+JUM5UXhy5lgG1i88KQPBAi6eGnR4rBIiavg551xMBFAavRpaZdLolEs/5Vuh4LshN8eEv2cdxSblOEaDo1LtqogdXUOeJAI1cU4XTcr5iUm8/suNQRIB5spfj2Hxt4flMM4Cjpzg6k6IY51KniBPFwzpVAmhvq7Kn6/ys5SQg/u/2o4qo9eh+oSNeGLevzgQnwFXoxm9w9xR1k35xtF5AHpP2E7Mgz0vzrmnm8huhT3tAGxHpinH9QU8yjgX0I3GwIuIiIiIqIQ4e/YsPv/8c9SrVw+9evWCi4uLc4nD3r175dCXl19++Yb37LpeXv4ucPPUYf+GeORmm2VIs39jAgzKc51Og93/xMkKLb27BluXn5bD+Vxctdi16qzyqJHDBw9uSpQhUnaaEVE7k+HurUd6gkF5noKAMDcknMrGkW1JCIv0RsyhdBzdk4zgcA+cUp7HHE6HX7Cr3P5Wqt4oCK0ergBXcbc5hahmSo7Lw7p5x5F4OkdWoG1YeBInDqSdi3NEKFStfiDu6VEBeuW1F0eEXeWr+uCRV2rhsSH18fDLNVG9STDUzrvSieMYcyzYsiwWKWdz5Lybzaacd5UGAej9Rh30eatu0WmQ47FO6zDoXC79fSkq1bJS8zFn/D6sn38CBuU1CNcSXolqPnb4KVlEvt+7YRg+7F4VFYPcIXLelDwzjifkIiYhB5mZRmiUP/Knawbg7YbBynLlO8otBJqmn0DlEQ7bkemwn10DWAzK3m7w94YYvmhIhC16ppxUQU2h8q+rnHTxP8N0/Rh4ERERERGVAOJujE8//TTatWuHAQMGQKstGtyInl2iX9eQIUPQpUsX59w7h2jiXqNZEHb8fRZa5Sq1TCVvbF9xBhqtCuFVfLDlj1h4+upQoYY/ln13RFY2Rdbxw/IfolGxrj98g12xY+VZVKzpJ4dC/rslSe5TDHc8vD0J9dqWQVpcHvasjZP9s04cTMO+dfFo3aMiTh/NwumoTNRrF4bAMA/nGV0dR2WSYxJVZwXTf/Hw1uP+Z6ujXFWfcwVKdqsd+zckyKb2IpSb/9kBWe0lwh5BBIA9B9ZBUHjRRvJFqO0Ir+6LR9+qi6c/aIQXxzfHB3M7Ikg0ny9IzhTxJ7Nw9mjm5QMjZdmFr+laogAReFVrGIQnhjfEs6MbXzQ9PaqRbDJ/qRCvgHgfctKNmPPpPmxdFiOHphZ+TVdCvF7xWph3lUzPtQzHlkEtMfmx2mhXLRAVAt3RtJw3PuwUiT0vNsbodhXg41LoM1KlhqrCw1BX7AXb4amwbn4V9qwTzoU3gCUP9pPzYF3dF8g4BE2jD6AKuHMqbEsqBl5ERERERHe5jRs34sUXX8TEiRPl3RgLV26JAGbbtm0YPXo0pk6diubN78wm3hsWnMSauSfw1PsNZT+uvevi8eQHDWX/qn3r4vDiuGZIOZuH7ctjMWxmeznUccuy0xg8vQ22/3kaCbG5+N/wBtiqLFdr1XjghepYN/8k/EPdZcC14MsDMgDr8WptfNp/HZrdWx73PVsd3w3bjqb3hqNpt3JYNPkQYo+kO8/oyolqqdNRGVjxYzSWfH0YS53TsulHcGhbIlSXawumAsKr+qDdo5Xg7il6rTkSGDHM8PdpR2QlU3pavpwniE5lLR+MQL17wpTXefmUR1S7iB5cIjTU6dUILOuhvO5yjuGNTnlZZuRkiKGSxSQ/yizR72zjkphzr0lMi6cexs6/ziA/z3JVOZN4n0SV3aalMdiw8FSRSdxh8szRTNkX7EqJ9Wd/sld+L9iU75OrJXq7scKrZBLfRyHeejzbPBxLX2yEve+2xqrXmmNQuwqI8HWFzlnpeCGVX01oWk2GyrsKrOueg2X987CdWgh76l7l5+G/+/sVZs+Jhe3MX7DtnwjL8m6wHZ0Fda3XoG40EtBdJqymG4Z3aSQiIiIiukuJX+VF5dbIkSPx5ptvon379s4lDuKCft++fbJn13vvvYc2bdo4l9x8V3uXxpMH0uQQPhFquXvp4OKmRWZqPjy8tcrrVCEnwwi/EDfZuD4r1YigcA+YDFYZurj76JULXBESWWR1kMlok899/F1hNlll0/ugsu4y2MnLMiGovAfS4vNkGOTlp0dmihEu7hrluHpUbRgI32A351kVT4RbLzRaCEPu+cDHChvMsobJXiQEEs3TdWLIkvOqS9ylcfj3HdDt2WqOGU6xh9Mx6eWN2Ls+DirnHRJl1ZjyKIIix9eAp/Ja3/u1PVrcHyHnFdix8gwm9F+H5BjnXRO1QKsHKuLNqa3hH+p4PeI9ee/Bv7F7zVlZRSaI/mEvT3TcFfJMdAYmv7kF2/6Ohcp6/hzEOTvOxEE8E43hdfK/jvXE8do/WhkvjBV3afSUVXbbl5/GkB5F79IothXv0oVc3bX43/uN8PiQes7m96L6LBtvdvgd8aeyz70HF7KpgdrNQlC3TSiWzziCDOXPUq6p/KfPoHoYMKGZXO9C4io4P98MvV4jvw+ILmQ78zfsx36GPWEz4BEOdUgLwC0UKrcgwLuyHAIJnbtjZasZMCTDnhUNe1688oOeAVvKXiB1D6D1hLpyH6giHobKt7pj/RuMd2ksHn+yiYiIiIjuUiLsEsMXBw0aJIcyFibCsN27d8swTFR33cqw61qERXqhQk1fJMflwjvAFeFVveUQRC9/5XllH6Qo8wPCPFCuqq8MZspU9kb5Gr4yDClfzUeGYUmxOShXzRfevnrkZZhQoY4fdC5a5CrPqzZSLlJtdtnfq27rMJjzbbIRfs0WoTDmW2HMtaBy/QB4+RXte3alRLDlCi3coFMez08iFCom37lIWeV1dehTGf5B7udWF2FS4aBH3HWwcedwNO6kXGj/J5UM+zJSDEhLMCDueBZ+HbsXBzbGnwu7BP8wNwSX8yh0lKLEObgor6vwaxKvUa/MKwi7robYwnEXxfOTeI3iDpPa/6hYE+RdJAtV56htkENWRTVdjvLnfPVnRFQ8dXgXaFpOhqbtDKjcQ2E7vQK2I9/BuncsrJtehmXVo7CseAiWv5RpZQ9Y1j8D666RsP07Gbbjc4C8BKhqPA9tl0VQ13nrpoVddGkMvIiIiIiI7jIizNqxYwdGjRqFr7/+Gm3bti1yN0ZR2bVy5UpMnjwZH3zwgWxQf6cTw9qWz4hG58crIflMDjb/Hot2vSORGCOex6Db09VwfF8q/plzHE+PbIzNS2LkHRn7DqmHtXOP4/j+VHR8vDL+UeaJu/fVbx+GFTOilDfLhgbtymDupP3wDXFD8+7lMf6ZdTIsa9KlHKYN3Y4I5XlkvQDMm3RQNrC/FqICSlQuiVqowlPhyqjL0WhUaPFAedRqGQKNrvjYRlROPTa4HnQu/93k2m6xY/eqsxjUcRn6N1iAl5svxtxP98kKuXOUw9RqFiIDxcslRcW9ruKqtK6EeD8sytYXTcr3rOzF9R/K1/RF8/vLQ1eoz5cI8LLTjbAqr/lqMByj/6T3gSqsLTTtZkLT/heoa70MVWg7qHxrAK6BgNZV+eF1AXTKz5BnBaiCm0FVsSc0zSZA23URNHWGAF4VALXeuUO6lTikkYiIiIjoLiLCLHG3RTGEUfTsaty4sXOJg1i+bt06ebdGEYjVr397GiNf7ZBGUZ2VdCZX3qUxrIInvALccHxfCkIreMmA59S/6ahUJwBW5fUd2Z6Exp3LwZhnRvTuFNRoGiyHNsadcFR7ib5UaQl5iKjlh4wkgzLlo3arYMQezkRaogHN7isne4SJRvB124Tg0NZkeafHCsr65Wv4ySGVl3PhkEYR/oSW90LFOv6yV1YBEeAknMzG8X/TzvXxutSQRkEENhuXnMLUQZuR5ByaWEAM83vs7bp47uOmMhy70IVDGgsUDtwKV2TZ1XZUrReEt75tjWqNguT+xeu6cEijeC+qNA6El2/RyjcxJPTY/lSY8hwB2pUMaRTvU03lz6pxl/CLXoO466a4sUDtliGy95hQ3JDGWsqf1xPvNsDy76OxZVmMDPCK7slJmflfQxpNJou8AYConCO6YqKXlykLdks2YBH99ZRvJrXymaH1gErv4wjAbjEOaSweK7yIiIiIiO4iW7ZswbBhw/Dhhx9eFHYJK1aswDfffIOPPvoI9erVc86984kKNdFc3dPXRfbv0ulU8g6GLu462ZdL9K4SfbZ0OjW8A9xkSKFz1cInyE02YXfz0MLbTy/XdfHQwM1LD51eefTUw91bB7VGDVdPHTyVdcSxRJDj5Xv+ubtyLNkI7BrKAUSQI0K35z9qjFc/b4lXP3NML3/aAm16VFQugK9sp+L1120dgqZdyjnnnBdZyw8dHqtUbNh1KeKohSdxnuIYXgEuaNW9Il77oiUq1ws81zPrIsps0fS/95t1z70mMb32ZSt5IwDxZ3I1RPgmho32GVQX/d6tj35Dz09iXs1mQcWHV4WIIK1MRW88p7zXDTuUld8P10KEamIYJdFVUynfcy6+UHmUg8qnijJVhcqrIlRuwbcl7KJLY+BFRERERHQXKOjJJe60OHToUDmMsTBR2bVq1SrMnTsXb7zxBurUqSPDnLvF/o3x2LXqLJp0LovcbAuidqagfrsyyMsw4sS+NDmMLfFUNo5sT0a3Z6rJvk2iH1XnfpVxcGMCEmOy0aBDWRzemgRDjgVVGgVg//p4aDRAlYaBWL/gJHwCXWX/rgVfHJTD+Gq2CMGf30UhLNIbZSr5YMsfsYg/leU8oysnwiQ3Lx2Cwj0RUl6ZIhxTcHkPePrqleVX/ufgF+KOWi1DnV85iHCvTptQeZ5XTDmkCPREVVy1BoGo0TgYjTqEo+v/qsrQ6pXPmsvhk9pCFWnF0erU8FXet4LXJF9XuAd8g1yV91YtX/uVUyl/hjnYqrzP4q6M4m6NBZOobFu/8JQcmmox//fd8MpX98VjQ+qhdqvQIj29roYIQe+mnxEiujoMvIiIiIiI7gLbtm3D66+/LocpXtigXtiwYQPGjx+Pd955By1atHDOvXs07FgWXZ+qKgMjEXq17xMpG9k36lwO7R+NRGBZTzS7PwKdnqgiK7LaP1oRnZXnLq5a+diiewUElnFH+8cqyabuFar7olO/yqjVIhQRNfzQvX91WV0UWsETfd6ui8i6/ggu54meb9RB5Xr+KF/dR4ZBZUU/q2thF6Gk83kh19JA5qIeXsqXIlATlWxXSjR3r9YkGG9MaYXhszpgxJyO+OC3jnj9y1bo2LcSykR6X3FQVNxLkK/rKl+baFC/Z00cJg1QvlefW1d0enYdPu2/DhsWnITRUKjPWLEcB67TOhR9h9ZDxdr+5+ZdDREkMu8iKrkYeBERERER3eGWLVuGTz75RFZ3Va5c2Tn3vD/++APTp0/HZ599hurV7847gfkGuSGwrAfUWrUcpigCLlFB5BPogsBynlArVy6iqkgEViKkCFCWh5T3kmFQkLLcR1kmhuaFRHjBO8BF9oQSz0WFleirFaysK4Iy0Q+sTCVvuLpr5fBH+dzDMWwyrIKXnF8y2OHmqUV4ZV+Ur+YnX6dPgCtclNenUd7j20VUb+XlWpCXU3Qy5JplZZ7FcuX1cGJ4Z717wvDEew0QWTfgGiIvIirJGHgREREREd2hxDBGUbk1Y8YMDB48GHXr1nUucbBarfJujKtXr8Yrr7yCWrVqQS2SobuQCLEKqm0KPxeKPnd8UXidS68r/lPoudOVPL8ssZ7yNqvEjQKV6dxxittemSeXO9d1rPMf0YzYoGB9uY1zx/+1mfiPc5uCvlyyab1z8yshVpXvsdjPZXpcFbxm0c6o4BwL5hU4d7rOcyqYxPt20SSqrcS+VGIr55bOh3PHEJM4gP38QUS/t5b3l0ePV2uhTEUvuS+53mXOnYhKB81IhfM5ERERERHdQXbs2IGBAwfKOy4W16B+wYIF+OmnnzBmzBjUqFHDOffOYDKZ5Pl16tQJwcHBzrklg8VkQ2p8HiKq+6FiLX9UrOGHOq3DUKV+oKwgKyCG/eVlmmAz2xFZO8CxrrKNGHIZVvHS/bgMWSYY86yO9ZUpso6y/1ZhqFDb75LVWfmiSkqZykT6OLar7S/viFi9cZAMha6EeF05GSbZs6tirQDlnP1RpUGg7B8mqsMKM+SYYTJYULaS43iRylSrRYhcv6BKTqyTl2Y+/9ovNynHqlgnQL6PFWr6yd5h4i6a4q6a4r1y7MMP1RoFyh5n4oYGBcRQTzFE0zfYTVbrVawp9umHesp5i8ovopJu06ZN8PDwQIMGDZxzSFDZxT8bERERERHRdRG/Vt/IBtjibovffvutHMpYtWrVIvsWDep/+eUXWd01duxYhIeHO5fcOXJyctC3b195frVr13bOLRnEnQJFICWrp5xE6CLuCnnht4AYwmc2Fu1JpXfRXLYfl9Vigym/6DYiABL7v1S1ls1ih0k5TuHLOxGO6VyuvDG7eF1iHzbr+X2Iyitxvhf2+xLnaDbaLnu84l7HfxFN9LU6x/so32dD0dckzkOEiqL/1oXMJqsM7QrI96xQAElUUo0bNw5BQUF49tlnnXNIKJWB16FDhzBz5kzk5eVd8Yc/EREREdHldOvWDR07doROp3POuTYizFq/fr2s6nr33XfRrFkz5xIHi8WCefPmYf78+fjqq69QpkwZ55I7S0kOvIiI7iQMvIpXKgOvJUuWyF4ITz75JFxcXJxziYiIiIiunvgH1C1btiAjIwMDBgyAq2vRoV9XSwxNEf26vvzyy4uGMYpf3efOnYuff/5ZVn/diZVdBRh4ERHdGgy8ildqA68DBw5g0KBBcHNzc84lIiIiIro2y5cvx7Fjx9C/f/9rDrzEr+Wi+fyUKVPkMMZq1ao5lziIBvWzZs2SwxjFxU1YWJhzyZ2JgRcR0a3BwKt4lx44XsKJXyhKYdZHRERERHcgMYxx3bp1mDBhAj766KNiwy7RAH7p0qUyQLrTwy4iIqLbrdQGXkREREREdwpR2SWqukaPHo1atWo55zqIf6SdM2cOZs+ejc8++wxly5Z1LiEiIqJLYeBFRERERHSbiDBL9Jb9+uuv8fHHH6Np06bOJQ4mk0n28hLVX+KmS3dyzy4iIqI7CQMvIiIiIqLbQIRdBQ3qP/30UzRs2NC55Lxp06bh+PHjsvrLy8vLOZeIiIj+CwOv28xqMiIvMQawWZxziIiIiKg0+PPPP2XQJe62GBkZ6Zx73uTJk7F792588MEH8Pf3d84lIiKiK8HA6zaxWcxIPLwDu375FPumvg7b+qmwJxxWFlidaxARERFRSSQquzZu3IgZM2bI6q569eo5lziIYYxfffUVdu3aJYczBgQEOJcQERHRlWLgdRsY0pOwYsQTWDnqGRxcMh35Z6Jg3ToT+bNegnH+INjzM51rEhEREVFJIsKuP/74A+PHj5d3ZGzVqpVziYNY/s033+DQoUOYNGkSPD09nUuIiIjoajDwusVEZdfmqe8h8dB2mAw5gEqlTMoC8ZifDdvxTTBOeQCmvz6B7fReVnwRERERlSDibovz58+XlVsVK1Z0znWwWCz44osvcPjwYdnA3s/Pz7mEiIiIrhYDr5vJbofVbERe7EHY0mJFwy75r3YWo0EuVomQqzD5tR12Ux6s22fBNO8NmDdOgy3uIHt8EREREd3FRJi1YMECrFixAoMGDUKFChWK/C4ohjGKBvV79uzBuHHjGHYRERFdJwZeN4vdjvTYaKwe9wp2TXwOxpnPwDR/EHB8vSO8uiDruohWD7sxG5ZN38E05zWYlo6APeOssl+bcwUiIiIiuhvYbDY5jPGnn37Cu+++i7p16zqXOIjlU6dOxdatW/HZZ5/B29vbuYSIiIiuFQOvm+Tk5uX4ffDDOL1jFcx5ObDnZcF6YguMS4bDemafKOS6AiIVU8ngy3p4JYw/Pgnz3+MdQx2tZscqRERERHTHEmGWqOxavHixDLWqV6/uXOJgNptlyHXs2DE5zJF3YyQiIroxGHjdIFazCblnjsCaEKX85mJAflYqTDnO5vOO3MpBVHdZr6Uvlx32vExYts+GadFgR4+vhCMMvoiIiIjuUFbldz7Rr2vhwoUYNmwYwsPDnUscxDDH6dOnywb1o0ePhq+vr3MJERERXS8GXjdAVtxJrBn/CraOexqGWS/DOONxWPf/Dmi0zjVuENHnQauDPScN1r2LYZr9MswrJ8KefAx2Bl9EREREdwxR2bVo0SIZdr333nuoWrWqc4mD6Ov69ddfY+PGjfJujezZRUREdGOplL9sr2hwXUmyZMkS7N+/XzYMdXd3d869SuJtczYa3frdhzi09HuE+buidRUvaNXA0cR8bD+RI1eJDHZH80gPsZEcybj2UBYSsx0Blfi6YqCL3M5iu4Y/CtHTS+8Jbf2HoKneCeoytQG1xrmQiIiIiG6F5cuXy2GJ/fv3h1arxezZs3Hw4EG8/vrrKFu2rHMtB9Gg/quvvsLx48dlg3ovLy/nkpIlJycHjz/+OF599VVUqlTJOZeIiG4kcQOUH374AZGRkXjmmWecc0lg4HUNgVfy0f04PP9zNCqjgc7NDTv3ROHIoWiE+emLD7yC3NG8kuM4NzzwEsQfoc0KlYc/1BGNoG31PNQh1ZwLiYiIiOhmKxx4ibstHjlyBGPGjLmockv86i16eUVFRWHkyJElumdXdnY2Bg8ejJSUFLi4uDjnEhHRjSQCr4yMDDzyyCN49tlnnXNJYOB1lYGX1ZSPRa/fC2taLLrW8oKrTo1dMfmISsxHmI8OrauKwEt1awOvAqLaS5nUFZpC32M8VO7sA0FERER0K4jA6+TJkzAYDPL3TFG5FRoa6lzqIH7t/uabb7Bt2zZMmjSpxDeoF8M609LSkJ+f75xDREQ3i6gWFnf5FQEYOTDwusrAy2I0YO7zLaEz56BrLW+46FTYdSoXUQl3QOAl2KxQh9WAvs9XUHkEOGcSERER0c30559/YsaMGfKCY+LEiReFWWJ438yZM3HixAl88MEHJXYYIxER0Z2CTeuJiIiIiK5TdHS0HLo3duzYi8IucTfGzz//HKdPn5YN7Bl2ERER3XwMvIiIiIiIrsPkyZPx008/oXv37vD1LdpSIjc3F59++imysrLwzjvv8G6MREREtwgDLyIiIiKia2A2m2UDetEqY8iQIRc1ZhfDGKdMmYKzZ8/Kyq4LwzAiIiK6eRh4ERERERFdJdEGV/Tsio+Px/jx4y+q3BIN2z/77DO5/MMPP4SPj49zCREREd0KDLyIiIiIiK6CyWTCRx99JPt2DR06VFZuFdwHSjyKyi7Ry0vcsVE0qOcwRiIioluPgRcRERER0RXKz8+XFVvJyckYM2YMPDw8nEscCoY5JiYmymGOHMZIRER0ezDwIiIiIiK6AkajERMmTJChl6jwcnV1dS5xsFqtsqIrISEBo0aNYthFRER0GzHwIiIiIiL6D2J4orjbYnp6ugy7vL29nUscRNg1ffp0VKhQAZMmTeIwRiIiotuMgRcRERER0WVYLBY5fDEzM/Oiyi7Rsys1NRU//fQTmjZtihdeeOFcPy8iIiK6fRh4ERERERFdgujJJRrQi0b0w4cPh7u7u3OJQ1ZWlhzGKB4bN24MlUolJyIiIrq9GHgRERERERUjLy8Pn3zyCdLS0jBu3LiLhjGKyq4BAwagYsWKMgyz2WzOJURERHS7MfAiIiIiIrqAGMY4fvx4OTxR3JXRxcXFucQxjDE3NxevvPIKunfvjjfffFNWgBEREdGdg4EXEREREVEhogG96NklhimKMMvLy8u5xEHchfGNN96QPbv69u0LtZq/UhMREd1p+LczEREREZGTGMYoKroyMjLkcMYLw67ExESMHj0akZGReOuttxh2ERER3aH4NzQRERERkUI0qP/0009liDVq1Cjo9XrnEgeTySR7drVt2xaDBw92ziUiIqI7EQMvIiIiIir1RJgl7sYohjG+/fbbRRrUi55dp06dwhNPPIGHHnoIvXv3hlardS4lIiKiOxEDLyIiIiIq1QwGg6zoSk9Pl727PDw8nEscYmJi8N5776Fz5854+umnnXOJiIjoTsbAi4iIiIhKLaPRKIcxigovEXoVvhujkJ+fj6FDh+Kee+45F3apVCr5SERERHcuBl5EREREVCqJxvSTJ0+GzWaTYVfhYYzC2bNn0atXL3Tt2hUvvvgidDqdcwkRERHd6Rh4EREREVGpk5mZKYcvZmdnY8iQIXB3d3cucfTsio2NxcCBA2VVl5jEPCIiIrp7MPAiIiIiolIlNzcX48ePh5ubG9566y35WJio/Bo+fDjat2+PHj16yCGMHMZIRER0d2HgRURERESlhgizPvroIzk88d13371oGGN8fLy8G2Pr1q3xyiuvQKPROJcQERHR3YSBFxERERGVCmL4ohjGGBAQgMGDBxep7BJDFlNSUtC/f38ZdD3//PPOJURERHQ3YuBFRERERHcdi8WC1atXy7soXomcnByMGzdO9uoSDeg9PDycSxxOnz4thzc++OCD6NatG9Rq/ppMRER0N+Pf5ERERER018nLy5NDD3/77TdYrVbn3OKJYYziLowixBo6dCi8vLycSxzE3RgHDRqEZs2a4YUXXmC/LiIiohKAgRcRERER3XUSExNRpUoVLF68GFOnTr3kXRTT09PlXRjvv/9+vPfeexc1qBcVYi+99BJ69eqFAQMGOOcSERHR3Y6B17VQfp+yWc3KoxWwmMQXjvnyXwNv878IivMS56DiHy0RERGVXCLwatKkCT7++GMcPnwYP/30E8xm8XvQeSdPnsTrr78uK7fatWsHFxcX5xJHzy6x/KmnnpJhV+/evdmgnoiIqARhKnKV1FodGjw2EGXq3wN1YEVo6j8CVZla4rcm5xq3iTi+zQpN1XbQNnsCKhdP5wIiIiKikic1NRXly5dHREQEhg0bhkWLFmHOnDmyt5cQGxuLgQMHolWrVnjuuefkvMJiYmLw/vvvo2PHjjL0IiIiopKFgddVUmu0qNn9abR44yt4PPENdPcOg7Zcw/+o67qZYZiyb5UK6jK1oe/7NXQPj4WmVjdAo3MuJyIiIip5RHVW9+7d4erqivDwcPzwww9YuXKlrPRKS0uTDehFkHVh2CUqu0SD+hEjRsjtC5azbxcREVHJwsDrGuk8fKD2DgG0epSp3wYhtZtBq3ORQZOo/FL7l1N+o7LJde1qNew3eqijGEapc4O6XCPoe3wCl37fQBPZDCrXok1YiYiIiEoaUcWVlZUl77hYEFT5+/tj9OjR2Lx5M/r27SvvtiiGKup0Rf8R8NChQ3jjjTfQs2dPPPbYY9Bqtc4lREREVJIw8LoBwhu1Q8dh01H/5Ulwffhj6HtNgqbho4DVUVJ/seuo+BIhms0CdaWW0D/4IVz6ToGmWkcZft32/mFEREREt4AYzpiSknJRWCWGN3700Ueyb1dxwxQPHDgge349//zzeOihhy7Z6J6IiIjufgy8bhAXD28ENegEXfX2UPmVg9bdGxoXV9htjiovSVZ8KW+5+hoaoiq/kKm0btCUbwyXPl9C/8BoaKq259BFIiIiKnXy8vLkUMbCTegLhIWFyTsyFiaCrRMnTmDSpEm477770KVLFzmfwxiJiIhKLgZeN0nFVvehef+RCKvTEiq18jZrtFCXbygbyqsDKzjXugIy6HKBOrI5tF2HQP/411BXvgcqD3/nCkRERESli7hD45kzZ6DX651zLk/cxfHNN9+UQVi/fv14N0YiIqJSgIHXTaJ1cUeN+55C5+HT0eidn+H65HS4PPoZNPe8BJVHoHOtyxDVYGYD1OUbQN93CvQ9xkNb94Frqw4jIiIiKkHOnj0rq7tEldd/2bt3r+zt9e6778q+XURERFQ6MPC6yfTuXvCuWB/qsNqAi9e5Lls2q1VWbxUhvrRZoHLxhCaiCfR9JsuG9Orw+so8D8c6RERERKWYGJ5oNptRtmxZ55zLCw0Nhaenp7yro9FodM4lIiKiko6B1y0mhjdWbN0dYXWaQ63Tnw+9xKPytTqyJbRdhkDf50toqrW/smowIiIiolLCarXi1KlTqFKlinPO5YnAa+TIkfjxxx+xYMECuT0RERGVfAy8bjGVWoOqXR5Dp+Hfo9N70xFQuQ5spnxoKjaDS5/JcOk1Edra94kxkc4tiIiIiKiAzWaTd2gUQdaVEtVgCxcuxKpVq/DFF1/IKjEiIiIq2Rh43SZiqGOZ+vegy/s/ouGIxVA/+DHU5RoAOjfnGkRERER0IRF4paWloX79+s45V8bDwwMjRozA8ePHMXPmTA5vJCIiKuEYeN1G4lbYbr4B8Kus/MLm5iNmOJcQERERUXFE/67s7GyEhIQ451y5iIgIDB8+HPPnz8cff/wBi8XiXEJEREQlDQMvIiIiIrprxMbGwt3d3fnVpYlKMDGJUEuEZOL55s2b8ddff6FChQp45513sGTJEjmfiIiISh6VvRQ2MRC/3Ozfvx+DBg26ol+YiIiIiOjOIJrPp6amyt/jBNGEPikpCRkZGUhOTkZ8fLwMuMRjZmYmcnJyEBMTA41GIyu8IiMjUbFiRYSHh8vn4g6ON8Ly5ctx7Ngx9O/fH66urs65REREdLvIwCvXYseONBsa+qnhrSv5w+oYeBERlWziAlhUdbAxNVHJM3bsWBlw1ahRAwcOHJDzxO9zOp1OtosQP/tBQUGyiiswMFCGW2XKlJE9vG4mBl5ERER3Fhl4vbTTgPh8G2Y0dYe/noEXERHd3URD6379+iErKwtqNUfvE5UUIsQ+ceKEDJWqVKki+3gFBATAx8dH/k4nJhFsabVa5xa3DgMvIiKiO4sMvPpuzsOwWi6o46Nxzi7ZGHgREZVsYlhTnz59sGDBAvj5+TnnEtHdTgxb7NWrF77//ns5PPFOwsCLiIjoziL/2fvbJm6lJuwiIqLSQ1SDEFHJIX6m+XNNREREV0IGXrvSrTDxBjVERERERERERFQCyMBr6L58zIk1w8J/MCMiIiIiIiIiorucDLw+qOWCiUfyEZPLMi8iIiIiIiIiIrq7ycCra5gOy9p6oJy7/JKIiIiIiIiIiOiuJRMujQoId1NDz7yLiIiIiIiIiIjucoy4iIiIiIiIiIioRFHZS+G9nZcsWYL9+/dj0KBBcHd3d869eklJSbDZbFCpVM45RHSnEh91Op0OAQEBzjlUkiUnJ6NPnz6YP38+/P39nXOJ6G6Xnp6OXr16YcaMGYiIiHDOvTMsX74cx44dQ//+/eHq6uqcS0RERLcLA69rDLzE2/b111/jyJEjsFqtzrlEdKcSwXSdOnXw4osvOudQScbAi6hkYuBFREREV4qB13UEXh9++CECAwPRpUsX51wiulOtWrVKVmV+8MEHzjlUkjHwIiqZGHgRERHRlWLgdR2B1+jRo1GpUiX069fPOZeI7lRz5sxBdHQ0RowY4ZxDJRkDL6KSiYEXERERXSk2rSciIiIiIiIiohKFgRcREREREREREZUoDLyIiIiuQrY5H+nGvIumTJMBZtv5m5iI58Wtl6ZMeRaTcy0iIiIiIroZGHgRERFdIavdhlG7F+OJtd/iqbXTzk1PKl8P3DIL+9NOO9cE9qeexnMbZijLzq8npsfXfI2ZRzcp+yp1LTSJiIiIiG4ZBl5ERERXSNywJCYnFYcz4nEks+h0LCsROWYjCmKsHIsR0cr8qAvWO5weh0RDlnMtIiIiIiK6GRh4ERERXQW1SgWNnNQXTCqonOsIKuc6jvWLriuWERERERHRzcPAi4iIiIiIiIiIShQGXkREREREREREVKIw8LoDGK12HMrIx59nM7EiLgvR2fnIt9rO9YG5FJuyQq7Fhm0pufj9TKacxH7YCJmI6M4gen6Jj2TH4/mJiIiIiIhuLgZet1mexYYp0ckYfygRv5xMx88n0zD+3yR8sC8em5JyYBKpVjEMynZrErPx3t44TIlKwexT6ZijTJ/8m4hpR1NlYEZERLePm0aHcK8AlFemcoWmCO8A+Ondi/T7IiIiIiKiG4uB121kttnx04k07EzNQ+tgDwytFYphtULQrYw3RFz1+ZFkfHs0FadyTI4NnE7nmfDRwQRMP5YKvUaF3hV88VH9MhjfsCzq+Lri7/gsbEzKlfsgIqLbo6pvKMY0egTjm/QuMk1s1hcPRzSUzeyJiIiIiOjmYOB1GyXlW7A5OQeNA9zxfOVA1PVzRS1fN/Qs74v3aoeid4SvHK447t9E7Ek3yCGOu1Lz8NGBBERnGfFspD8+rBuG7mV9EOmpR1l3HZ6uFICaPq6YeSINOWZGXkREt4uPzg0NAiLQMLDo1CiwAsp5+jvXIiIiIiKim4GB122UZDRD3Ma+SYC7c855vnoNepTzxZCawXDRqPDZoSQsOp2JydHJylIVhtUORccwb7hqiv4RBrlq0SLIE0abHalGi3MuERFdDbvyP4PVhAxTHpLzs5FsyEaaMRd5FhN7cBERERER3QUYeN1GogJLXDa5a4v/Y9CpVajr54YXqwbKYOvnE6nw0GrwQd1QNPB3g+YSo2G8dGpolWWZZqtzDhER/RcRZOWY8/Fv+lksidmDifuX4+2ts/HCxh/x7IYZeGXzzxi993ckGLKuaDii2F+CIRNHsxIumo5lJcrwjIiIiIiIbg4GXneBDKMVWWYLTFa7coFkRdp/VG6xKwwR0dWx2GzYlnwS72z/TQZcQ7fPw09HN2N9wlEcSjuL6Ix47E4+hSWndiHJkKV8zv73J63JZsWP0RvworK/59cXnV7Z9LMM1lgrRkRERER0czDwuo20KpW82LlcgBWTa5LN6cM99BjToAz8XDSymb3o4XUpuWYbzHY7GyITEV2BJEM2vj2yBu/umIfVcYfl8EVBo1LLz1FVoUmtzLsaGcY8xOVmIj4v44IpE0Yrh50TEREREd0sDLxuozLuemiUxwRD8Rc9KUYLpkYnQ69W4amKAajn54ZnIgNgs9ux9Ewm0kzFD1nMMFuVdYBQV61zDhERFSfVmIOfj27CtCNrEZebIefdyH8scIRkxU/K/4mIiIiI6CZh4HUbBblo5EVPYn7RwCvfasOO1FxMi07BsWwT/PUaRGUaMC8mHQcy8lHGTYdtyvIpUcnK/HzkWs7fjVE0qhfVX6LpvZiIiKh44pNzacxu/HJsi6y2YgBFRERERFRyqOyl8HZTS5Yswf79+zFo0CC4u198h8QrId620aNHo1KlSujXr59z7pWzKNsnGiwYfyhBudCyo76/O9KNFpzMNcFgscsqLnEx5qJWyaGPhS/ERPWW2D5f2U6ndgyNdNOoUd5DD29lxuFMI4JcNXi9ejD8GHoRSXPmzEF0dDRGjBjhnEMlWXJyMvr06YP58+fD39/fObeoIxkJeHu78n2hPIp/fLiQzW6Dl94N4R7+ymepuxzimGsx4mR2MjJNBudaDuKujqFuPhjd6BG0CasmO3yJEG3k7kWyAb74TC/MVaPDlFZPomVIFfZdJLoK6enp6NWrF2bMmIGIiAjn3DvD8uXLcezYMfTv3x+urq7OuXQ9EhISsHnzZudXRER0q4icpGvXrnK0wt2MgdctDLzEGy2qt45lGbE/wyCrtY4qz8V8N60KkZ4u8NFrYFLW2Z1mQA0fV9xf1lu5EJObnyO+FPtZfDoLR7ONaBviKeeJIZBn8szIMlvhrlGjlq8bGvm7oaaynzA3nbzrI1FpxcCrdPmvwMtss2LSwb8wM3oTrPbzVbIFxF/uNX3LoG/lFmgfVg0BLp5yvkXZ7v1dCy8KsRh4Ed0aDLxKl7lz5+LNN9/EvffeK3/3JiKim0+n02HVqlU4evQoNJq7u4CGgdctCrzExdDOVAOWnM7EmTwTsi02VPLUo4G/O5bHZaFRgDueqOAvQ6kJhxJxVlnn5apBaKzML474Q1ufmIMvo5LRItADA6oGyguqGcfTsC0lF62DPRCTa0aSwSwrwCp66dE3wh8Rnjpo7vKUluhaMPAqXf4r8EowZKH/+hmIyozHxY3oVWgUFIEPG/ZQPjuDilR/ic/+j/ctxaxj24sEZQy8iG4NBl6ly8KFC7FhwwZ89tlnzjlERHQr9O3bF7/88stdH3ixh9ctkGm2YuaJdEw8nCSrrx4I98G4BmXwiTI9Us4HNbxdsS/NoFw82bE/Iw+HMvPRPNDjXNhlttlxIseIPco64lEMaRQXSC2DPNAx1AsHMwzYmZor192dlosG/o7m9mPrh+Hd2iEyTBON8d/ffxZ/nMmS50BEVJrF5aYhOT9L+Sy9OG5y02jxaIUmiPQuGnYVYI0BEdGtw8ouIiK6Vgy8bjKTzY5FpzMw61Qa7ivjLQOonuV9UdnLRV5IuWjUaBrojsR8MzYn52BeTAbMNhu6KusKIpqadTIdYw4k4sMD8Rh7MBGzlX3lWWyyGqxfBT/5uDIuGyvjs+GiVqNtsCfctWpZyVXN2xUvVQ3Eu7VCUM/PHT+eSMVvyjFEDzAiotIqJT8X2eb8i/oS2O02RHgGorZ/eLFhGBERERER3R0YeN1kolrrzzNZ6F7WRwZdopfWhap4uaCih4sMu0QPrjerh6Csu05Wci2KzcCfcZlIN1llgJVqtGJhbCY2JTsqukTPr1bBHojKNmLJ6QyEuGpRz89NLiusjLK/l6sE4gHlPNYmZiMq09E7jIioNMq3mWUfrwuJQYpVfEKUz0xfxwwiIiIiIrorMfC6icQQxZ0puXDTqmUllofyWBxxd8UWQe7KBZgdtXxc0Ux5Lvpu5dts+DsuGxblCqyg37x4FEHVivhMxwxF1zBvhLvrkGOxo7K3C1w1xR/HU6dB5zJeMkgTd4O0iidERKXRZapc3bV66NW8wy0RERER0d2MgddNJC6nRHN6V40KWvXl32qxngjIRK5VsKa4HrMpe7nwskysYy10UzE3jRqBLlq5nrg74+WIjCtX2Vg0UL5wv0REpYX4HHX+O0IRYp7BZoKpmOovIiIiIiK6ezDwuonEEMSG/u5IN1qxJiFb9vMqTpbZhlM5Jriq1YjKysf+9HwZTIkgS/Tj0ihXYAXFCOJBZF0dw7zk18LedAN2pxlkVdjBjHzkF07DChEh11rlPNyV44hhj6L3FxFRaeSq1UOrdvxDQWGib1d0RiLictOdc4iIiIiI6G7EwOsmEnFSkwB3tAn2xNToFKyKz0aGyXLRBdbRrHyczDHh/rLeCHbVYX5sulxP5FGi71eLIE946tTKdnZ4adXoHOaFdsGOwEvccVE0xC/jrkXzQHfZA2xbiqO/VwFxPNH7a15sBlYo59BMWS/YVetYSERUCgW4esJb73rR3b9EE/uT2SnYm3b6omVERERERHT3YOB1k4m7JT5TOQDdy3rhhxOpGHMwCdtT85BvdVxIibslbk3JlUMX24d6oVtZb0RlmbBC9O5SlontX6kaiDH1y+DDumH4SHl8Qdmfl04tl0+OSkaO2YZuYd54tVqQrAbbkWaA0VlNlq0sWxybgff3xWHmiTS0D/HEC1UCZfUYEVFpVc7DDwGuXvIfEi5ktJox8+hmRGUmOOdcO0doxmpaIiIiIqJbjanHLeCpVaN/lSA8XylQBlJTo5IxcOdp/HwiDZuScrEuKQetgzzgp9egaYAHqnvr8U9ithymKLgoG4mm9LV83eSj1jkUUQyDjMoyKvNd0bWst+wBJoYq/puRr+w3B9OOpuC1Hafxx9ksue8htULQr6K/DNGIiEozX70HOpapAVfNxXfOFY5lJeC1zb9getQ67E45pXydhBPZyTialYh0Y56yxn9Xf4kwzWITQ8yLW5chGBERERHRzcTk4xYRjeu7lvHCiDqheLicD8q66/FXfBbGH0pSLojsyLPasfRMJran5qKipwvSjFb8FZeF2Dwz4gxmnC00ia9jc01YrixPybfAX6/B+sQcfH88VVnfpFyMWTDpcJLs5yXu+vh0JX+8VztU9gO71J0iiYhKE51agx4RDVHVJ7TYoYui52FMTirG7PkdT62djtc2/Yw3tvyKlzbNxMozh+Q/MFwJo81yrgdjEcy7iIiIiIhuKqYft5iorupRzhdv1wjGx/XLoEmAmxxeeCrbhJXx2fjheKqs+BKVYIcy8zF6fwJGKtOHhaZRyjT6QIKsDnNT9rcuMQdfR6dgTUIO9CqVDLWq+7ji/bqheEM5jughxqouIqKiynsG4skqLRHi5u2cU5Ra+TwVFWAWu01Wd0VlJOBMbhpMNotzjcsTFV75VrMcsn4hR97F1IuIiIiI6GZhCnKbiADKV6+VTeZr+Ljh00ZlMLlpOCY2DJdDD/tXCURlLxekGi3QKOvX8nVBTR8xucJDq0K6yYpwDx2eqxSAd2uHYnrz8vilVQTerhmC+v5uykWZWQ6l5J0YiYiKJwKtzmVr4bU6nRHpHSTnFRdOCaKZvZyuIqQSlV1Gm7nYCjK1sh9xfCIiugmsMYBpLZC/TJn+KIWT8rpNG5T34azyZhT/9xoRUWnAwOs2SjCYYbTaEOSqhZdOA3eNGuU8dGjg54YuYV4yzApw0cBXr0Gf8n4YWD0YfSv4KRdPKjlPNKkXTe5F3y7xtSNE0yDS00W5aIMcFklERJfmoXXBIxGN8EGDh/BARH34u3jAbLPCahefov9NhFliXYvdCpOynRgKeY5KudaQX194sWGHTq2FRsW/gomIbizl89YwB/a0x2FP7Qp7SndleqAUTsrrTu0Ge8aTQP5yx/tCRFQK8bft2yjHYpX/yh/hUXzT5AhPPYbVDkWm2Yrvj6ch3mDGlOhkpJssMuyq4KF3rlmUGNIo6gZSGHgREf0nETw1DYrEe/UfwFctnsDgut1wT2hVBLl6wVPnCnetHm4anRzeKB7F12K+r94N5b0C0TKkMp6o3BJv1O6MWn5lztWAGa0W5JlNF11miJvoeuj0yv60zjlERHRDGFcBma8B5s2A3eS40imtkz1XeT/WwJ7xnON9ISIqhcTHId0muRabrAAQd1AsjrhoquipR+dQL/ybYcC7e+IQnWWUVV51fF0dKxXDS6eGVtk4y3xlfWaIiEo7MVzRV++OJkEV8UL1tvim9dP489638Gv7F/BVyycwrnkfjGv6KCYoj1+1egI/tX0eS7q8gaVdBmJ6m2cxosFD6F2xCYIK9QOLzU5BQl7GRUMXRW8vH72brC4ruoSIiK6ZGMaY9Q7sthTnDJJsCUDOROUx3TmDiKj0YOB1B/ivNi7NgzwQ6qZDptkmHxsHuENzmY0KesyIKgIiIro6apXof6iBl84V1XzC0CqkCrqUqYWu4XXQSXlsFVwFtfzKymb3ouJLr6wrqsRUFwxRPJqVhDRT7rnP5AJi2GOwqxe89W7OOUREdN1sabCb9jq/oMLspo3K+5Pk/IqIqPRg4HUbaVUqOdQly1R8rxgRWCXmWzDtWKryKJrbuyBF+VrcyfF4ttG51sVEQ3uzckHl78LhMkREt8PRzARMi1qrPLv4HyfEP1hU9AyGn97DOYeIiK6fFfJuIXQxMbzTfulrByKikoqB121U3kMv78B4MtcEywV/QZttdmxPycXwvXGIysxH7wg/fFgvDL0ifLAv3YDJ0cnYkZqHfGvRe4qJYZJRWfnQKRdUEZfo8UVERDdPnsWI2ce34Xhm0kVxl/io99F7oF5QOWjV/CuYiIiIiOhm4W/bt1GwqxZNAz3wT0I2lp/NhtFml8MW/47Pwqj98fgyKhlq5WppcM1gdC/rIyvCupf1xaAaIchW1vv0UBImK+scysx33gkMWBCbjs3JuehRzheeWv7xEhHdSpkmAz47sBJLYvbIYZEXEqPR6/qXRT2/cs45RERERER0MzARuY10ahUer+CHSE895semY8C2WAzccRpzTqUjw2zDvWW9MapumHJh5C6DL0EjLpb83DC6XhjuU5bHGSyYeChJ2fY0nt8aizUJOWgS4IZOYV7ntiEiopvLZLVgS9JxvLdzPhac2oFcS/FDR0Tfrp4VmyC4UHN7IiIiIiK68Rh43WY+eg2G1AxBr/K+aODnjkYB7ngswg/D64TiqYr+skn9hcGV+DpMmf+/SH+8VzsU95f1RotAD9TydcXTlQIwSNmf7yXu/EhERDeWwWLC3BPbMWjrbKw4cwB5ytcXEjW4ohn+g+UboFu5OrLJPRERERER3Tz8jfsOIEKvB8J98Gq1IDl1KeONUNcrazgf4KJBz/K+eKZyAF6vFoy2IZ5y6CMREd0aWrUGjQIj0KlsLYS7+0NdzGewuJvjU1Va4vVanS66ayMREd1+4pNZfHwXTEREdPdj4HUHEZVb1/r3q9hODHckIqJbS/TqqulXFu/Uuw+Tmj+GZ6q2QXWfMLhqddCrtajtF47ByrKXanSQQxqJiOgOoVwJ5RrU2HHQBd/N8cTQsX547X1/DPvEFz/M88Tuw3rkGZWVOHCCiOiuxMCLiIjoBvDQuqBhYAW8WbsLPm7aCwNqtMdz1dpiVKOH8XilZvBh2EVEdOfQAPsO6jF0rC8efykQg0b74bvZnpizxAPTZnlh0Cg/PPVqIN4f74tjx3WXDb3syjKrXnm8wf/4LIbDW2yqIndkJyKiK8fAi4iI6AYSQxxr+pbBM1Va48UabWX1F4cxEhHdOcSQxV17XfDK8ADM/8MdeQYVPN3tcNHboVcm8ejuZkd6phqzFrnjucEBcv3ihjparMDyv93Q++kgHD6mc869fuJQp89q0bF3CDbtdnHMJCKiq8LAi4iI6CZw0ejgqkyMuoiI7ixnUjV452NfnIzVQKO5dM8uMV8sP3pCi3FTvZGcdnGZl035lI+N02L1RlekZ13m0kpsWjBdeDyxmWjfK5aJR2US1WKeHjb0uDcXYUFWZaZCLBfriu0vtS8iIjqHgRcREREREZUKKi2wdp0rdu7TX3FzerVyxbRmiyu2iUorETJdBXFT3lybGl//6IU3R/hjygxvWVEmgy2xXA+sWOOGV9/1x6AP/DFyvB+GjvbD7gN62GxAVq4GVrtKbjNlhhcW/umO6OM6DP/EF8PG+OLYSd25fRERUVEMvIiIiIiIqHTQABu2u8LV5eo6Y+k0dhw9qYXtKiqqRKAWc1qL518LwMz5noiN0+DnBR7438AgHD2mg105hS+/8caoib7QKldlyalq/PCbBzbucIHFokJ6hgZfzfDCyTgtjEYVFq1wx4ef+WLIx35Yt9UVvy7yxKhJPkhMvMoUjoiolGDgRUREREREpYb2GvMhrdZ+dSMI9cCcpe74N1qHz0elYeFPyfj2k1Rs26uXvcMM+SosX+uKihFmTJyUji8+TIObqx1N65vQrJHRsY9CuZwIyMKCrZgzNRkblySgXYt8HIvRISmFgRcRUXEYeBERERERUelgBvo8lAuj6eoug4wmFerXMkN1NYVhFuDYKR3Kl7WgQSMT7PlAhXIW1Kluwr5Derh62uHna2aP60YAAP/0SURBVEPMGS22r3PBirVuMCjreHvaLtmbS/T10noqT6xAZIRVDnu0Xl2xGhFRqcHAi4iIiIiISgW7DahV04Re9+fKiqn/ItaxWYFnHs1F/VomqJTtr5TYTgRlGo3zQCpAoxZ3gQTMFuW5C9CqiQlWqwpTfvTE7yvd8cr/cvDK89miG/5/Ys5FRHR5DLyIiIiIiKjU8Pey4aPBGWjbzHjZxvUi7BJN59u3MmLg81nw8rRdNiQT69oLTWo3ICjAhuRUDbLTlBka0YRejeOntIgIt8CWD2zbpUeZECse6ZaHHvfmoUZlE9KS1VcUxhER0eUpn7xERERERESlhA0ICbZi8phUNG9ohM3ZiV4ODxSTFbBYVahe2YyJw9Px9cepKFfWIqvDLsXFBfj8ax+8NCRATm+P9MPpkxp0a2dAfJIWL73jjzGf+eCtD/1gswOP3GeQoxYb1jFh5349Bn7gjzdG+aP/kEA8r2y/94he7rdw7iVCsCI5mPi6yAwiIiqMgRcREREREZUudiDAz4bcPBUsVjvCw6x4/blsjHwrAxNHpGPJ90mYNy0ZvbrnwsfbdkHSdJ5aWVCpghmPdMtFYIAFao3dOQFWiwptW+bj+09TUSbUiuMxWpRXjjNtfCpaNs7HwcM6fD/HE1+MTsPe9XHYtyYOX4xKw6FoHWLjtPD0tMmqr9AAK3R6O9op+2rV2Ai1M/mqXc2IzvcY4CfOj4iILsLAi4iIiIiIShUxlFHc3fBsohad2+TLuye++1YmBjybg369c9G8sRH+3jZolKuly1VRiTs+dumQj2++SMPXn5+fPv04HRXKW6BV29HxHgO+mJCGH75JxYQx6WjZxAiNcvx8owoZmWps3emCefM8MEuZlq1xQ62qZlSPNMuQ7LspqahX3QQvDzs+GJqJt17NgsrkyN8e7ZGHj0dmyOGRRER0MQZeRERERERUuqiA+EQNhr6ciclj01CvtuMuinajMolAyepc7wrYzcqUW8zkLLyyW5xf5yhTnjIp+xYhWp3qZln95eFux+FjOsQlaNCyoRE/TEpBlQiz3F5sJ+7IKIu6DMqknGNB3zF5nsr+rqTBPRFRacTAi4iIiIiIShURJtWpYcJjD+bCz1P54jaERi56Ozq1MWD46xmY9EE6xryTjhefyEalCIvs70VERNeHgRcREREREZU6olLqcndpvBXE8dXKFZlGbZfDJ2/3+RARlSQMvIiIiIiIiIiIqERh4EVERERERERERCUKAy8iIiIiIiIiIipRGHgREREREREREVGJwsCLiIiIiIioxGInfCIqnRh4ERERERHRXU7HK5tLUemVycX5BRFR6cG/FoiIiIiI6O6mDoLKpT1gd35NDsr7oXLtprw/Yc4ZRESlBwMvIiIiIiK6u2nKAN7jHY92DuFzUN4HbTnAc4hy1eftnEdEVHow8CIiIiIiorufrhFUAfOhcusGqDyVSVd6J7WP8j70VN6PZfJ9ISIqjRh4ERERERFRCaACdM0Bv4VQhRyHKnCbMm0qhdNWqIKPKe/Dr4C2juN9ISIqhRh4ERERERFRCaFS/u+iXOUEA7oGytSkFE4NldcfqLwXesdbQkRUSjHwIiIiIiIiIiKiEoWBFxERERERERERlSgMvIiIiKhE2PrzUPT438vYl2ByzinEEItJH7yJ/z33B1JMNudMIQPLBr+C/70+FKdynLPszsdLkIvT9uOV557DsE+2oGAzIiIiIrpzMPAiIiIqzez/ke7cCWw5mPXW02jWuDGaNGlSZGrarCV+PqysoryMM/u3YeniZUjIcQZalnycij6I3Xv24OCB3Vi/eil+X7Yee/fvw57de3Dg4BmYbPk4unktFv+1GplGx2aiBdDOme+g6QXHatK4Ee776DeYrcrB8hKxeuVSrN9+GmbnZkRERER052DgRUREdK3sNpzYswQLFizEwoWFpgULsHDleqQaLM4Vbw67JQcb//mr6LHltADLlh9ArnM9iyEd+/+ZjwVr9iM93wJLdgzW/rUQK9cch9EOGNNOyu02HTgJQ+Hip0uxmxGzayP++P1PHEy2Omdens1iQdqJ48h3fn1VVGoElC2HyPBwlA/xQvyJgzicrEKZcuVQMbIiAl0dq2m0Gqj0OqgLbkiWEYUhz3REo4aNULf5I1i6+QTSEyegS9NGaNioMZq1HoXTBhV0Wi30Oh1UhW5k5hEQiAoR5VGufHmUV6Zy4WFIjz2Cw3FpkG+Rck46rR5aDX+VIiIiIroT8bc0IiKia2S3mbFi6uPo1asnevYsNPXqhZ4Pdker13/EiYxihtfdIPa8BIwcMqDoseXUCw899ACeHPAjUsx2GJKjMP3VR9HrjWk4lm6E8fQ/GPpyLwx8dzmyrHZkRK2U233082qkX0m5kt2Af74aiaeeGYBfDl7J6zNg+aA38NiANcgSpVhXS+WOroNGY/bixVjw40Q0reaPsK5v4Zc58zF39q/oVlH5hUYFuOg0zg2cfCpj5JQlWLt2Lbb9+QO6NomEb9CrmPvPWqxfuwarVryDsq6O6rAL1bh/MH6bv0CGlwtEgDn3F9zfKBAwX0kiSERERES3GwMvIiKi66CS5US+qNGwBe655x45tW3TErVCXRE14w0s2nHKsaIiPe4Q/lmzDuvXrcO67XuQbnYkLXZzLvbv2oztu6KRlBiDLcryHTvPwiSHG1px9uB6rF23Hus2bcH+tKJVY2q1Gi4e3qjXsgPaOo/frkNLVPRMw9IlX2BVdDrcgqrhhSlz8NvnL6CKnytsUMn/ybF7grO0qXCF04XM2Rk4uGYt1m7YiF0x2dDpdNAoGxRsY83LRvTqf7BuvXKe6zbiwNFUiDO1mrKxd8Hb+GDJ9zhwLBbb1/2LpEyjHEmZEfUvNiuvdf16ZdqwHxlXUCyWEX8YaQnxyFu/GaeNFmQcWogqVaqiarWqeH7yRui1zhUFnQdq1m+Otm3vQZM2jRHq7wadS2W0at4KzRpWg9FwBju27EJMdl7BO+FkRUrUAWxQXst657Ru0zYkiPDyXPkYEREREd3JGHgRERFdt2b4dPISrF692jH98ze+erMLYFMjO98Oke6kRy/Be88/iC6dO6FjJ2Xq2h2vTl6B5BwzrClReO7Re9HtgYfxwguPyeUvj14FrcqCbfO+xbPd26NTp47o1LYdur/xJQ7EZjuG1TmFVG2In9asxCrn8VetXIP3W9aGCvmwmmwwJB3BtwMeQ+/XvkF0ev5V/+Vvt2dj4xeD0Vk5904d2uOhPkOw/MhpnKvtsqVh9fcj0b1zF3TqqJxnxw7o3ONF/Lk/Frnxu/Dmq99id6wJiafG4OHOr+OP3SnIP7MRox57GG06Ku+FMrVvex+GfvkzEvIunXrZzWnYtnwRDsZqkHb2N0ybfQAan4ro0L49OnRsjzrl/WC7RAGW4fRhpCTEwmzejiSDFUn/LpKvp0P7h/DZvuPQO9dzMOCfcYPRtm1bdOjQUTk/5TV1uQ8LdyRDpS6mHIyIiIiI7jgMvIiIiK7bFgx8sRvatGnjmFq3w4BPVwBd3sLDTcvDbsvCqsEjMfewF8bN34j1q//AoDZxmPPuNGw4nK78bayBl5cr0rIykVb1JazasAE/TO+JxC1T8cYbQ3DE40ksWLMev/84HD4/D0W3j35BVMb5sYcJUbvweKu2549/Tyt8sPE4KpZ7Du1q+EOl7N/FUwW4u0B71QVKdsSuHor+H38Pv079MG/lenz3ehXs3XrEEXip1LBFL8WISbOhbToWKzZuxPyv34A+ajG+mLserqGNMH7846gV5ooykcOwdO1UPFRbhXU/DsPkveGYMHcFNmxcgpda+eDXTz/C+lOX7vJ1dssCDJ2wDI1fHo+PeoXjx/d64vUZ0fjk62/wzdRv8fL9NWApLvCyGbDzr1XYdygb2TmrsWLHaQTX6Yl16zcox16KgfUqXdB4XgWdWgt33yB8vmAlNih/Ho5pPea90xN6VnkRERER3fEYeBERERXLjuz4w/jr77+xcuVK/LV2Iw6kFNzG70JZOHZgF7Zu3SqnLdt2IvqMC/p3qgp/F0Cl8cKDP6/G2unjUNc7DQvfeRtT/gZsxqOIz80S+YrkExqGx5/qh5bNm6O2Xx7WzV+Ow+le6P/VeDzQqgW69nwRHwxthrjvJmHd/tPn/hY35WXj0M6N54+/aSfi7XY8PLANtNfSM6swew42TNmDeN+qePTdT9CjXQvc2+tldH+osePwdhvUlR/DojUrMGFkfZh2/Z+9uwCM4toCMPzvbpzg7u5atLi7uzsUK15ci7a4leLu7u4huDshOCRESAjxZOXNbDaQhARoX4XC+V7vI3tn7vjuzpy9soY+oxbipjdwyc0TrB3JmjUN8e212DlkpXipnCRNlopKP+3E2Wks+e282Tp1KIvP3iMgNJTbXm/Mq43KEPqWU+vG07LdGMJK9GTysB70nrmJSa0Lcmb5aJpPOIS/3qRsSuz76nX7EL8u3EyadsOYWceWNdN/55JvPEqXKsn3JQqTOb5DtBpzkbTWNuQqVIzvlfNhTiVLUSRTSmnVKIQQQgjxHyABLyGEECJWGlz3/0KN6tWpVq0aNRq1Z/QZb8u0mLLSovcoJk+axCQl/Tp5LD3qp2Xl4Nb8tPKCOSjksm4abatWp3qVhtzMXY1GpTOh0eh5H6IxksgxFQUyWzpef+vNtcc3CNMVomSB5Oa+sjS28ciatxh2POT2U0/QRUReEqbKSNfRs/hlsrr+yUyZPpn6eeIxtUsDFh1y/WjfXJ9kCjT3cWVtZ0+eFEkj8mzsyJcwIQ7mFxpM/neZMbgtdWpVp9miJzRrXo9sOi1Gcx9kyiLUf83/mSICS8YQnpyYR/PGNajetCdXUtSjef4sqHseW8zKFP6WY7v2oS3ViQ2rfqFQSlusE2ah56yN7F6/iqUjqhPfStkOy9GMuoiQZ2cZ2aM7h401GDdoJJ1/WUZql3X0GTCd+2pz03elPqT2c+ZgryzXaMQYJUXujxBCCCGE+HJJwEsIIYSIg41jUhInTUby5MlJnCIpyRxijAL4TmaatOzF0GHDGKakwUPHMG7Uj2RLAa4H7+ATcIPhc5bglacEq45cYd20sTQrlzpGTSEjOm1a4tlbXqrNEK1tMBFCaJglumI0Ehz41twZfEIH63dBl/gpMtBxcF+GDFXXP5RBA4YyblhbCPHk2o3b+P4/AS+NFiuNxhzkiehEP4L6t9rblkYbwtlxE1l74BVF+q3k9M4VDOnQjCy62G4xIjbE/8lVZnecwJMU9Vi99wAb5w6nQZ6M5oBXbKwc0zF4zmY2zh+A7anp1C3Xgf2Pg5QjZkeOEiVIb+mo3trenqSJEmJtCQSGed1gWJ9ObH6Um9nzx1EhuwMOGcuzcNEwEt5YSvNGv/DEXxsZN4zBRPAbT7rVrm7uyysylStXlQatt+Kr1Vr2RgghhBBCfIkk4CWEEELEIW+zGfh4e+Hp6YnPvQssrpLKMiUmb65dcuLYsWOWtIeNa7fzwhPsC6QifkgAHvpwHBIUpEi5PMQ3veTwubMYTTG/htXaQ5Y/E6WhQqEyJDReYNuuG4QbweDvwcUTp9EnrUTeTGneVYcK8ffl3OHIdUekdWt3KlMSkyp5Wuzex6n+hATkz5iQcP/XON+4RaiyrHA/T5weviDYPN2An8dbjBp7EmYpocybhBcPnLhjfN9I0NraEZ1Oq+xbkDlIpw8L5o1HGCTMSMGChUga/Jgzbs/Ngby4OKRIR6pENvh5PuXK2Zv4hhg+qGRVZ/QePB5cpmImW/Nrm+R56dljGAt3baBzhazYqBEqjRVZqvZm5dq5dBvVg4zxjRg+OD46kucqSIWyZUiRwAZrGxtsLMnW1gYHBz9C4u5qTAghhBBCfAEk4CWEEEL8364zsV9zqlatakn16TNzJ28pTJ3aBdEmSEO5+Il5cncH3Zu1p1Xjhsw9CCaTlbn2VKw08SnboR2lMsdj48iWNG/Tnpat2zBmgzu1hg+hynep1PiYmffjW/zUOHLdEWn85hvET5GMGmXy/X8BL40d5cZ2pbzfC1YNbUOLlm1p1rwJG53umms4mUx25K+RV1mHJzcmdKVFu6a06jGDp2rv8TZW5lpbCdIWxSF+fDyezaV9o5ncDk1C0UpJwHk9vTu3oWHdJiw85YJRq0Fr/Tm3JlbEi+cYZ40wVcQu68herS1NiqYg5mLTFalD9+8TxV5LS9mn0gMncODwYXP/bdHTXtYu6kRqW+MHATchhBBCCPHlkICXEEII8adpSJg8Gzly5iZ3rlzkikw5c5CzRHUW7lhNnxKZ0NpkYfiSKTTNnArPO2d5VKALB1ZMpXw2f556+oG1LWnS5yBDuhTYRonA6FJXYu6Gg/zcXMe9q5e46aan/LxdLOtUnuRqe0itNWkzZCF37tzv121OOShYtBXLDm6nWt54aKzsSKbMlyNDcmystGhsEpAxaw4ypk9gblZpZZtAKZObNEkTxDqKo2O6ZszeuIhqtnDv9nUCcnRiQrcm5MmYniR2VqRrMYpfh1YgYUIvbl3yp9vCnUzoWpaMt17z2GjClKYiA7pUJn0aLY/vHsPVPymdFqyiaVVH3O/eJTBVJ9avmkCBlGkJu+kRMfpjHExGtWXnHX6qW/x9Z/KRqUQJSpSrxLY7Pu8DWRq1J67YKPmWCUaDgXC9/n3tOiVfo9Gi1caVlBmUmfX6cPSG9zXZhBBCCCHEl0NjMve8+m3ZuXMnN27cYODAgTg4RHS5+0eph238+PFkzZqV1q1bW3KFEF+qDRs24OLiwujRoy054mvm5eVF8+bN2bJlC0mSJLHk/leoX8uxh2j+FuptwOf0av/RzfrUNv9V+xTCgwMrGTdrB75WsdTvMhkxJUzFj+NnUDNrIkvmp7xh94AhbAiJz8Rfp5EpviX7U15fp9uAGSTM8QOjR5TG0ZIt/l6+vr40adKEZcuWkTFjRkvul2H//v24urrStWtX7OzsLLni/7Ft2zZOnTrFrFmzLDlCCCH+CS1btmTNmjXodB+rT//lkxpeQgghxBflHwx2qT4n2KX66GyfWsZftU92ZK/RjdUH9rNnz54P09597F237A8Eu1SJqDtjIWvn/4FglyppQRauXMkUCXYJIYQQQnyRJOAlhBBCCCGEEEIIIb4qEvASQggh/lYmjEYDBsuIip/vz5b774jcv693D4UQQgghxL9FAl5CCCHE3yjU6zq/9y9LuV938zbs8zs4D/W8xrQfSlN92m6MX2F3myb/Z4zoVp92y8+g/4qDekIIIYQQ4t8hAS8hhBDi/xAW4MkVpwMcOnyYw5HpiJIOneGZTwjGMD+e3DzP2Qfu0QI74YFeXHQ69GG5g2fflXO9fp7zD17FWgMqTC1/aAW9W9UkX7bUJE2dgSKVGjJ+8V5cXgXwYWjNRMj5GeTPmoaUKVPGklKQOGEJ5h99YJk/kokgj2scPxZlO2Okgweu4/E2xtiKhkBuHVpJl1qFSZ80DXnKNWLqhvP4BOkjpuuDuHvtEjef+SDxLiGEEEII8VeTgJcQQgjxf/C9f4ROFWtTs0YNakSmatWpVqcVu+96m7tr12iV/1dTFG8eH6FlzZoxylWjWt22UcopxWKUixCO08KfqF67GydfOVKtcUd6dm5LiXRhLO7XhNo9ZnH9ZZBl3kgarNIUpV2nH8yjyEVLXTrRtHIeQgJ8CQ43WOZ/79G+0VStGmU7o6bq1alRcyjH7vla5lYZcTuzlh4de3A8JB+te3WhTJKXjOlQi1nbrhFimcu8b5/bab4QQgghhBB/gAS8hBBCiP9DklzVWHX6MEePHef4cTWdYFL7/Finz0jedHGPFpgoS1U2Hzkardy4VrmwzpCZfOkSf7xfq0c7+HnhEVLVGMuGTSuY8eskxk+YyNzFa1m3uA/he6awcN8Fy8zvaVMVpXvv/gwePDhaGjJkMN1bVcRRE1t/Whqy1JnEyRPHOPZuWy3p2AGWD6+rzGODtS5K4CrQjW2r5nAjaRPWbVzI5HHjmLN4KSMrhzN37TauuYdaZhRCCCGEEOLvIQEvIYQQ4s8ymXjj+QK3twYM+nDCw9Xky4M7gWTKWpzsyeJZZlRodOgia2sZDbx59Rwvf32Ucp48uBVEllzFyZbcUk6NPml1aMz1vd57cXMtr8IdyNK6OXmirENnm4iCpWpRKEMwx249s+RGMvF0dyvyZUlCsmTJoqWkyVLwXYNxeKuVu2KJtDkkz0fpsuUpX74c5cpFSaVLkDdLcstc74UGefLI9QFpihejSFI789bbJcpA9Tp1ePvMjbf+wREzCiGEEEII8TeRgJcQQgjxpxl5fGoxtWrWoJraHNGcGrL8gZFqHfuSOp4lUKU1wsll9OzcnkHzNuMerOfZ6cU0qFk9SrlmrHVzoFbHPqRxiCiGNQQfXUanDu0Ztngf7oER2UmT5kcbEkjw7afE6DmL4IDXeLqbSJEwciFRmIwYbVNSou9Uli5exKJFkWkxi5csYfGiX6hZILVl5j/PSueAfXwdPu5vCFaDfGoQTVm3j+djsLNFa62LmFGIf9jZs2fx9va2vBJ/p8ePH/Pbb79hNH7+YB1CCCHEX0kCXkIIIcSfpdFRsMEorp06zslTp9i3cQa5kurIUbYN/Rume/8lqzYVfPWAM6edOX7lHgHhtuRvOJozp05y0smJA+unkzWxDbnKt6Zf3ZTv63PpwPDKhdOnnTh147FSLiLbvmgHmhVPzJnF/fh52T7u3Hfl4cOHXD6xgVH9BnIhcUm6Vi8SMXNM1o6kLV6JMmXLUjZaKkfFCgVwtPtztwZRK4bpEqajRo222J5fxvDFR3F58ojze1cwav4NKlYpT86UjpY5hfhnBAYGMmzYMMaPH09YWMwwsfg7eHh4MHLkSCZPnmz+WwghhPinScBLCCGEiIO/+10OHjwUMRLhidPc9P6w7ynbhKkoULoceVNZ47R2IS903zNkWFey2llmUBl0aFpO4YbrQy4tG0X2RGATPxWFSpUhTzIjx9b+jqdNWYYP60IGG0sZlbI6xzZTePDwEc5ze5nLmdllpe/0mXQtZGDVoGbkz52dbNmyUbJWDw68zsrEefNpWjqzZeYoTEZMfg/Y2KwAWbJmM5eJlnLkoMqEbZaZ/wB7G6yj1trSOVKm7SAG1M/FzqH1yJ0lK+XbT8ZQpCMTe9YhvUP0JppC/J1evHjBhAkTCAkJIX369FLj6B9iMplIkyYNPj4+5qCXr2/UgS2EEEKIv58EvIQQQog4PDoy0zwSYXV1JMIWXZh4/rVlShSGQG5tm0LTevX5/Upq5m9fTevi6S0TozCEER4e5UFbH8iFdeNp1KAp88+nZ/HOJTQtlMoyMQpDOEblwTGmpFmrMmPXGU4cP86QRikg7fdMXbePk4e2Mahhfj5s0KghZZmfWb1pH/v27Wff3g10KuZA0hJNWLRJeb1Pyd+7lyXdqlrm/wz6cN56P4MsiUgU38qSGUETPxu9f9uI07nznFa28cjRI+zdNJsSGRNY5hDi7+fi4kKnTp0oXLgw06dPx8HBAa1Wbn//CWpgMXHixEydOpXixYvTo0cPLl26ZJkqhBBC/P3kG18IIYSIg33idBQtVpRixYpRNF9uMiawtkyJYDLqObZ4OPV7/4p76pos2LyC5iUyYvWJb1dTeDDHFg2m9ZC5vM5Qh+X7VtKwSIZPlotOg5VNArIWKEax7A5oEqQlT9HCZEqeIM4vd4dURahYtSY1a9agZq1aFEhthV3qXJSsqryuqeQreeVzpbHM/Rk0RgL83CB9GhLGj6XPMG0oJ2Z2ZMzu26TIkZ8UjlFrgdmSKVcBcqRwRCMVvsRfTK/Xs23bNkaPHk2vXr1o0qSJOdAVHBxsrnEk/jka5Q3eqFEj2rVrx6+//sqhQ4fM50EIIYT4u0nASwghhIiViRx1RnPxwgXOnz/PxSPb+bVs9BEJNVoryjbpy4xZ89m7+XeaFk+PlUYNRX2cxtqesi2GMHnWUvZsmE+jwmk/K9hlCPXj1vHNbNmyla1bLWnbDk7dDsDk94yz+6Lkb9nCll0HcPUOJszvFec3bWJL5LSt25RlbOHSi3CCn9/k6K5t0cvtOcyLt+GE+rpxZmPUctHTpq072HfmNjofF5z2bGfz3qO89Ld0NKYyhuP9+Dr3H7kRGKPbJE2CzMxYeZAtPStgLREv8RcKDQ1l/vz5rF27llmzZlG/fn1z0EWl1joyGNThSMU/yc7Ojlq1ajFw4ECWLVtmPj9qE1MhhBDi7yQBLyGEECJWnxeEsU6WhfpNm5Mpsa0l5/NYJ8lAk8Z1yZgoeq2xjwn1e8rqoc1o2rSJucaKOTVuyKzd3uB2kTHdWr/Pb9qUpm26sf+OD/6PrzCteXOaRk5r0lhZRifWXAnG5/JO+rVvHL1cp96ceRGE38PzTGoRtVz01Lz1Dyw4AYYLG+jbsTnNugzgjJtlKMkoNFodyn9xkniX+KuondMPGjTI3G/X77//TqpUsTQTFv+a77//3nxenj9/bm7iqPbzJYQQQvxdJOAlhBBC/J1MRvThykOd3qBWGvt8arkwCA9/XxvFPlluhu95Zn5Y/Kx07zwdS6Qicd5KLHz6meWeKfNdP0ndHAlIWqAGKz+33PNnPLt6mDpZo/fRZTAYebFvFtXzpzd3GB49paVouam8CJMaN+L/owZObt26xU8//UTOnDnNTRlTpEhhmfqeWtNLp/tI9PX/oC5XTdJHWAT1WMQW0FL79VLPT7ly5czNHK9cuSIjZwohhPhbaJQvom/up5WdO3dy48YNc7VqtfPSP0M9bOrQ1lmzZqV169aWXCHEl2rDhg3mzovVm+w/Sn2/h4eHY21t/a5ZjPiyeXl50bx5c3OzvSRJklhy/x3hfq7sWzOZo0k680uTkjhYf941FP7GlW3LJnAh3Q9Ma1ryP3ntGfV+nFw2lu23jGi1sW2/kfhJ6jBgeBUS/7EOzMQ3Sh3pT61dqDaLy5gxozlP/Yy+fv063bt3N9fuaty4sTk/Ni1btjQHWrJkyWLJ+WtYWVlx9uxZ3NzcqF27tvm16r9wm6028fT39/9LP2PUZamBLCcnJ06fPh3nsjdt2sSCBQsYMGCA+bjFnE/th+3UqVPmpqlCCCH+Oer35Zo1a/62H4n+KRLwkoCXEN+E/yfgdfnyZY4ePWq+IY98iBF/H/Xz9f998PqSAl5CiL9OzICX+nmh/q3e2w0fPtzcZO5jZs6cibu7+1/+Wa7W6nrw4IG5Q3x1RMjIB4SUKVOa//2SqcdQ7ffsrwx4qdSO6TNnzmyuxRUXtU+1+/fvM2HCBPPDlTp4RtSHKwl4CSHEv0MCXv9hEvAS4tvzZwJeaq2uAwcO8Msvv5gfYNQb7v/6h/6XTn1YdHZ2pkaNGuYadX+WBLyE+DpFDXglTJiQJUuWcPv2baZOnUqyZMksc8VNrc30d9z6qgGv/fv34+rqSteuXbGxsTHn/9VBpP8adf8/p4nns2fPWLx4sblz+x9//NF8blUS8BJCiH+HBLz+wyTgJcS3588EvCZNmmT+xb5MmTLmDpBHjhwpAa+/kfq5evjwYVq0aMHEiRPp3Lnzn25GKgGvjwjx5vimuWylAlNbVcBeHVZSYQp+zeolczh79zVWutiOuYnwkMTU7f4DtYqk/8wu/WMwBuO8eiEH7saj04SuZP4jlWze3GX8tA3Ez9iEbl3zY2/J/pTXt9YyfcMtav4whrIZ7Cy54H17HyPm7sXGOq6HcQ228YrRd3RL0jt8/oYawvw4t3wYR7RV6dyyIekcLRNUgS9Zu3whV+LV5OfWJXC0+fxmnAFPnBkxawtlug6jad4P+6aKy9uHJ5T93EWl7iNomCupJVfJv72dsYuPEaWLuGhMJg2Oib6n98hWpH1/2P51kQEvtabWnDlzyJ07N506dTL3C/VvixrwUgM34o9Rf/BQ762DgoLo16+f+dxKwEsIIf4dX0vASzrMEEKIGNTAWMeOHc2/Sk+fPt3cAbIMY//PUJvAqP3rnDt3jrlz5xIQEGCZIj6byYj/y5ssHd+dKuUrULlxVxbtvUKg2nG+KvQNV/YtYsH+y4Qa3v/mZQoP4Mzh3ezcuYOdu3aydd1Sfv9tHvMWLmHzNiVv504lfzvXHvtYSsTC5MuqnzpTsXx5KlSoYEnlKVe2LgsP3VGmh3Fz7waWbNqBu9FSRhH8ZB99WpeLUuZ92dqNf+KqOm/gUzasXsymPa5E7d5aH/yGqzvn0qFeNSpWqEuPySu58/Ltu/EB/B4e4felG7nuHmrJiRDgdtO8TzuUtGvnVtYs/o158+axZM0mdin7rx6HvQfO4PsHO9Q3KsfxxvbfWbjlCHefvnjfqf+LF7x4eo89GxezZs8tgvVRDoDCEOaPy4k1/NiitrLf1Wk/bA4XXH2U/YjYkxD368yb/ztnHr0xv46klrt9eAU9m9dSylWjy+gFXHrk+27/g15cYfH83zj3xM+SEyH4xWX27VH3U9n/3TtYuXg+8377Tdn/LRHnWtn/bTvO46u3FPiCqJ/NPXv2pLxynalNzb+EYJf4/6k/TkR2Zt+3b1/zD02fUztMCCGEiIt8iwghRBTXrl1j1KhRlC1blqFDh5pvwNWmjXr9F/jU9xVSa3Opo/ctXbrU3MeO+lD7+vVry1TxOQLdrzGscS2GLjqJwUqH4cUpRnRsQs95pwlWYzcaLTprG7TKtKi1tLQJMrJg1xXcXj7n0e1zTOtUSDkXyciQPgeT1hzn4ZPnuHvcYkSTgh+p3aXFztoWW23EaHU6rQZvVydOX9Nj4xDRRElnbY2V1jraMjQ6W6xstFjb2GBjbYWVUtZK2UYbG2Ublfefy77TnD59nRC9DuuondsbgzixYDDlmozhimeosj5fTs7pRf2O47n6Msg8i0bZBlslqdsSVaaqQ3jl/oLnzx7itGM+DfI5kDJJAgo2Gs6Ri/fMTazuXvudAolsLSViYTLg9fQWR665oje+Dx7qrMHryHyq5UtPhgwZIpI6KmXeKmw4/QqNul+WeSOEc33LL1Sr1o3DD/yUaz+Uq+t+pmGzPlx4HoQ5NKbRoTU3D4taMoyr63+mXuP+HHv4VikXhvPy4TRs0Y/b3mERQS/lXChbZD4OUaWsPoF7rs949sSVs/sWUatwClKkSEb2xhM4cdXFPOqmy63Z5LPUUDOG+nL38mEe+oRFbM+/KCQkxBzkypEjx9/SPFH8e+LFi2fu1yt58uTm714hhBDi/yEBLyGEUKg32OvXrzf3A6PWGFBreEVSH66kptE/Qw2SJEiQ4F2wq1q1auZzcezYMcsc4qOM4dzcO4flN5MxeMlWjhw+zNFTpxheIwGb5vzMmecfv46Nfm7sXzyKJhUrMvBwaiav3sHMtpkZ1bYWTX8cwYEbbtFqV31Ak5Cmk35j39Ej5uaph7fMprS9jgyVi5A/Z2rLTGoQyhrHKF202aWvxPRZC6icPC2VWo5j+4FtTGztSO66/Zg3vQE76pajfKthPHILUeZ+H7gJfbSP31ZtIVnbaRxS1qemXRvGobswhzl7rhOjElV0pnA8bh/nlx+bU6N2Tx6Vmsb+3QvIcPkXyteoz6gF23jiFxnojj2oEup5n6mVqzFg/lbCDNEDSilKtWDpzhMcP348Ip04yYmdy6hVJMWHi/M4x9yFG3ldahC7lGN36NBR9m+cQTbfzXRacY63oXHsiPtZps7bhL7CIPYo6zh06Ah7lo8ls8cWmq64ytuwjxwAo54XV/czqWcTypVqir7KL+zfOoeMR/tSuVZDxizeybOA94F+TbAHK37pQaXq63j25t8NRNja2tK/f39WrlzJ8uXLzT9ISODrv8/Pz8/cf5day1ptsqp2eK9+NwshhBB/lgS8hBDfPHUY+XHjxpmHTlf77SpRosSf6jdK/P/U464+zKrU/ruaNWtmrnGnPtju3r37y6tppzxkez+/zsWLj/ELDuDF1atcvXKZ+15RA0smTMYQHty7aa5BeE2Zfsv9rWVahDB/D26p064p5W+7EhBqaUZneYZ/8/IaV6+q6Sp3XVzRx/FsbzTqcbm+A0PhMpTNmwWdVovONiXla1UixOs5L338LXNGZ9IHcX5Nf4qUrsyAmTsJztqUdat/o3HZ0tQfvJAV45rx+uxu+reoQOmKfbnsG9nQ7kORnVRrCWDP4ols9MhA+3bNKZA88pbDioBnh2lWtDhFm43nlnewkqfBoA3EZesWjlx+SLA+mEcXt7Pj9HWC4xdg0IaN7Fgwgowp1SjZ+zV7PLyDm4+Jxs0bkdzRBq3OniyFG1MoR3zOuz7FEEcQxPjqDP3aVKN80x9Zd+4tDUcvYd34LnxXqimz12/ih4Jads4eTu1SJek//TBv4qjT9vLWNpa566hVojK2UQJ4BuUy9bnjxNxJI8x9/5nTiOGMmDSXy65+yvE2RDt+b56f4bGXL8WU6z1HIjvl+OlIm68ChQpmxeuqC6FxdLTl8+wMD32DKFavLtniWyvlrMhatCLfFUrP0wv3CIkj4hf64gwd65WmSsu+bL4cSquZe5k7sCWFSzZm8YEjtMwJW6cMpsb3xRg48xhqXTlNokxUL1oe71vDOOb679a6VINbah+qw4YNM/eb9fvvv+Pt7W2Z+nFqAEUt/1enmCLz1fV96UndTvWzVf1x569On1tL6969e+Z+G7NkyWL+0SlFis/vp04IIYSIi3RaL53WC/FNiK3TevV9rPYRMnbsWHMHw2oHyLF1zLhv3z5zDY0pU6ZYcv48CaTFTT0f6sPrpUuXPhhcQM1TO7JXP2/r1KnzyQ6h/6lO602GUOZ0iEe/NVn5YVhNbvw6l/PKfqRpPJw904dQMEN8TGFvuLVvGo17zOChh1pDCayr9OLwnNGUzZWcYK87zB/3E6N/O0CocnmYrFPS79f1jOpZjsTWWjxuHmbEj9VY7qQxB0kSpsrInG1ONCuWDtsYl6tRH8zGQdloe7o2xzbPpFymeOb88yt7U7L3EVadOk6bLEHM6lWRwfTDa0lfEtqqgSiTsh0urNpwkDy121ImcyJzuaiMIf5c2ruc8zbF6V33+49ey4YQX06tGU+P4atI1Wg6m+a0JYXaQbvBj8XtGjBk5x0KVCqJY/YazB7VkayJbDGE3mF4stJc7/gbq36pwIEf0zI+ZDJbRhTjl3xV2Kisz2RKSrlGS9m1tR5qA8mXx36hSedfKDDjLvPqp0btf17/5gEtKhbjQY0lXJjQGLd9nSnZ/SRjdlylR7EE5u1TrzWX/QvZ/CYfPRuWJnEsl5Pfy1vs2r6ZjLUHUS5zfGV/LRMiGb2Y3aAoI5/mZun27TTLEtGNviHEh6PT2jH/kpVSxkSo90NOnn5KltKlyJrcQb3xwq7sjyz8sSIJLCcw4OpsGrQdT1C7A5waXBS1i3yTnys/tqrN5vg/cWtpB7Q3l5G6fD/6bLvB9NrZzeX8Ls+iWosJJO+9n119ipl/xTR6XaF3++YsT/IzTxY1w3j5NzJVHka/Pbf5pVpmczmTycC9zVM5qitHi9olSRpLq82A59fYums3WWoPpKxyHan773VxJnkrD6Vg55XsmNmCiKvrnxV1lMaMGTMSGhrKtGnTePToESNGjDDXCvrYtbl161ZevXplefXXUb87bt68iaenp7lJvPra3t7+o9vyJVGPo3ps/0pq35dqc9527dpZcj6kBtxOnjzJokWLqFq1qnkAgqik03ohhPh3yCiN/2ES8BLi2xNbwEsNoqi/JKujQdWtW9dcoyg2Bw8eNNcAK1q06LuHl1SpUpn/jRSZr342xI8fH0fH90OzRU5T//1YOXUYdrX/kqgip6dMmfKDznvVaZHrU5sA/tep+3LgwAEuXrz4QcBLnaZ2/K0OIqAeJ/V8fMw/GfBa0DMpPRcFkrBUV1ZPbkPwiSEMnH2ZZBV7cXDNTEzXNtKpekse1xnLzC6VMLouoe+oTTiWWMmZ7U04MLoGDec8YOTMqVTLbs+VjbMZMf8ygw5fZkx5Pa1r1ObIUxsmz5hPJuuXbJ3agmW3OrHzxHSq5YkRmDLpubNrLFVazKfGlE0s610FvC/wY5PWbPAqwuHjq/nO7vkHAS+3M0toPXI9Vjqt+VirKTYa9Ro0aUiatj4zFnUnbcyIm8LH5SjTxo5k0c7r5GsznTXTupMufsR1HBHwqsP488nYfG87JaJctiajKyMSFcSp+Tg2zmnKlkYZWZFmOltndsV09SJury7SbsA80n8/j11b65sDXgavU3Rr3J4dgfU4dOBXCicK5dyqwdTvtZcu6w4wrmE+nu3pFC3gZQrzZ9Hkvqw59gQ7G63ywB3HvirvL/XtFxKUjDbDR9Gtdl7LFAuPU5Qu2YyAHJ3ZtnMiWWPt6kuP34W5fFdiIf1OHqdXudTEetsYfJcxzVrw650M7D68lqqZrLmzZTKNOv1GkbknWNg2HyGXFn0Q8DIF3mJo3UYs8SnC5u2LqJTRhgvLR9C630q+X3qRhcoxfHt2TvSAV4g3i375ibUnX2CjHH+Tsv+xHgFl59Vuv/Rhqeg0+RdalEqH1vM8jfNVxfW75qzdupiCUUeg/IfEDHip1GDNjh07WLBggfmzQQ04xaVVq1bmzu7V+7e/kvoZfObMGXON4dq1a5u/T9TaqpGf4d8i9TP7t99+w8nJKc7joJ7HQ4cOmYOV+fPnt+S+JwEvIYT4d0jA6z9MAl5CfHuiBrzUIc/VJnKXL182N4nJlCnTRz/M1eCJOq86ZHrkR2bUAJN6Ix8YGIi/v7/5b3NzrijBKbW8Wk6dpq4n6o2/Wi6yfzB1WtRy6i/fkc10opZT/1XLxFVOffiL3E6149+o09RmK5HNAtW+stQaCJHU9YWFhZnLqs1Jom6nKnKaKmnSpO+Wq5ZTl6lOi7k+lbo9KrWT6ZhBRbWcWgtAfTBUp589e9a8P2oTsJjU5b99+9bct4taM08NVubJk8cyNbq/JuBlItDzIZfvuSvHQnllbUfKnAXJmdjGMl3JexfwSsXEnXsZXi+nkuvKzxVrMd4tFUcO76NMcvC4f4cHbwIJdLnI1NETOOsTSubCw5UHwVEc6l+MNr8/o8uv82lTPBX2CRxJ5OhI4tSZSG66Te0KDTngbse43+ZRPmk87G3ikSBRMlJnTIGj3YfXbZjfExb/1I3Zh26ht1bOb1gI2iQF6DZhDv1rZ8PK/9EHAa8XJ2bTctQWc3mNRrl+lXOg0yn/Wq4Bk9GAXjlPEc2fNCTPUIdZSweSIdr6w/C4vIHOHUdzR5+OGl2HMKRzdTImeH+8IgNe484nZdOdHZQ0Twrk4pKxyvat5/FzN4LjJSRl0kQEejwhwCopKVKmI3PT3znQO4CSZX8gYcFZ7wJeytXHrR2z6Dp8Fs+DdOYab2F6LcWaDmXWyA5kSGTN490xAl6hfswc3pFt573MHblr1U78rSLeQ+a9Va4z9Zo0KPusBsNMxvg0GjCJAY0LmdcYKfDqAr6rM5xU3//Ojq3NSWIIYsG4bkxeedocOFSph08dRfKlmz8JU6chkYNOXbyZUR9O5R7jWTK0vfn1E6cV9O09gcu+euystISEmchZ5QeWzhxIpkQ2eJ9b+EHAS/X45CL69v+Vq6/12FrrCAmBPFW7s/q3n0jpoOWV0+zoAa9gT+aM7cXmMx7m7dNEDjCgbLN5/5VzrO67er7VbTWZktFm/Cw6VsiAjfE5M9N/x+Q0pZi/fitNssX+I8HfKbaAl0r9LLlz5445MNKoUSOqVKkSa03Qbt26mfuJii248v9SAzcPHjygS5cu75pmf8vU89G1a1dzdwExv0/Uz+i1a9fi6urKTz/9ZP4ejo0EvIQQ4t8hAa//MAl4CfHtUQNeDx8+NHeErvbTpQavJkyYQOrU7zvS/lpEBrRUEQGKiI959YFeDZKpAT+Vmq9Oj6SWU4+LOp/6wB/1AUWdVx0tMXL+qOXUPlrUh9DIclGpy1CDdpHbEbktKnWaGvBTU+S2qAG4evXqUbp0actcsVO/gHft2sUvv/wSaxOmv6qG15VlbSnSeU3Ei0SZqbfCiZ3100a8VpgDXj2S0nNpJXZfXkadQsnM+bt/KUH9ccEsPXmQ1pkDWP5DewbvPI8uzXfUrZqSQ9uPkzDnQI46/cybA/1p0mYeDwJMGIwmrJNmZdDg/rTt2IVcyYPYPqALTefsxKQcH7UyUvJ0rRk4pxcdqxYlhWNcNfsCuXxwK3v2XSM4ZXbqt2hBySyJIya9fcisnpUYpOmHtzngpR67yOOnnAflOvB7dY/rVx7hFRyCwcqW5BmyUShvThLbW70Lgqnzvi8XKZRz2w9iVaAi32VyMNcIez+/ItaAVwiPjm/l93UnCbCywtrGFiuNgZDQcPMajHobUmVozeBOvpQq141EhWa/D3ip15Oy/ODHzqzedIB7blpy16hPy6qFiTw0jywBr7FRmjS+YzISHvqaRzfv4fLQjSBlU7UJU5AzZ15yp0+KVYyRLKN6fqgX5VqsJ1uLNeycXwsHYyhHty1l7YHr5pqaVugJDYvYh9jow0IoXr8jXeuVU15FHEv961tsXLWdK4+DyFimBi3qlieFJSYde8ArYunBr66zZd0urj4OJlvlejSrUZJkllhPRMBrKP323HnXpDGSSd3/IB8e3r6L6xP3iL66EqQiT+7c5EybJNr+m7fQ9IK56b5jaPz8DFu1mZHFk0ZM/AfFFfCKdP/+fYYPH07JkiXNtXdj1n794Ycf6NWrFwULFrTk/HXUJtlqAEcN8nyq2fW34Pbt2+bjHTPg5e7uzpgxY0iWLJn5+/hjJOAlhBD/jq8l4KU+ZHxzduzYYRo3bpxJeciy5PxxyoOZ6eeffzYpF4ElRwjxJduwYYOpe/fupvbt25uUG2xTQECAZYr4LzIYDKYDBw6YevfubVIeMs2vo/L09DRVrFjR9Pr1a0vOn3N9TQ+TRqszWVtbm7Rpcpta73OzTIlg1IeY5neNZ8K2mmnLhVeWXJNp+5hiJk3C70zrbrw2nV7S3ZRQWUb9IfNM5697mkzPtplK5UxsyllipOl5mMFkCAswPb561HR8YXdThuQOJmsrnUl5NDTVmXDQvCxjoIfp5MlDpjkNyptS6rQmKyVhl8o069Bt8/S4HJ/fz1S3VTfTDc8wS46F30PTrHaZTbbtZpn8QqIft6Bnx0zDmlY0Zc+Q3ORoa2veb2trK1O8xClMOb6raBq84rTJL9wy80e439hualaxgmnChuMmg9GSqdK/MS1uU96UMVsj09lQS15UQV6mJaNbmBoOWGL64B36/KCpYLYspgpNdpreWLIiGEyBHqdN3atVNc3cfc6S996j3V1MadJnMf1+wc+SE8GoHPebW0eYqhTMbkqVJL5lX5Vk62hKnjaLqXij3ibn5+HRtz+K54d6mzInT2aqPeWUsgXv6YO9TXuHVzG1GrPY9CD6hn5SmP8D07A2lU0/rTlvCo5xnL3OLTTZOsQzDdzrYsl5L9D9ornc4C23TYExyr1ymqOUczQNOfTYkhPBGB5kcl4+1FSpgLL/iROYbCP3387RlCJ9NlPZJv1NZ18GWea2MD43zUmTzOSQq5Jp0gUfS+Y/y8fHx1SpUiXTkydPLDnRqfdn7u7upr59+5p69OhhcnOL/p7t2rWr6dq1a5ZXf619+/aZ5syZYwoODrbkfNtu3bplKlWqlPmcqNR/Hzx4YKpdu7Zp5cqVn3UfvnXrVvO5FEII8c9q0aKFSa/XW179d0VvdyKEEF8ptfaQ2tykQIECDBky5IO+ssR/i1qbTG2ypHaGPHfuXDZu3GiunfZXy9tsBm98fcy11HzvXWBx1ZSWKVGoFRdCb3H+4YuI12/Pc2KXB3ZpE5ApRTwC/b3w18Qn63flKVIgEfevnsTTN6I5qtYUzvPL13gYlID8bWdw57EXTy4sJX9acDvzlIDw11y8dg9r++R0XbePhz6enFnehwShHtx5/sa8jLh4ul7h5JmLvAmOMVJf/Ez0WHAdzwU9iG/usN7CFMiRGdNZc+QZdcZt484Ld7xfv+a1lxd3T2+kbsp7TJs6E+eHfpYCcQt568al007cfxlj5DxdAtov2sutK6spFltrOEMorjfO4HTFlQ/G40xTidNXrrFnZS1i1NPCEOLF5RMnuPviw5H6MtaYw73b1+hUOL4lJ0KA5xWmdZzEi1SVWXLkBh7Kvqrn2evFfbb90oTQiyvptvA4geGxj3RoZa12QB9O4GVvoo65aTSE8Pz6Ec5ef4B/mCXzMxnC/blx9ihXH3l+MBJn0qId8HR3Y0K1D/ueCg9+bS537akvMQdmTFGym1LuJWMrZrDkRAj2vczcUQt5maICm87cxk3Z99fq/j93Yd2omnifXk6vxWeJOcaeermro0jaW32Zv/iqNYnUvhLV2p9qTVG1uZzaJF38u4KDg839rKndCAwdOpS2bdv+6VYWQgghxOeSgJcQ4pugPgSpDz/qg8+ePXveNbET/11qFWt1IIF58+aZ+4pRm8iofXz9lXTWdua+zswpvqPykB/X16Yb0/p1p/fIUfRu34JVtz3I8X098ia1JXm6nCQ3+rFh7lhG9u9Lk26LcPVUO0S3xkqj49qKsVStVIUOPYcw+deJTJ61hufekK9xMRw1viwf2olqtevRc/hkfp38C7NXH+KtfV7KFHjftDI2agsijZUVjgliBCY0Wmzs45PA3iZGcz0Db339CLdPQO4CeUmTLLGyz/GJnzAR6TLnImfG5Gj83hIcGjMEEjtlD7GzV5s0WjLMNFjbx8MxvgO66Ct/R32vam2U4255/Y5W2Rdle+I5WMXYboWaoSQ7hyj9hVlorezNAzvYqCuM8pY3hgfhpVwuydJmI0fWTCRW5lHPc8JkqciZKxfJHMJ47eOPMY7PiVRpS6C1tyYsxJeIsTffU4+9Vrl27D4aV499ueoVZmNvjzbGpabR2Zi3T+3fy9yUMxr1aCvlHJTjGvN0RytnyVQYjQH4hOlJnEbZ/8zpSKLME9+8/6nJlSs7Se3C8Vb33zK/WXgI3sq6kyeJT8GUH5yhL4rapFDtoL5atWrmURzVATFUUZvWiX+GeszVURjnz5/P1KlTKVOmjJwHIYQQ/4i47tyFEOKrkzNnTsaOHcvy5cvNneWqnbCL/z61HzZ1VEy1j7F/L4hZghHDmuC+eDGbnfzI0msmayf0IIEV5Kvajd/6NcbO9TRLDlyhxm8b+LlCAXQ2t3n5BqpPWcqaMc1w2b+ZpUuWsGm/Lz/O2MqvzfJh0mVj8qoNDK6hZ8+6JSxevorzr5Oy4sAOGuRPb1l33AJe3KVTzSpUqliRitFSBSWN42ZAlOCVxpGqPTpRJokPY5uXpUzZ8hHzVqhA6bJV+XmPDzU6dqBEVktfYB+jnAcdJnZNH0uFD9ZdkQo1G9P1iIdl5uiMWht8LyyjXKUPy6nb0rjbYJ5EVJB7T1mftZI2TxxEpVjKVahan7Hb7qhxoXccUxamz/h6eOyfRYMK31O+gmXesmWp1GoE9+wrMKlzReJZx1GTKWNBmiSy59Wb40qy5FkYjeB+YgXtq324LWqq1WAoN3wjBnP4gHJndnZ+f2pXia1sFUbOdSbog2BBxEiLztM6x1GuEmMXnCckSjH7RMXo3LESXvtnUrV0qXf7X7FsaeU8T8I1SXkmdCxF1BCiweslG8ODSZ+uKnmjDzj7RVKDKmotULVGkdqPozrKa+RgH+Lvpx5/teZt586d8fT0NPe7Flfn9EIIIcTfQQJeQohvhtqhevbs2Vm8eLG5M111xMYQdUizT1A7c1drDqmjMEYmtaN2NWCmJvVvdR7135idtou/18uXL+nevbv533Xr1pEwYcTYff88B/IWa8cWj1e88vbh0owe5E0d0du4dcIMNJ6xmYevXuF19xxTG9Vj9PGL3Dq5ke+SW2GXIAOthi3i/it33N088PC8xLiejUjlaKU8MEKiTEUZtcoNTw9l+isPHlw+RfuyWaM3R4xF8qz5+b5oIeJbG80j7qnX5vukx4RNjJsALSlKdGTt6ZMsG9uWQkkTKBd/OOE28chVoy0rd59l58+tSBvv003Z7BKmpUTJUmRPkwjjB+tWkrJftrFV8dLZkiXf95TIlwGN/sNy6n7Y2diaj0tUOrtkFC5VmiwpEyjvxQ/LGU1GrK2j763OPjnVR27j+OGldK9VnMTKMVHn1abPR6uhv3Pm6HY6FE5MnJX6bNJRrkFmXj15jLPr+6aUGq0tafOXoljujNhpP9yWiGQbo+ZbBK2VI/lLlCFv2kSxlIlIWs2HAxVY2SU2l8uT2jH2460ccE2MXix0tklpNnkLJ4+tpFPVoiRWrgi9OjBChkK0G72US8r+ty2UPEqM0MSTK4fwDDSRv3l5Unz88vtiqEEXtYP6GTNmcPfuXXNt0P98B7z/EeqAAeqIuqVKleLnn38mffpPB+mFEEKIv5KM0iijNArxTVB/3XdxcTEHuVRqfyLqqE/qZ8HIkSPJmzevOT82Z8+eZeLEieb3feRHplqjKJL6QKn2/aNSH6Rijs6l9jellkuUKNEH09SHMTWp09VmV5F9i6mvoz6UJU+e3LwclTpN/TtquaifZZHzqaKWU0VdnxocUkdFjBQ5TaUOqZ84sfIIrMynilruSxlu/969e/Tu3dv8GayOJBN1u/6qURo/xTxKY8+k9FxUnPXOa2lR6ssZ9dNkMmJUh3WMkwatTrmOLK+iUsuqpz76+VevOfPLT1PKmZsNW15+SFmecl3GFvSJGI3yIyWVjYh6TUdQ1mf42PqUcub1xbq3yjoj3tvm8uZ9VdbxGTvrdW8r1Up04vtJq5nbo9674JjJqAbZIv6OXVzH3nLcPlJWPQ/mbYtW+DPK/b/7b/Rl0cCO9FkUxIG7m6mQ4d8JLn9qlMaPUX+Y2L59O99///3fEnyRURqjU38cunDhAuXKlcPaOrZO+z5NRmkUQoh/x9cySqMEvCTgJcQ3IWbAS30Pq01bzp8/z+rVq+nZsyclSpQwT4tp06ZNHD58mG7dupnLqaJ+dKp/h4a+b54UdZoqMDDQnKfe8Md8UFenqUml/hoe9UtFDdpELsvGxsb8EKpS/1W3PbKcWiZy6H11frVpn/rwq4pZTn0ACQoKMr+OuT71YVAtq86nbmfUBxS1nBokVMXcD7Vmm0pdtxpgi1yfSg0GRm6LGkCLukw1X12nOr8arFIDcOr8VatWpWTJkpa5PqRuh9ofz759+2jcuLG5j56Yx/WfC3iFsX5MMcZsLMDMjTOoUzi5ZYr4FhgDPFkzrB2zjdU4Oas/jtaxBZS+Dnrv60wc3JobOZaxtF9REtnFDDr+M/6fgJdK/YxR/R038BLw+utJwEsIIf4dEvD6D5OAlxDfnpgBr6jUG2r1QUXt60UNtEQGjyKpAa+bN2+a3/PiQ2oALTKoFfMr5c2bN+YAlRrUipwnkhokjAywRVI/n3PkyEGPHj0sOdGpZdQHH7XWgNpZvdp/V2z+qYCX+Map13uU6/dbob7L/629/n8DXn8nCXj99STgJYQQ/46vJeD17/w8J4QQX5AGDRrQp08fFixYwMqVKy2576m1m6IGZUR06g8HahNPNanNK6MmtdmQGsBS+05TBw2ImgoUKGDuJLtChQrmVLZsWdKkSWNZ6ofc3Nxo1KiROSC5YsWKOINd/wr/2/To0IG+I04SFCPo9/rmcYaXLM3sA3cIix7z+6gw7xvM6VuMunMOfLSJX0xhPnf5tVcpms0/ZMmJIfwNh5cPp1qNadwNjNJpvTGQA1N+ol3z8dz+nPEc3t5kQLcudO1znMeXptKuY3NGOL/vyyqqz9l6Y/gzltavQ78pK3D/SNd6bx4cpH+bqsw4/hL9ZxzPYJc9NG3Rgl/3uVhyIrhfXE2Fmk1Zd/GFJScOAW7sWz6RdtVq0rz9IFYfd3nXXDHsrRu/965Ij5lbCTF8/jn6s9QmtItHVqXmxHWERV1fuB8rpg2iWvUa1KxZM9ZUtXJFZu44+4euwbjIp6EQQggh/gsk4CWE+OapzeHUPrzUTo3VDo0HDRqEu7u7eZpaYymyyZ74e6nHWg1mJU2a1JLz3unTpxk3bhzNmjUzd1KvBtO+KGGvuXHpMIcOO3Ph7FnOnDnzLp0748yhC+e58dQnWr9O+mAfbl48zWnn9/OeUeY97XQVd79QDMHKMk9f4viNp9ECRuFK/vWLynwxyjmdvMYrX6VciA+XT17kzM1nlhIKUzhv3Fxwdnbm7PlznDl5iCOHjnHu0nml7GnOnb/LmzA9z646c+TiRXxiGXth76SiZK3blyPPIprEEvqam5ePc8zpBW89r3Du2EXOxRGp0ry5RJcmFcmTJ88HqXjFmhxzD8Nk9OfuoUM43XhAUJxjPxjwf3mH47uO4uTiRewxJiNvHt7jgnLNqMfmwlknDu85xCnnC5w5e0Y5Bme59/QNbz1cOHl4P66eEU2DP2RSTut9RrRtRLdRy3AJ8uf5rb2MaF+b5hP24qt8LBjCArl56jLOt55+0OfVw73jqfldzlj3WU25cuSg98x1lrlVYfhdX04VZVruqPPmzk3NdgO481bZIqOBO+fOcuGiS/R9NxkICnhDQIA/AYFB+Crn+tCBAxw4fo5HHkq+/1sCg0Pw8Q/5rOCjEEIIIcTXQAJeQgihUINeKVOmNA9brzaBGzVqlLlZnPjnRa06rTZhXLJkCVOmTKFNmza0b9/+Xcf+XxaNuWnb/UujqFyurLm2WmSq13MMV5XJ1jF6aPd9eIgmlcpTPnL+cuUoW6YMZSs3ZssNL3OtQp2Vejyif1X7uB6lQbVy78upSSlXrnJLtl31VObQoLbKVTtFfyf8DWdXDDB3Hl22fG3GrbqiZB6gi7L+suXKU6ZiV077KuWUFVprrGKtwRPw+inPnnsSqLeETJTt0yjzWltp0Wh1yrYq2xtbL/Qqq4Rky1OIokWLki+tnlcvn+GTMi/FlNeFC+QnTQJlHp0NNsqGW6mducexGFOQB8479vA41IpLO7fwIvB933nvhXFm1I9ULK/uWzkqd55OQMhbDv7agXJlleNWviJ9Zx3GT6s2ObM2H+dYGfV4HJ/O/ANPqTNiCefUAJrzPvqWTMr2mUM5fD9AmUmLla1a6+wSq1at5vCZB1jCgcRLno1C3xc273PMVLhABvyePsbd561lbpWyrATpKFykSJR5vyOZ/hlPX3q+q5mlXg8a9ZhHvIxgk4SeYxfjfNqJ44f3MrpDJewy5yNlujTU6DuVwyeccHY+w/i2FbGROz8hhBBCfCPktkcIIWIYMGCAuYld3759zX13qSMZRh2VUfwz1Kak6uiYap84av8tZcqUsUz5UunIWXQUe44c49ix92nTzOEUUqbGbEmWKEsVNhw+ytHIeY8eZWijjNhkzEKhDInirImTJGsltu6LUk5Jg+ulQJM9O3mzRPRX9kFZ60R8326qed6jB7cyuGVhtNpqzNt90LzeE4d/p3Ri0wfb+JdxzM7QcTNZtWoFEzqWJIWNI+m/783vq1YxpFVB+tSrQaXKrVkTHBr3jYn+LbvnD+GnzR70mDSeXHcX0X3YGh690VtmiGRDyZ9nc1jZL3XfIo9RRFKO29HDzOhdiUR8vOamWpvqwa0dhOQqT+lyRSIy7TJRp1lJrIJ8cXGLCC7qrOG503q6duzCL0uO42s5+KmKt2Ty7+uVfV71QVo4cyTFHeyIvuVWxMtclSmrV7P63bxL6F0xSawByKjUURb9PB6wf9F4GpT7nu5rnrJg4y7WjqjGiQnNKFupHQt2nsMjMPyTyxJCCCGE+FpIwEsIIWJQRwxUOzxXaxOpNb3UZmDSAfE/I3LURjXINXjwYHPNuxEjRpAlSxbLHF82rdYaK0zm5pmRSae1UfI+ZO2QjO++r0CF8uUpr6ai8fF+ZCJLnopkS2kJsKrBE51a4+p9mEItV7jk+3LlCtvzykVD/u8qkz31+9pvGrV6WCSNNYnT5Y5YT9lS5MqQWMlLSsGS5ShXvgJlSucn8fsBNGNlrgil0aE1uDOzYQpS5GzAyWseERM/k/7NI5Yuv4x3WAiuK3qweM9lXgeFmmstxWwSaGYK4vGtixzas4JOtSowcMUz2k5bw6j+A1m9bSEpb0+lXv2WTFu1H6fLLvgFqyEkLYmz56VI4ayYHp9m1ohutGjejA7dhrDh9BOS5yxK7sxJlXPy8fCeRqMleaqiWHk8xf2ZZT8N/jy+/xyjjR0J46uD3pjQh0Ke1uN48eoF22a3I/UnI0rKSTUZPgxKKnmh3g85fvw4J06csCRnXDw+0aGaMYSH+yZRqWg5es/ehaZwa1atW0fropmp3H4y21bMpIDtU34b3JwiRRqy3cXfUlAIIYQQ4usmAS8hhIiFtbU11atXZ8yYMTx+/Fj68foHqMEhT09P80hn/fv3p1KlSowdO/bL668rNiYDRkMod86PpLqy3eq2R6ZGvUdzwWgiJCxmTaSowrm2eDo7XsSjdtv2pIyMr1pD6PkdjPt5DPN2OOMds4ssk56LC2ay3SsZDdq2ILWtJV8p53d2OxPH/8zvey7iE7XlX8hbXnvcV/44w8MX4R8GXmIVQpCfUfknBKPRjmKNe9GvUwPSpfj8kY5DvW4zb2AnfrtooOeU2Qwqp2FEi/qMWvuYob/v59jxjXRwsI0ehtKEc3XrNGrWH8PrbA1ZuGkrk1oWIp7WilTfNWTljr2MqJ6CHVO689O0Hbi9Oz5Gzi/rT40uY3mVqiJduvWgSdlU7J+u/NtzO76hkZ2EabGLF8c+6KzIXK0fpUx3mNr/B0aMG8/oAV3pPWkX6cq1oXb+VMpMavBKmdXWgcRJk5Ewvl0sN1YGnh7ZzqyJk7kVeQI1GvNx12qjrNsYgufJWVSuXDnK9VONkbs8CQ4LjaO/MmX1Wjuy1RnC4g2r2HvyPLt+H0aFnMkwty5VpmUt3Zylh05x4tA2FqyaTa2s/4H3kxBCCCHEX0ACXkII8RGFCxdm3bp1NG3a1JIj/i5qza7g4GAePHjAhAkTzCMy/mckLMSsJZs4cuQIhw8fjp7UvIMHGN6gYBz9JxnwuLOH/rN2krJ6JwbVS/f+y1kHYbeOMGf2bBbtOcfrYEu+mR73W9sY/NteMtbpTp8qKd/XA1PK+V8/zIyZs1l68Ao+UQJlbq6X2LPzuTLvM1ZuOknoZ4wuaPK/yelD4Rgf3sfFJYAybcYwfGQXsqdTO9/6FBNuzqvo3LQhk/a9YuDCVQzo2I5BC3ezcVYHHANC0FqHYgwLIsRojKgZZympD9RRrssknE/tZsHYHhRKpcXXxwcfS/IzJqZ6j7Gs3rybFT+3JJVNZFDRi0tbb2CfqzRTZs1i3NgxTJk3hXalcvDq7CleqR1iaZSjbHzLgr5Nqd6wBQuvxowmanHMVImF21bQrqiNsq2zWbn/CeV/ms/W+T+R2VFdhA6HBNYkdIiMNMbGwOP9G5g8dwFXPSNOoD7YHTejA4kc1aBZJI1yHGyU/S/E0HnbzdeNej2pad3sMeSII0712mUvDerWZdj46fRtXZOqVSqbg2bRUpWqtPphJPNG9aBhs9Zci30wTSGEEEKIr4oEvIQQ4hOSJ09OhgwZLK/E30UNeKkP5ytWrKBgwYLROq//twR6PcTp9Glzs1anC5e57xu9eZnJFMaz22dwOn8bvUlnbvoaW7J3cOD1k9s4n7/Mk6jRJ8XL67sZ1rEPN61rM35oR1LaWCaoQiF+h1l4vfbh+uIB5ExsycfEs4vbGdShN7cc6vHr8HYkjdokUVlF2q5zeO3jw8U5P5AtoSU/3JcdC+dyIXVl+rYqza3lI1h13pPwj8a8DNzZupYd/takTPiSHXsO46dWeAzXY4w67GScNKQpXYc2bfswc995xjYrRiIbDdaJMlO7ywQ2rZ9C2QyOaLTxyFamHIVzZcbefHcSyunBHfgufXZKlS1E2lQpSJYs2YcpaUqy5i1E3pwZKDRomXmNkJDMpTMQ9uwx6zbu5LRy/o5u28VJVx8ylCxFYltlBZZN14eHKbuij9JoNAqtFZlKNmDkr7NYsXsX61dMp2PV3AQ9v84ZZZmX77lTb/xOfuvXCDtd3G0ZtVbW2CjXt87SbNMYHEgQtthZxxYoS0C2/MWoaKnlpb4nvi+cj/ixtYtVqEsMCwsjKCiY0LBw9HoDBkPMpCc8LFiZJ8i825bNEEIIIYT4qknASwghxBdBDXA1aNCATJkyWXL+fQ/2T6ZihQrmvq8q1mvNqDPRq8aY9F7M6apMq2Dph+sTqWK11kw79iKicLg/TitG0rJJR7a+ys2CjfOonSdpxLSYNOqIiJYoRXggxxYPo3mLzmzzKczidbOoli22mlYR878rZwhmz8xeTNrqwQ+jFjBp1mI65PJjUPuOrDjzNGKeGNRu7N/c2krfCcvJ1nAS2+cOwH/nNHr+fo5Qc99inysJ1Tv2pFV+a1bM/ZnWbdvRoUMHc+rYsaP5305dx3IhfUYyp0qCtfnuxIpcbXsxfclSli1bZk7LV65g9piOZEmoofQPk1mxYvm7acuWLmVK20rmtYEdNX6az6Lh9bg6/0cqlK9I46HrydZkDBuWtSG1rRpMNSp3QfHpNnMzh3dspEuhuPrp03B64WBLn2lR+lyLTMr10X7SGkI+o6ZcpBDP57wK1xLfPjISGZUVDvaOn32DliR7LXbvO8Sm2T9SPH92cuTMRa5cH6ZMpZowfcMh9mxaRYE4LjMhhBBCiK+JBLyEEEJ8Md4FZ74QtvFTkClzFnOn+ZkypCWVQ/RaZxqr5PRZdIKjxyI7GVfSSSd+7ZQLY6qCzN92kJPvOiA/wbGDa/ipUjoID+bU8qG0GzwPj2zNWL1nGfW/S47VJ3bfFOrHyaUD6DxyKW/ztGHr3qXULmjpr+kD7wMwpmAfTs4fQL+Z56g9ciajGmbDJnFOfpqziBZpXZjebyynX2o+WM5rlwP0bfsjjzK1Zur4NhRv3JUeTbJzfPYwjp57htHq828jNFotGn0wJw9uZdOm3Zw6f46zZ85wxpzOKukE25YtZcvRi7w1d5mnI9X3FWnWKSIgpqb2bdvRtmE5UsaDHJWa0bJN+3fTOnTqRPOSuczrUtkny0HrQb+yZk4/EidISLXeU5g2qj25EinbYZ5D/X8TBr3eHGyN/RhGKN5mGBs3bVK2W0mbN7PZkjasnkO19DaYNB+rjaguWx12QKN2C6bQkLRwJ7Yf2EbP+tnNc7xjrjF3idFdqlGuXDnKli0bkcqUoXzP6ZjrF8bYTvU9o26/192TLFu0nG37DnPi+PF3I1MeP36MQzvWsnL1Hu56BJjn/ciuCiGEEEJ8NSTgJYQQQsTKRO6Gk3B94IKLiwuuF44yp2JKy7QIGo0NGfKVpny5MpQpY0mlS5I1jQPYOJK9UHFKR+YrqVzJomRKYgfW9pRo9BOjZ63g4Lp51MufDuvPiEJobBPyfbNhjJq9koNr51AzT2psPqecfSIK1GzLsKUbmf5jXRJZmk0my1OFBevXM2veEMqkNUXEW6JIlrUUQ+bMZ8Pv4yibJp6y3Sn54delzBs3hirF06PTf3ykw9hYW0ParN24cPce95Xjqh5bF5f73L9/hB7x7NBa6ZTjapk5FqFhevN2GvXhmGKpVGXSB3Pz0nGOHj3KMadL3H3yCoPRwJuX97ly7rQ5/+j1J3gHR3Zc/2mXN/1Kk8aNzP3KRU1NW/Vi/5NgdFGCi8bwAB6q61bXc/QYx08c5eITd0JCg7lx+gonjh/F6ZILBr0vD++c5+jxEzxUm7lqdNimyEnFioVJnzSeeeAMGxubiGSlxQ4jHxtfUavTYW2XhMHrnbl3X+1rLeLY3r93g9MzqmKtLOMjrS6FEEIIIb46EvASQgghYvX3Rgdsk2WmY6sGZEoctfOtT7NNkolOLWqRLoFaXehzt1FL4myl6FyrGI7K6qKW0qYuRo0S72tGRaNLRJ6yTSiePZn5pVpOFy8jjVpXwEYdmdKc+0eZlAVpYrkBiS3vjzMGeTK6RxOqVKlKlUoVqPfjHHz9fDk8sxdVKlSialUlv+kw9jx4YynxaWowSWufmPErD+LsdJKTJ6OkEydYOqzFuz68wt668luVKlRR1lO1ahUqV6rBwI1H8fL1YFLnKlSqrOYrSd0+Zb6q1Wux5IKbshJbkpXqZg7IRXZW/y4dP8mB3wZhbokYS5AvKrUv/uiU46rm/b2XsxBCCCHEF0cCXkIIIcRfzKg3YtKHfzI48VEmI/owtW/4z6+JFCGinOEP174yYQgPJ8wY/nmbrYtHluzZyZ41EVqDXlmnkfDP6MReH67B7eFiSn9XiAIFClhSQQoWqMmCwFBMBnWkRsvMsTEZlP9MhMfRZ5bOMQ1zNp3h+vXrlnSDGzfUFPn6Otf2TqN+NkdlbmVfP2ObjerokSH+rJgylL79BzBgQNTUn87DfudZiLkdJraJcjH43botybx+JcXMV9OVC/Qtk85cVqU2UYw9RUzXq9dWuHIMIl6+YzQaCA/xZXqbShQsGHlcCyh/F6XCoKPKdWTkD3QzJoQQQgjxnycBLyGEEOIvli5/KWrVqULyeH+s9lZUOoeUFK9egXrFs/2hyjk6++SUqlWRqkWzWHI+k8aabKWqUL9CWZJ/xgCZpsRFWbBuD7s31CZN6pJUrFeeiunsLVPjoLOleLka1KxelrxZs5EjRw5LUjtbz0/Z+vWoUjwvjnGMSKiyS5KVinXr8X2m+LH3u6W1Jn3mnBQokJ/8+WNPBbOnJV2WQtRs0JjcaeJbCsYtdZ7i1G1Qn0K5spAxYybzwArvUob0ZMmcHjtzNSrlMOrsSFWgQKzrjTXly0cqx6hDc8ZNo9XxXYWqVCyT74PmiYkyFKZB4zqU/i4P2bNHHtccZM+Rk3wlqlK7dhkyJY5tVEghhBBCiK+TxqSw/P3N2Llzp/mX1oEDB+Lg4GDJ/WPUwzZ+/HiyZs1K69atLblCiC/Vhg0bzP3ZjB492pIjvmZeXl40b96cLVu2kCRJEkuuEOK/ztfXlyZNmphH5syYMaMl98uwf/9+XF1d6dq1K3Z2cY36Kf6Ibdu2cerUKWbNmmXJEUII8U9o2bIla9asMQ92818mNbyEEEIIIYQQQgghxFdFAl5CCCGE+Iv8VZXG/+xy1HJ/puyfLfcv+4Ob/B/cQyGEEEKIP00CXkIIIcRfwRiGh+sFFk8eTMvatahWrRZtOg1hyb6z+AYZ/9pgg0lPUGAQwSEfdl5uMugJ9vcnNJbO7o3hIQQGBhAQEFfyJyyuTvJNRkKD/QkMjeic/b1Qzk34iZZtuuLkHXdvY4aw4FjWF0BQqD5iuu81htWow5A5h/H9jF7L9GGBBASHoI/S6bwhyIMj06pRdehC7vu+306T0UBILOsOCAw0d7RvCHRj18TaVB22ELeA2PbfpBw7ZfuDoq9P3fe7e2bTrFpXDjwL4YOSxmBeHJtF1ao/ccTFL8q5MvBk9xK61KzD+nvKqzguDpMhLNbzFRgcGrEsjR/7BvegYbtu3PY1F/moNw8P0rh+PX5dcZvbe5VyLXqw+o6fZaoQQgghxNdFAl5CCCHE/y2MGxtHU7ZEBcavOsQTv7cEB73l4a0DjGpTm3Itf+a2tyVIEVWgO1cunsXZ2TnW5HTqFLef+1hmjsLtAOWKFKZG830EWLIiGHl1YS1lkyRm8JrjljwLk57zs+qRJUVCc79msaUECRIydrOzpUB0oZ5XGFAtKRl6LsQYrftPAz73bnLx7AVeh1myYrF3Yn0SJIyxzsQJKdpzFSF6I8awN9xycuKGqydhcQSAIplMRg6Oz0Lysp3Y6hpoyVUDRKF4PjjCkWuu+Ie/X4jfwyO0Sp2ChNHWnYjE6bPx+yUP5dCE4H7/OEduPCLEEMvolmH+3FzUgMRF2rP7btTzYSTA3ZWzx8/jGWwJaqqja755wunTp5XkzBnn0xw5cgLnM2eU1044Od3hTbiRIPcnXFbO7/O3ShHzsj70/PgosqRRtjNxlO1OmJBszcfz1jwKpwGvW1c5d/GKsr8RZYwh3ty7dhIn8/otSTmu1+4/IeitN6dOnuX+U3/8X13l1MWrPIssKIQQQgjxlZGAlxBCCPH/8rnM0F9XE56nJ1uOO+N04iQnTp7AyfkUK8Y1w3vfNJYcukNYzFjKvTV0bFSe8uVjTxUrVaL3slNEq1SkMpkwGY1oNPZEHwdSi46IwViiB6UUGh2Zq/zI5OlzzB1AR02z58xk/MAWJNdoMMdRYqGsEWWVSopjhk8w6k1YOSah+8ipzJs7l9mThpEnnSOmuGqUfZQGrVYpp2yKKbbaYNZ22DtEGflQORZqLK5AjTYR+ztb2e/ZynGYMonyGRNEzPMJWmU9JoNBXdTHGcN4e3oGFStUoEKlGrQau005T1cY16WukleRihV74fw6TFnap2uxJc5Vn8nT5pi3d/acOcwZ2oD4Vgkplsqa4X1782OfQay8/SRawCz4yQFGtq8csf7IVLEiHccu5k2InbItlhmF+FoYAjg4cx0XH8VWzfFTb9hP0/s/4/qxcbgFgvfLGxw+9ihKbc4gLiyZh5P7/7MmPZd3zmKv6z8TfDYGPmbVsDU8C/z4+t4+dWbrvv2ERFTC/fe9fcKpC2cJi6wSa9IT/mA/y7bdM3++/2kB7py54MztAyNYcfmZJTN2n/z8jxRlRvWvUO/bXDy7gosrB3D0vnfEhI96y6kBhzi9fz/b150nyu83sdBzZ+MQDtxSLsI/4dDBeWxxCbK8+jS/RwcYtf8iwXHdLIT7sGPdWTz9Qi0ZnyvKMfvc4xyV6S2nF6/n9O0/dxzE10sCXkIIIcT/K+gNPiEmEiXPScYk9lhZ6dDprLCyjk+mzLlJYQrjbWDIhzdx2ZowY8lW82iSMdOq30bwXTwDWk0so+OYgxYBXHMeQPXKlahU6X1q1GcM9wxGrMwzRqUh1Xf16NS9Fz179oyWenTvQacW1Ump1agxpNip227e/pihGq05GPRpGnPAq3HH7vzQrRvde3QgW+p4n1XyA+FPuXLagOGFO74ery2ZUZxZSccaFajfvjcP/SOy1Ge2XKUrROxvj4j97tWlIwVTRhmtOTQQD/fnuHl4Ex7lQBgNYbg/vgrKOQz9oElnDFobEpTqx+HDhzlyeC+rR1RXzntBRi3apeQdYv+eSWQN88LDz9+8TR8TP10pOnWN2NbWtYrgfvE6SUs0pmvdPBw+dIiDB45xy/tNtGNol7E6Y5ce4NCBvbQt5YBD6fbsP3iYJaO6kCTe//VYKMQXyWQM4sK2w9x7GbW+azg3F4xi7cYT5pq0w2Ys4qTrG8u0Pybg9WvO735BmPLU9Nz1JFtem3j/qRyGy55t3PD5kw/pZgZcnDdx7uU/E1kyBrtzYMUhXgV/fH1Br25x8uy5aJ+F/6a3z6/x4MYJ5Tsq8hPPiOHlBfaffqqc7T8vyOsBLleP8Or6cvbdf2XJjc7/zhq6LFmFe9Dn/UBjCg/gxLo2zLrgrWytCd8Xbty8+ArXQwu4/OzTzchNgS9Z+9CNZ9cucfLwnSgB1tgYeHpsAecfxVIb/DNcurCdky9CLK9i+vCiDvG+z4k7L+L8ccz49hnTH77CT/8Hv92VN9DT3Z0Zsv/mn/thxhTKo7OXefzK8qUvhIUEvIQQQoj/V7qSdPs+Jw+PjWbYr8vYf+IUp06eYN/WRQwfO4UnGWtRv3wObGLGrh7vYlD3FjRs2PCD1Lr7OC69Rbnxi/spyqTcIBoMRnOtq4hkMP/7Ljb12dQaY+FxB7sUYSHB+Hkrc/oFo/4WHOThwkXnk5xyOsUNT59PBm8imNBH/jqvD8fwQdW1z2AK487Ohfx2JgC990k2rdlDlO66IijHRa8s397O5t2Njnr/bIyrsyyVem6O/kap3Fkp2/xH7kW5Z/b3vsXyNZ4Y3S7gdOFBnH1umWm0WCXJYq5V9X2+TDy7cU3JdOWJfzyKly3I440jyJ0xMxUHz8YlosRHmAjx8+TGyY30b9uG2a4JGT1lDOWLfceatWvZuGER3Qpks8wbQWefnHxFq1ChfFnSJtJhlTgtZcuXJF6oOzcu3SLsn3mmFuIfpdPZEvr6BU7Hj3Li3kvCw3y5fUVt0nuJB49dcVY+p87ff0aQz0tePnrM2XPOnL50gwDls8MU7o/rjRMcO3GS864+5hq1gT5POfcy0Pw56q084N9I2Z309qF4nDpFy3LpMQV7KZ/xJ3F6cIc3Rh068wO6npdXL3Ls2DFuPfFUPuICePT4Cq8C1XCFAS/XRzx3e2Nuen33irK+U85c8ogIQmutbLAyf1iF8tTZiePKMu4/91ReG3nl8pgn9x+Yl3vh3jNCzNEPE773b3JKybt48z5BykaHB3jy6OZ1Lin77RZo4uHdq0qZE5y99JiQaB/uWqw11uZtDvK6x0mn5+Zm5D5PrnH8+DEl3cRb2WaNVoe1lfrTiYGXD69z8+ELZbUGHlw/aV6u8zlXgtXlGvW8fnJVKXec03deER7zA1L5bvF9dMI83fmBMl0pYwry5Jzy/XHM+TLPfELNy3V9fod7969z4vhJZd+9cb91hZPHnHF55q98pIfhckeP8U11bLQGnt5x4uRJZ576WSnHTYtGKe/vdtN8jE7deEaoJRpj8LnP6ZPHOXn5PuHK90Ko73OuOB8zH/uHvsqxN4Xz/KEPgd61SRRfPQfKSTAp+3PvFCeVY3HK6Q5vlQ/NJ/dv4Hz6NHfUYIopBNfzZ5Rz5MTth17mayTMz53rZ48q19ApXHxDlXPxijPO5zh+5SZBegPPPV8SlLYmDnbKtaL+sBTmpyzPCa8gA/oAN844Kcfn3HVeB0eEtt48uItNx3KkSuiIzjrixuHprUu4PA9UvseCeXD5uLKvxzl/SbnWlWlaK1uslBOqBtrOnj6JR2A44X6PlOUq5/PYGVzd/M1BM1OoHxfPOnHM6Tz3PSJqdemsrLE2X3smPB6q18xxzt5/Zd4v9ZvT6/EFjinn7uHDh1y/7U38/M2Z17Ic1iGePHS9wQ1nZ2X6BZ4r59GkXq/3btKmZBYcjL5cun0T51PX8AnW4//kLs7K+Tl39RYhysJN+iCe3VbOhZJ32dVbuUzecuHcaZzOX1au34jjECk80JPLynzmedVuHoyhPLrkwmPXe+btvfFceV9pE1Fj+I/UKJreUkqICBLwEkIIIf5viWg9cylrpvbCZ980mldWm65VoeWA+cQr14+tuxZQK3vSD790NVZotQnJ23YSm7ZtY+vWrdHSli2bGdO0WBy/dsajQKlJHFBuRNUHici0Ze5wcuq0n/hFOJhT44bQtWd/XN5GzGlSVqLWW9Dp7MyvY/J+do3Lz4yEOW9l7xPl5nvPGFpWq0iF8jUYeviiOQj2Meo+hL1+yc/dW9C4cWOatO3NBRdf5U4k1p37kHr3rdwQX145hva95mDM3Zjxw1vwfPNYmvSezQO/cOWhx/KgVaIlS/acYP2CaWSOH5GlPradXjePRo0am9evpkaNGtJv9ia89Bo06vNR4QYsWLOJhRMGkjGy4pfRjU2TfmGjl5bsyTTsmTueHY8+XZ8g6Nl5JvfuzIS9Rpo1Kc3OSd3o9cs+8nedwN5dW5nTqzHpLPPGKtiTdeN7U7tyecrV7sHDbO3Yu/8wLUuk48KKQZQpVZJixWow8fztaDW83lMegJWnWFNgiPLA9ZxhLcpSo8tk/KJ3+ibEV0CrPOzfZv25qwS9dmV+/+7su+NHeHgogYFv8Q8OJjQokOBgf56dXkL9Tr/i/OAhZ1ePY+mm87hcPsDkHZfx9n7B3iWtcHoegl4fjE9EZAm/J3vIUqMQutA7XHnRlCKJrbj4y0+sPP0S9ytO7H310hw8cjs+gXnr9xPg85iVg+fhfOsFu+f/xoojLzAFezN33jy2XX6J65GZ/HbwCm4vrrHs59bc9TEo5TVolQ+px4cnMn37NQKfnmHEoDlc8Qvl+MwhtOozj5e+L1k7og+bj98n2P0U85Ys4cmLlxz5faHy/XEXf9edDB40jQvPvfHxuMqOJcd45vkKp+0LWXHhpXlfImm0WkxPD/Dz8lm89Q3FoPw9ZPVW/Hx9uLBZ2Y/D15R5lJ1SNir04U6GTjyIhz6MwOtr+HXHObw8n7P790ZsvOuH10MnevXdgeubF2ya2IJ5V6Kvy+vOPhpO3KFs/yv2zO/F6nNPWDtlNTtvPuX+6VUMVo6RQR/CnIHNmLDiLK9eXmd4q/6sP+7Cw4ub+XXUIrxCgnmlfYS+cg7CHh1k5MR9PPJ7xv6NqzAq+xL26ipd2q3lvp87e2Z1YbST8iXl94D29Rdzwe0NNw9NoerqG6zcvYbtN5/j9vgca1bOxTM0BM+AW4RXy4mtGunU2eD/7BgV5x/F7bUXp9dPYOZpd4JDQggLDMTfEMbj7XNZtPkKr5/fYcHEVdwINbL90GpWXHqGp/sN1i6dwYsgDYFBekKUMmoN4beeR0n3XRblSjUSX+vDjtnLOfDwJeHBbswbuZzDD19w4/BC2i3dgVtQKM/Ph1A5TzJsrdVgrj2vdrdm9J7LmPRGHp+cyci9N/D3c2PznIHK97HefG8RT/uWI4uXs/32M0IDXjB/+UrOKOt4emULvZau4PHbAI6vXM/asw9wvbmPMVNGKvtvUMoq51mjJfzhMQaP2svzYA/WTuvOtGuvIeASwwat516AB6dmN6P30H08dF1Dg8UHcbu3j151erD3xjNcnNbTatY6HvkH8PSlFTnSZOLGgenKPdB4Hru95fWTY/w+bwp3n7pzbv0y1ux6yqNbRxmy7jw+b4PYs34QW+4ZlPeqgdDAAEJiBE1PL+nDjut+BHqc4rdhq3gc8oYlHVvRbeY+Xr++yYzOXTj32JvdQyex3fmxpZQQESTgJYQQQvwFbBJnoU7HwSzatI8zly5y/sJFzhzexeyf+1Alb2qs44rraHQ4psxK1syZyaKkzFGS+jq+UjD24JWRIP/n3Lp+nevXrnFNTcrf9x66EaTcK8a1OjNTOE/PnWTviTN4m3/6NxDi/Qof0pI4gSVCFFW4H8fXLuGFlSOagLv8Om4B8epMYsfp81y86My8mqUsPYfFzTF5BvLlykaA5zMeP37M4+depM6an9wZUqA1R/RMykOPAX1sncarNGGcWjqSlkN/J6RkR9asnc3gkbOYOaY57genUrfdSI676SP226T2N2ZCY4kUam3ikSF3HpLbGHjyRFm3un5zesL9Fz6EKvMa1BhWyhzUaNiYKmWKkcBKz2vXM0zv0pGflYebCgNXsnnbTL63c6FPw3os2HeVN7H1rq883HifmkWD5m1Zez8+wzfuZ/7vy1g/qhq3V4yl55hFaPPVoeZ3+UhkKRIru0Tkz5+D9CWbsnTXEdZNH0DpbAnND9YlOk7jzDnl2F8+xe9tG5EzRzYcYrRhNfid5sZtPeHXrnMlOB0zdlzk6JaJJI4fyzYL8Z+mvN8NGahbsRrVG3eggZU3HkGJyZM+EwUKFeK7nDnIkKsABXNmQ6d8xuQpXJJWzdrRs0tD9j1QPgNfPuLhQy8SpM5B3QZ9yJ3MmoQpclErawLl8+Qldw8Up0YhLQHXDxFWPRd24bdZcDUVXXu3oFnz9jTIlsZc62bnEl/iZcpHqgwF+C7bZeUB3ovahbPw5u5ZAv28SJMpAWUKO3Jy2SIKfFeSXFlyUjyJhoPXn2G00mGt92bPSm8Kt29LzY5DaJnHhdVnfZVlB1G4VCnaNm5LvxbJ2HzzDC+cruBrnY+cuXNRvKCBM/f3YzJoSZu5ErXr1ie7ozcXnrthlzI9FRs1oEK2pJZjFSEs6Ck956wjdeH+1K2XDbvkBWhbqx6p0mYgvSmQl2qNGSsbgi7uVD5bnWg9tCtVcmbCNlNpOlWpQMY0qUjIC175h/Ds9CzeVGtM14ZtGdiyFMdW3+T9UCJ67hzaRKqqw2jdqCUjh0yiYuInnAx8RBvlM7JHt7Ykvv2aS8rnryFjZr6r3ZjmLTtgVyiE1JXq07JlbRInfU5gUBBBN7WUymbNzW29iV+vHR3rNadli9o46my4f2UJ9yvUp1vD1gxoX5lTC65y5/52ThQuS6t6Sn6fn/mlYiZC7jzB6008suWuQMNKdXAMC8HzvJGyueNH9Htp1GOfvCCjmtQla6ZsZDD58cgtnBzZ05Myf0G+S6ll120P0pUrTMa8hSmS/iZbz/nz9vYzvNytyJjlexpVqUfq5Ekpli8hOQsWxdbwksfHy1A4k/LYrbNl3ZiZ7PVNx6BWzYj/4iDHNX60rtuc3p1b4b7sOs/cnnHRLojcyeNhZa3j+olp1N2fm0Fd2pMzUzxS56lHh8qlSJkyE46vnuL2xoDG1o49v85i5f1EDO3UmgzJUlC9UkNK5sxJ5pQJeeqp3Bf4PsXp0UGatWrHD+1bU1T5/jr7KgSDVqN8Vxq5fnAMVGtI+1pN6FblOw7+fokn+4fiU7o6PZXta9G6IQ52tsq8yn6owVDluzpNuWI0atKMlk1L4ub/CD9fT7yV90fqVI4YAxKTNlljGrUox+tLLjx4XYhsynda7nyp2Hv9AC+fPcPj7gMSJ0tOzVrtKJk1EWXzOZKxUHEy2Xhx/fI5zl2+wSvlYspdowvVSqchTa6Myvv1Fb4GnfKuD6ZarTo0bdSdrtV8mHfuPg42VuYf14SISgJeQgghRBzevrzJnr372LdvH3uPnOCqV/ROWE2mUB6cP/BungOHjnDp5j2eub/C09Odp653OHvqqHmaeRmHTnDP0owgglFZhh8XpregyHeFKVykKEWLFqVIEeXvwsrNdNFiFOkwGx/1l+eo1ICOKYBrp3pTukgRpZw6fxGKFC5K1Q4jcDEY0MYsE43G/KuuGmgyV7BSlmcIDiSUeMSzid4NvtrU5PmxeUxZ6UaDH36md41C3Nk6ljm7HpImt7KNRQqSKYljLH2GRaFsSuW+S7h27TKXL13ikpIuX7nIybWrGVYzOf4GE1Z2qShdtx5lC2TENtYbVhuKNR3E9Mmz2bViDlVyp8TKNjl1+szm/L4lzBvRnYpprdVdUfZM+b8ou58gY1l+u3CJa5cvm9cdmS4rr/f++gPpHRzIVqIMNUvmwdZS0GQI4crGicw5cJsSPWdy5JdW5C/Tit+WTaeY5h7jJvzGde+wiF/Ho1IevpKW7kq3H8ewZfc2hjUqTNJkaajeaxbOx1YxtH8XqisPPmH6cPTqebQU+4DGhvzKw/eKuT9TOZsdd08fe3cdOV2+r1xfnrx6+ZasnfsyZczQdzXZVKbQNzjPHseZQDscjReZPv8eyXN8R95s6czNaYT4uqjvo3gkd7RV/g5Ha9KgUx7gDSYl6SM+C4zKZ6JR+SwzKfNlSZdOeTAG+8TpMdrZk7FWL4aU0zG6X0/6dB/KsVv+7z4+TO7XeFQoB3mUNbg4u5A3c0J0b5WH+lSJSWGrzpWCDDmVN1+YgYfBrsr7dQL9+/Vj4dkw3pqUZdepw6sAX1xf3CcsqD457AN4fMSN+aMH0fenMSw7rSOJshhzs7SwAO77JiNVYuWhHWuSJjQRGKw2/U5HxtQpzduTOmNODFotfn6P2L5pHv3792Psqiu46VJj0mixt7bDSnmP26aoyoQqqdgyuDcde/Rk46m75qaakfTah6T3TYjvxbvmH1T0T04wafCPyvJGseO5G5rEOvND4gvPeFSp7sz1yy/QG0J5dXEmA7p2Y8jINbg4WKPRheP7ypfcWZKZl2udKBUEhEXpUysYX5e3FMgS8QEVL1UOklkFmpubJ1C/NGziYW+0JVg9R44Oyku7iAFOEtthY6MhXD2X9jqMfvd48Co/mR3CePnQkyypHJXCOhJly086bTivPX0okDOleZu1CVKg8w/G8/Vr8uVOja1Oi3W8tBRPl4Dew3uR/uVq+vXqxcCpG3ni58L15wXJqizO/N2hzOv/8DDdf+jFjz9OZbe7F1rlC0ltfq9eQ+qIvr7Pr7Bw3AD69e3H8tOvMAW9pc2Q3nxv2smAvn3oP3EV94OU71T1hxSjAYPnOV6WKIDa0E6jVQdvCSW+tTOeAQb8fPxIkVA5BrZWaO0dsQ+E12+8iBf+lqQOOuU68MbXIRH1zl3iwuM3oJyDxwdn0bVbLwb8tI6HGYzolO3WaUzorQ2kSnSalz7hGIMesHX2APr3HsCsdRcIsbdFG6pc12F6ktgqR8nKDgfrBJaaVOr9QCiez7zIkj6x+bW9Y1IMfgE8eexBljQJlTzl/ZI0FVrt+34Z1ONln9QBK7WvBuVrRe271OTjhf8Db5IkUANSNljrEprPiY//E3bsXsBw5b0xYfFeXpnik7p8N6a2zcHoIQPo3UO57s6FmH98UgOP4S+OMnF0X/qOmorzcy+O/D6Wzr0G8OOqEyQJV/saVefLTqZUCdSDSvqcufALC5dgl4iVBLyEEEKIODw+Npe6dWpTu3Zt6rTpzq8Xo3eQbjL4sGJI3XfzfCrVadaDRWejdIqbpT7zl6xl4g/llRflGb9sK4cP7eHXtnlInDYPw5bs58jcriSOeReXrCTzlm5g//79HDh4mCENU0C675myZgcHlLx9e/fSo0YRy8yfwWjk7WsPAozJSGpvb8lUhfLy7CI69P6VkO/bMnhUL0bNncfYuumYP7AlrQYtxVN56PjkPaZ5BuXm/slReteoQbWaNalZqwZlypaiVKVqVK1am5rN+uEU4IPry9t4xtG3tH3S9NTt2J4sibXog304sXmR8vDVnCb9ZjFlymgGzttJvNpr2TO5GzmVh8Z3LBv4xOkXainrrlFDWb+6DZZUq1EHpu9VH2rUURjVBwCliJUjlYds4vTZc/xaU0OlWo1YcfYpyQs1ZOMJJ85tnUrpNLbmG++YNLp4NG7dmkLpIo7lqwdOLBw/hPZdx7N8zgQ69h+Js3VRpm7ZTouc6sOKebY4hHFr12+0qVvnw2uqTi2qli9PnRaduPWuv+JQLm+ZSNvpl6g/YikrxrTm6MRmzD90T3kuUB+khfg2mJSHea3lzWVUPkPV61+LH5suX8E9IAzXs/tJG2bP48MruJWxBxcunmP+6Iacuxc58qmROwevkblgOuVt6M4S/6rkSZMCbYr8VPY4z4bLfhjC77LjzCt09nbULZScTqNm4HzmNDOUz9/i8R3QOOaiieks/YYfJ1u7HMRzSEWFweX5YfYWnA9vZUybIByS22OtfAaHx0tL/WIunL71Gr3pGfsuxKNYzsTYWbmy48Zd8/Yc2HiQbHbJyJivCC279ePwKSfWD29LVVvrKO/tMN7e3cMZuwqsuniBYzP7YnPxPlG78nawqciYBePJodvNlEshuF4+hqZCR4477aFYugS88VWOnz6cHLUqMLj/Bt5e2ciaqx7cPrmUclO3s29dd8KO6ZWvDhsyFquK09rLBCnrvXtsE47F0/A+/h6fXDULsWTbFXMQzPXoCEZc0aJ7acsdn1CCHl3jsaMXuZSP63dN0mPQaHQ8OjKD+J3ykEDrQKl6LTm205k3xjDuH5rMPb2OvN9V5NSCs8rZVb63T21HWzoDhXOW5Ozcs7wODMX/8VFqjj/EpK3bKTp4G+fOH+C7AkEc2jAVxx7539W21eqMeN69gF3X+Rw7OYU8Se3USrsKZdvUvsKsk1I8a0F6TN7MUefD/NKyNNlTpWDllnUk6bSOs+ecKFc8iEtP1H0xYWVl5O6WC+QpldH82hgeTr0hk+lbMidtZx/HIVdh/G6F8dw7EG/XS3gUiYfOx4PXYYVIZAvh4QkpV7Qdww4NwmXHVK74hHDx7EmazdvF8d0tcHfF3HeXPjSUmj+NZkClUnSdfYhnj69xxSYxK/YeYUzrPAQ9CceUOANJbTJz1S2QUKXgbb9bZEtgjU4NDONAkUr1ObPztvK+CefWlYMkKJeD7+s05/r+xwSg58betYSGfKTzAp0tz1484miSHiRVv36jnM5c2fPSoUs7Nh1yZtPk3tROkAQ35xVs1DfmtLMzEwc1YvvJa+YfgdQfrGyztWHT3vOc37eaxjnduHrRkTn7nDnQxJpX2rdYK+9na+1ltl5/idHwlq2LjlE+YzrC46ohLr5pEvASQggh4mCfJAMlS5WilJJKFspP5gQ2likRtFYpGLTRlUePHvPo3kXGNlRuzqsOYv9VVx4/eYLzbyVJnTkPLddf4+kTZZ4bhxlVLYOltCJ+BkpUqEipfOpvv+koWbIylSpVpXSuJNg5JqFYtepUKJTlw+aQdskpXa4i1apVo2qVShTLbq88WKWmYFnltZJXo1YtcqaN3oQlOivlZlFtxqDcNKoL19mRp8kkbt9dS73CETUJVB439tGn9TiepWzAb/NGkz+RFfHSFKDf3C1M+WkQnZtWIFmsIZ/YGfXBeAUFERIUTKDyRPU08C3hwSE8evCYt0EhBPj74/Em4JOjgvm5HqRblRK0Hz6T07dfEhgYQJD7Q05vmE+/fhM5fsPd3CdZTAHu9zl09Dj33X0IDgpUylmS/xtcrx3l0Pm7BKk1Qiy0VvFIr9xEW/k/4uSRg7i+UjvA0mKbOB0ZUidWjqIGh6RpKVg8P0lsY45eqexvqC9XFv5AtZptmbPluLK/AQQEBPDg7BGmjunPhNWnlGMXe4PV96zJW7cXa3ftYs+ePdHSgSPr6FMkh7lWQsTuGnjqvIpRE9eTusUvjOhcgwrtf2R8DQfmT53P+YfKU+yHh0WI/zSNxopUudKTOJ618kJL4tz5lL9tydO0Ig8urmb5fRtaJfVix6S1vHRISRXb54z6oRnD9r2lV/vGfFesNKF72lC9RkOm7khAt4Z5eX5lC90OPMLHNRs54yfDFBBI7iKpSRHfTvm8TEHnGT/iNbYttXqvI2nRnCSytqL88JGkP7WC6rVr0t89ORWKZcRKY8v39cuRolQNyqawQ2uXlNIdZ/BybTuq1O3OkuONKZUjBYlTZCWZrS3lfxpJmgX9qVu5FdZlG9MmhzWhpkLkfXODmtVqsMW2AT82rkrykg2oFHqLtjVr0nLjLdJULIuVQxJSp0usfGLY4Jjxe7xcVlK3Wi26/+5EmU51Cbi7j5933kNjFZ8MRdJjZZ9E+a6oz4HRc4lftgtZHx2mUZtuaAsUJ16iMLT2SUmTMiXahBloWiA+bofPUKrVfNymdabtnPM0G9KBRCFBZCn1IyMKH6JezXpM9e/EpDYFMAW/ZFOjKbj6hZG1Sm9mJBtBg5o16L8/FT1rVGL4j6VZPqg5tUYfpnLrH0mpfIalS5mJ5PY65RTqlM/XrCS01aKzjk+aNMnxe12CUpnU2jw6kleeRqMkx2lYuzlbrLtRPp0dyXO3YWXzqzRV1jHqYRUW9CpGgoy1ODfOn/6dGtCyx2H6dfqeRllSsnVgVWrW6oStQ00KJC9H6cwR4S67ZHlJ5+hI+tLNyLlf2d6By3EoVgI/0xsSZatBkeeXmbz2MhW7diFk2U80rlqHBfetqJbNmmrZM3NmdHVq1WpEoLEhjQvGp2ChdlxbNoX9B/ORP7EaAtSRIH0xEtk7kK5sTVpfnIezbyFm/5SPX/u3oMWMq0wZ1ZHkibS8zZvbXGs6XtIUyjlNgHWyUnyvHIed+x9SuWU/rvzchgZLX9GgQU48gvxJkC4/SR3ikbJkNTrdXMSV4MJ0yJCSnzo3Z5N3VmoVzIi1MRHtOrfg4OQO1Oi7hCQ1h1MwqS3JU2QhjYOGlOVG0C7dTirXrMPq8KbM75wHuzwj6VVgJ3VrdOOBY0l0iRyxc0hB4ZSJsYmXhHRp1Bp0aqwrEXnSp8HeFEjxcjnMY8AkTJaCrBnVZsGQuXJ9GqT2Z0CD6rRdcIh8VdXa7KVId6ULtZT3y4pDJuWeohT5yw3Bf9cyFp9xU0pZaApSt21KJraszSLvCtTObU/AW+WbU1OexLdXUqtGIx5Vn0G371MSL11akqrvUSGi0Jgif8r8huzcuZMbN24wcOBAHBw+1etI7NTDNn78eLJmzUrr1q0tuUKIL9WGDRtwcXFh9OjRlhzxNfPy8qJ5c+VmeMsWkiRJYsn9o9Svx8+PDugDXjCve3oGvB3P+cWDKJbShkcbKlN+tA/V5x9iSZUUljkxj0Z05eAGLiv3dNamEG4cXcPszdB7QhsKprLhzq5pLDlvovmPQymRSlm2dQJKVKlN/iRhXD68kWuv3jcrUB8OLmwazJIb6Rk4oCs5E1m/D0DZJqBU9bpkt/bh9IbdPFQeytR9srIN4cy0WWx9baLbT6PJniAM9YdRNQBmMil/xEtKldp1yZLIhPudy7yNl5ucGeM6jkHsa9OQPmdfMc3pOg3SWLI/wmQy8OL4Qmq1m4SXIRRdtjbs2DCZomnsLIGbjwllT++GNFt/m7FrT/FT9Yzvfr0L9b7L3O6lGfSkEae3z6J0erXZy3u3N3WgQNf9TDl+l4GFo+xP0BPW9MlNW/c+PFw3gSwJozfrfHpoIplq/cKIzeeZ0DCPJffT/J4epUPOmjxvMIK1C8eQM6JliHIBhHF26QA69FlJ8vnXOdous/LQENeOh3JqVm8a91/M6zgOTqJM+dhz9gal1FilwYfzp2+RtXw5lMd05X9qIM6Dm1f1pLQ5Rb7SfajTfzc/pOtH7UkwYN0eRpSIaI70X+Dr60uTJk1YtmwZGTOqtSa+HGqNS1dXV7p27YqdnTx0/RW2bdvGqVOnmDVrliXn49Snmoi3SWyf30E82Dqfja/K8VOv4rw7Q+8LRVBeqwHzdzmf9VWglDGpPyJYXr4TpXBcy/nY8k3BrOg8HL9yLenbobglU/HRbYp9ovo7QvSaDpGfD/+nWI6fef3mLPW4qJNjTP/gQMW+zdFFzhPLvLFtw4cnIw7RlxfL0qPnxTZDTJ/Ynvcv/6JzYPHR3Y51opL3kbUbnzlxwqYAFVMmIHx3Nxo+bsLevtUsUyPEvs6PLzd2cZSJZQWm0CcMKTKaChtmUyuf2gwzqj+zbhGbli1bsmbNGnS69/ec/0VSw0sIIYSI1d93w6QP8WbXjD707tOXXv2GsHD3TeUB+SaLJwzhxx/7M//QS8L83Fg9sY/yujd9Bo/j0H0fwgNesnOq8lop17dvROrT+0fWOAVh53ef38b8RB9Lft8+vek95GdOufoR+PIOS5X5Iqb1oVf3wax1dSPE153ZI3rwY2/Lsvr0oW9vZbuGj+eKu9p0wY7UeUp/JNj1RxgJC/bl3tmdjO5ciwrNR5Om2QR2bf6dUsHbqV+5LJ0nreaa6ytCwj9W68mK+KnssDWE8vKxKx5vgwgJCSE0OBCPF4946a1staM9Nro4bnGMRgJ8fDGEh5nLqSkoRI9fsGX6Rxj04YTq35eLmj4Yil+htbIjqZ2GwDcevHRzJ9Ayb7CfN89feBNqryG9o51ypX38WrOys8bBrigz9qlNWA9y4MCBaGnbqkXkTmRZvy4JJczBLlXkklOS/7u0mAx65VEg4gFUiK/R++fi2N5TRozKg5uWMKL1xhjzaV15HS0ntkV9QCkT63xRMuNazieWrzX/UBGj2utHy8Q+8cNPxL8o0BLL8Xu/YPW4xDL9A7HlxRQ5TyzzftY64hJ93thKRsv7nEV/Ynvev/yLzoHFR3c71okfX7vWUcuO9i2pWaMqxZbY0qtmIcuU92Jf55/ZqzjKxLoCLVbW1uiNesvrqP7MusXXTAJeQgghxF9C7dRW+Uft2DYiA5NyM2YMNxEzFmITPzOj9r3G97U33t6fSK9f4/P4Ev3Lpzc3uRh72I/Xn1XOB59HV+haKjWJ81Vhub8/r2ObL2byUcrdO0+DnB8dQzAak15PuEl5mPxIICXs7VOWdChI6Vo/sP5qCLV/3si6Se0pXqYJq/buZ0DFNJxfNpQyRcrx8/orllKx0VGm2xj6VMnE3oltyZ0uBcmSJSNpspTkr9qVfb75mDK8BwXSfFiD26RsoCnwNRPr5idh4iTmcmpKnr4gA9eHKHPE3jzTHCAyBDC9bUmSJnpf7l1KnpyO6x8SHOPeO37K7xi1cSxpPI7QumweUiZNGrG+zPnovfwq+ZuOYkqj1Fh/4sdTk1GLPvQqw5s0plHDhjRq1Oh9Ul7XaNCW6QdcLHPHzdo+KcWKf0eWtPFAH44p3GCu2SfEt8GRHHV+ZNAPpYisbPnF09jTas5EerYpZskQ4h+UpBTTtm9hy7adnNk0g5rZ39dU/zdpbNMz9sx8auf779ROFv8eadIoTRqF+CZIk8Zvy1/TpPGPMYb5c+XQb+wPK0eXGiVI7aDD7+4GVp4OIEfVVtTI9Oe+b7584Tzas4MjT32o2L4b2aO3IozCQKDbLQ6f9SJv2ZJkTe5gHiUyktGgx/PBBZwehlOidGkyJFJrNcTFhCE0mIc3L3Dx+k3cfEIw2sYnXbZclC5ehgxJddGWHcn73h6W77mrFv+QyYgpWwl+qF2OROooVlH4PTnH7xtPxTnCoVqDIUfNztTKnRirmD8lKsv183rE1bOXuO3y3Dxcf6LUGcmRtzhF82XA0fpTvz0aeHn1BLsOXCTAKpbImHI/YrBJQMnazSif/ePXunrvYjAY0Wq1eF1fyaqLGsrUaUbJNFEHKviySZPGb8sfbdIohBDir/G1NGmUgJcEvIT4JkjA69vybwS8hBB/Pwl4fVsk4CWEEP8O6cNLCCGEEEIIIYQQQogvkAS8hBBCCCGEEEIIIcRXRQJeQgghhBBCCCGEEOKrIgEvIYQQQgghhBBCCPFVkYCXEEIIIYQQQgghhPiqSMBLCCGEEEIIIYQQQnxVJOAlhBBCCCGEEEIIIb4qEvASQgghhBBCCCGEEF8VCXgJIYQQQgghhBBCiK+KBLyEEEIIIYQQQgghxFdFY1JY/v5m7Ny5kxs3bjBw4EAcHBwsuX+MetjGjx9P1qxZad26tSVXCPGl2rBhAy4uLowePdqSI75mXl5eNG/enC1btpAkSRJLrhDiv87X15cmTZqwbNkyMmbMaMn9Muzfvx9XV1e6du2KnZ2dJVf8P7Zt28bx48eZOnUqBoPBkiuEEOLvpH6HtWzZkvXr16PT6Sy5/00S8JKAlxDfBAl4fVsk4CXE10kCXt+WPXv2MHfuXIoXL47RaLTkCiGE+DvZ2Nhw8uRJDh8+LAGv/yIJeAnx7ZGA17dFAl5CfJ0k4PVt8fDw4MmTJ2g0GkuOEEKIf4K1tTUFCxZEq/1v94IlAS8JeAnxTZCA17dFAl5CfJ0k4CWEEEKIzyWd1gshhBBCCCGEEEKIr4oEvIQQQgghhBBCCCHEV0UCXkIIIYQQQgghhBDiqyIBLyGEEEIIIYQQQgjxVZGAlxBCCCGEEEIIIYT4qkjASwghhBBCCCGEEEJ8VSTgJYQQQgghhBBCCCG+KhLwEkIIIYQQQgghhBBfFQl4CSGEEEIIIYQQQoivigS8hBBCCCGEEEIIIcRXRQJeQgghhBBCCCGEEOKrIgEvIYQQQgghhBBCCPFVkYCXEEIIIYQQQgghhPiqSMBLCCGEEEIIIYQQQnxVJOAlhBBCCCGEEEIIIb4qEvASQgghhBBCCCGEEF8VCXgJIYQQQgghhBBCiK+KBLyEEEIIIYQQQgghxFdFAl5CCCGEEEIIIYQQ4qsiAS8hhBBCCCGEEEII8VWRgJcQQgghhBBCCCGE+KpIwEsIIYQQQgghhBBCfFUk4CWEEEIIIYQQQgghvioS8BJCCCGEEEIIIYQQXxUJeAkhhBBCCCGEEEKIr4oEvIQQQgghhBBCCCHEV0UCXkIIIYQQQgghhBDiq6IxKSx/fzN27tzJjRs3GDhwIA4ODpbcP0Y9bOPHjydr1qy0bt3akiuE+FJt2LABFxcXRo8ebckRXzMvLy+aN2/Oli1bSJIkiSVXCPFf5+vrS5MmTVi2bBkZM2a05H4Z9u/fj6urK127dsXOzs6SK/4f4eHhHDhwgEuXLmFtbW3JFeLbYjQaqVixImXLlrXkCCE+lwS8JOAlxDdBAl7fFgl4CfF1koDXt8VgMDBx4kS0Wi0FCxa05Arx7VCfObdv306LFi2oXr26JVcI8bkk4CUBLyG+CRLw+rZIwEuIr5MEvL4tkQGvkiVLUrVqVUuuEN8OtZZjv379qFevngS8hPgTpA8vIYQQQgghhBBCCPFVkYCXEEIIIYQQQgghhPiqSMBLCCGEEEIIIYQQQnxVJOAlhBBCCCGEEEIIIb4qEvASQgghhBBC/Ld9e+NwCSGE+AQZpVFGaRTimyCjNH5bZJRGIb5OMkrjt+WPjNJ4+elJrr84h52VvSVHiH+G3hBOiSyVyZmqkCXnryOjNArx/5GAlwS8hPgmSMDr2yIBLyG+ThLw+rb8kYDXmYcHCQgNJkuK/BiV/wnxz9Bwz+0CaROkpUim8pa8v44EvIT4/0iTRiGEEEIIIcR/mvpjtMGoJ9wYit4QJknSP5aMRgPSoFaIL5MEvIQQQgghhBBCiD9JY/lXCPFlkYCXEEIIIYQQQgjxJ0kNLyG+TBLwEkIIIYQQQgghhBBfFQl4CSGEEEIIIcRn0up06D71FKXRoLPSof2r2rqpy1NWqtXqsNJ9fKFanZWyfZZ5NFp01tZYW5KVsk3mbDVf2Y8PaZR5rNTV/UWU7ba2erd+a2XZ5k3TKMcwyn7olPx386jbaT7AGvOxfr8ryr6/m8dK+Vtrbkpozo/zmKjHTfduf+OaSwjxdZKAlxBCCCGEEELEpLPBIZ4tuncN1jToNEFc3b4NpwcBaCKjQhod9o7xiR8/Hg5WEYGa8DdP2btoOy6+4R8Ej3R29jjYWcfZDE6jtVbWqywvQURyTGBLuM8Djh+4zq0Le9h8xh2julDlPxs7B2UeRxwdbcwPdiZDKA+PLeTUJQ+M1hpCPO6yedJMpoydoqSpzFt9kgCjEf/H59m55yRhWo2yHRqsHdTlJCChxodtazbwItSRhAmV5caPWO6fotFiePuULaOm8OsYZf3jZjBnwXouuQUT+MCJ3XseEmqtxWQMYP+i6UwarW6jkkZPZsbq0wSF+eO8Yz9XngWiUY6rx/XDzBg3hV/GTGXG5PksmnEDvbKNPjcOs+7YI/TKllrHi6ccr/fHzjbsFSe3ncTtjQv7tx7DPUgjQS8hviES8BJCCCGEEEKIqDQajI8O8nP/xTww2EUESZT/s8af8xvWcuiO/7u8wFfXmNytI21b92HUgWcYTRDm+4BN01ZzxytUnes9jZ67v01l+KyDxLOJ5VFMoyX42Qmm9GtP12Zd6NKsI31/WMOToAfs33mFK04bWXn0BUa12lPIW3bOGkG7Bl3p0WEbL0MMaAyhPNg3hyPn3THaagh4doXjp5+RuWAR8qQO4uj+bbi/eYv7tcOs3nCIEGU51nYBOI2fQMemnenSqi8/D/mF/m270rlpV3p22IOH0bybsXoX9IuVCY1NfLIUL8R3JYqQ3cGT1fM3EWC0x//OYTZsvm8OeGk01qTPkYfcBfNQqGhBchXIS96syQl57c7BtZs4/8jfHBx0SJqOgkUKUbxoejycdrHg6BYmtexGr57j+H3vA4w2/pweNoofGrZXjkkHOjXpzIFztzi27hDPfG6zddVBXgQo2/uxTRZCfFUk4CWEEEIIIYQQMZgCX3HzqisBpvdN/9TaUDq1CZ2lnZ0hyJODY3/AqmR/pk5sgWFQV7Zd90Gns8La1uZ900IzDRp9EJfPneb4/nM8DlOb2lkmRTIZsU9fmk4DR9B7yiRG/DyCAWPrkDLUaG4CqNNZY22lLEej5fmxBSy9bMPwBbNplnMBc6c54W9rjVaZrlUXrEaJlH8Tps1CmaoVKV+xCCl9ztK/UUf6T9yPR5CDeZX6kHh8P3AAc5fPZtr49mRIm4yGQyYzZ/kspsytRnLliTG22mgaUyjeT3wJV7bFvL6YTCa0dokpWKMS1WoUJdTdlfR5OlMosxUmjRU2NmrzRjXgZUei0Ptsu3ibcuWzssfZGX3gY376YThHLvtgo+yPyWjCMU0OKtSoQvZEvngZEvDrtK60GPgD9StkxladR+9IydHD+XlEPUjpyKjfZlIjf1IwN6PUYm2tbqdl24QQ3wQJeAkhhBBCCCHEZ1ObADoSL1489D4PuOqUgDKlM5AkcVaqdSmKy7UXBEerRqTBxj4+9vpnLOo0lPN2JWj2/VuaNx7FhedhxE9opzyUvQ8p6Wy1XNv0K93X32LpqBVsOeVNovj2ROtxSxPKjUtnyFqrEZkTmcjboDdWTy7x0ssyPQqttS2O8RMQ306HVZ4KLD22naW/NiVTove1zzRqAEobzsod5/m+QQ3ubZvFoyDbj/RVpsEq7AkLWvand49hbDp4DVvHBNirTRSjRcci+uF6snU5v19JSZ9fK5FIr1YZM/Lo4nLGjFmHj0F5rcxnehNEoFpEWYDGLgFpM6QlkaO1OdpmUo6Qrb2WR+tGM3b2GUr0HUcJ00Mun73M3QevCAjWW46gCUNQMOEPwwh5eoqhw3/jwt236uKFEN8gCXgJIYQQQgghxGcyYeDEtEEMmbqZ5z5hBGm02FirHb0r/zo4EBoWplbUekdrCOHA0qn80GUVSVt05acxfeg+aDiTe5bmxIIx9P5hG142SnnL/BE0GJQMjVUSfG4doFv3BTzWaN4FvTToCQ0yYWVvi9akrMPOAcL1hOkNljki6OziE3D7KD+160yvgSt57psUjEblP5MlQKS8DPPH4+k1Nv8yjOAcdek7uA8dq6dlzex5XH34Er8QvVpRLAYTepuMdFzYmyIOHqydNZOuDdsy48BDrMz9mCmUQoYgL+7tWUDfdc/pMrI/ZTLYmpt8qnuQLGNJ6tQqioMphGDlmBmDvHny0pOgt4H4hdpQuU41sqZxRD2UtmE+bJkznbGP0tK0c3eq5E2Mn2NuqlWrTvuhY5ncqTDWyoI1GhOPb1/jxlVvXHQZqVe/PBlT2akrFEJ8gyTgJYQQQgghhBCxUPuo0mrV0REjk9rpuY7yA35h8oBGZMqYimwOwTxze4s+PIDHVx6QOk1ybKwsC1AYdXZU79iPJZvH07TWd6RLpsNklYCSVaowcvosZv1Wn2ShhncBKLUTfGs7LSZl3cawINJ8V4/5v/1AZpMaaotgwpH02RPgc/cB/iYdb+9dxpgsBckS2FjmUNar15Ikf33mn9vOio0LWLJrG/vXDCe1tbL+KNWwAu7vZOrIX3Bss5B+DQqg1jfLXLELP3f5nl96D2b1JU9so1T10ijHQD0WGq09aQt8R/NBw5g+awxVM9/iwp5LeBoidl5rZcdTp6UMm3eO6Stn075iJkyGiPWaTBriJ89BkeLZsH59kbn/a+8uAKQq+y6An6kNuru7RQlRCRvBQMHAVmxBQVAwEDsBFUUMFMXPLuwWUQRFGgEVpLth2Zz87nl2Hhz2XZCFZd2dPT/f+87M7ZlZlpnD//nfkdOwe/U6jOj3EHb/vRZvPfw4MqodgRoVk8xwxqyECug94A68178Vvn7sUdx44VW4vu816OfcXn3BLRj+6jwEPC7sWjUTn01egLZdfJj41mLUatwE1co7r8k/T1dEihEFXiIiIiIiIjmFI9i9aToeufwqXH/Jjbj+wuvw4OOvY2uGF8HMDGRkZsJTujF6Pnk1vhrVH5dceSfeL9kTvbrVgIfD9iwXe265nN1xaGMykktEp+Qk01MqEvHAEy3dcrnDWPP5h3jnlVnYPnEUvvn1I3wx4TXM2hE2lU57hENo2/NO1Fv9AfqdfT1uvXcDTrqqF6om+qMrOFwRZ98h+LctwcRb78Hn87YhK8tvsp9IKIAsf8CsVqHdVXj2w0k4o6Ef7oQkc25JCW64a3XExz9Mwq0n1UFW9Pl4k9IxY/RoXHvR9Xjg6Zcx4c77cempfXDz7eMQOmoEBg/tiaru7HMIBzLQsMcd+OCjMZj+9GhMXpxiXgeKhPzwR0M+d9VueHrahxg1vDda9XsQb07+AB99/x56NnEhGM5CgJVbzrMPZGUiPVwCdZo2Qv0GdVCnnjPVr40qFZNMCOdNWY77brgN3i734YlnH0K3jcPx5McLEU7YazCoiBQjCrxERERERERiseF64zPw1DvPY8TtN+CmoQNw0+0DceG5J6JMQjC6EgMqH+odezFuv/8uDL3rdjx697moWSZhr3DKn7ISLwzuh8v7XI2rzvvf6dorhuDLJQF4TPjlRoUjjkb/cePx3iv34YWPXsQjD/RFLZ/tUfWPhOotMGD4cNx5zwCMeH44urWqBI/phxWLjfJ3Yf7Xk7FiZwSJCQnw+ryodeL1eHrUEJQO+DHzlbHof+Zl6HduznO7Clf0vhqPPDUFO5FdtRXyJ6Jpnz4YePvNuPT0VvCvq4Vb3ngfE8bfg/PO64G2NUshNuvjSYeCGZg95Res3h6EL8EHn8+DWqcNxujHndcyk6+ls5Irgi1/zcTnv21AxOuF1+OGt2xNDBj9KC7uVAUujoPk/9LX4velKehy5SAMct6PgbcNwkOvvII37+wKb1J13DRmIm66uDVKlamOyx6dhFvOaIKIP+drIiLFhQIvERERERGRHFyJZVCnQUM0bdkMzVo1Q/PWzVC/XjV4XH4Ew9EeWBHeulCtXlO0aNEItUuyMIzJTBgB9qVy1ksoUx/9x76Otz/7P7z+yf9Or771DM5o6oMZ7edMiRWroH7LJmjUvCkaN2uMRk1roaQrZI4ZDgUR2DMsMIKSFauZ82rUuDTc5py4Ds9h75AnEsjCHz99h88nfYEvJ32Jb7/9BQvnrEeqx4eO1wzCC1+9leu5vfHZRNx960koj+xqsEjYg7J16qK583rUbnAMBn5wI05q1QhVKpZCKOBHiMFULlzYjt9/nowvP8o+/jff/4a/ly9Bala0+so8d+fcV8/Ftx99iS+c6cuPv8VvM+diw/ZM8xpbwYxUbFi1AitWONPyFVi2dCn+nrcSqUhC3QZ1Ucrn7Md5/t4y9VC9fCJC/oDz2Hn9AiEeQkSKEQVeIiIiIlLs7NixA5s3b44+EjkAkQgCkXLoPvh2XNixggmcchdBUpU2uHnsMHSokYxIOIT0lF3YuWNnrtOunSnI2rvX/F4iYRdKVO+Ay689Ed16DcRd5zYy4VZuXN6SaHv5E+h7WgN4WdnEECmpNi4aeR9ObpIIfzBswiAzhbNDsUB6GlJyOa/saRdS07IQjgmcLBdCyNydtaevWG74GrkTyqLffYPRrVlpBEP/HJthoBUORNC0ez88ccORSOAye47OtIdzCq6K7XDDnf3QvHwoex977SvnOUYQKdsYFw+7GE2rdsKNd1yGhmWdeQq9RIoNBV4iIiIiUiysXr0av/zyC8aMGYOePXti2bJl0SUiByaMRNTr0BHNqiZG5+TOU6ISjjypA6qXPPT+UQxovCWqo0WbOqjd8Eh0bFIern2lNm4vqrY4Gc0alImGYhFEPKXR8sRu6H7WaejR6zSc5tyedlZPnHp6G5TZR3CWfyJweRLQotMp5tg9zLF5Hj3Q9bgjUdqXHZcx1ypXvw1OOaM7TttzjtnrNatZCi5nP0ZSNXTsefKe5dnrnIYTT2mBUh7Wt+0tklAOzTs2Q3nn9Tvi6BYol3i4n6+IFCYKvEREREQkbqWlpeHzzz/HQw89hMcffxyvvvqqqQipU6cOOnbsGF1L5MBFIuH/CVZyw6sL5l+8wsqkf6b9MeeXY5XsKqicU36e3/5Fcjt+bPUWOSf9P+s4097PN/d1YqvFcsp+H5z/Dnu4JyKFjQIvEREREYkrfr8fv//+O5555hlccsklmDRpEpo3b46BAwfi6aefRkpKCo444gh47KXxREREJO4o8BIRERGRIi8UCmHlypWYPn06HnjgAVx++eXYsmWLqeh68cUX0bt3bzRu3NiEYV999ZUJwkRERCR+KfASERERkSJr06ZNGDduHG6++WaMHTsWP//8M3r06IFp06ZhxIgRKFu2LNzufz7yLliwAJ06dULlypWjc0RERCQeuSL/Ngg8Dn388cfmw86QIUNQokSJ6Ny84cvGfz1s2LAhLr744uhcESms3n77bSxZssR8+ZH4x6qO888/HxMnTkTp0qWjcyUeuVzZV+XiLf9uLoYfa4oNvsccisjKLQ5VXLVqlQm3GHixcqtNmzY46qijUL169egWueOQRg5n7NKly15B2KH68ssv8ffff+Oaa65BUlJSdK4cClbtsffaMcccg1NOOSU6N3fT/v4KOzNTUKdiU3Z5is4VOdxc+HvjPNQpXx/t63WLzstm/j5yfm/97/UtD1wgEMCgQYNw1llnoXv37tG5InKgFHgp8BIpFhR4FS9bt241Xzpr1KgBn88XnSvxKisrC8FgECVLlozOkXjEz17sufXjjz+iXr16ZvgiP4MNGDAACQkJ0bX2b/ny5WZ445133okyZcpE5+YPBV75Ly+B1/S/v8banauZL5hJpKCkZ6XiiNrH4Ihanfb8w4ttph+BCwk+rwnsD4YCL5FDo8BLgZdIsaDAq3jJzMw0X2z5QVHiF79A7Nq1y/w9XKVKFRN8sMKnGH60KTb4nv/11194/fXX8dZbbyE5OTlPXyR5tUZeqZHh1MF+BtwXBV75Ly+B18ada+EPZJl/5MjPyj2Rf8O/c8oklUOJxNIKvEQKGQVeCrxEigUFXiLxh8Pb7rrrLnP1PX4p2Lx5M26//XYNY41zrOZ79NFH4fV6MWzYsDx9kVy4cKFpYr9jxw4zDLJz586mWqxq1aqHXA2qwCv/5SXw4rqhYAi+BN9Bhwsih0qBl0jhon/+EBERkSKHX26fffZZVKpUCTfeeCMGDhxoqjruv/9+E4hI/OKwRl5hcdGiRWb4cl60atUKo0aNMs3tGYzyPkOzN998E3/++SfS0tKia0pRY0KGSNjcioiIkAIvERERKXK++OILrFu3Dv3794/OAW666SZTYfPJJ59E50g8YqUEq7LOO+883Hvvvdi9e3d0yYHjUEj+7HzwwQe4++67UapUKUyaNAm9e/c2oemcOXNMqCoiIiJFlwIvERERKVKmT5+Op556CjfffLOp8LLYx4vz33nnHUyePNkMJ5H41bVrV1OVNXv27OicvGO1WLNmzdCnTx/z88R2FTVr1sQtt9xirvT63nvv4Y8//jCVX6ocEhERKVrUw+sQe3g1aNDA/AujGiOLFF78QsOKD/bw4r/ki0jRxL97t2/fjssvv9w0Hm/RokV0yd4YUDz99NOm4mtf60h82LZtm3mf+X7Hhp+HgkEpq7t+++03fPXVV+bvjkaNGpk+Uvx54me/3KiHV/7LSw8vDmXmxCt2qmm9/Ff49xQn9fASKRwUeB1C4PXYY4/h119/NZe1LoYvo0iRwQ8ZHPLSoUMHcyl6ESma2JSelTf80H/ppZfu9wvEu+++ayq92KOpfv360bkSjxh+8mqd9913n2lkn5/4hZU/d7///ru5OuS8efNQtmxZ8zN43HHHITExcc8xFXjlPwVeUtTwOyEnBV4ihYMCr0O4JDV/AfEvYoVdIoUfP2jwS0l+fxkSkYLBL7IPPvig+buXX4D/Db9ocDjasmXLzN/3DCYkPq1fv978IyS/FLK3V84vlvzZYWjFJvWHcgVP/kz5/X7MnTvXBKqs/Grfvj3OPvts1KpVCzNmzMDKlStx9dVXK/DKJwq8pKhR4CVSuCjwOoTAS0RERArGM888gzVr1pjQi19oD0RqaipGjBhhKryuu+66A95OihZ+lOVFDFjRN2HCBDOMPfbL5fLly02D+iZNmphg6vjjj0e7du0OOhTh8RispKSk4Mcff8TPP/+MHTt2YMWKFWbI46OPPmqq/+XQKfCSooa/Hzgp8BIpHDz38vI2xQxL0jdt2oRjjz0WPp8vOldEREQKG37hZajw7bff4tZbb0XFihWjS/4dv/gy2Bg9ejQqV65sei8d7JcOKbz4ntauXRvffPON+YIZ27eNjz/77DNzn43pMzIy8Pnnn5uJwyBZicWfE04H+rPB9Riq8R9NmzdvjhNOOMEcn5Vm/IzJCyZs2bLF/Mxx3bzsW/bG4GDq1Knm9W3YsGF0bu7C4YAzReD2eJ03KQuRkHMbCSLFvwOhgAfBYAiBYNCZ/NGJ90POfL8zBWIeR6dA9q0/lD0/EMzKngJh5zbiTM52oeh+zLrZgZudAs7vLr/ZjvsOmP1l7yf7PILBdGeey8z3h1KdeWH44EYo4obLHYbL+U+KLht8OT+Mzu8L5z09yN8B/B3GXoJNmzY1vQRFJG9U4aUKLxERkUJr4cKFpjpr3LhxOOKII6Jz84aVYeyrxB5PRx99dHSuxBsOW+RnO15UiEMbKSsrC0OHDjXDDFu3bm3mES9+wAD1p59+Qq9evczEL5QMqQ62OohfSllNduqpp5rhtAzg2rRpgzPOOMOEcNw3wy85cHmp8AoHs5AViCAxIRFhTyZc4QRkpQXxyPPfO8t82fGRi1dude5F+B5zTsSES9n3Kex8OeKyf74eRVzZoUXEbBvJDtLgcWYFnG1Zv+Pcd1Yxqxl2fd4LZe/aeZC9X/uzFXJOIegcLtlZ7EIgkooK5Uri2vOPRcnyXnjcfmdNDou15yVFhQ26VOElUjgo8FLgJSIiUiixSoahBIejdezYMTo37/hRh1dq/fDDD/H8888jOTk5ukTiDRvYM8y65557zPv8559/4oknnsBzzz1nqrJisQqHFf+symI4xSGw3IYjANiXK69fUGOb1jPYYjUZ+3zNmTPHNL1n/y9WKfHq3nXq1IluJfuTpyGNgbDznobBdn2mPsqdhR1bgVbtX0V6ON351hN01nIjggTnlwKDp7DzkFdZdznz2OMv6LznQef3hcdEVmG38zjsQ0I44nxh8iDsyg7CIq6QMznrObeIcKQIf66yw7Ds22w8krOVsz9WmnG97NCM28LZNsDdOY/dYWd+hhsNapfE5+9ciVr1XHAzLXPznBR4FTUKvEQKF/vPDCIiIiKFRlpaGu6++24cddRRhxR2Eb9onHbaaeaqetdee63ptyTx6YorrjBDFRkw0aRJk0zPrpxhF/EiJjVr1sSJJ55oqv8GDx6Mrl27YvHixSa0Yi+uKVOmYO3ateZLZ16wSqxkyZI48sgj0a9fP/OPrBdffLE5JsM4XjH4/fffx9KlS83PuuSH7EDBFQnCbaqx3Ih4AgglbnN+B/D3AIc6OhMrujx+Z8py7oec9yoMRlzeiBs+TmEfGE/5XEF4GIi5I87k/Pw472nEE3RunW2d7VwuZxtnO1+EQxFD8Lr8zsRbZz7zKnM6PDCP6Wxr9uOHi0GaMzsxlIDkQDISwx4TjLnMviMIunwIuxJNUCIiIodGgZeIiIgUKqzq4JCwatWqmeouVuJwXuzEefvCf1XPuT4DjyuvvBKNGzc2IQjnSfypUqUKevbsiTFjxpgKK/Z+O5ChsLyKJ3u8nXnmmbjrrrvw4osvokKFCnj66adNEMaG+KwE2717d3SLA8fAlT2oGLgOHDgQr7zyCi688EJzjpdffjmeffZZTJs2zVQ0ysHLrp4KO3e8cJmvOKyx8iHs9jiTF2EkmSAp7Io4j0POxECpBJzfDgh6/Ah5nN8zpnqLvxucZWEOXXQh4AnA76wf9GQ566Qj5I04++VwQ1aKOsdwjhnmZO47xwv7TEUXK8UCznH9nrAz+Z39ZDr7cH43MV6LJDrHCiPI/To/H0F3IPv4zmmbGM2Zp7hLROTQaUijhjSKiIgUKgwbWAHDcIpXu4v9qML7rJJhXyT29uL9nDh87YMPPvifXkwMHjisbO7cuXj44Ydx4403RpdIPMnMzMT999+PlStXml5et912G8qXLx9dmjcMRjlMkRM/O7IhPYfXsecXg7TYn7/YIY1shv9v+LPI6rF58+aZwIthWunSpU3oxqo0OZghjUEkJXicP+wMucLYtt2Plkc/j6xggL8AskOpMCu3nA3CLucAXueGQVcmPKbZPXttOfMjPufWeRwJOdv4YX4DsTKL1WGRRLjDCeBAyOyhjQzaGJQ5x+XQxRDDKr+zvTM/7DPL4GFVl9uZ7zX7538MySLO+fBx0PlZaFA/EZ+/dQ1q1k6CJ7L3lUal6ODfUZw0pFGkcFDgpcBLRESkUNmwYYMZdmi+LOT4mMJKLVbtrFq1ygw5y60JOKtmOnToYEKD3D7m8ItHpUqVTAWZxCf+DJ1++ummgT1v8wOHHjKcYl8uBqqsCuOVH9u2bWt6cv3yyy+mCowN8g8k8IrFfbOfGPfPYZR8zEb33bp1M9VhrFwrjgFI3gKv7MrPROelZ08uBlE7t2egRacnkRHg++H8PnFH4I44vzPCLiQ7N3XrlEPpkgkIhgNYtW4ntmwPI8xwyvkv0e1DtaqlUK1cCbi8GUjPdGHt+izs2hlwfhEFnDUYdrFyzPkdw8ALDLw88DgPS5d2oWa1MiiT4HWOGYI/4sa69WnYui3LhGpwZZhjsDcYA5EAA68GXnz21jWoUSsJPuf8uVyKHv6dw0mBl0jh4LnXEb1fbPDDCD9UsCmpz8dR+iIiIlJYsMqFV7Tjl/yqVavuNXH++vXrsW7dOpx00km59mbiP2zx7/jOnTv/z/acuN9SpUpF15Z4xPe3Xbt2qFu37kFXd+XEcJXBFgMuNp7nEEiGXG+99ZbpxcWrgaanp5s+YLlVHu4P983zbNasmflSy+qxP/74wwy//e2338xwR+6zXLlyuf7MxysGB1OnTjWhHxv+70+E1ViRoPP6sKrKDTagz8oI4/kXZyIYSjKhFOexEb0r5EJSUhaO61wXA67vjCsuaovaNctj4e8rsXt3BtwRLxKc/TRpVAaXnHcErrj8aOxKSceKZTuRmhqAy5PpHCMCt7MvT8RlQi7Wb/G+OxxEuVIedD22Ee4Y0g1nntkGLB5b+vd67NiW6ZyDGxFPdgWYCd+cKRwMo0LZBFzSu73zHrOCLFqdqsyryLLBF99Ej4c/jwf3ZjI04xVgeRXZRo0aReeKyIHau9ZfREREpJDL/hIhsm/8cskLHjDwym/cNwOqTp06mWb3HILLxve8OiS/mA4dOhSfffaZ6SHGL6t5wX0z0Kpfv74ZiTB+/HjTe47VZP/3f/+Hyy67zMxjwPbPF2ohvhIRhKNDBrODBv4/syMOPeRj9vdiUMWEKj3TjU8+X4i581egUoVEnNurBYbdchLq1CjprBuCPwDM+G0VvvhuAbZuTMUXX/2J9du2I+TjvtinKwFh5/3KHtKYHWaY+x4XNm7LwNRf/0QwFECFMomY8uMi/L1iN1xmmLVzjmFWpnJ75z10+53JmWd2EQ1FuNrB5SMiIhJDgZeIiIiIxB0GRzn7uOU3BlSsOjzhhBPQo0cPnH/++Tj33HPx008/mSowXpGRFVobN27M85Ueia03WKnGJvfDhw83YdrWrVtxwQUXmKG7dnhvXoO1+GQTIhsCZgdeEf7/nvAo+w7nsZ9XRgawbWsmPvt6Af5Yugnnnd4St990CqrW9SIDqQj7Xdi2LYLt2zOxc2cAvNZFdh+viPPec1gjhzJmH9FMzny+E+GIG/5ABFl+DrOMIDOTw9vY1N5Z6MjuE5b9s8kAzpxjVOx9ERE5NAq8REREREQOka38at++vek79eabb5qwikMeeREGXnGUw2057PFgcKjvkUceaZrwf/311ybwYrP7Bx980FxZkn3FONxX/p3pn8Vbkzt58cuMjXj40e/x51/bcN7ZzTF0wImoWZ1DIwPOOhGEeYVG+OFmY/pQ9lUW2dQ+O1L7B38GuPfo/8xjM8uhGEtEpOAp8BIRERERyScMOdgjllcYPfvsszFy5EgTdrEJPSu/Lr30UhNS8QqNqamppjH7geK+2cuLVWXsYXf33Xebqi8Or1y+fDlGjBhhrlDJqrJdu3aZK0FKThGTRnE0qBkSykorV0lMm7kZI0Z9jQV/bEOfU1vjnltOR82aiUA4i4MQzTZsdm+quyIhJHtD8LlNy/o9squz2Kac/589HYy9Kr5YNWYboDv37TDW3G7tFLtu7GOy+9rfOvti1+PP7P7Wj92fnfg4drL7sJPdV851c9vW7tOuvz/7W273bfdnH8c+P06x7Hze2innOiJSeBTbpvWbN29W03oREZEiiM28GRbsq2n9Rx99ZMKFJk2aROeIHH5///236ePFqq7YpvUcVlmjRg0TSrEh/XHHHWd6cD388MOYP3+++bLM6i326cprQ3ruu2LFiqbZPfd72mmnYefOnXjllVcwceJEU03GRvf8vMspuwKp6OBrc6BN67PDhyC87BDvYogVQUZGCONemoFgmO9HxIRWLhcrtKKhVCSMDh3qwB8IYt6i9Vi+dhtWLNuGI1rWRLfOdZCU4EOK83o2aVQXX01eimCQO2DQFUCFElkIhQF/KPs9M9VcZq/OfsMRlC3tQ6+ezVG2bAl89NkCrF6fDo95/bkPs1o2537Y2VHFcj5c1OcolCnnhZtXfHQweOHFEFauXGmq93j10ZSUFJQsWdL8jPF58GfABi685RVu+V2Hw2i5Db/zcGL1IScGo/z9yQt/2HV4MS9eGIE/I8nJyXv2ZwWDQXNcrsMhtDwP7pN96uy6NrzleXF/PA7X48TjcOJ8bsf7vOVj3uc6PDcemyGtvQgEz81uG7s+r2LK19sOW44935z3uQ+eP/985fz5z8rKwrJly/Y8J3ssTny+vNoqn4/djsfludnXjtvwnHgcXigjdv+cl30ualov8l9yOX8Q9/6NVgywnJyXqa5Xr95eH0hERESk8OOXNfYxatOmTa49mljdUqtWLRMyiBQEfpldvXo1Tj/9dAwePNh8Ud4fBgP8Yr9kyRLMnj0bCxYsMF/K+XPLPmC8AuTB4hdk7p9fxHkVSR5j1qxZZt/sBcZ/8C0q+Dw4PPSYY47BKaecEp2bO75+gWAmknxJiLg9zpsSxvbtWWjZaQwyA4nOGmF+8wEizjLz7YcBWQA333gMdu/247V3fzOBmctZt1OHuhhx16lo0agsli/fiuWrduPGOyYhK8PZytm+lCeIeuWysDnVg61Z2e+1y50daPCrFQOsOjWSMGHseahdqyKuvPF1TJu1DV7z+8pZj+cRxR5egawgGtdLxmdvXo2adROzAy9nFb6XDLsYssybNw/Tp083IQ/7w/Xu3duERDmDFIZSDHH4c8Uhrxxiy9ePYQnDTwZRDIE+/fRT848H/C505plnmiuD8mIJvIot92m/IjJo+uKLL0zIwzCXfeUYTPHctm3bhsWLF5t1+DPP/nWtWrUy++efB57vlClTTKDLakfun+y++fub++V3M/7c9+zZ0/S643nxOX/44YcmwOWVTxno8lwZ6PG1YODUunVrnHXWWabiMRb3z+fA82M1JV+Diy+++H9eKwbC/LPHykueKwMwBmPdunUzx+Q/mjBcJJ4rQ725c+fik08+waJFi0wQyxCbQ415n+fHY5ufARPAhp230YUE3z+hWV7x9Rg0aJB5njyWiORNsQy8+MuP/6LGf5UQERGRooNfGhho8QsRh4bl/BLBx08++aT5ssKr9IkUFH4hbt68OerUqZNrELsv/CjOL/0MNvj5dObMmahatSo6duxoQojq1avv+dJ9MFiVwj8zDL1s1Q3DEn6pL1u2rJkO9sv44Xa4Ai9WYkXCIYTCmRh688lI3b0bL74xE+GQF+5Idp1Wu6Oq4d47j0fHI2ris69W49ph7yArI4gIvCjn86NF5QBW7fBgfUZJ5/Vzds2toi9jiOFl9US8+uz5JvC6/IbXMH3WDvhMBR/X++fr1/4CL/5s8GfJBpis3Js8eTLKly9vrt7JKlcGNGY/0a909r1k0DlhwgQTcvLnyM7netwfe8xxYsDFCyLYili7H76eDEx5xVGGXHz9GTDZSiZODIAYTL3//vv4888/TTDD98pWKjLseuqpp0zlGI/Rtm1bs397LsTvYwy8GIox0OG2XM6gi+/9nDlzcN1115nAjAEfz53P7bXXXjOh3sknn2z+LqhWrVp0j9l4/gymeFVTVkfxiqo5f9Z5LpwYEk6aNMmsz9f7hhtu2HMu9vUgbstQ7KWXXjKhIkM0viaxwaPdpwIvkcKhWAZeIiIiUnSxOfevv/5qvgzxi0ZOV1xxhak0OOOMM6JzRIoWhgfs+8VhVfxZ5lUgWR2Ts5Ilr/gFnMPdnn32WXMMVuww/GJ1CkM2G1QUFvkTeD2NTH+y8zjoTAHny0+S80K44fWmo2GjkrhrcC/s3rUTo8ZNwZoNbvj9YUTCLrjDfhzdvjQeuPsMrNmShQG3vY/MND9CQQ+qJAbQtlY6Fm91Y9XuMvCwustUjkXgdoWQ6AOOal0ZYx/phXKVS2P4ox/i0y9XYPfOBGc5J/YFizj/8cqN+w68GJLwPSPeMnziRRBY4cqAZ8CAAaZ6KXbEiv1qx2F6HNbKwIthFrdnmGP3x6HfDNBYTXjHHXeYYNWGNZwYJj3xxBNmG/aFs8Pp7HIb4PCW1VYMtjp37myG1drQioHZ6NGjzX32muO52vPgPuz2rAbjcGAORbcBHsO0UaNGmcqra665Br169drr9/2MGTNMiMZjXXvttWY590vcJ6vM+LPDSiwGxsOGDTPVjTlfK54P1+fxHn/8cTOEtmXLlrj99ttNVSSXxT5fBnzjxo0zfy5ZdUZ2GdnXh/vlpMBL5L914P/8JCIiIiIihx17crFvDytOGFYw5OCVGIcMGYJvvvkmulbeMRBgFdozzzyD9957zwxlY+XXPffcY6pa/u///g+7d++Orn14sKKHgU3BYbAScp58EBFXdrgRCYeRnJiAerVr4dcZS7Fg0WY0qF8bSckZCLp2I+JNh8sH/DZ7O4Y9PBmTp66GJ8hhfG4E3T4w36rkCSA5EoEn4jzmFRsjHufWmUz/rgSUr1gJr7yzEE88O91ZpxKqla/kLM8OeULO9uGYKq+cWC1mAxK+ZzbIYYDC0KZHjx7mNWTwwveP8y2uy23N84wGNZxsCGVDTS4jO5/suhw2/vrrr5sqKw6fZCBqcbk9hg13WCXGqloO07XnYvdv1+Mt2eNbXMbh5xwKyUowu53F7WKfn1WpUiVT6cYKRlb8MvC0bHUaA2L2zsvMzDQ/73w+xGPY49jnwgozDqvkeXB//IcV/lngenYdXgiCf/5sBbF9TiJSeCnwEhEREREpZPjln1U355xzjulDxIoTVtCwn9JVV11lKmc4/JHVNXnFL+oMC7g/Vscw8OI+OaySFZJsqM/j8DErTPLT77//boaX2fDhsGOw5Pab3CsS8SEUce57A0hND2HK5BV4/pXf8OIbs/Hj1JVI2+lBYiQR3rCLHb4Q9niwcOZGTHpjIbLSQvC4nN05y3wuP0onB5Ho7NQTBjwRF9zO/l3wOnOSsW1bEN9++yeemzAHz788D2+/txDLV6U45+FCxDkXc9XHaGP6A8HQxQY/rMS75JJLTJDDobCs0uJQ2JxB08Hi+81hk6yMqlmzpulPxcqq3PZrAx8GQgyAWKHF+8Rl3Maeu721y4gVfKxiZAjGn3duu7/jWHa/nFixxf5hXMdOHKK4cOFCUxXIcJAVXhyCyJ89u397a/fNW54/h05yCCf7enFIJsMzrsuhjKz+4ut84oknmnU4n9vZfYlI4aPAS0RERESkEOMXdg49Y/jFYWYMjBgWPPLII+b+22+/bRp580t5XjFo4NCto48+2gwRe+edd0yvJYZet956K55++mnzxZ/VO/nBDqVj8+8CCwrMcMMkZ0p0vv14EHEFEXaFkRVyIeBKRqaz3B+OhiARF1xmSCGHG7oQdEWQGXBu3X7nsRsuZ36iOx1lE3YjwZPu7CfLmQIImSmIgLN1CInwO/t0juDs0++8V34TcVkRU3WWdzw/BjCsXGJAyTCKQ+zYz4rhZH5gEMnhrny/+XNRpkyZPaFQTnY+QyAOsWRlYs4KLq7DKXYoITHcYpUawzX+LPO5ccotQIo9vl22YsUKsz37cvECJrZhPPfFAJCPOZ/9y/izzUowVn3x+dnjWPY+t2EFHYcPMoizvcmIASCHVzJEY/P/nPvIec4iUjgo8BIRERERKSIYFDCIYE8kDnVkQ2/O43BEVmc9//zzpqn3weAXeH7p59XyvvvuOzz66KMmbOPwrptvvtn0ROJwr0PBqiQGNDxfhhOHXYShRHYIw3sshGLjeX4LiniyTJN6X5hhWAQhdwBBVybCriA8rjC84RAi7kwEE7cj6EszwZY3kobESCpKJ4bgcWc5j/3wRDLhQzq8rhQkuHc4u97pHNHZTyRsArOg1wW/c7yQM7HgzOfc4XEPlA1WeMuJARN/BtjbikPweKVBvu85Qy9bbZUXvLgXr4TIbdlPK7c+ibF4PrHHsedoAyDe5zBWBlsMUzm9++675mf35ZdfNk3pY9e1k33MZQyr+Jw5cXji119/bYZc8meTwxAZaNnt2AuM/cc4j1VYDMR4AQg+D4asNsAiexyLx+IVKNmfy1bQ8VwZoDH05UUCGjZsuOd8LXtsESl88v5bUERERERE/nMMJFiNxS/99957r6nIYrhw2WWX4aKLLjLDElkJczDVWRwmxkblDNRGjhyJO++801yBkhVlnMcqLTbAZyXMgWBIwP5HrE5io3wGNdwXK5YOKyZMroAzZcDlYqWV8/UnkohwOAFmEKArE253hgmoSnkDqJEcQrPSKehUaT1OqrEKZ9VejQsbrMW19ddgaJN5uPeoqbjpqOU4tvImXN1sE+464i8Mar4U1zRehQsbrsUZddbjxJpb0KnyFhxRbhvqJqahVCQMd9hWPoXgiQThduYdCgYsjRs3NiEnbxny8OqBa9asia6R/ZrnFUNIDmu0IQ5DpoNlQyAGYhyeW7duXdMPjGEd77MPFysM7bFy4vnz+By6y+dmp2nTppnhuCNGjDAXJ2H/LeJ584qkrDJjZZftT8ZKL/bCYxjGZvf2z0PO18c+5nBfhl716tUz+2NDflZ1sUm9rSTL7XxFpPBR4CUiIiIiUsTxSz/7KN10003man4c8vbzzz/jgQceMFfZ41BCXrkur/jFnuEXwy6GaK+++ipuueUW09CbwyvZX+y5554zVUb/Fo6wcbi90hyDGlbccCjmwQQzByI7kmA/Lhd4RUSY/3emCOew75bX9ORyhdixy4OMUCK2ZJbAipTSWLC1LGZvq4TfNtfAb+ur4ucN1fHNpjr4dF1r/LiuBtalJ+NXZ51PNtTC1xvqYMrGmpjmrDdrc1XM21wJv2+thIW7K2KNvwTSeRruLOeIbJzvgd+TgKDr0L+GMUjisEYGnGz8ziF7b775pnlvbNiT12CGFU6c+F4yQLLvaV7fIx6X23BidRWHO7LSipVTdmKoxCGE+8PnyHX4HNm77OqrrzZDb6+88kp06NDBDLm0ARSr03gFXwZVDLX4886J948//nizL75G7OdFub029jXjlRp5xUm7Dq8Uaq8gmdt2IlI4KfASEREREYkD/CLOChRWznD4FcMoXt2xXbt25ks+m9Nz4pf+1NTUPDekZ4jC8IvhBYc4socYK2w4f8yYMejfv78Z/sir/OXsJ8Z+S5zHIIFYRcMheawUO6xXbWROE/HBFUlwbr2IuELO6xQwVVb8KhSBz5nHyW2CsUDEjQwkIgXlsDlQCuuzErEitST+SCmDudsrYsammpi5qSL+TCuFeVtLYM7m0vh9Ryn8uasUVqSVxtqMktgUTMZOJCEcSjbjGN3hMDzmNgEhNrZnxRmvHJkP+J63b98e/fr1M1dL5NA7DhdlNRPlNahigGR7VG3YsGHPlQoPJORhOGaPF3tc3mflGPfBicETb3kcBl+s8toXrsfAjD93HKLIWwZPNtCz58b9syk9Qy/+PH377bfmSqecODyX81hdyOX76knH87J4TPYls8fkYx6HE8U+PxEpvBR4iYiIiIjEIX6BZ88hNrsfPHgwxo4da6piXnjhBTOscNy4caanEYclHswX+AoVKqBr167mSo8c9sWqLQ6jPOGEE0zQxqFoDBi4b/YV4/BLbkMMDmxY9uOPP5p5h0PEFQHbyLsZjDgTHzP48oYYPIXhcodN7BV21gmx2ovrIgsIOes664RdznrO6xhxszos0TlxNqNPwO7MkgiEyjjLk8zVHCNuBjAJcIU55M3Z3JXp7D/k7J/Rlg/OYZxzYE8w9u9yR7uKHTgb7OSciIFRly5dcN5555lwhqEjK/rY+yo2xMnJ7jMWg0gOASxVqpQJSVmFZ4PR2ECLARMnWwHGAIk9xGIDMk65HcNiOMvKRK7DYzAQtfuP3S62yszOi90n57MZPasFe/XqZYbcXnrppaYqzE4MV9mbjvti37DVq1dHt87e3h6X+83tGGSXxa4jIoWbAi8RERERkTjHL+isjOGX/vHjx5uhiawI4jDD66+/HgMHDsRPP/0UXTvvGFxwyBqHN7KihqEXG5OzuT7DLzb/ZuDFQMZi2GWHYO7atSs6N3+5nP+yRZz/GMDw6othhNxBZ5YLWZEw0oKZ8DmPWzcuj17dW+PiPkejz5nN0a5VOZR2ReDO8sAT9sHl9iDsDoO1QalZCQgwKOERIskIh4Aa1UriuI510bltXXRt0xjHtKuHDh0aoNNxNdGuQ01UqVTOWS+CkCcEXiUyL2zAYoMZy4YvfC05XPSCCy4wAdjUqVNNPy/Oz43dLjYQ4775mO8dq8YYQjE8Y+UU2XMgrme3ZyN59rpi2GWH/dkQievEhkmxYp8LqwI5HNFuZ9l97IvdPy+mwFtWM/L587z43Bmq2fscGsm+dAzmWOWYl6ua5jwvESkaFHiJiIiIiBQT/PLPQIA9ny688EIMGTLEVGjx8dtvv22qwSZOnGjCEoZQtrrmQDB84NAvNiQ//fTTzZBHDn1s3bq1CRrYSDwnNlxnUMYG5KwYOlwYTTln6Eys2Aoj7HKO5Ty1Eu4IurSvivuGnoHrLuuGOjWTEIkEULpUAs4+uy3uf6AnTji+BlwhD0JhP8KeTPjDPqT4PeCgSJPFMAhxBeH1ZqJVq/K47+6TMPy2zmjfqiwa16+Adm1r4frrOqNzp6pIcJ4jhze68nCVRmLYkp6ebpr8xwZAnG8f86qF7DvF3lh8HxhY7Sss4nZ8b7lP+7rbQIdD//izwdCLVyrksFMOEdy0aZO5KAKrubhvBl0Mj3744QdzXg0aNNhreKI9Bn/mOOWG63B4LfvN8VxjJ/uzZ2/39Vx4XrwKJIfaskJtX9gwn0MouR8GXqtWrdrr59s+f4vPkcs5356TiBQtCrxERERERIop9ihiQ+/bb7/dDHFkSMVqGw5PZA+wWbNmYePGjQd1NUVW+zDkYnjCSq6KFStGl+ytb9++2Lx5s6kSyhk6HAqzJ7s7ZhUc3sgKL+c/Vmp53UEc36kunhx5HtocUR4TX/8Bz47/DRPfX4gJ7/yGF1/9BgnJLhzVqZKzRXbPL7bAD0USkJqZgGDIA7ez/wivuugugeXL0zBt6lJUq1ISlcp78ckn8/HGG3Mx/rnp+O67PxBytnWzPszlAnuG7QvPj68DJwYurJxiqMPhp0uXLjW9tTgMlcsYwth1iYEPX2++pwyfYl9P3rf74tU7GVjxveY+d+zYsaevFffZvHlzU/l36qmnmsbv7NHGq3W+/vrr+PDDD/Hxxx/jnXfecZ7fG6ZSikNlOQyS2zIUY8+s5cuXmzCLx9myZYvpK8ahhzyWveU6rDLkc+PwW2LQyiGHDNv4c8ehlbzPfcU+Hy7j/E8++cT87DBU4+vCoConnheHeLLCkOvxObPqkPtm6GfX4f55HL5GixcvNufCYblcn7d8LiJSdHju5TWMRURERIoIDl3hlzQ25c5tuA5717Ro0cJchl5E8oYN79mXi72QOORx9uzZJtj49NNPTSjFK+DxKn75iftj2PHss8+aai82TieGDxyax8ocG4bsC8OfcDgIr8cL0zjLFUFGRgjjXpqBYNjD0Ysc0OisySGNQVPV1KhuBdwzrDtqVkvCqCd+wORf1iKY4Kzo9sET8SBtB7BxXQgBZ7u/lm2CO+JjKoIkVwBlnd8927OSkBpMgJvVYm52/4qgUsUyOLtXc2Rm+vF/H/yOranO80tKxs7tWVi4dAPSQ1kIg030GZ455+McLhwKo2I5Hy7qcxTKlPM6s9x7wiyGR9OnTzfvA+9zHgNIBkY1a9Y0oRbnMcThLXEeq634HFlBZ19PBlPTpk0zfbkYPrEpe9WqVU3Aw9+pXI+hJPfDieEZA0teCZIVejw+wzZb6cUrd7J3GN8zhpvchufN39EcHsv1+PPEY/DYrBpkcMSJPd14y1CJoVXnzp3N721u//3335urfvI51apVy9wyMGOQxXPm733+bDBUY2UXt2dVGoMrhlI8HsO3WNyWQ21ZkcZz4n65D+6XIRh/1nkcnueMGTNMgGZfI67P14jHYeUcj0X29c4N982Jb7DH8897k1d8Pdh4v2nTpuY9EJG8cTl/EP+JyUVEREQKOfaUYa+Xhx56yHz5yImVKRzSw4bYInJoGJrwiz4nXt2OjcFtCMIqIIYL+RGAsXKGV3k8+uijzRBL4rH55/yYY47BKaecYubtC6t9AsFMJPmSTAN5uMLYvj0LLTs9hYxA9lUYPeAwRp/p3xUMBHBuz+YY89gZ+HPZJlx90/tYsTkTLpcfnmASYzEgkgi3s5+ExBDS/RF4wokIePwo7cpCvZIubMxyY1tGSWedAFzuCPzO8Vs0roo3J/ZFKCMT1wx8HZu3BtH1mAbIynRj0pd/wO1l03pWXrn4Tcw5rwgCWUE0rpeMz968GjXrOsdkS3tmYa7sqw8ybGFgY4MeTrzPvmkMaSg2ULFf7xiKsYLP/p5keGL3xe04cV3OJw6JjO2xRlzOfXMbhkG8JR6f+479Rwd7XL6XDJ+4f3teXGannOEPH/PYtiKNVWh83nbfPD/O53Kux/U52dfG7tM+D74u7N1FnM/lZIfo2teM+JhhHZ8LcV1WgrHajdvade052Ks2EpfnxHU4cX2zDVxI8HlzXfdA8PUeNGgQzjrrLNOjTUTyZt+1tCIiIiIiUqwxdGAlD0OnO+64A2+++aap6Ln//vtx44034tFHHzVVQwwJDgVDBF7pkdU9HJaWb1wwoVI2DikMOTOc5wUfKlfwITExgt1pfqRlOF+LQiXgC3mRGHazKgBBT3avr8yssPOYVVnZgVNWxIsdoSAyWfvF5vdsBhZxwe3Md4cT4Q6FUa1Cedx49QUYPuQS3Hz1KahRxeccOfsKj66wsz+exL5EF/FYDFwY4LDyqly5cmZi5VXZsmXNe8MgZV9hCtdl2GWX59wXK7p4yytncrIN5y0b3pANm+zxeT9n2GXDIb6XPAbXs+tz4jHsfN5yij223QfPi/O4LZ+n3ZbnzmPa4/B5cXnsepwYdtnXxQZVnOzz5bp24vp8Lha3YajF43EZ14l9nfjcuC/7mopI4abAS0REREREDggDh5NPPtlUe7HnF8Mw9kIaPHgw2Cll/vz50TXzjoEGKzPZO8r2VTpkEecLT4QBUxjhSBLCLg8zMCDkQkpGmrnSYsnkBJRK8sLHICzsciYPPJEEuCIhhJyvS0FnJ4x9GJx5IokIOevsCngQDCWaoY/ZQZjH2bfX7D/idmPz1t148aXP8NjjH+DJFyZj/fZMeKOhWcDjnM3+voU5J2gDG2LAYx/zvn1sg5yc7LqcLPvYhkWx+4mdYsWuT7HrxIZtsevltl8r57pkl/N52ADNbk92GztZvJ/zHGInK3begZwbJ3t+sfNip9jzF5HCTX9aRUREREQkT1iRw35e/fr1M43uWf3FflGjRo3CNddcg5dfftn0acprk29e3ZH7Zc+q3MKcg+My/3F4Wcgdch6GwB5aK1alYfOmTNSrWR7NW1RDMOKH3wtkeEPI4teksBdlk0ugQd0y8ETYoyvTmRtw9uJFpj8RgWD2FQldXJd9vFxpzpTKoyDLH8byTbuwbGMGPp+8HFN/WQ+f24VED9fn8/rn6oA58VwtBiz7YgOY/clt+b9tczgc6Hnm97lxf3bKTW7zc66/v+1FpHBT4CUiIiIiIgeFQQCHgDGk4tUBX3rpJQwdOtT0S2KlFvvt5QWHkfXu3dsMncyfKi8GFV6WZzl3GVYxmHK+BPl8WPzHLnz86SKUr5CMS3q3Rr3KiSaoynDWC0Uy4Qul4OTOVXFS5/rwhMLwuEIIO8u4g4jzNYrhWdidPazR5fznDnnhDrjhdW7ZQcptMpIQ0lKC2LZlB9q2L4Mj2laDK+Qs4PmIiMhhpcBLREREREQOGYd6sfKLlV68eASvusc+TQeKFV2sCGOI9vPPP+Pzzz83vaMOmQmXOGUPTTT3vUGkpbsx/v8W4rlXZqJRgzK4d9gJ6HNqE7RuUBNtGlbF5Rcdid7ntsG2zemIhBlSZV9BMcLqLBdDLl6X0fnP9AgLolQpL+o1qOTs24tS5RJwzsmtceLRtXHCsTVw6SXtcN4FR2F3yhZnPxy6p69hIiKHm37TioiIiIhIvlq1ahXmzJmDpk2bRufsG6+2t2HDBnz33XcYOHAgLrvsMpx22mlmeKO9KuAhcWUPH3RFWOnlBa+QGHZlAd4QNm5OwyMjp+C6Wz7FHyt344zTW2PYwGPQf0BX1GncEO+89zt++GE7wh4Oh2SwxR5gYbgjbmfymCs3uiIlEAj60bhFdTRqXRfvfDIP7370N6pVro2jO7ZF+47NUadWPfwxLwMr/vbD5QnC5c6H5yUiIvvliuTf4HgRERGRw+6DDz4ww6QeeuihPZfbj8XKknPPPdc0vxaR/8Zzzz1ngqwBAwZE5/yvHTt24L333jO9vlgdxqb1xx9/vLkKJB9z4p9zXiHylFNOiW6Vu2AwiEAwE0m+JETcbJQVxvbtWWjZ6SlkBjjA0JkX8ZnKLFPpxaGInBti83cvAs76Hq8HCW7A58kyVVzBoA+hIBvSO+t42IvM2UeYVz0MmsAr+1uU21mTzdNDcHuC8LjDCAe5wOfMC2dfxZFDKcPOsUOJiIS9CLkznHmsGHP27YogkBVE43rJ+OzNq1GzbqKzN56vFEX8as2JV4c0V4iECwm+7KtGHgwGvoMGDcJZZ52F7t27R+eKyIFShZeIiIiIiOSr3377zQTPsTIyMrB582Z8++23GDJkCEaMGGFCr86dO5tgbPjw4ejSpYsZFpkvQxmN7H5b7KXFoCv71gWEk5yHzq0nZMIIr8tnhi2mB13YneVDelZJ+J1VI2xy78mCy1nXHeJVFrP3lb237KALLvYaCwPBJPgzkxGKJCDg8sMfCSPLmZ3lzM8KJSKIAMLuLOewrDLjsEYRETmcFHiJiIiIiEi+YaDVsGFDVKtWzTxmlcr69evx5JNP4rrrrsOwYcPQtm1bPPPMM+b+2WefjTp16hx0FUy2mEErMXf5dYfBFJmhiAiBIxPdrNSCD5FIorOcxw3AEw6gRDCI5KALnpDX2SCMSDgMV7AM3MHSznZeZ3tWiIURNufqNYdyuZ19spl9OIQEt8uEY56IG4khnzMlwBdOhjeSbJ6f6frFqi8GaQzJnD2aXTF823Piez0BERE5SAq8REREREQk37z77rto06YN1q1bh9tuuw033HADxo0bh0qVKuH+++83vb0uueSS6Nr5JWhCJoZJDKXcQVZhRRAJuREOBuE8RCAcRMB57OdtJB0hZ2aQUziAUCji3AIczJjpbBmMZCIccDvz3c66GQg4c/2RLGdbbuNFxGyX6ewvjGDAB3/QWQ9+ZHAe9x90ISMSRJazfsDMS3PmmUwMYb/LuXXOMuJ3zs/nnJhz3sEIspxz5/Ls/xMRkUOlHl4iIiJSpKiHl0jhtW3bNlx55ZXmfu3atdGhQwdz1cZmzZrl6YqNxB5gB9rDKxT0I+QPw1MiBHfI7XzJ8WFnZgDX3vR/8AdZrRVdsdBgny4GWwzPslC9cjLuvLsnqlUoB59zrodW7Sb/FfXwEilcFHiJiIhIkaLAS6TwYgP6999/H926dcNxxx0XnXtw8hJ4hQMBBIJheJJ8JvDisMWwNx1uF3uB5Vc/sMOBoRfDEA69TIMrnGwGXro1DqdIUuAlUrjoV6mIiIiIiOSLJk2a4M477zzksCuveLXDsJsBQwQuTwDw8kqKSQiFOYeDGwvXxAb2Aec25Pw/IhznyISuZHZvMHcWn1H2ExMRkYOmwEtERERERIo0NqYPszYq4gL/YwBmLsIY4dBBfuUpXBP/3+OcJ2+zC7wiZuJ5K+wSEckf5nesiIiIiIhIUcVm9Qy43BHn602EV090I8zwyHnMqyYWpoknyv+yc61E59YHhJ3zDDtnHeZzYAImIiKHSoGXiIiIiIgUaWFTJsXJD0QiCEVY8RV0vu0EwUGN2RVfhWMCpzDDL+ex8x8HOQZdYYRcmSakC5uG9gq9REQOlQIvEREREREp0txhNzysjHI5X2+c/3mdux4GR2432BYru6aqEP3n8mRPzsm6nRPk5HL5nFs+9kSflYiIHAoFXiIiIiIiUqSxHorDBTmUkQkXH7vB4Ihfd/iokDEnvOfGOUtGXz7n/wvhuYqIFFEKvEREREREREREJK4o8BIRERERERERkbiiwEtERERERKSQiUQiCIfD0Ue54zp2PTvFPrb3eWvxfigUMvNjxa4bu75l59v1YtflZNex7DFyrsfJzouV2zmJiBwKBV4iIiIiIiKFBIOgQCCA1NRUEwLlDIY2bNiAe+65B1999dX/BEQulwvp6elIS0vbaxn39cgjj+CDDz4w+9wXbpuVlbUnmIrFx9zv7t27zf7s5Pf7sXHjRixcuBDTpk3D0KFDsWzZsj3b23DLnhePz/MkPpeBAwfik08+gcfDRv7qYSYi+UeBl4iIiIiISCHB0GfRokV46KGHTIiUMwTauXMn3nrrLcydO3dPmGSnP//8E0888QTuvvtufP311yaM4vYZGRl47733MHXqVLOP3IIl7veZZ57BN998k2ulVWZmJkaNGoU777wTd911l7kdPnw4vvzyS4wbNw7dunXD5MmT8dprr2H9+vV7HWPWrFl47LHH8MADD+DXX3/dE3qlpKTghRdewOzZs/d6HiIi+UGBl4iIiIiISCGycuVKPPfcc6ZSKicGRW6321REWZz3yy+/4JJLLjGB0++//47rrrsOo0eP3lPRxfW9Xu+eQCln6MXA69VXX8UXX3yBYDC4Z7ldn/vZsWMHtm3bhi1btmD79u3YunWrCa0SEhL2nJOt1OLE4Ozbb79F3759TTA2ffp0c46sTos9r9ht7HFFRA6VAi8REREREZFChCHTv4U/DJiI6zBY4rBADjecNGkS3nzzTRx//PGYMGGCCc8srmv3zVs77dq1C2+88YapzGJl2Jw5c0wgxWXE/ZcsWRK9e/c2wxivuOIK1KtXD2XKlMG55577P+dpH3Pdp556CvXr18crr7xipsaNG+PBBx804Zl9DlbO/YiIHAoFXiIiIiIiIkUMwyQGXBy2yP5YHP541FFHoVWrVqhatSrOOeccrFu3Dn/88Ud0i2wMmWzoRatXrzbDDR999FGcd955qFixIq688kp89tlnZr+xIRQruVatWmUqwNi3i6EV15s5c2Z0jeywzg6JZBXYvHnz0KNHD3NejRo1Qvfu3c15sUqMFHKJyOGiwEtERERERKQIYaD0f//3fzj//PPx888/mwCKDeErVaoUXQMmuOJ6HHZItprLhl0cLsleXxdddJHp78VG+OzR9eKLL+KII47A4MGDcfXVV5tG99y/xcCM+2UYxrCNvcbYu4v7Je7bhlhch/PLlStnHvN+6dKlzXYM62z4JiJyOCjwEhERERERKURsaGSDo1h2ft26dXHssceakIu9uZKTk01/LWKIxGGKDJRs2GSHD9rtGTwtWbLEhFscAsmAq0KFCjjyyCPx0ksvmQCMIRrDKZ/PZ7blsMbExERzFUlezZHDExm43XzzzXv2S/ZYSUlJ5j77g9lgiyEY91eiRAnz2G4jIpLfFHiJiIiIiIgUIgyHWEXFqy6y0fu0adPMxKsdMshiSNSzZ09zpcTWrVubsKt58+aYP38+li5daiqyPv/8c1SpUsXMJ+7Phku8X7lyZUycOBFPPvkk2rVrt2cZb9mb6+KLL8Y777xjenTxfNjfi4302RNs/Pjx5kqSP/30k6kOY4BlAy17S6wya9asGb7//nusWbPGBHKsBmNIx2GXPI/Y9UVE8pMCLxERERERkULEXrnwhRdeQL9+/XDVVVeZ4YX9+/fH3LlzTdUUQy2uQ6zwOuOMM8zjCy+8EGeddZa52iLDKjaXJwZZDJfsxMot7oPVWqy64sS+YHbKyMgwy+0t+3XxSpCsAluxYoU5Jnt0McDivmLZIItVZIMGDcLixYvN0EkOwWRD/Ntvv91UnnEdWw0mIpLf9NtFRERERESkEOnYsaOpnGIl1TPPPINnn33W3D7++ONo2rSpWceGXQyN6MQTTzT9t2rUqGEawg8ZMsT017LDES0GXwy52K/r7LPPNs3tOfF+blOfPn3w3XffmabzDKvYBP+vv/4yIRZvX3/9dVNhFsuGajzW6aefjjFjxpihkAzGRo8ejV69eu2pCmM4JiJyOCjwEhERERERKSQYAnG43wknnICTTz7ZTLzPQKtr165mGdcJhUJm/dgKqaOPPto0mWclFvtq2R5axG3sLefVr18fHTp0MMMZObVv337PfV7t0c7jfdsMn9vF7sfejx0uySCO69mJlWCsOPvqq6/www8/mCovnhdxGzuRfU4iIvlBgZeIiIiIiEghYQMgGxjFzrNyBkOx27ByihODp5yhFO/bEKpv3754+OGHc50eeeQRUx1mJ4Ze9vj2NnbfpUqVQu3atc2+OfzRzrfrxp4X78dWdfG52HMTEclPCrxEREREREQKKYZGNiBiKMSrG7Zt2xbVq1c3y2yotC9czoCrRYsWqFOnTnTuPyFZ7MSQzE4MpmLv58R5dj6HT3K4I6vCeG5ses/95YbPwW7HYY7cxj4XHktEJL8o8BIRERERESkEGAbZSqfYWxsepaWlmYbyvFriZZddlmsQFYsN59lzi0HSa6+9ZoY57i+I4pSVlYUlS5Zg06ZNe4Yq5nYcrssrL3JdXn2RV21keMVm+bxy5L5wf9yW+2YAN3XqVNOUn5Ve9hxERPKDAi8REREREZECZIOd2KGJDICmT59uqqUGDx6855bTgw8+iJ07d2LVqlVmyCGrqbg9m8CzcTyv3Dhv3jwsWLDATHy8evVqE0hxSCLXsUEXG9Yz/Lrlllv2OtaTTz6JlJQU7N692zSZ/+abb/acI/fFfc6fP99MvL9x40Z8/PHHGDt2LGbPnm2GQfIc7HFigzX7fO3QRU6xy3NWkcVWtNlteGvni4gcCAVeIiIiIiIiBcgGOAx5tm/fjilTpmDr1q0mBEpISDDLWTG1fv16sw6bvDMU4vxdu3aZoIs2b96MkSNHYtCgQaZ664YbbkD//v3N9Oabb5r9cX2GXGQDI+6Lwxx5y30tXLjQHItB2owZM7BhwwZTHcbtbUDGY3C/PAaP9cknn5hwjCEZq8LsLbGP16xZs8zz4vTjjz+a0I3nz8mGWwzT1q5da9b56aefMG3aNKSnp2PdunXmMUM+rstteC6xIZmIyL/x3OuI3hcREREp9Dg8h1+QTjrpJPNlLaePPvrI9Kpp0qRJdI6IFEUMOTjcjc3QGzZsGJ2bO1v9w98JRSkUYbgzfvx4U9nFKzDy9xavyMghgQyBjjvuONx6661m6N/MmTNNdRWHEHbs2BGNGzc2PbC4DbctWbKkGVrIaq0zzjjDrMMw67vvvjPLbVN5Ttw/f4d26dLFhGZbtmzB8ccfb0IyBk0Mstq0aYMjjzzSvKa1atVCp06dzDBH9tsaOnSoaWS/ePFiE9Txdy6rvHjMRo0amWGXrErj72OeN99HPkfO5/ky1GOo9fbbb2PixInmHBl2cWJYVqNGDbzxxhumQo3nynCObFBW2NlgD2BfMvdB/0zyZ5pXt2zatKl5XUUkb1ThJSIiIiIi8h/48ssvzTBAVk5VqVLFBCO8kiGDJVZMrVy5Ejt27MDy5ctNGPX111+bQMgGKMnJyWjZsqUJo+rXr2+CJAZVxx57rAkJYyuj/glhsiuw+A8HEyZMwLfffovTTz8dJ598Mm677TYTZvFc7LoMmbgvhlnlypVD+fLlccQRR5iqM1sFRvaWuC2rt3gezz77rBmGye04BPLPP/80wReDPj5mWPb0009j3LhxZiglnwcDtksuucSEZXY4pn0OIiIHSoGXiIiIiIhIAWPow4omVu6wWssON2TVF0OoUqVKmd5ZrILiOo899pgZSsiKKxv82Ftuy4b23JZVUZwfu4xDCt9//30TcjFMe+mll3DHHXeYaq4rr7wSZ599tjkXHoMBFdeJDZd4nyGZ7fHFIG7gwIH4+eefc6264jxuw+fAyjJWinXo0MEEZKwI43DHX3/9FT169DA9xBio1a1b19yy0oxXomRVU7169UwoxuclIpJXCrxEREREREQKGIcfMoBq1arVntCIjeCff/55M3SbQdAVV1xhqpzYGJ79sVh5lXMoNyufGESxkTxDtEmTJpnwyy4jhku8eiKDLG7P0IrDHO+++24zhJLrNWjQwAyF7NmzpwmbypYtu1dVFXuBcegjhyKyeqtPnz4moLJBXU7clufBAI7DHdkfjBViNWvWNOfDajQOi+RwRQ7VZHUXJz7XZcuWmeo1Vn/xeXHYpX0uIiIHSoGXiIiIiIhIAWOAxMolDt9j4MUQiY3g2buLYVK7du1M+MRKqsqVK6NixYomXGIAFVt9xSDss88+M0FUt27dTPUUe2Zxfxb7er3wwgtmuGOlSpVMX7BevXph8uTJpqLrueeeM320WH3FRvHss8U+WvY4mZmZe5rUc2I1GKvCGJLFnovFYzPI4nrXX3+9qSbj0EwOU2S1GgM6LrcN+hn+8bx5PqzoYtN8vibVqlUz++I5iYjklQIvERERERGRAsagx1Yt8T7DnwsvvND0s2LAxWonXjnx6KOPNkMZ2QOL69mKKt5nRdeHH36IDz74AGeddZbpBXbaaafhxRdfxDvvvGPWZXDEvmDcP295TIZNXMaAi2ETb+3EY3JIpb2qIochMuzi/hiS8ThsRs9wKjZUi8UqMi5j9Ror1YYNG4aHHnrIBHjs/cXKMFZ/8Vhcl835+XwvuuiiPdVuxGU8X3uVSVV5iUheKPASEREREREpQAxueFVFhlAMmYjhUpkyZUzfKlY4MVBiVRQDIA7v4zZcxmopDgXkYw4xXLBggWk4z8bzDMouu+wyc2VDO6yRcgumbJjF6i3e2omPuczi+S1cuND01mLl2fnnn4/27duboYrcb24hFLfnxOGLvBokz4/VYAzc+HzYZL906dKmMo3DHVnpxh5h27dv31PFRjw2j8FeYCIieaXAS0REREREpIAxnKpataq5amHOoYoMkRiGsbKJVVy2WTwDI4ZdHN5IDJEYgF177bUmQOL2XMZ57P8VWy2VE0Mmhk0M12KDLx6TFVg8P+6PzeRZocV9VqhQwcy/8847TTUaz5HHsOdt8fz5nBhW5VzGx82aNTPVXAy07rrrLrM/9hPjcEZWsjHg8vv9WLp0qTkee5fZbUVEDpQCLxERERERkQLE4IYB1bHHHotFixaZ/lsMjmy1FG/Zt4rD/G677TYTOA0dOtTc5y2vjsh92P1w6J8Ntxg0cdggwyi7TqzYiiyuy8oqG07ZgIrzlixZsqfaiwGUHV5I3DePwfW4DsUei8Ech1byyoy5hW7c15lnnonHH3/cVIw1b97cDH8877zzzDz2GmMDfzbv7927t2l2n/N5iIj8GwVeIiIiIiIiBYyhD/thVa9e3TSUZy8ti5VbDIJYzcUrJnJiVRQn3mcARAyBGCjZsIxTbHDGXl2smGJARZxvgyPOv+CCC9ClSxdzNUROLVu23DNx+CTP0QZZsfu2++/YsaO5siP3xSkxMdGsyzCM4RWvAJkz8LLb85zYHP/SSy/FddddZ6rUOByT1WWsNGOfMFarHXPMMeY8RETyyuX8QlJULiIiIkUGmzPzkvZsgGy/xMXiMJ5zzz3XfAkTkaKL1Ub8c87A45RTTonOzR0rjTjxd0LOgKUwiv0Ktnr1atPLij2yGDqx2orPYX9f02zgxHX293w5PJHDIVmhxdcmdjve57H2hctjzyHncWKX8bXncUqUKGFCr0N9D1asWGGuGtm1a1cTitnzJXtbGPE8OfF15eScNRJ83oM+Z75/gwYNMsFo9+7do3NF5EAV/r8NRERERERE4hBDkTp16uDGG280YZcNdnIGPAyQ7GSX22X7wwov9t3iEEOygYzdzu4vdv92+jd2X5zscVjZ9W/n9G+4P74mV199tQm7uL9D3aeIFE8KvERERERERP5DsYGODXjsvNzCnv0ti5VzPd7m3IaPGTLltL9tiKFY7Dr5hefC/dlzsrf5eQwRKR4UeImIiIiISJHG8IVVTEUlFOF5coptBM9bGyLZeblVWtnldp1/cyDr72tZzvPJifPtOdr19rXugeL+7JRzn4e674LAc+S5s+rN6/VwRnSJiBQ0BV4iIiIiIlKkMWCIDY9E/gs2nLOBnYehXXSZiBQ8BV4iIiIiIiIiIhJXdJVGEZF8sHXrVixZssRcTUfkcOJl39nYmEMl4pHt3bI/X375JX744Qc8+OCD+7xK48UXX/yvV3UTkcLNXqWRV/076qijonNFig/+nfj222/jggsu0FUaRQ6CCbx2BSIIhIFyCS54VXMpIpJnH330ET755BPUq1dPwynksMnIyDDB6tixY1GtWrXo3PjDMIvPkVf74hClWPzztX79erRr1w4PPPDAniuPxeIl3H///XfUrFkzOmdvvHT+VVddhTPPPDM6R0QKI/4j0scff4yZM2ciOTk5OlekeOGVPE844QQziUjemMCr19Q0rM+M4J1jSqBBKY1yFBHJq4kTJ2Lz5s246aabzJd0kcNhw4YN5tL1Y8aMMZdsj1c7duwwYRQruLp27Wr6oOSXlStXmoqR4cOHo27dutG5IiIiIhJvzCfI9FAETxyRpLBLROQQ8F/gRA6n4vIzVq5cObz11lt48cUXMXv27OjcQzdv3jz07t0bAwcOVNglIiIiEudMwjWuXQl0rhKfvUBERAoae458/s10fPzVVHz6tZ1+xkdf/oTMLH90LRHZFw5brF27Ns4//3w8//zzWL16teljcihYgfnSSy+Z/bVs2TI6V0RERETilQm8tvrDzgdJ81hERA4Rv5hXrFAaJ3c5Cqd0a2+m007sgCoVy3FhdC0R+Te9evXCSSedhLPPPtv03TpY6enpuPvuu1G/fn106NBBffZEREREigETePWfnYmxf/sR1vcwEZFDxsDLHwjiz7+W4I8//jLTokV/YMfOndE1RORAMJhi2HXNNdeYJvZpaWnRJXkzcuRIlCpVCjfccIPCLhEREZFiwgRefWt78dUGP1amqf+MiMihCgaD8Pv9GDFiBK66qh+uufpq3Hf/fdiwfoP6fInkUYkSJdCvXz+sWrUKP/30U56GNnLd119/3Wx7zz33mH2JiIiISPFgAq/BTZPwwXElUa+keSgiIocgGAwhIyMTDz38KCa+9jpemfgaHnzgEVSpWhWBYCC6VjyLILh7Fb7+cgpWpYbgT1mLqR99h/VpYaRt/BufvjweL094FVP+2BJdP4wF3/0fXnzhJXz051YzJ33Nd/juyx8xdcpH+GzeBmSGzGwpphITE83VKcePH4/vv/8+OvffzZo1Cx9++CGeeuoplC5dOjpXRERERIoDk3B5nf9P9rjgVpW/iMghY9P6rCw/Nm7agvUbtzoTbzcjNS0DoWBxGDsehn/DVAwd8hB+Wu9H6poZeOzGuzA/ZTc+fOEOjPp2BfyrvsEtdz2Mudsz8duEm3HP6GlIT1uJ54YMxrcrsrDjl7tw/cBb8fVyPwIhVcUJ0LZtWwwdOhTvvfceVqxYEZ27b0uXLjV9u26++WYTdmkoo4iIiEjxopIuEZF8Fg5HzLR1R7ozpZnbzdvZe8j5wu0qJs0SXW54PC54XC7nrnPfmbyeMLYtW4RfP/oI2466Fe89fTuaeVfi1cc+QqhHH5zesy+6lZmFZz+aj3CCDxUqtUHvi87HOe1qIskT3a8Ua506dcI555yDe++9Fzv30xOPDe6ffPJJXH755Tj++OMVdomIiIgUQwq8RETyWfnyZdH7zJNwQe9Tcf45p+yZzjv7ZJQvVza6VpyLRBBh2GUmD7zOLH9GMs67fRxuG3wmlj7ZA0d3uQxvfbcJGZEw/p7yDia++gYymlyG82uXRSDChuVeePS3lORw8sknmystPvDAA8jKyorO/Qd76A0ZMgR169bFeeedF50rIiIiIsWNvkqIiOQzhjxerwc+r/d/puJRaeKCp1xVVMtIx6ZNm7Bx9VJMjwCJyevw41tTUf3EKzHq+ZE4rvpOzNkGHN2xCpo27IX+gy9DtVAGslpUQXIohDBDs+geRSyv8+foyiuvREZGBl599VVzgQgrEAjg888/R4UKFUzPL49HpYEiIiIixZUCLxERyWduJFToggv7lsHD53XCY7OzcEaVSnBl1sApp7fAtL6d0aLLYLia3opHrumG6yZ+gyOX3ojWrU7AK2nNcFGL8kBiZVSpXA4J0T2KxCpZsiQeeughLFy4EJ9++ml0LjBz5kzcdNNNuPXWW9W3S0RERKSYc0Xycn1vERHJ1cSJE7Fx40YMHDgQSUlJ0bnFWzgUQCAYhsfrZWMzuL0+uCNhBAMBhDnU0e2Fj2MWXUAo4EcwHIHb44PP60YkHHAes1LOy8UStW7dOgwYMABjxoxBnTp1onOLL16FcfTo0aYxPfFqjCNHjtRrIyIiIiKq8BIRkcOD4VViYiK8Hg+8Pl/2lYDZvN6Zl5CQYIItm2Z5fAlmXTPP4XIz+FLYVdzxiqfsycVhi+zXxWGM6enpSEtLw+7du9GkSRPTmH7YsGGmSf25556LcuXKmWVch+tyG27LfXBf3KeIiIiIxD9VeImI5ANVeElBiJcKL370YADFnlt2soEU7zOg2rp1K3bt2rUnrOKtnWIf8/5vv/2GsmXLok2bNgiHw+bPIENVhqic7H17y1CsYsWK2SGrz2cmE8JG79vJ7da/C4qIiIgUVQq8RETyAQMvNmjn0CoFXnK4bNiwwTRjLyqBF6up1q9fj1WrVu01MaSKDZg4dJWPeWvnsQdXiRIlzLzYicvYjD7nfAZdnGwVF4MzWyFmgzQ7n1VfqampJjDjY052HU42fONx6tWrZ674aKdatWopCBMREREpAhR4iYjkg1deeQXffPMNunfvri/DctikpKRg0qRJ5uqEtWvXjs797zBg4vBBnhersdasWYPVq1fvmTZv3myumFijRg3UrFlzzy3DLFttxQCL921Vlg2+CgJDLYZbtmIs5y2fG0NGVtbxdu3atdi2bRuqVKliAkc78b1g1ViZMmVQqlQpXR1SREREpBBQ4CUikg/eeOMNvPPOOzjmmGMUeMlhw6qkn3/+Ga+99tp/FnixLxaDLYY/y5cvx4oVK0zVFocgsqdWo0aN0LhxYzNVr17d/HlgABR7W5TYyjFWh3HifQ5fXrp0Kf7++28sWbIEK1euNGEXK8AYgPE1YCUY3yNeUVJERERECp4CLxGRfMAhjaxmuemmmzSkUQ6b/2JIIwMehju//PIL5s6da6qeWM3Enlms1mrQoAHq169vwp2CqswqbFgpxgCQ4d+yZctMRRgr3lj5xoov9hbr1KkTmjVrBhevUOpMIiIiInJ4KfASEckHalovBaEgmtYz4Nq5c6f5eZ48eTI+/fRTE9D06NEDxx13nAm3+DPO4YjFNeD6NwzAOCQyMzPThGDTp0/Ht99+a4ZK9uzZ00wc6lm+fHlVhIqIiIgcJgq8RETygQIvKQiHM/BiSMMKLvaiY6N5atu2LTp37myqt9hbi/22VJ2UN/yYZXuFcSgow69p06aZ15PhYZcuXdC+fXvz2oqIiIhI/lHgJSKSDxR4SUHI78CLHwFYiTRjxgx8/PHH5gqFHKLI4XdHHXWUqeKS/McAbPbs2Zg1a5bpAcYQ8YwzzsCxxx5rfn+o6ktERETk0CnwEhHJBwq8pCDkZ+DFiqPFixfj7rvvNgHL8OHDTaWRKrgK3oIFCzBixAhz//bbbzdhIyvAREREROTg6Z8QRUREipn58+dj8ODBePXVV3HHHXfgrbfeUtj1H2rdurW5yuuwYcPw+eef45prrsHMmTOjS0VERETkYCjwEhERKSYyMjIwYcIEU03UtWtX3HvvvWYYXYkSJRR2/Yf42nP46DHHHINbb70Vp5xyCl588UW89NJLSE1Nja4lIiIiInmhwEtERKQYCIVCZigkrxb47rvv4vzzz0e5cuWiS6WwKFu2LC655BLzXn322WcYNWoU0tPTo0tFRERE5EAp8BIREYljbNW5a9cuPPTQQ6aSa/z48WpGXwTwveKQU95y2OmOHTuiS0RERETkQCjwEhERiWMMvF5//XUTmFx77bUoVapUdIkUdqzAu/nmm+Hz+TB69OjoXBERERE5EAq8RERE4tivv/6KWbNm4bHHHtMVRIsgvmd33XWXuQrshg0bonNFRERE5N8o8BIREYlTWVlZeP7559G7d28kJCRE50pRU758efTp0wdDhgwxFx4QERERkX+nwEtERCRObdq0yTRBb9OmTXSOFFVdunTBokWLTKWXiIiIiPw7BV4iIiJxKiUlBVWrVjUVQlK0sY/XkUceiXXr1kXniIiIiMj+KPASERGJU2lpaeYKjR6PJzpHiiqXy2VCr/nz50fniIiIiMj+KPASERGJU+FwGNu2bUMgEIjOkaIqFAph7ty55lZERERE/p0CLxERkTjldrvx5ZdfYunSpdE5UlTxSpsMLzU8VUREROTAKPASERGJY927d8c777yDv//+21R8SdESiUTMezd+/Hj07dsXiYmJ0SUiIiIisj8KvEREROIUw5LjjjsOnTp1wuWXX47FixdHl0hRwPePV2W8/vrrcfrpp6NKlSpmnoiIiIj8OwVeIiIicSwrKwvnnHMORo8ebSq9HnzwQSxfvjy6VAqrrVu34qmnnsIdd9yB++67D3369IkuEREREZEDocBLREQkzvEqjazyuummm1C/fn0MGzYMI0eOxKpVq5CSkqKqoUKA78GOHTuwcuVKvPbaa6aqq1q1arjnnntw7LHH6j0SERERySMFXiIiIsUEh8RdeOGFJlCpWLGiCVUef/xx/PTTTyb8Uo+vgsfXfM2aNfjiiy8wdOhQ3HjjjaY5/YQJE3DBBReYgNLlckXXFhEREZEDpcBLREQkjuUMS3jlxuTkZPTr1w9vvfUWTjzxRMyfP98MeWTgwqBl7ty5yMjIiG4h+Y3VWmxE//zzz5sAcvjw4fj999/Rq1cvvPnmm7jllltQpkwZ816JiIiIyMFxOR+6VCMvInKIJk6caJpLDxw4EElJSdG5Ivlr3bp1GDBgAMaMGYM6depE5+7bL7/8sqdvV6lSpaJz/xerjFhVxJ/hOXPmYMqUKVixYoVpeN+uXTs0a9YMZcuWRYkSJcykKwUeGL/fj9TUVHPLnlxLliwx78n06dPRuHFjnHLKKeb15WtbuXJleL3e6Jb/i/u45ppr0LZtWxOIiYiIiMj+KfASEckHCrykIBxM4PXEE0/gueeeQ6VKlaJz9y8QCJhwhRMrv1jtxWokflwoV66cmcqXL2/2x5CmXr16ptfU/sKa4oChId8fTlu2bMHatWuRlpZm7u/atcvc5/DE7t27o0WLFvD5fOZ3xYG+bnw/WrZsiUGDBqF///7RuSIiIiKyLwq8RETygQIvKQh5DbxmzJhhhsm9/vrrOPnkk6Nz8y4YDGL79u3m+KtXrzb9vthgnSEPhz7u3r3bDMGrWbMmSpYsiQYNGphKMD5mMMaheRxamXMie1tY2I9FvLX3+TztYzb5X79+vZnS09NNJRz/7PN1sFV0DAJLly69JxBkBVfDhg3NsoPFPmtXXXUV7r33Xlx88cXRuSIiIiKyLwq8RETygQIvKQgHE3i9/PLLJoxhc3pWYuVXwMQQiFMoFDJVTAyCGIRx2B4rwvjn4c8//zTzGzVqZKqbGAK1bt3anEP16tVNtRgDsgoVKuwJxXhFSU68z3mxfazs8pxslRTPJfZjDe9zXk723Bnk8ZZVbVyXVVgMsTZt2mQCPr5ufG58TrxltVvVqlVNmNexY0fUqFHDvA+8zwsC8NzsOed2ngeD57V06VLcf//9aNWqlQkTzz///OhSEREREdkXBV4iIvlAgZcUhLwGXr/++qsJaY444gjzM3rqqafinHPO2StEyi/8OBEbgtnbzMxMM23evNn8GWGoxBCM89jfipVinMcwjPMTEhJMgMXAiEEU/zwxmGIVGc+bIRmPxYlDBRmCcR5vuQ6Py33xMbe327ECjfOIoRaPwWGFPDaHC7IKi/vkLY/JII5DN7kd98ewkMEct7HBW2y4Zfedn3g+7MH26aefmqGMP//8swkK+/btG11DRERERPZFgZeISD5Q4CUF4WACr1mzZpltWHX18ccfm4DpggsuMBVX+2tkX5BsFRbDqaysLFNZxeCKYRQ/pvA+QyrifYZLdrmdRzaIYlhlcR4nzuOt/djD585Ay95nkFVY8Pnz/eIVG3fu3Ikrr7wSRx55JMaOHavAS0REROQAKfASEckHCrykIBxK4GWxYmj06NGmcfqjjz5qqqN41UWGQfLfYqXZhg0bTM+11157DePHj0fXrl3NMlarKfASEREROXD5P6ZBRERECi32f5oyZQr69OmDF198EbfeeitGjBiBadOmmVBFChb/3fGPP/7Agw8+iBtuuAHPPvss2rVrZ4LKLl26RNcSERERkbxS4CUiIhLHbD8ti5VcbLp+5plnYtiwYWa4XN26dfHGG2+YqwA+8sgj+P77700D+q1bt5peWyoGzx8MFNkMn1d25FUX77vvPpx33nmmcovN8C+77DIMHz4cp5122p4+ZLFsk30RERER+Xca0igikg80pFEKQl6HNP7yyy9maNxjjz1mmq/vCz8KMExhOMawa9y4cSaUOeaYY8zQxw4dOqBevXpm6CP3k5ycHN1S9odhIRvrsy/Ztm3bzFUrf/zxR3z55Zc48cQTTQXXRRddZBrf22b4+8J9cN1OnTrhtttui84VERERkX1R4CUikg8UeElBOJgeXvfeey9eeeUV0/vpQPGjAQMa/kzPnDkTW7ZsMc3T165du6cpfNOmTU1VUrNmzdCkSZNi/3PPBvp8f5YsWWKmhQsXmhCRlVqVK1c2t7Vq1TIXC+At34+89E1jeNa6dWszBPW6666LzhURERGRfVHgJSKSDxR4SUHIa+A1Y8YMM3SRfaE4dO5g8aMCK5VSUlL2BDt8zAoyhmAMYxISEkw1GH/+WQ3G86tUqZKpXGJIxuowO/Exw57CdGXEWHy+DKtYVcVhiPY+Jz5XNpdfvXq1mfj8f//9dzNUsVGjRmZiENimTRtUqFDBVMTxKpBly5aN7v3gvPfeexg1apT5HcNKLxERERHZPwVeIiL5QIGXFISDCbw+/PBD87PJXl3HH398dMmh4/BHGwbxlsHPpk2bsGbNGhP+2GonVoNxebVq1cxQyBo1apghfHYegzL2FGMAxnUZiPHPEO9znp1vP67YeXYbO49iP9Kkp6ebfld2ng2tiPNscMUALyMjwyzjNjt27DDH5/L169eb8+RyLmNPMx6Lz4GvPyu1GGox4KtZsya8Xu9eU37gubKB/fPPP4/atWujefPmuOCCC6JLRURERGRfFHiJiOQDBV5SEPIaeHFI4/z589GqVSuMHj0aPXv2xIUXXmgCpIJgwzAGRQyWGIoxPGKYtHv3bhMiMRxjBRSrx1j5xWXchoERh1EyYGKVFD+uMGRjIMV53IbBGedzH7xlFZWtGktNTTX7s73LGG7x2JxXvnx5c5/DDLkdg7Fy5cqZ9bic+7bhG4cjMlxj2MR9cV5B4WvG3y28gma/fv2wYMECMxSyb9++0TVEREREZF8UeImI5AMFXlIQDibwYnUQt2EoNHLkSNNbildi5PY2DPov2Y8hthrLXlXSBlE5xVZtWXY9BmCxGIzlnEcMtYjL7GTnFQYM61auXGn6dbVr185cTZOh2zPPPKPAS0REROQA/e+nQBEREYk7HHrHBvaDBw/G448/bq7099JLL5lhe/8lhlKcGDixqosVVBz6yICHlVY5J4Z0rOSKnVixxSnnfK6b2z64f048lu0xVhiw4m3ChAno378/xo4di7vuugsjRowwz0P/PikiIiKSNwq8REREigkGPCeccIJpYs8qIQ4rvP3223HLLbdg+vTp2Lx5857eV3J4sZKNwypZeTd79mzccccd5r3gkM1zzjnHVHN16dKlQIdQioiIiMQTBV4iIiLFDHtXMfhi0PXCCy/gxBNPNMMkeWXBG264ATNnztzTY0vhV/5hyGX7l3388ce4++67UbduXTz00EM499xz8fTTT2PIkCE4++yzC+0VLEVERESKCvXwEhHJB+rhJQXhUHp47Q9DLTaKZ7XR33//jUWLFmHp0qXYtm3bnisptm3bFq1btzZXI+RwQ/l3bJTP15KvKau4GHTxY1elSpXM74kWLVqgW7duZpglh3NyaOe+8P3hMEf18BIRERE5MAq8RETygQIvKQiHK/DKDYfWrVq1CmvWrMGyZctM4LJlyxbzuEqVKiYIa9q0KerVq2euZMhQzE6sTuK0vwCnKLMBIQMt3uctq+E2bdpkwq0NGzZgxYoVpvk8w0H24KpRowYaN25sAiu+ZvaqkAdKgZeIiIhI3ijwEhHJBwq8pCAUZOAVix8VODHc4S2Dr7/++gtTpkzBjBkzTLjD82nYsKEJc3ifIVijRo1M6MU+VKxgYvjDW06F6aqIOdlhnMFg0AxB5C0DJ4ZaWVlZWLt2ramAW716tVnO5z9nzhzz/Dt37mxCqT59+pgLBdim/LwS5KEEgAq8RERERPJGgZeISD5Q4CUF4b8KvP4NQyCGPykpKSYM27Vrl7llhZMNilgFxaCLfaw4j+twKB+vrsggiFdVZJhD9r79iMLlvM91cwZl7EfGqjLiOhyWade3WK3G41o8n7S0NDOft/Y+z9eeK8+Nz4fnzPMpWbKk2Yc9Z/45Z6jH6i0OUWzSpMkhBVr/RoGXiIiISN4o8BIRyQcKvKQgFNbAa1/4EYMhEYMjhkgMlHjLqihOnE+8z9CJPa448eqFXJdYbcWhggyTGGzZUIlXlOQyDp1k9ZTF8I0YQjGsIh4zOTnZBFc8J/4Z5cTKLQ4t5Hzuh+GVvW/3y6o0hl2cGHZx/n9BgZeIiIhI3ijwEhHJBwq8pCBmlWq/AAAWXUlEQVQUtcDrQPGjCMMrO2SSE4MyW6nF+Tmrtjhvf2JDMOL2dh7v2+CM8zjFLi+MFHiJiIiI5E3h/WQnIiIixQLDJg5VZPUUq7jY84uVVazK4i0rq2yFlZ1YjbW/KXZdTtye++PEUJrH4MRj8tiFOewSERERkbzTpzsREREREREREYkrCrxERERERERERCSuKPASEREREREREZG4osBLRERERERERETiigIvERERERERERGJKwq8REREREREREQkrijwEhERERERERGRuKLAS0RERERERERE4ooCLxERERERERERiSsKvERERERySM3IwLwly7Bu87boHBEREREpShR4iYiISLEVjkSwYes2TF+wGO9PnooJn36NUa+/h8vvHYmTbhyKCZ99FV1TRERERIoSBV4iIiJSLKWmZ+C59z/F+Xc8hF5DRuDK+0ZiwGPP4I5nX8aHk6diZ8puJHq80bVFREREpChR4CUiIiLFzpYdu3DrmBdwxzPjMW3e79i6c5cJwDKyshAMhc06ZUqWQKc2zc19ERERESlaFHiJiIhIscJga/Qb7+OFSZ9jd2YWIi4XEDtFIqhUrixu7nsOOrZsFt1KRERERIoSBV4iIiJSbLBn14RPv8Kz737kPHJlz4zhigDVKlXAgzdeiduvuBBJCQnRJSIiIiJSlCjwEhERkWJj+doNeOnjr0yVV04ulwvHt2uDj0bdi6vP6oHkRIVdIiIiIkWVAi8REREpFjKz/Hjhw8/w18o1ziegHB+BwmF0aN4Eo2+5AR1bNIPHo49IIiIiIkWZPs2JiIhIsfDHytUY++4n8AeD0TkxIsClPU7GkU0bmkovERERESnaFHiJiIhI3Nu8fSfufv5VZAb80TkxwhFUrlQeHVo1jc4QERERkaJOgZeIiIjEtUy/H+M/+gI/zpofnZNTBNUrVUCjWjWij0VERESkqFPgJSIiInErFA7j+5lz8dRbk5Ca8b+N6snjdqNZ3TooX7pUdI6IiIiIFHUKvERERCQupWVk4uWPv8KAkWOxbedO51NP7h97khN86NSqmbNYH4tERERE4oU+2YmIiEhcSc/MxIK/V6Df/aMw9OnxWLluIyL7aURfIikRrRrUiz4SERERkXigwEtERESKvEAwiNUbN+PbGXNw65gXccI1t+CD737ErrQ0YH9XXYxEUL1qFTStVzs6Q0RERETigQIvERERKZKC4RC27NiF97/7CSNemIgr7huJK+55DM+9+wm2p6YjtL+gy4pE0Kh2DVSrWD46Q0RERETigQIvERERKTKCoRBSMzKxcsMm3PjIM2jc5wpcPOJRPP7au/hh9nys376DXeiBA8i6DGe9Y9u0hNfjic4QERERkXigwEtEREQKvQ1bt+OLn3/DXeMmoOfAO9H2vH549ZMvsWt3KvyBAMKRSHTNPHC2qVKhPI5r00IN60VERETijD7diYiISKGVmeXHD7Pmod8Do3Hdw09i5MR3MNV5vCsrgABDLg5bPJChi/twzvGd0VIN60VERETijgIvERERKZT8wSCeeutDnHj1Lfjql5lYu3UbIqzE8noPfMjivkQiKFWyJC44tRtKlUiOzhQRERGReKHAS0RERAodVnYNHfMiHnn1LSDBF5174FzOfx53Ln25okMffR4PTj+uA9o1bWwei4iIiEh8UeAlIiIihUqm349x73+KFz78HClp6dG5ecDeXOXK4OhWTfcEXORxu1G3RjW4nHlN6tTC/dddjjKlSkaXioiIiEg8UeAlIiIihcqPcxbgwQlvmOBrr/5cDK/MFH28L8EQLupxEnampkZnOMJh1KhUARd1PwFN6tbGqEHXmdBLREREROKTAi8REREpUF/+MhP3v/Q6Hnj5DTz99iS89fUPWLB0Obbu2IUvpv+GO8dNwI7dqdlhFwOuUMh8YKlYtgxqVa2C8mVKwc1lwWD25CxnoGXWdW4b16+LkzociRUr1/4TmDnrXHFmd3Tv1B5vP3wXTu3ULnu+iIiIiMQlV8QRvS8iIgdp4sSJ2LhxIwYOHIikpKToXJH8tW7dOgwYMABjxoxBnTp1onP37ddff8WsWbPMNoXFjEV/4aaRz2Cmc+t2u80ww0SfD+VKl0RJ58/OtpQUbN2124RXJZMS0ax+XVzX+3Qc2bQhSiWXgNfjQTAUQkaWH+mZmdi4bTsWL1+FP1audrZLQVJCAm489yzM/mMp7hn7EkJejxnCeHSr5njt3qFoVKcmXIdwVcf/SiAQwNixY1G9enX07ds3OldERERE9kUVXiIiIlJgGFw92v8qdDmqNRK8XgSCIaRmZGDt5q34a/VabN2RYj6cHNHEWe+ma/DJ6PvR78zuaN+8KZrVq41GtWuYW+7nuCNa4pwTOmPY5X3x0vDB+OCxe/Dmg3egTaP6ePebyQh5sj/msE9X/wt6oWERDbtEREREJO8UeImIiEiBYch1fPu2eGbIANStXtWZE8kedhidkpIScF2fM/DWQ3fihnPPRI3KFeHx5HK1xSgObUzweVEiKQmlSySbCq9XPv0aS9duMPvzut24q9/F6H185+xhkCIiIiJSLCjwEhERkQKVmeXHV7/8hhXrN5jHbkRQvlQp01/rkyfux5jBN6J5vTpmuGNesEvDsrXr8cZX3yPg96NWlUp4/s5BGHRRb5RISoyuJSIiIiLFgQIvERERKVCLlq/EE29Ncj6EuNC2cQNc3+dMvPnQnWY44kntj4TP542umTccFvnYa++iRsUKuOOqi/HRyHtxaY+T4dtPhZiIiIiIxCcFXiIiIlKgqleqgEduvBKv3jcU//fAHXhy8A047Zj2qFCmtGlkf7B8Xi8uPPV4TLxvGO65+hK0a97EDHcUERERkeJHgZeIiIgUqFpVKqPfWafhglOOR6uG9ZDg80WXHJpqFcvjlKPboWaVSvvt+yUiIiIi8U+Bl4iIiBSItIxMM5wx0++Pzsnuu7V+yzasWL/R3M+reUuWYcuOXWx9v0+BYBCLl6/Cz/MXmmnOn0uRmp4RXQpkZGVh/tJl+Hmes9yZps1fhHWbt0SXioiIiEhRpMBLREREDrtQKIQfZs/HFSMew09zfo/OBbbs2IkhTz2Ph195E1mBYHQuEHTWDwRD5n4oHDZhGEMtc9+55bKUtHS8+dVkfDD5J4Sd+cT53JbsdjtSduOVz77GtHkLMX/pckyduxDPvPsR3vvuRxN2rd64BaNefw8Ll63An6tWY/GKVXjti+/w1tc/mLBMRERERIoeBV4iIiJy2GUGAvh53u+Yv3wl3v/+p+hcYObiJfhi+izM/mMJNmzZZuZt3L4Dk36Yire/+QELli7HN7/OxsZtO7A7LR3f/zYHS1atwbvfTcGfK9fg2DYt0bJBPbic/9Zt3op3vp2CD76fataZOncBdu5ONSFYUkICLu5xEq4753TceN5ZuLTnyfj6l1nOOS2CPxgw219+Rndc4UxXntkdZ3Y5Fm9/+wOy/AFzTiIiIiJStCjwEhERkcNud2oGfv97JW7ofSbWbNri3F+BzIAfn0z9Bacf1xEVy5XD32vXmWDrpsfH4qVPvsby9Rvw2MR3cOHwh/Hbwj+xauMm9B16H+4c9woWLVuF9Vu24u1vp+DVT7929rccfZ313vrmB1OlNWzsS7j24aewZPU6uFwucw4MtbweD3xeD6pXqojzTu6GWYv/QmZWALtS0/DTnAUmlPtx9gJ8OW0GjmraGF5nXREREREpehR4iYiIyGG3accOrFy/wVRWNapdA69/9T3m/7UcS1evw62XnodqFcpjwdIV+GHmPPyxcjUeG3A1Rlx1Cfqff5bp+RUMhxAOR5DhD+Lsbsfi/uuvwLFHtEJ6ZqYz+fHVr7OwdtNWTLznNtxzzWUYdFEf+APONpHsoY45edxulC9T0uw7FAojEAqZoY/bdznT7hSkpKezwZg5poiIiIgUPQq8RERE5LD7a+VqRFwu1KtRFad2aoevf5mJh155E83q1UarBvXQpnF9/DhnPjL8WaYKq2LZMqYyq2KZMvC4syu0KKlEEprWreWs4/6ncsv5NBOJhE2IValcWTOvaoXy8PliqrOcVe36xKBr6txFqFWlEpKTElDJOd5Z3Y7BmV2PxdndOuOGPmdi1l9/Y9O2HdEtRERERKQoUeAlIiIihx17dR3RuAFKJCWhXbMmqFKhvLli4umdjzZDDJvXr4vl6zeieb06qFe9qmliz35cL33yFdiPfk+4FRNaJfq8SE5MwOpNW0wfr6oVymLIUy/g7W+m4Ln3PzMN6TmMkVukZ2Riyeq1WLR8lekL9uEP07BkzVqc2qm9CdQy/H5n+XosW7sey9etd873L5RMSkTJEknZBxMRERGRIsVzryN6X0REDtL8+fORmpqKTp06wev1RueK5K/du3fjiy++QI8ePVC2bHYl0/6sXbsW69evR8eOHaNz/jscetjtqDZoUKMaSiQnoVHNGmjfrAlOO7aDaShfqkQyKpQpg3bNGqPzka2x0/nzlJKWgRb166BDy6bofERLVC5f1lRiHdOmJUo76ycm+FCuVElULFsaJ3dshy7Odlt27jLHatukIY5u2QztWjRBWWcdBlqbtu4wPcI2bN1m5l3S4yTUrFwJbhOiubB5+w6sd5at27wN/lAQfU89HnWqVt0rZPuv8CqUv/32G0qXLo1WrVpF54qIiIjIvrgivF63iIgckokTJ2Ljxo0YOHAgkpJUESKHx7p16zBgwACMGTMGderUic7dt19//RWzZs0y2/zXeKVEt9tlhh1SKBw2IY4vGhDz40gwFILH4zEVWYFgEGFnHoc3so8Wb5k7cT+sCLMhFLfhvhKc/fADDbfjJxsOeeQ+zf6cdYPO/FBMPy6eB/dDXI/7jf1IxN3z3ApD2EWBQABjx45F9erV0bdv3+hcEREREdkXDWkUERGRw47hkg27KDtw+qcaksESH7PaivcTfD5T+cWgK8HnzHfb+XuHUFye6KzLedyW95MSfGb+nv056/E+59vJhl1k98uKMTvx+LHHEREREZGiRYGXiIiIiIiIiIjEFQVeIiIiIiIiIiISVxR4iYiIiIiIiIhIXFHgJSIiIiIiIiIicUWBl4iIiIiIiIiIxBUFXiIiIiIiIiIiElcUeImIiIiIiIiISFxR4CUiIiIiIiIiInFFgZeIiIiIiIiIiMQVBV4iIiIiIiIiIhJXFHiJiIiIiIiIiEhcUeAlIiIiIiIiIiJxRYGXiIiIiIiIiIjEFQVeIiIiIiIiIiISVxR4iYiIiIiIiIhIXFHgJSIiIiIiIiIicUWBl4iIiIiIiIiIxBUFXiIiIiIiIiIiElcUeImIiIiIiIiISFxR4CUiIhLnIpFI9J4UZXofRURERA6cAi8REZE4lZycjN27dyM9PT06R4oqhl3Lli1DhQoVonNEREREZH8UeImIiMSpUqVKYfv27UhJSYnOkaIqFAph7ty5qFWrVnSOiIiIiOyPAi8REZE4VbVqVSxcuNBUBknRtnjxYoTDYdSpUyc6R0RERET2R4GXiIhInGKF16WXXopJkyZF50hR5Pf78f777+Pxxx9HiRIlonNFREREZH8UeImIiMSx3r17w+VyYfz48aZCSIoWDmV89dVXsXXrVnTt2hVutz66iYiIiBwIfWoSERGJY0lJSRg0aBC+/fZbzJw5MzpXigI2qp81axY++OAD3HXXXdG5IiIiInIgFHiJiIjEOTY6f+qpp/Daa6+ZW1YNSeEWDAbx5JNPmmnkyJGoV69edImIiIiIHAgFXiIiIsVAjRo1cOedd2L16tW46qqr8NdffyEQCESXSmHB94TvDSu6+F4x7GrTpk10qYiIiIgcKAVeIiIixUTNmjXx8MMP46yzzkL//v3xxhtvYNeuXWbonPy3+B7s3LkTH3/8MS6++GK0bdsWjz32GGrXrh1dQ0RERETyQoGXiIhIMcKeXmxk//LLL5tG6EOGDMEzzzyDVatWRdeQgrZu3To8++yzGDp0KJYuXWp6dvXt2xeJiYnRNUREREQkrxR4iYiIFEN169bFLbfcguHDh8Pn8+Hmm282Qx7nzZtnKo10RcfDh68tK+sWLlyIESNG4Prrrzc9uxh43Xbbbea94ZU1RUREROTguSIaxyAicsgmTpyIjRs3YuDAgaaCRuRwYCXQgAEDMGbMGNSpUyc699DwYwD7Rm3btg0//PCDGVJXrlw5dOrUCa1bt0aDBg1QoUKF6NpyKHbs2IEVK1ZgwYIF+OWXX5Camoru3bvjpJNOQuXKlZGQkBBdU0REREQOlQIvEZF8oMBLCsLhCLxyYqXRrFmz8P3332PLli3mio5seN+uXTs0b94c1atXh8fjMeuqCmnf+PGKlVwbNmzAH3/8gblz52Lt2rXmtatWrRq6dOliXlMNWxQRERE5PBR4iYjkAwVeUhAKIvCKlZmZiYyMDBPWfPHFF5g8ebIJubp162aqkjp27Ijk5GRTmcRhkcU1AONHKVbJ+f1+83oxMORrNWXKFBN6de3aFaeddhrat2+PkiVL6neEiIiISAFQ4CUikg8UeElBKOjAy2KVF8OvrKws0+h+8eLFWLRokRmex8CLQyDLli2LWrVqoUqVKqhataq5rVixItzu+GoXygBr+/bt2Lx5s5n4554Th4Sy91l6ejrq16+Pli1bokWLFmaoIqu4+HvBVsaJiIiIyOGnwEtEJB8o8JKCsH79evTv37/AA699YVUTQy8O2ePVBdmInUMiOZ+3DMoY+HAYJCcOjeRtiRIlTPjDijAGYpxi7xdUSMbwihM/CuV2n+EVhyTydbe3DLZ4rl6v11S18ZZhX6NGjcyQT/Y843wRERER+W8p8BIRyQc28OKV7hR4yeHCwOW/qPA6WAy8/vzzT8yZM8cMi+QtJ1aK1axZc6+J1WG8ZShWu3ZtE4wxTMrNgQyd3N/HGwZymzZtwpo1a8xryon3WUEXO7Eyq23btjjyyCPNdNRRR6Fp06ZqLi8iIiJSBCjwEhHJB+xvNGnSJDOMq7j2MZLDj8MK2Uh+1KhRpnKqKODHDFZLMfyylVN8HrxCISvCUlJSzG3O+1xO/PNk/0zldmvvk/1Is79be79UqVIoU6aMGY7JW06s1LK3pUuXNuF1bNWZrUoTERERkcJPgZeISD7gF3VWiHAYl8jhxCCmXr16BTbs77/EkIx/pmInO1ySE5fzMW+JgRSrwuxkhxzmnNRLS0RERCT+KfASEREREREREZG4Ev//PCwiIiIiIiIiIsWKAi8REREREREREYkrCrxERERERERERCSuKPASEREREREREZG4osBLRERERERERETiigIvERERERERERGJKwq8REREREREREQkrijwEhERERERERGRuKLAS0RERERERERE4ooCLxERERERERERiSsKvEREREREREREJK4o8BIRERERERERkbiiwEtEREREREREROKKAi8REREREREREYkrCrxERERERERERCSuKPASEREREREREZG4osBLRERERERERETiigIvERERERERERGJKwq8REREREREREQkrijwEhERERERERGRuKLAS0RERERERERE4ooCLxERERERERERiSsKvEREREREREREJK4o8BIRERERERERkTgC/D+Stw0BDMKeegAAAABJRU5ErkJggg==;" vertex="1" parent="1">
          <mxGeometry x="10" y="80" width="1212" height="807" as="geometry" />
        </mxCell>
        <mxCell id="_4vHy40W_RmtieLl1t3o-2" value="" style="shape=flexArrow;endArrow=classic;startArrow=classic;html=1;rounded=0;exitX=0.516;exitY=0.007;exitDx=0;exitDy=0;exitPerimeter=0;" edge="1" parent="1" source="_4vHy40W_RmtieLl1t3o-3">
          <mxGeometry width="100" height="100" relative="1" as="geometry">
            <mxPoint x="580" y="1010" as="sourcePoint" />
            <mxPoint x="577" y="1030" as="targetPoint" />
          </mxGeometry>
        </mxCell>
        <mxCell id="_4vHy40W_RmtieLl1t3o-3" value="" style="rounded=0;whiteSpace=wrap;html=1;" vertex="1" parent="1">
          <mxGeometry x="350" y="1190" width="440" height="420" as="geometry" />
        </mxCell>
        <mxCell id="_4vHy40W_RmtieLl1t3o-4" value="" style="rounded=0;whiteSpace=wrap;html=1;" vertex="1" parent="1">
          <mxGeometry x="374" y="1245" width="280" height="340" as="geometry" />
        </mxCell>
        <mxCell id="_4vHy40W_RmtieLl1t3o-5" value="" style="shape=image;verticalLabelPosition=bottom;labelBackgroundColor=default;verticalAlign=top;aspect=fixed;imageAspect=0;image=https://static-00.iconduck.com/assets.00/aws-ec2-icon-423x512-iaajemnx.png;" vertex="1" parent="1">
          <mxGeometry x="700" y="1220" width="63" height="76.26" as="geometry" />
        </mxCell>
        <mxCell id="_4vHy40W_RmtieLl1t3o-6" value="&lt;b style=&quot;font-size: 20px;&quot;&gt;유료보고서 작성&lt;br&gt;상담 예약 스케쥴러&lt;/b&gt;" style="text;html=1;strokeColor=none;fillColor=none;align=center;verticalAlign=middle;whiteSpace=wrap;rounded=0;" vertex="1" parent="1">
          <mxGeometry x="390" y="1280" width="240" height="30" as="geometry" />
        </mxCell>
      </root>
    </mxGraphModel>
  </diagram>
</mxfile>
